<!-- Generated by readme-aura https://github.com/collectioneur/readme-aura -->
<svg width="160" height="44" viewBox="0 0 160 44" xmlns="http://www.w3.org/2000/svg"><defs><pattern id="satori_pattern_id_0" x="0" y="0" width="1" height="1" patternUnits="objectBoundingBox"><linearGradient id="satori_biid_0" x1="-0.09267867518884361" y1="0.33701336432306833" x2="1.0926786751888435" y2="0.6629866356769316" spreadMethod="pad"><stop offset="0%" stop-color="#0d0008"/><stop offset="100%" stop-color="#1a0012"/></linearGradient><rect x="0" y="0" width="160" height="44" fill="url(#satori_biid_0)"/></pattern></defs><clipPath id="satori_cp-id"><path x="0" y="0" width="160" height="44" d="M14,0 h132 a14,14 0 0 1 14,14 v16 a14,14 0 0 1 -14,14 h-132 a14,14 0 0 1 -14,-14 v-16 a14,14 0 0 1 14,-14"/></clipPath><mask id="satori_om-id"><rect x="0" y="0" width="160" height="44" fill="#fff"/></mask><path x="0" y="0" width="160" height="44" fill="url(#satori_pattern_id_0)" d="M14,0 h132 a14,14 0 0 1 14,14 v16 a14,14 0 0 1 -14,14 h-132 a14,14 0 0 1 -14,-14 v-16 a14,14 0 0 1 14,-14"/><clipPath id="satori_cp-id-0" clip-path="url(#satori_cp-id)"><rect x="0" y="0" width="160" height="44"/></clipPath><mask id="satori_om-id-0"><rect x="0" y="0" width="160" height="44" fill="#fff" mask="url(#satori_om-id)"/></mask><svg x="0" y="0" width="160" height="44" preserveAspectRatio="none" clip-path="url(#satori_cp-id-0)" mask="url(#satori_om-id-0)"><defs><filter id="spf" x="-100%" y="-100%" width="300%" height="300%"><feGaussianBlur in="SourceGraphic" stdDeviation="10"></feGaussianBlur></filter></defs><rect x="0.5" y="0.5" width="159" height="43" rx="13.5" ry="13.5" fill="none" stroke="rgba(220,60,120,0.4)" stroke-width="1"></rect><path d="M 111 22 Q 135 22 111 44 L 151 44 A 9 10 0 0 1 171 34 L 171 10 A 9 10 0 0 1 151 0 Z" fill="rgba(220,60,130,0.6)" filter="url(#spf)"></path><ellipse cx="30" cy="22" rx="18" ry="15" fill="rgba(255,80,150,0.35)" filter="url(#spf)"></ellipse><g transform="translate(30, 22)"><g><g transform="scale(0.874) translate(-12, -11.93)"><path d="M17.625 1.499c-2.32 0-4.354 1.203-5.625 3.03-1.271-1.827-3.305-3.03-5.625-3.03C3.129 1.499 0 4.253 0 8.249c0 4.275 3.068 7.847 5.828 10.227a33.14 33.14 0 0 0 5.616 3.876l.028.017.008.003-.001.003c.163.085.342.126.521.125.179.001.358-.041.521-.125l-.001-.003.008-.003.028-.017a33.14 33.14 0 0 0 5.616-3.876C20.932 16.096 24 12.524 24 8.249c0-3.996-3.129-6.75-6.375-6.75z" fill="none" stroke="rgba(255,80,150,0.7)" stroke-width="1.5"></path></g><animateTransform attributeName="transform" type="scale" values="1;2.0" dur="2s" repeatCount="indefinite" calcMode="linear"></animateTransform><animate attributeName="opacity" values="0.7;0" dur="2s" repeatCount="indefinite" calcMode="linear"></animate></g></g><g transform="translate(30, 22)"><g><g transform="scale(0.874) translate(-12, -11.93)"><path d="M17.625 1.499c-2.32 0-4.354 1.203-5.625 3.03-1.271-1.827-3.305-3.03-5.625-3.03C3.129 1.499 0 4.253 0 8.249c0 4.275 3.068 7.847 5.828 10.227a33.14 33.14 0 0 0 5.616 3.876l.028.017.008.003-.001.003c.163.085.342.126.521.125.179.001.358-.041.521-.125l-.001-.003.008-.003.028-.017a33.14 33.14 0 0 0 5.616-3.876C20.932 16.096 24 12.524 24 8.249c0-3.996-3.129-6.75-6.375-6.75z" fill="none" stroke="rgba(255,80,150,0.7)" stroke-width="1.5"></path></g><animateTransform attributeName="transform" type="scale" values="1;2.0" dur="2s" repeatCount="indefinite" calcMode="linear" begin="0.67s"></animateTransform><animate attributeName="opacity" values="0.7;0" dur="2s" repeatCount="indefinite" calcMode="linear" begin="0.67s"></animate></g></g><g transform="translate(30, 22)"><g><g transform="scale(0.874) translate(-12, -11.93)"><path d="M17.625 1.499c-2.32 0-4.354 1.203-5.625 3.03-1.271-1.827-3.305-3.03-5.625-3.03C3.129 1.499 0 4.253 0 8.249c0 4.275 3.068 7.847 5.828 10.227a33.14 33.14 0 0 0 5.616 3.876l.028.017.008.003-.001.003c.163.085.342.126.521.125.179.001.358-.041.521-.125l-.001-.003.008-.003.028-.017a33.14 33.14 0 0 0 5.616-3.876C20.932 16.096 24 12.524 24 8.249c0-3.996-3.129-6.75-6.375-6.75z" fill="none" stroke="rgba(255,80,150,0.7)" stroke-width="1.5"></path></g><animateTransform attributeName="transform" type="scale" values="1;2.0" dur="2s" repeatCount="indefinite" calcMode="linear" begin="1.33s"></animateTransform><animate attributeName="opacity" values="0.7;0" dur="2s" repeatCount="indefinite" calcMode="linear" begin="1.33s"></animate></g></g><g transform="translate(30, 22)"><g><g transform="scale(0.874) translate(-12, -11.93)"><path d="M17.625 1.499c-2.32 0-4.354 1.203-5.625 3.03-1.271-1.827-3.305-3.03-5.625-3.03C3.129 1.499 0 4.253 0 8.249c0 4.275 3.068 7.847 5.828 10.227a33.14 33.14 0 0 0 5.616 3.876l.028.017.008.003-.001.003c.163.085.342.126.521.125.179.001.358-.041.521-.125l-.001-.003.008-.003.028-.017a33.14 33.14 0 0 0 5.616-3.876C20.932 16.096 24 12.524 24 8.249c0-3.996-3.129-6.75-6.375-6.75z" fill="none" stroke="rgba(255,80,150,1)" stroke-width="1.5"></path></g><animateTransform attributeName="transform" type="scale" values="0.85;1.0;0.85" dur="1.2s" repeatCount="indefinite"></animateTransform></g></g></svg><mask id="satori_om-id-0-0"><rect x="0" y="0" width="0" height="44" fill="#fff" mask="url(#satori_om-id)"/></mask><mask id="satori_om-id-0-0-0"><rect x="0" y="0" width="0" height="44" fill="#fff" mask="url(#satori_om-id)"/></mask><mask id="satori_om-id-0-0-0-0"><rect x="0" y="0" width="0" height="44" fill="#fff" mask="url(#satori_om-id)"/></mask><mask id="satori_om-id-0-1"><rect x="0" y="0" width="0" height="44" fill="#fff" mask="url(#satori_om-id)"/></mask><mask id="satori_om-id-0-2"><rect x="0" y="0" width="0" height="44" fill="#fff" mask="url(#satori_om-id)"/></mask><mask id="satori_om-id-0-3"><rect x="0" y="0" width="0" height="44" fill="#fff" mask="url(#satori_om-id)"/></mask><mask id="satori_om-id-0-4"><rect x="0" y="0" width="0" height="44" fill="#fff" mask="url(#satori_om-id)"/></mask><mask id="satori_om-id-0-4-0"><rect x="0" y="0" width="0" height="44" fill="#fff" mask="url(#satori_om-id)"/></mask><mask id="satori_om-id-0-4-0-0"><rect x="0" y="0" width="0" height="44" fill="#fff" mask="url(#satori_om-id)"/></mask><mask id="satori_om-id-0-4-0-0-0"><rect x="0" y="0" width="0" height="44" fill="#fff" mask="url(#satori_om-id)"/></mask><mask id="satori_om-id-0-4-0-1"><rect x="0" y="0" width="0" height="44" fill="#fff" mask="url(#satori_om-id)"/></mask><mask id="satori_om-id-0-4-0-2"><rect x="0" y="0" width="0" height="44" fill="#fff" mask="url(#satori_om-id)"/></mask><mask id="satori_om-id-0-5"><rect x="0" y="0" width="0" height="44" fill="#fff" mask="url(#satori_om-id)"/></mask><mask id="satori_om-id-0-5-0"><rect x="0" y="0" width="0" height="44" fill="#fff" mask="url(#satori_om-id)"/></mask><mask id="satori_om-id-0-5-0-0"><rect x="0" y="0" width="0" height="44" fill="#fff" mask="url(#satori_om-id)"/></mask><mask id="satori_om-id-0-5-0-0-0"><rect x="0" y="0" width="0" height="44" fill="#fff" mask="url(#satori_om-id)"/></mask><mask id="satori_om-id-0-5-0-1"><rect x="0" y="0" width="0" height="44" fill="#fff" mask="url(#satori_om-id)"/></mask><mask id="satori_om-id-0-5-0-2"><rect x="0" y="0" width="0" height="44" fill="#fff" mask="url(#satori_om-id)"/></mask><mask id="satori_om-id-0-6"><rect x="0" y="0" width="0" height="44" fill="#fff" mask="url(#satori_om-id)"/></mask><mask id="satori_om-id-0-6-0"><rect x="0" y="0" width="0" height="44" fill="#fff" mask="url(#satori_om-id)"/></mask><mask id="satori_om-id-0-6-0-0"><rect x="0" y="0" width="0" height="44" fill="#fff" mask="url(#satori_om-id)"/></mask><mask id="satori_om-id-0-6-0-0-0"><rect x="0" y="0" width="0" height="44" fill="#fff" mask="url(#satori_om-id)"/></mask><mask id="satori_om-id-0-6-0-1"><rect x="0" y="0" width="0" height="44" fill="#fff" mask="url(#satori_om-id)"/></mask><mask id="satori_om-id-0-6-0-2"><rect x="0" y="0" width="0" height="44" fill="#fff" mask="url(#satori_om-id)"/></mask><mask id="satori_om-id-0-7"><rect x="0" y="0" width="0" height="44" fill="#fff" mask="url(#satori_om-id)"/></mask><mask id="satori_om-id-0-7-0"><rect x="0" y="0" width="0" height="44" fill="#fff" mask="url(#satori_om-id)"/></mask><mask id="satori_om-id-0-7-0-0"><rect x="0" y="0" width="0" height="44" fill="#fff" mask="url(#satori_om-id)"/></mask><mask id="satori_om-id-0-7-0-0-0"><rect x="0" y="0" width="0" height="44" fill="#fff" mask="url(#satori_om-id)"/></mask><mask id="satori_om-id-0-7-0-1"><rect x="0" y="0" width="0" height="44" fill="#fff" mask="url(#satori_om-id)"/></mask><mask id="satori_om-id-1"><rect x="0" y="22" width="52" height="0" fill="#fff" mask="url(#satori_om-id)"/></mask><mask id="satori_om-id-2"><rect x="52" y="14" width="82" height="17" fill="#fff" mask="url(#satori_om-id)"/></mask><g mask="url(#satori_om-id)" clip-path="url(#satori_cp-id)"><path fill="#fafafa" d="M56.7 28.2L56.7 28.2Q55.4 28.2 54.5 27.8Q53.6 27.4 53.1 26.7Q52.6 25.9 52.6 24.8L52.6 24.8L54.6 24.8Q54.7 25.4 54.9 25.7Q55.2 26.0 55.6 26.2Q56.1 26.4 56.6 26.4L56.6 26.4Q57.2 26.4 57.6 26.2Q58.0 26.1 58.3 25.8Q58.5 25.5 58.5 25.1L58.5 25.1Q58.5 24.7 58.3 24.5Q58.1 24.3 57.7 24.1Q57.3 23.9 56.7 23.8L56.7 23.8L55.6 23.5Q54.3 23.2 53.6 22.5Q52.9 21.9 52.9 20.7L52.9 20.7Q52.9 19.8 53.4 19.1Q53.8 18.4 54.7 18.1Q55.6 17.7 56.7 17.7L56.7 17.7Q57.8 17.7 58.7 18.1Q59.5 18.5 60.0 19.1Q60.4 19.8 60.4 20.7L60.4 20.7L58.4 20.7Q58.4 20.1 57.9 19.8Q57.4 19.4 56.7 19.4L56.7 19.4Q56.1 19.4 55.8 19.6Q55.4 19.7 55.2 20.0Q55.0 20.3 55.0 20.6L55.0 20.6Q55.0 21.0 55.2 21.2Q55.4 21.5 55.8 21.6Q56.2 21.8 56.6 21.9L56.6 21.9L57.5 22.1Q58.2 22.3 58.7 22.5Q59.3 22.8 59.7 23.1Q60.1 23.5 60.4 24.0Q60.6 24.5 60.6 25.1L60.6 25.1Q60.6 26.0 60.1 26.7Q59.7 27.4 58.8 27.8Q57.9 28.2 56.7 28.2ZM64.1 30.9L62.0 30.9L62.0 20.4L64.1 20.4L64.1 21.6L64.2 21.6Q64.3 21.3 64.6 21.0Q64.8 20.7 65.3 20.5Q65.7 20.3 66.3 20.3L66.3 20.3Q67.2 20.3 67.9 20.7Q68.6 21.1 69.0 22.0Q69.4 22.9 69.4 24.2L69.4 24.2Q69.4 25.5 69.0 26.3Q68.6 27.2 67.9 27.7Q67.2 28.1 66.3 28.1L66.3 28.1Q65.7 28.1 65.3 27.9Q64.8 27.7 64.6 27.4Q64.3 27.1 64.2 26.8L64.2 26.8L64.1 26.8L64.1 30.9ZM65.7 26.5L65.7 26.5Q66.2 26.5 66.6 26.2Q67.0 25.9 67.1 25.4Q67.3 24.9 67.3 24.2L67.3 24.2Q67.3 23.5 67.1 23.0Q67.0 22.5 66.6 22.2Q66.2 21.9 65.7 21.9L65.7 21.9Q65.2 21.9 64.8 22.2Q64.4 22.5 64.2 23.0Q64.0 23.5 64.0 24.2L64.0 24.2Q64.0 24.9 64.2 25.4Q64.4 25.9 64.8 26.2Q65.2 26.5 65.7 26.5ZM74.3 28.2L74.3 28.2Q73.1 28.2 72.3 27.7Q71.5 27.2 71.0 26.3Q70.5 25.4 70.5 24.2L70.5 24.2Q70.5 23.0 71.0 22.1Q71.5 21.3 72.3 20.8Q73.1 20.3 74.3 20.3L74.3 20.3Q75.4 20.3 76.3 20.8Q77.1 21.3 77.6 22.1Q78.0 23.0 78.0 24.2L78.0 24.2Q78.0 25.4 77.6 26.3Q77.1 27.2 76.3 27.7Q75.4 28.2 74.3 28.2ZM74.3 26.5L74.3 26.5Q74.8 26.5 75.2 26.2Q75.6 25.9 75.8 25.4Q75.9 24.9 75.9 24.2L75.9 24.2Q75.9 23.5 75.8 23.0Q75.6 22.5 75.2 22.2Q74.8 21.9 74.3 21.9L74.3 21.9Q73.7 21.9 73.4 22.2Q73.0 22.5 72.8 23.0Q72.6 23.5 72.6 24.2L72.6 24.2Q72.6 24.9 72.8 25.4Q73.0 25.9 73.4 26.2Q73.7 26.5 74.3 26.5ZM81.5 23.6L81.5 23.6L81.5 28L79.5 28L79.5 20.4L81.4 20.4L81.4 21.9Q81.7 21.2 82.2 20.8L82.2 20.8Q82.8 20.3 83.8 20.3L83.8 20.3Q84.6 20.3 85.2 20.6Q85.8 21.0 86.1 21.6Q86.4 22.2 86.4 23.1L86.4 23.1L86.4 28L84.4 28L84.4 23.5Q84.4 22.8 84.0 22.4Q83.6 22.0 83.0 22.0L83.0 22.0Q82.6 22.0 82.2 22.2Q81.9 22.4 81.7 22.7Q81.5 23.1 81.5 23.6ZM91.2 28.2L91.2 28.2Q90.3 28.2 89.6 27.9Q88.9 27.6 88.4 27.1Q88.0 26.6 87.8 25.9L87.8 25.9L89.7 25.6Q89.9 26.1 90.3 26.4Q90.6 26.6 91.3 26.6L91.3 26.6Q91.9 26.6 92.2 26.4Q92.5 26.2 92.5 25.9L92.5 25.9Q92.5 25.6 92.3 25.4Q92.0 25.2 91.5 25.1L91.5 25.1L90.2 24.8Q89.1 24.6 88.6 24.0Q88.0 23.5 88.0 22.6L88.0 22.6Q88.0 21.9 88.4 21.4Q88.8 20.8 89.5 20.5Q90.3 20.3 91.2 20.3L91.2 20.3Q92.1 20.3 92.8 20.5Q93.5 20.8 93.9 21.2Q94.3 21.7 94.4 22.3L94.4 22.3L92.6 22.6Q92.5 22.2 92.2 22.0Q91.8 21.7 91.3 21.7L91.3 21.7Q90.8 21.7 90.4 21.9Q90.1 22.2 90.1 22.5L90.1 22.5Q90.1 22.8 90.3 23.0Q90.5 23.2 91.1 23.3L91.1 23.3L92.4 23.6Q93.5 23.8 94.1 24.3Q94.6 24.8 94.6 25.6L94.6 25.6Q94.6 26.4 94.2 27.0Q93.7 27.5 93.0 27.8Q92.2 28.2 91.2 28.2ZM99.4 28.2L99.4 28.2Q98.3 28.2 97.4 27.7Q96.6 27.2 96.1 26.3Q95.7 25.4 95.7 24.2L95.7 24.2Q95.7 23.0 96.1 22.1Q96.6 21.3 97.4 20.8Q98.3 20.3 99.4 20.3L99.4 20.3Q100.6 20.3 101.4 20.8Q102.3 21.3 102.7 22.1Q103.2 23.0 103.2 24.2L103.2 24.2Q103.2 25.4 102.7 26.3Q102.3 27.2 101.4 27.7Q100.6 28.2 99.4 28.2ZM99.4 26.5L99.4 26.5Q100.0 26.5 100.3 26.2Q100.7 25.9 100.9 25.4Q101.1 24.9 101.1 24.2L101.1 24.2Q101.1 23.5 100.9 23.0Q100.7 22.5 100.3 22.2Q100.0 21.9 99.4 21.9L99.4 21.9Q98.9 21.9 98.5 22.2Q98.1 22.5 98.0 23.0Q97.8 23.5 97.8 24.2L97.8 24.2Q97.8 24.9 98.0 25.4Q98.1 25.9 98.5 26.2Q98.9 26.5 99.4 26.5ZM106.6 28L104.6 28L104.6 20.4L106.6 20.4L106.6 21.7L106.7 21.7Q106.9 21.0 107.4 20.6Q107.9 20.3 108.5 20.3L108.5 20.3Q108.7 20.3 108.8 20.3Q109.0 20.3 109.2 20.3L109.2 20.3L109.2 22.2Q109.0 22.1 108.8 22.1Q108.5 22.1 108.3 22.1L108.3 22.1Q107.8 22.1 107.4 22.3Q107.1 22.5 106.9 22.8Q106.6 23.2 106.6 23.7L106.6 23.7L106.6 28Z M115.7 28L113.6 28L113.6 20.4L115.5 20.4L115.6 21.8Q115.8 21.4 116.0 21.1L116.0 21.1Q116.3 20.7 116.8 20.5Q117.3 20.2 117.8 20.2L117.8 20.2Q118.6 20.2 119.1 20.8L119.1 20.8Q119.5 21.2 119.7 22.0L119.7 22.0Q119.9 21.5 120.2 21.2L120.2 21.2Q120.6 20.7 121.1 20.5Q121.6 20.2 122.2 20.2L122.2 20.2Q122.9 20.2 123.5 20.5Q124.0 20.9 124.3 21.4Q124.6 22.0 124.6 22.8L124.6 22.8L124.6 28L122.6 28L122.6 23.2Q122.6 22.6 122.2 22.3Q121.9 22.0 121.4 22.0L121.4 22.0Q121.0 22.0 120.7 22.1Q120.4 22.3 120.3 22.6Q120.1 22.9 120.1 23.3L120.1 23.3L120.1 28L118.1 28L118.1 23.2Q118.1 22.6 117.8 22.3Q117.5 22.0 116.9 22.0L116.9 22.0Q116.6 22.0 116.3 22.1Q116.0 22.3 115.8 22.6Q115.7 22.9 115.7 23.4L115.7 23.4L115.7 28ZM129.8 28.2L129.8 28.2Q128.7 28.2 127.8 27.7Q127.0 27.2 126.5 26.3Q126.1 25.4 126.1 24.2L126.1 24.2Q126.1 23.0 126.5 22.1Q127.0 21.3 127.8 20.8Q128.6 20.3 129.7 20.3L129.7 20.3Q130.5 20.3 131.1 20.5Q131.8 20.7 132.3 21.2Q132.8 21.7 133.1 22.4Q133.3 23.2 133.3 24.1L133.3 24.1L133.3 24.7L128.1 24.7Q128.1 25.3 128.3 25.7L128.3 25.7Q128.5 26.2 128.9 26.4Q129.3 26.6 129.9 26.6L129.9 26.6Q130.2 26.6 130.5 26.5Q130.8 26.4 131.0 26.2Q131.2 26.0 131.4 25.7L131.4 25.7L133.2 26.1Q133.0 26.7 132.6 27.2Q132.1 27.6 131.4 27.9Q130.7 28.2 129.8 28.2ZM128.1 23.4L128.1 23.4L131.4 23.4Q131.3 23.0 131.2 22.7L131.2 22.7Q131.0 22.3 130.6 22.0Q130.3 21.8 129.8 21.8L129.8 21.8Q129.2 21.8 128.9 22.1Q128.5 22.3 128.3 22.7L128.3 22.7Q128.1 23.0 128.1 23.4Z "/></g></svg>