<!-- Generated by readme-aura https://github.com/collectioneur/readme-aura -->
<svg width="260" height="60" viewBox="0 0 260 60" xmlns="http://www.w3.org/2000/svg"><defs><pattern id="satori_pattern_id_0" x="0" y="0" width="1" height="1" patternUnits="objectBoundingBox"><linearGradient id="satori_biid_0" x1="-0.08426966292134823" y1="0.36516853932584303" x2="1.0842696629213484" y2="0.634831460674157" spreadMethod="pad"><stop offset="0%" stop-color="#120000"/><stop offset="100%" stop-color="#200808"/></linearGradient><rect x="0" y="0" width="260" height="60" fill="url(#satori_biid_0)"/></pattern></defs><clipPath id="satori_cp-id"><path x="0" y="0" width="260" height="60" d="M14,0 h232 a14,14 0 0 1 14,14 v32 a14,14 0 0 1 -14,14 h-232 a14,14 0 0 1 -14,-14 v-32 a14,14 0 0 1 14,-14"/></clipPath><mask id="satori_om-id"><rect x="0" y="0" width="260" height="60" fill="#fff"/></mask><path x="0" y="0" width="260" height="60" fill="url(#satori_pattern_id_0)" d="M14,0 h232 a14,14 0 0 1 14,14 v32 a14,14 0 0 1 -14,14 h-232 a14,14 0 0 1 -14,-14 v-32 a14,14 0 0 1 14,-14"/><clipPath id="satori_cp-id-0" clip-path="url(#satori_cp-id)"><rect x="0" y="0" width="260" height="60"/></clipPath><mask id="satori_om-id-0"><rect x="0" y="0" width="260" height="60" fill="#fff" mask="url(#satori_om-id)"/></mask><svg x="0" y="0" width="260" height="60" preserveAspectRatio="none" clip-path="url(#satori_cp-id-0)" mask="url(#satori_om-id-0)"><defs><filter id="rbf" x="-100%" y="-100%" width="300%" height="300%"><feGaussianBlur in="SourceGraphic" stdDeviation="10"></feGaussianBlur></filter></defs><rect x="0.5" y="0.5" width="259" height="59" rx="13.5" ry="13.5" fill="none" stroke="rgba(200,40,40,0.4)" stroke-width="1"></rect><path d="M 180 30 Q 220 30 180 60 L 246 60 A 14 14 0 0 1 278 46 L 278 34 A 14 34 0 0 1 246 0 Z" fill="rgba(200,40,40,0.6)" filter="url(#rbf)"></path><circle cx="36" cy="30" r="4" fill="none" stroke="rgba(255,60,60,0.7)" stroke-width="3"><animate attributeName="r" values="4;28" dur="2s" repeatCount="indefinite" calcMode="linear"></animate><animate attributeName="opacity" values="0.7;0" dur="2s" repeatCount="indefinite" calcMode="linear"></animate></circle><circle cx="36" cy="30" r="4" fill="none" stroke="rgba(255,60,60,0.7)" stroke-width="3"><animate attributeName="r" values="4;28" dur="2s" repeatCount="indefinite" calcMode="linear" begin="0.67s"></animate><animate attributeName="opacity" values="0.7;0" dur="2s" repeatCount="indefinite" calcMode="linear" begin="0.67s"></animate></circle><circle cx="36" cy="30" r="4" fill="none" stroke="rgba(255,60,60,0.7)" stroke-width="3"><animate attributeName="r" values="4;28" dur="2s" repeatCount="indefinite" calcMode="linear" begin="1.33s"></animate><animate attributeName="opacity" values="0.7;0" dur="2s" repeatCount="indefinite" calcMode="linear" begin="1.33s"></animate></circle><circle cx="36" cy="30" r="4" fill="rgba(255,60,60,1)"><animate attributeName="r" values="2.5;4;2.5" dur="1s" repeatCount="indefinite"></animate></circle><circle cx="36" cy="30" r="3" fill="rgba(255,100,100,1)"></circle></svg><mask id="satori_om-id-0-0"><rect x="0" y="0" width="0" height="60" fill="#fff" mask="url(#satori_om-id)"/></mask><mask id="satori_om-id-0-0-0"><rect x="0" y="0" width="0" height="60" fill="#fff" mask="url(#satori_om-id)"/></mask><mask id="satori_om-id-0-0-0-0"><rect x="0" y="0" width="0" height="60" fill="#fff" mask="url(#satori_om-id)"/></mask><mask id="satori_om-id-0-1"><rect x="0" y="0" width="0" height="60" fill="#fff" mask="url(#satori_om-id)"/></mask><mask id="satori_om-id-0-2"><rect x="0" y="0" width="0" height="60" fill="#fff" mask="url(#satori_om-id)"/></mask><mask id="satori_om-id-0-3"><rect x="0" y="0" width="0" height="60" fill="#fff" mask="url(#satori_om-id)"/></mask><mask id="satori_om-id-0-3-0"><rect x="0" y="0" width="0" height="60" fill="#fff" mask="url(#satori_om-id)"/></mask><mask id="satori_om-id-0-3-1"><rect x="0" y="0" width="0" height="60" fill="#fff" mask="url(#satori_om-id)"/></mask><mask id="satori_om-id-0-4"><rect x="0" y="0" width="0" height="60" fill="#fff" mask="url(#satori_om-id)"/></mask><mask id="satori_om-id-0-4-0"><rect x="0" y="0" width="0" height="60" fill="#fff" mask="url(#satori_om-id)"/></mask><mask id="satori_om-id-0-4-1"><rect x="0" y="0" width="0" height="60" fill="#fff" mask="url(#satori_om-id)"/></mask><mask id="satori_om-id-0-5"><rect x="0" y="0" width="0" height="60" fill="#fff" mask="url(#satori_om-id)"/></mask><mask id="satori_om-id-0-5-0"><rect x="0" y="0" width="0" height="60" fill="#fff" mask="url(#satori_om-id)"/></mask><mask id="satori_om-id-0-5-1"><rect x="0" y="0" width="0" height="60" fill="#fff" mask="url(#satori_om-id)"/></mask><mask id="satori_om-id-0-6"><rect x="0" y="0" width="0" height="60" fill="#fff" mask="url(#satori_om-id)"/></mask><mask id="satori_om-id-0-6-0"><rect x="0" y="0" width="0" height="60" fill="#fff" mask="url(#satori_om-id)"/></mask><mask id="satori_om-id-0-7"><rect x="0" y="0" width="0" height="60" fill="#fff" mask="url(#satori_om-id)"/></mask><mask id="satori_om-id-1"><rect x="0" y="30" width="60" height="0" fill="#fff" mask="url(#satori_om-id)"/></mask><mask id="satori_om-id-2"><rect x="60" y="13" width="200" height="34" fill="#fff" mask="url(#satori_om-id)"/></mask><g mask="url(#satori_om-id)" clip-path="url(#satori_cp-id)"><path fill="#fafafa" d="M65.2 27L60.9 27L60.9 16.8L65.0 16.8Q66.1 16.8 66.8 17.2Q67.6 17.5 68.0 18.1Q68.3 18.7 68.3 19.4L68.3 19.4Q68.3 20.0 68.1 20.5Q67.8 20.9 67.4 21.2Q67.0 21.5 66.5 21.6L66.5 21.6L66.5 21.7Q67.1 21.7 67.6 22.0Q68.1 22.4 68.4 22.9Q68.7 23.4 68.7 24.2L68.7 24.2Q68.7 25.0 68.3 25.6Q67.9 26.3 67.2 26.6Q66.4 27 65.2 27L65.2 27ZM63.0 22.5L63.0 25.3L64.8 25.3Q65.7 25.3 66.2 24.9Q66.6 24.6 66.6 24.0L66.6 24.0Q66.6 23.6 66.4 23.2Q66.2 22.9 65.8 22.7Q65.4 22.5 64.9 22.5L64.9 22.5L63.0 22.5ZM63.0 18.5L63.0 21.1L64.7 21.1Q65.1 21.1 65.5 20.9Q65.8 20.8 66.0 20.5Q66.2 20.2 66.2 19.8L66.2 19.8Q66.2 19.2 65.8 18.9Q65.4 18.5 64.7 18.5L64.7 18.5L63.0 18.5ZM73.1 27.1L73.1 27.1Q72.3 27.1 71.7 26.8Q71.1 26.4 70.8 25.8Q70.4 25.1 70.4 24.2L70.4 24.2L70.4 19.4L72.5 19.4L72.5 23.9Q72.5 24.6 72.9 25.0Q73.2 25.4 73.9 25.4L73.9 25.4Q74.3 25.4 74.6 25.2Q75.0 25.0 75.2 24.6Q75.4 24.3 75.4 23.8L75.4 23.8L75.4 19.4L77.4 19.4L77.4 27L75.5 27L75.4 25.4Q75.2 26.1 74.6 26.6L74.6 26.6Q74.0 27.1 73.1 27.1ZM81.5 27L79.5 27L79.5 19.4L81.5 19.4L81.5 27ZM80.5 18.4L80.5 18.4Q80.0 18.4 79.7 18.1Q79.4 17.7 79.4 17.3L79.4 17.3Q79.4 16.9 79.7 16.6Q80.0 16.3 80.5 16.3L80.5 16.3Q80.9 16.3 81.3 16.6Q81.6 16.9 81.6 17.3L81.6 17.3Q81.6 17.7 81.3 18.1Q80.9 18.4 80.5 18.4ZM83.5 16.8L85.6 16.8L85.6 27L83.5 27L83.5 16.8ZM90.0 19.4L91.4 19.4L91.4 20.9L90.0 20.9L90.0 24.8Q90.0 25.1 90.2 25.3Q90.3 25.5 90.7 25.5L90.7 25.5Q90.8 25.5 91.0 25.4Q91.2 25.4 91.4 25.4L91.4 25.4L91.6 26.9Q91.3 27.0 91.0 27.1Q90.6 27.1 90.3 27.1L90.3 27.1Q89.2 27.1 88.6 26.5Q88.0 26.0 88.0 24.9L88.0 24.9L88.0 20.9L86.9 20.9L86.9 19.4L88.0 19.4L88.0 17.5L90.0 17.5L90.0 19.4Z M99.9 27.2L99.9 27.2Q99.0 27.2 98.3 26.9Q97.6 26.6 97.1 26.1Q96.7 25.6 96.5 24.9L96.5 24.9L98.4 24.6Q98.6 25.1 99.0 25.4Q99.3 25.6 100.0 25.6L100.0 25.6Q100.6 25.6 100.9 25.4Q101.2 25.2 101.2 24.9L101.2 24.9Q101.2 24.6 101.0 24.4Q100.8 24.2 100.3 24.1L100.3 24.1L98.9 23.8Q97.8 23.6 97.3 23.0Q96.7 22.5 96.7 21.6L96.7 21.6Q96.7 20.9 97.1 20.4Q97.5 19.8 98.3 19.5Q99.0 19.3 99.9 19.3L99.9 19.3Q100.8 19.3 101.5 19.5Q102.2 19.8 102.6 20.2Q103.0 20.7 103.1 21.3L103.1 21.3L101.3 21.6Q101.2 21.2 100.9 21.0Q100.5 20.7 100.0 20.7L100.0 20.7Q99.5 20.7 99.1 20.9Q98.8 21.2 98.8 21.5L98.8 21.5Q98.8 21.8 99.0 22.0Q99.2 22.2 99.8 22.3L99.8 22.3L101.1 22.6Q102.2 22.8 102.8 23.3Q103.3 23.8 103.3 24.6L103.3 24.6Q103.3 25.4 102.9 26.0Q102.5 26.5 101.7 26.8Q100.9 27.2 99.9 27.2ZM108.4 27.2L108.4 27.2Q107.3 27.2 106.4 26.7Q105.6 26.2 105.1 25.3Q104.7 24.4 104.7 23.2L104.7 23.2Q104.7 22.0 105.1 21.1Q105.6 20.3 106.4 19.8Q107.3 19.3 108.4 19.3L108.4 19.3Q109.6 19.3 110.4 19.8Q111.3 20.3 111.7 21.1Q112.2 22.0 112.2 23.2L112.2 23.2Q112.2 24.4 111.7 25.3Q111.3 26.2 110.4 26.7Q109.6 27.2 108.4 27.2ZM108.4 25.5L108.4 25.5Q109.0 25.5 109.3 25.2Q109.7 24.9 109.9 24.4Q110.1 23.9 110.1 23.2L110.1 23.2Q110.1 22.5 109.9 22.0Q109.7 21.5 109.3 21.2Q109.0 20.9 108.4 20.9L108.4 20.9Q107.9 20.9 107.5 21.2Q107.2 21.5 107.0 22.0Q106.8 22.5 106.8 23.2L106.8 23.2Q106.8 23.9 107.0 24.4Q107.2 24.9 107.5 25.2Q107.9 25.5 108.4 25.5ZM116.0 27L113.9 27L113.9 19.4L115.8 19.4L115.9 20.8Q116.0 20.4 116.3 20.1L116.3 20.1Q116.6 19.7 117.1 19.5Q117.6 19.2 118.1 19.2L118.1 19.2Q118.9 19.2 119.4 19.8L119.4 19.8Q119.8 20.2 120.0 21.0L120.0 21.0Q120.2 20.5 120.5 20.2L120.5 20.2Q120.8 19.7 121.4 19.5Q121.9 19.2 122.5 19.2L122.5 19.2Q123.2 19.2 123.7 19.5Q124.3 19.9 124.6 20.4Q124.9 21.0 124.9 21.8L124.9 21.8L124.9 27L122.9 27L122.9 22.2Q122.9 21.6 122.5 21.3Q122.2 21.0 121.7 21.0L121.7 21.0Q121.3 21.0 121.0 21.1Q120.7 21.3 120.6 21.6Q120.4 21.9 120.4 22.3L120.4 22.3L120.4 27L118.4 27L118.4 22.2Q118.4 21.6 118.1 21.3Q117.8 21.0 117.2 21.0L117.2 21.0Q116.9 21.0 116.6 21.1Q116.3 21.3 116.1 21.6Q116.0 21.9 116.0 22.4L116.0 22.4L116.0 27ZM130.4 27.2L130.4 27.2Q129.3 27.2 128.4 26.7Q127.6 26.2 127.1 25.3Q126.7 24.4 126.7 23.2L126.7 23.2Q126.7 22.0 127.1 21.1Q127.6 20.3 128.4 19.8Q129.2 19.3 130.3 19.3L130.3 19.3Q131.1 19.3 131.7 19.5Q132.4 19.7 132.9 20.2Q133.4 20.7 133.6 21.4Q133.9 22.2 133.9 23.1L133.9 23.1L133.9 23.7L128.7 23.7Q128.7 24.3 128.9 24.7L128.9 24.7Q129.1 25.2 129.5 25.4Q129.9 25.6 130.5 25.6L130.5 25.6Q130.8 25.6 131.1 25.5Q131.4 25.4 131.6 25.2Q131.8 25.0 131.9 24.7L131.9 24.7L133.8 25.1Q133.6 25.7 133.2 26.2Q132.7 26.6 132.0 26.9Q131.3 27.2 130.4 27.2ZM128.7 22.4L128.7 22.4L131.9 22.4Q131.9 22.0 131.8 21.7L131.8 21.7Q131.6 21.3 131.2 21.0Q130.9 20.8 130.3 20.8L130.3 20.8Q129.8 20.8 129.4 21.1Q129.1 21.3 128.9 21.7L128.9 21.7Q128.7 22.0 128.7 22.4ZM138.0 19.4L139.4 19.4L139.4 20.9L138.0 20.9L138.0 24.8Q138.0 25.1 138.1 25.3Q138.3 25.5 138.7 25.5L138.7 25.5Q138.8 25.5 139.0 25.4Q139.2 25.4 139.3 25.4L139.3 25.4L139.6 26.9Q139.3 27.0 138.9 27.1Q138.6 27.1 138.3 27.1L138.3 27.1Q137.1 27.1 136.5 26.5Q135.9 26.0 135.9 24.9L135.9 24.9L135.9 20.9L134.9 20.9L134.9 19.4L135.9 19.4L135.9 17.5L138.0 17.5L138.0 19.4ZM143.1 22.6L143.1 22.6L143.1 27L141.0 27L141.0 16.8L143.1 16.8L143.1 20.8Q143.3 20.2 143.8 19.8L143.8 19.8Q144.4 19.3 145.4 19.3L145.4 19.3Q146.2 19.3 146.8 19.6Q147.4 20.0 147.7 20.6Q148.0 21.2 148.0 22.1L148.0 22.1L148.0 27L146.0 27L146.0 22.5Q146.0 21.8 145.6 21.4Q145.2 21.0 144.6 21.0L144.6 21.0Q144.1 21.0 143.8 21.2Q143.5 21.4 143.3 21.7Q143.1 22.1 143.1 22.6ZM152.1 27L150.1 27L150.1 19.4L152.1 19.4L152.1 27ZM151.1 18.4L151.1 18.4Q150.6 18.4 150.3 18.1Q150.0 17.7 150.0 17.3L150.0 17.3Q150.0 16.9 150.3 16.6Q150.6 16.3 151.1 16.3L151.1 16.3Q151.6 16.3 151.9 16.6Q152.2 16.9 152.2 17.3L152.2 17.3Q152.2 17.7 151.9 18.1Q151.6 18.4 151.1 18.4ZM156.2 22.6L156.2 22.6L156.2 27L154.2 27L154.2 19.4L156.1 19.4L156.1 20.9Q156.4 20.2 156.9 19.8L156.9 19.8Q157.5 19.3 158.5 19.3L158.5 19.3Q159.3 19.3 159.9 19.6Q160.5 20.0 160.8 20.6Q161.1 21.2 161.1 22.1L161.1 22.1L161.1 27L159.1 27L159.1 22.5Q159.1 21.8 158.7 21.4Q158.3 21.0 157.7 21.0L157.7 21.0Q157.3 21.0 156.9 21.2Q156.6 21.4 156.4 21.7Q156.2 22.1 156.2 22.6ZM166.6 30.0L166.6 30.0Q165.6 30.0 164.9 29.8Q164.2 29.5 163.7 29.1Q163.3 28.7 163.1 28.1L163.1 28.1L164.9 27.7Q165.0 27.9 165.2 28.1Q165.4 28.3 165.7 28.4Q166.1 28.5 166.6 28.5L166.6 28.5Q167.3 28.5 167.8 28.2Q168.2 27.8 168.2 27.1L168.2 27.1L168.2 25.6L168.1 25.6Q167.9 26.0 167.7 26.2Q167.4 26.5 167.0 26.7Q166.6 26.9 166.0 26.9L166.0 26.9Q165.1 26.9 164.4 26.5Q163.7 26.1 163.3 25.3Q162.8 24.4 162.8 23.2L162.8 23.2Q162.8 21.9 163.3 21.0Q163.7 20.1 164.4 19.7Q165.1 19.3 166.0 19.3L166.0 19.3Q166.6 19.3 167.0 19.5Q167.5 19.7 167.8 20.0Q168.0 20.3 168.2 20.6L168.2 20.6L168.2 20.6L168.2 19.4L170.3 19.4L170.3 26.9Q170.3 28.0 169.8 28.7Q169.3 29.3 168.5 29.7Q167.6 30.0 166.6 30.0ZM166.6 25.3L166.6 25.3Q167.1 25.3 167.5 25.1Q167.9 24.8 168.1 24.3Q168.2 23.8 168.2 23.2L168.2 23.2Q168.2 22.5 168.1 22.0Q167.9 21.5 167.5 21.2Q167.1 20.9 166.6 20.9L166.6 20.9Q166.1 20.9 165.7 21.2Q165.3 21.5 165.1 22.0Q165.0 22.5 165.0 23.2L165.0 23.2Q165.0 23.8 165.1 24.3Q165.3 24.8 165.7 25.1Q166.1 25.3 166.6 25.3Z M179.3 27.2L179.3 27.2Q178.1 27.2 177.3 26.7Q176.5 26.2 176.0 25.3Q175.6 24.4 175.6 23.2L175.6 23.2Q175.6 22.0 176.0 21.1Q176.5 20.3 177.3 19.8Q178.1 19.3 179.3 19.3L179.3 19.3Q180.0 19.3 180.5 19.4Q181.1 19.6 181.6 19.9Q182.0 20.3 182.3 20.7Q182.6 21.2 182.7 21.8L182.7 21.8L180.8 22.2Q180.7 21.9 180.6 21.6Q180.5 21.4 180.3 21.2Q180.1 21.1 179.9 21.0Q179.6 20.9 179.3 20.9L179.3 20.9Q178.8 20.9 178.4 21.2Q178.0 21.5 177.8 22.0Q177.6 22.5 177.6 23.2L177.6 23.2Q177.6 23.9 177.8 24.4Q178.0 24.9 178.4 25.2Q178.8 25.5 179.3 25.5L179.3 25.5Q179.6 25.5 179.9 25.4Q180.1 25.4 180.3 25.2Q180.5 25.0 180.6 24.8Q180.7 24.5 180.8 24.2L180.8 24.2L182.7 24.6Q182.6 25.2 182.3 25.6Q182.0 26.1 181.6 26.5Q181.1 26.8 180.6 27.0Q180.0 27.2 179.3 27.2ZM187.8 27.2L187.8 27.2Q186.7 27.2 185.8 26.7Q185.0 26.2 184.5 25.3Q184.1 24.4 184.1 23.2L184.1 23.2Q184.1 22.0 184.5 21.1Q185.0 20.3 185.8 19.8Q186.7 19.3 187.8 19.3L187.8 19.3Q189.0 19.3 189.8 19.8Q190.7 20.3 191.1 21.1Q191.6 22.0 191.6 23.2L191.6 23.2Q191.6 24.4 191.1 25.3Q190.7 26.2 189.8 26.7Q189.0 27.2 187.8 27.2ZM187.8 25.5L187.8 25.5Q188.4 25.5 188.7 25.2Q189.1 24.9 189.3 24.4Q189.5 23.9 189.5 23.2L189.5 23.2Q189.5 22.5 189.3 22.0Q189.1 21.5 188.7 21.2Q188.4 20.9 187.8 20.9L187.8 20.9Q187.3 20.9 186.9 21.2Q186.6 21.5 186.4 22.0Q186.2 22.5 186.2 23.2L186.2 23.2Q186.2 23.9 186.4 24.4Q186.6 24.9 186.9 25.2Q187.3 25.5 187.8 25.5ZM196.7 27.2L196.7 27.2Q195.6 27.2 194.7 26.7Q193.9 26.2 193.4 25.3Q193.0 24.4 193.0 23.2L193.0 23.2Q193.0 22.0 193.4 21.1Q193.9 20.3 194.7 19.8Q195.6 19.3 196.7 19.3L196.7 19.3Q197.9 19.3 198.7 19.8Q199.5 20.3 200.0 21.1Q200.5 22.0 200.5 23.2L200.5 23.2Q200.5 24.4 200.0 25.3Q199.5 26.2 198.7 26.7Q197.9 27.2 196.7 27.2ZM196.7 25.5L196.7 25.5Q197.3 25.5 197.6 25.2Q198.0 24.9 198.2 24.4Q198.4 23.9 198.4 23.2L198.4 23.2Q198.4 22.5 198.2 22.0Q198.0 21.5 197.6 21.2Q197.3 20.9 196.7 20.9L196.7 20.9Q196.2 20.9 195.8 21.2Q195.4 21.5 195.3 22.0Q195.1 22.5 195.1 23.2L195.1 23.2Q195.1 23.9 195.3 24.4Q195.4 24.9 195.8 25.2Q196.2 25.5 196.7 25.5ZM202.2 16.8L204.2 16.8L204.2 27L202.2 27L202.2 16.8ZM209.9 23.9L208.1 23.9L208.1 23.7Q208.1 22.8 208.2 22.3Q208.4 21.8 208.7 21.5Q209.0 21.2 209.4 21.0L209.4 21.0Q209.8 20.7 210.2 20.3Q210.5 20.0 210.5 19.5L210.5 19.5Q210.5 19.1 210.3 18.9Q210.1 18.6 209.9 18.5Q209.6 18.3 209.2 18.3L209.2 18.3Q208.9 18.3 208.6 18.5Q208.3 18.6 208.1 18.9Q207.9 19.2 207.9 19.6L207.9 19.6L205.9 19.6Q206.0 18.6 206.4 18.0Q206.9 17.3 207.6 17.0Q208.3 16.7 209.2 16.7L209.2 16.7Q210.2 16.7 211.0 17.0Q211.7 17.3 212.1 17.9Q212.6 18.6 212.6 19.4L212.6 19.4Q212.6 20.3 212.2 20.9Q211.8 21.5 211.0 21.9L211.0 21.9Q210.7 22.1 210.4 22.3Q210.1 22.6 210.0 22.9Q209.9 23.2 209.9 23.7L209.9 23.7L209.9 23.9ZM209.0 27.1L209.0 27.1Q208.5 27.1 208.1 26.8Q207.8 26.5 207.8 26.0L207.8 26.0Q207.8 25.5 208.1 25.1Q208.5 24.8 209.0 24.8L209.0 24.8Q209.5 24.8 209.9 25.1Q210.2 25.5 210.2 26.0L210.2 26.0Q210.2 26.5 209.9 26.8Q209.5 27.1 209.0 27.1Z M65.4 44.1L65.4 44.1Q64.0 44.1 62.9 43.5Q61.9 42.9 61.3 41.7Q60.6 40.6 60.6 38.9L60.6 38.9Q60.6 37.3 61.3 36.1Q61.9 34.9 63.0 34.3Q64.0 33.7 65.4 33.7L65.4 33.7Q66.2 33.7 67.0 33.9Q67.7 34.2 68.3 34.6Q68.9 35.1 69.3 35.8Q69.6 36.4 69.8 37.3L69.8 37.3L67.6 37.3Q67.6 36.9 67.4 36.6Q67.2 36.2 66.9 36.0Q66.6 35.8 66.2 35.6Q65.9 35.5 65.4 35.5L65.4 35.5Q64.6 35.5 64.0 35.9Q63.4 36.3 63.1 37.1Q62.8 37.8 62.8 38.9L62.8 38.9Q62.8 40.0 63.1 40.8Q63.4 41.5 64.0 41.9Q64.6 42.3 65.4 42.3L65.4 42.3Q65.8 42.3 66.2 42.2Q66.6 42.0 66.9 41.8Q67.2 41.6 67.4 41.3Q67.6 40.9 67.6 40.5L67.6 40.5L69.8 40.5Q69.7 41.2 69.3 41.9Q69.0 42.5 68.4 43.0Q67.9 43.5 67.1 43.8Q66.3 44.1 65.4 44.1ZM74.9 44.2L74.9 44.2Q73.8 44.2 73.0 43.7Q72.1 43.2 71.7 42.3Q71.2 41.4 71.2 40.2L71.2 40.2Q71.2 39.0 71.7 38.1Q72.1 37.3 73.0 36.8Q73.8 36.3 74.9 36.3L74.9 36.3Q76.1 36.3 76.9 36.8Q77.8 37.3 78.2 38.1Q78.7 39.0 78.7 40.2L78.7 40.2Q78.7 41.4 78.2 42.3Q77.8 43.2 76.9 43.7Q76.1 44.2 74.9 44.2ZM74.9 42.5L74.9 42.5Q75.5 42.5 75.9 42.2Q76.2 41.9 76.4 41.4Q76.6 40.9 76.6 40.2L76.6 40.2Q76.6 39.5 76.4 39.0Q76.2 38.5 75.9 38.2Q75.5 37.9 74.9 37.9L74.9 37.9Q74.4 37.9 74.0 38.2Q73.7 38.5 73.5 39.0Q73.3 39.5 73.3 40.2L73.3 40.2Q73.3 40.9 73.5 41.4Q73.7 41.9 74.0 42.2Q74.4 42.5 74.9 42.5ZM82.5 39.6L82.5 39.6L82.5 44L80.4 44L80.4 36.4L82.4 36.4L82.4 37.9Q82.7 37.2 83.2 36.8L83.2 36.8Q83.8 36.3 84.8 36.3L84.8 36.3Q85.6 36.3 86.1 36.6Q86.7 37.0 87.1 37.6Q87.4 38.2 87.4 39.1L87.4 39.1L87.4 44L85.3 44L85.3 39.5Q85.3 38.8 85.0 38.4Q84.6 38.0 84.0 38.0L84.0 38.0Q83.5 38.0 83.2 38.2Q82.8 38.4 82.7 38.7Q82.5 39.1 82.5 39.6ZM91.8 36.4L93.2 36.4L93.2 37.9L91.8 37.9L91.8 41.8Q91.8 42.1 92.0 42.3Q92.1 42.5 92.5 42.5L92.5 42.5Q92.6 42.5 92.8 42.4Q93.0 42.4 93.1 42.4L93.1 42.4L93.4 43.9Q93.1 44.0 92.8 44.1Q92.4 44.1 92.1 44.1L92.1 44.1Q91.0 44.1 90.4 43.5Q89.7 43.0 89.7 41.9L89.7 41.9L89.7 37.9L88.7 37.9L88.7 36.4L89.7 36.4L89.7 34.5L91.8 34.5L91.8 36.4ZM96.9 44L94.9 44L94.9 36.4L96.8 36.4L96.8 37.7L96.9 37.7Q97.1 37.0 97.6 36.6Q98.1 36.3 98.8 36.3L98.8 36.3Q98.9 36.3 99.1 36.3Q99.3 36.3 99.4 36.3L99.4 36.3L99.4 38.2Q99.3 38.1 99.0 38.1Q98.8 38.1 98.5 38.1L98.5 38.1Q98.1 38.1 97.7 38.3Q97.3 38.5 97.1 38.8Q96.9 39.2 96.9 39.7L96.9 39.7L96.9 44ZM102.9 44L100.9 44L100.9 36.4L102.9 36.4L102.9 44ZM101.9 35.4L101.9 35.4Q101.4 35.4 101.1 35.1Q100.8 34.7 100.8 34.3L100.8 34.3Q100.8 33.9 101.1 33.6Q101.4 33.3 101.9 33.3L101.9 33.3Q102.4 33.3 102.7 33.6Q103.0 33.9 103.0 34.3L103.0 34.3Q103.0 34.7 102.7 35.1Q102.4 35.4 101.9 35.4ZM109.2 44.1L109.2 44.1Q108.6 44.1 108.2 43.9Q107.8 43.7 107.5 43.4Q107.2 43.1 107.1 42.8L107.1 42.8L107.0 42.8L107.0 44L105.0 44L105.0 33.8L107.0 33.8L107.0 37.6L107.1 37.6Q107.2 37.3 107.5 37.0Q107.7 36.7 108.2 36.5Q108.6 36.3 109.2 36.3L109.2 36.3Q110.1 36.3 110.8 36.7Q111.5 37.1 111.9 38.0Q112.3 38.9 112.3 40.2L112.3 40.2Q112.3 41.5 111.9 42.3Q111.5 43.2 110.8 43.7Q110.1 44.1 109.2 44.1ZM108.6 42.5L108.6 42.5Q109.1 42.5 109.5 42.2Q109.9 41.9 110.1 41.4Q110.2 40.9 110.2 40.2L110.2 40.2Q110.2 39.5 110.1 39.0Q109.9 38.5 109.5 38.2Q109.1 37.9 108.6 37.9L108.6 37.9Q108.1 37.9 107.7 38.2Q107.3 38.5 107.1 39.0Q107.0 39.5 107.0 40.2L107.0 40.2Q107.0 40.9 107.2 41.4Q107.3 41.9 107.7 42.2Q108.1 42.5 108.6 42.5ZM116.7 44.1L116.7 44.1Q115.9 44.1 115.3 43.8Q114.7 43.4 114.4 42.8Q114.1 42.1 114.1 41.2L114.1 41.2L114.1 36.4L116.1 36.4L116.1 40.9Q116.1 41.6 116.5 42.0Q116.9 42.4 117.5 42.4L117.5 42.4Q117.9 42.4 118.3 42.2Q118.6 42.0 118.8 41.6Q119.0 41.3 119.0 40.8L119.0 40.8L119.0 36.4L121.1 36.4L121.1 44L119.1 44L119.1 42.4Q118.8 43.1 118.3 43.6L118.3 43.6Q117.7 44.1 116.7 44.1ZM125.5 36.4L126.9 36.4L126.9 37.9L125.5 37.9L125.5 41.8Q125.5 42.1 125.6 42.3Q125.8 42.5 126.2 42.5L126.2 42.5Q126.3 42.5 126.5 42.4Q126.7 42.4 126.8 42.4L126.8 42.4L127.1 43.9Q126.8 44.0 126.4 44.1Q126.1 44.1 125.8 44.1L125.8 44.1Q124.6 44.1 124.0 43.5Q123.4 43.0 123.4 41.9L123.4 41.9L123.4 37.9L122.4 37.9L122.4 36.4L123.4 36.4L123.4 34.5L125.5 34.5L125.5 36.4ZM132.0 44.2L132.0 44.2Q130.8 44.2 130.0 43.7Q129.1 43.2 128.7 42.3Q128.2 41.4 128.2 40.2L128.2 40.2Q128.2 39.0 128.7 38.1Q129.1 37.3 129.9 36.8Q130.8 36.3 131.9 36.3L131.9 36.3Q132.6 36.3 133.3 36.5Q133.9 36.7 134.4 37.2Q134.9 37.7 135.2 38.4Q135.5 39.2 135.5 40.1L135.5 40.1L135.5 40.7L130.2 40.7Q130.3 41.3 130.5 41.7L130.5 41.7Q130.7 42.2 131.1 42.4Q131.5 42.6 132.0 42.6L132.0 42.6Q132.4 42.6 132.7 42.5Q133.0 42.4 133.2 42.2Q133.4 42.0 133.5 41.7L133.5 41.7L135.3 42.1Q135.2 42.7 134.7 43.2Q134.2 43.6 133.6 43.9Q132.9 44.2 132.0 44.2ZM130.2 39.4L130.2 39.4L133.5 39.4Q133.4 39.0 133.3 38.7L133.3 38.7Q133.1 38.3 132.8 38.0Q132.4 37.8 131.9 37.8L131.9 37.8Q131.4 37.8 131.0 38.1Q130.6 38.3 130.4 38.7L130.4 38.7Q130.3 39.0 130.2 39.4Z M140.8 46.7L140.8 46.7L141.3 45.2L141.5 45.2Q142.0 45.3 142.3 45.3Q142.6 45.2 142.8 45.0Q143.0 44.8 143.0 44.4L143.0 44.4L143.1 44.0L140.2 36.4L142.4 36.4L143.7 40.3Q143.9 41.1 144.1 41.8L144.1 41.8Q144.1 42.1 144.2 42.3L144.2 42.3Q144.2 42.1 144.3 41.8L144.3 41.8Q144.5 41.1 144.7 40.3L144.7 40.3L146.1 36.4L148.2 36.4L145.0 44.9Q144.7 45.5 144.4 46.0Q144.0 46.4 143.5 46.7Q142.9 46.9 142.2 46.9L142.2 46.9Q141.8 46.9 141.4 46.9Q141.0 46.8 140.8 46.7ZM153.0 44.2L153.0 44.2Q151.9 44.2 151.0 43.7Q150.2 43.2 149.7 42.3Q149.3 41.4 149.3 40.2L149.3 40.2Q149.3 39.0 149.7 38.1Q150.2 37.3 151.0 36.8Q151.9 36.3 153.0 36.3L153.0 36.3Q154.2 36.3 155.0 36.8Q155.9 37.3 156.3 38.1Q156.8 39.0 156.8 40.2L156.8 40.2Q156.8 41.4 156.3 42.3Q155.9 43.2 155.0 43.7Q154.2 44.2 153.0 44.2ZM153.0 42.5L153.0 42.5Q153.6 42.5 153.9 42.2Q154.3 41.9 154.5 41.4Q154.7 40.9 154.7 40.2L154.7 40.2Q154.7 39.5 154.5 39.0Q154.3 38.5 153.9 38.2Q153.6 37.9 153.0 37.9L153.0 37.9Q152.5 37.9 152.1 38.2Q151.7 38.5 151.6 39.0Q151.4 39.5 151.4 40.2L151.4 40.2Q151.4 40.9 151.6 41.4Q151.7 41.9 152.1 42.2Q152.5 42.5 153.0 42.5ZM161.1 44.1L161.1 44.1Q160.3 44.1 159.7 43.8Q159.1 43.4 158.8 42.8Q158.5 42.1 158.5 41.2L158.5 41.2L158.5 36.4L160.5 36.4L160.5 40.9Q160.5 41.6 160.9 42.0Q161.3 42.4 161.9 42.4L161.9 42.4Q162.4 42.4 162.7 42.2Q163.0 42.0 163.2 41.6Q163.4 41.3 163.4 40.8L163.4 40.8L163.4 36.4L165.5 36.4L165.5 44L163.5 44L163.5 42.4Q163.2 43.1 162.7 43.6L162.7 43.6Q162.1 44.1 161.1 44.1ZM169.6 44L167.5 44L167.5 36.4L169.5 36.4L169.5 37.7L169.6 37.7Q169.8 37.0 170.3 36.6Q170.8 36.3 171.4 36.3L171.4 36.3Q171.6 36.3 171.8 36.3Q171.9 36.3 172.1 36.3L172.1 36.3L172.1 38.2Q171.9 38.1 171.7 38.1Q171.4 38.1 171.2 38.1L171.2 38.1Q170.7 38.1 170.3 38.3Q170.0 38.5 169.8 38.8Q169.6 39.2 169.6 39.7L169.6 39.7L169.6 44Z M179.2 36.4L180.7 36.4L180.7 37.9L179.2 37.9L179.2 41.8Q179.2 42.1 179.4 42.3Q179.6 42.5 179.9 42.5L179.9 42.5Q180.1 42.5 180.3 42.4Q180.5 42.4 180.6 42.4L180.6 42.4L180.9 43.9Q180.5 44.0 180.2 44.1Q179.9 44.1 179.6 44.1L179.6 44.1Q178.4 44.1 177.8 43.5Q177.2 43.0 177.2 41.9L177.2 41.9L177.2 37.9L176.1 37.9L176.1 36.4L177.2 36.4L177.2 34.5L179.2 34.5L179.2 36.4ZM185.8 44.2L185.8 44.2Q184.6 44.2 183.7 43.7Q182.9 43.2 182.4 42.3Q182.0 41.4 182.0 40.2L182.0 40.2Q182.0 39.0 182.4 38.1Q182.9 37.3 183.7 36.8Q184.5 36.3 185.7 36.3L185.7 36.3Q186.4 36.3 187.1 36.5Q187.7 36.7 188.2 37.2Q188.7 37.7 189.0 38.4Q189.2 39.2 189.2 40.1L189.2 40.1L189.2 40.7L184.0 40.7Q184.0 41.3 184.2 41.7L184.2 41.7Q184.5 42.2 184.9 42.4Q185.3 42.6 185.8 42.6L185.8 42.6Q186.2 42.6 186.4 42.5Q186.7 42.4 186.9 42.2Q187.2 42.0 187.3 41.7L187.3 41.7L189.1 42.1Q188.9 42.7 188.5 43.2Q188.0 43.6 187.3 43.9Q186.6 44.2 185.8 44.2ZM184.0 39.4L184.0 39.4L187.3 39.4Q187.2 39.0 187.1 38.7L187.1 38.7Q186.9 38.3 186.6 38.0Q186.2 37.8 185.7 37.8L185.7 37.8Q185.1 37.8 184.8 38.1Q184.4 38.3 184.2 38.7L184.2 38.7Q184.1 39.0 184.0 39.4ZM193.0 44L190.9 44L190.9 36.4L192.8 36.4L192.9 37.8Q193.1 37.4 193.3 37.1L193.3 37.1Q193.7 36.7 194.1 36.5Q194.6 36.2 195.1 36.2L195.1 36.2Q195.9 36.2 196.4 36.8L196.4 36.8Q196.8 37.2 197.1 38.0L197.1 38.0Q197.2 37.5 197.5 37.2L197.5 37.2Q197.9 36.7 198.4 36.5Q198.9 36.2 199.5 36.2L199.5 36.2Q200.2 36.2 200.8 36.5Q201.3 36.9 201.7 37.4Q202.0 38.0 202.0 38.8L202.0 38.8L202.0 44L199.9 44L199.9 39.2Q199.9 38.6 199.6 38.3Q199.2 38.0 198.7 38.0L198.7 38.0Q198.3 38.0 198.0 38.1Q197.8 38.3 197.6 38.6Q197.4 38.9 197.4 39.3L197.4 39.3L197.4 44L195.5 44L195.5 39.2Q195.5 38.6 195.1 38.3Q194.8 38.0 194.3 38.0L194.3 38.0Q193.9 38.0 193.6 38.1Q193.3 38.3 193.2 38.6Q193.0 38.9 193.0 39.4L193.0 39.4L193.0 44ZM206.1 46.9L204.0 46.9L204.0 36.4L206.0 36.4L206.0 37.6L206.1 37.6Q206.3 37.3 206.5 37.0Q206.8 36.7 207.2 36.5Q207.7 36.3 208.3 36.3L208.3 36.3Q209.2 36.3 209.9 36.7Q210.6 37.1 211.0 38.0Q211.4 38.9 211.4 40.2L211.4 40.2Q211.4 41.5 211.0 42.3Q210.6 43.2 209.9 43.7Q209.2 44.1 208.3 44.1L208.3 44.1Q207.7 44.1 207.2 43.9Q206.8 43.7 206.5 43.4Q206.3 43.1 206.1 42.8L206.1 42.8L206.1 42.8L206.1 46.9ZM207.7 42.5L207.7 42.5Q208.2 42.5 208.6 42.2Q208.9 41.9 209.1 41.4Q209.3 40.9 209.3 40.2L209.3 40.2Q209.3 39.5 209.1 39.0Q208.9 38.5 208.6 38.2Q208.2 37.9 207.7 37.9L207.7 37.9Q207.1 37.9 206.8 38.2Q206.4 38.5 206.2 39.0Q206.0 39.5 206.0 40.2L206.0 40.2Q206.0 40.9 206.2 41.4Q206.4 41.9 206.8 42.2Q207.1 42.5 207.7 42.5ZM213.1 33.8L215.2 33.8L215.2 44L213.1 44L213.1 33.8ZM219.4 44.2L219.4 44.2Q218.6 44.2 218.1 43.9Q217.5 43.6 217.2 43.1Q216.8 42.6 216.8 41.9L216.8 41.9Q216.8 41.2 217.1 40.8Q217.3 40.4 217.7 40.1Q218.1 39.8 218.6 39.7Q219.1 39.6 219.7 39.5L219.7 39.5Q220.4 39.4 220.8 39.4Q221.2 39.3 221.4 39.2Q221.6 39.1 221.6 38.8L221.6 38.8L221.6 38.8Q221.6 38.5 221.4 38.2Q221.3 38.0 221.0 37.9Q220.8 37.8 220.4 37.8L220.4 37.8Q220.0 37.8 219.7 37.9Q219.4 38.0 219.2 38.2Q219.0 38.4 218.9 38.7L218.9 38.7L217.0 38.4Q217.2 37.7 217.7 37.2Q218.2 36.8 218.8 36.5Q219.5 36.3 220.4 36.3L220.4 36.3Q221.0 36.3 221.6 36.4Q222.2 36.6 222.6 36.9Q223.1 37.2 223.3 37.7Q223.6 38.2 223.6 38.9L223.6 38.9L223.6 44L221.7 44L221.7 42.9L221.6 42.9Q221.4 43.3 221.1 43.6Q220.8 43.8 220.4 44.0Q219.9 44.2 219.4 44.2ZM220.0 42.7L220.0 42.7Q220.4 42.7 220.8 42.5Q221.2 42.3 221.4 42.0Q221.6 41.7 221.6 41.3L221.6 41.3L221.6 40.4Q221.5 40.5 221.3 40.6Q221.1 40.6 220.9 40.7Q220.7 40.7 220.5 40.7Q220.2 40.8 220.1 40.8L220.1 40.8Q219.7 40.8 219.4 41.0Q219.1 41.1 219.0 41.3Q218.8 41.5 218.8 41.8L218.8 41.8Q218.8 42.1 218.9 42.3Q219.1 42.5 219.4 42.6Q219.6 42.7 220.0 42.7ZM228.0 36.4L229.5 36.4L229.5 37.9L228.0 37.9L228.0 41.8Q228.0 42.1 228.2 42.3Q228.4 42.5 228.7 42.5L228.7 42.5Q228.8 42.5 229.1 42.4Q229.3 42.4 229.4 42.4L229.4 42.4L229.7 43.9Q229.3 44.0 229.0 44.1Q228.7 44.1 228.3 44.1L228.3 44.1Q227.2 44.1 226.6 43.5Q226.0 43.0 226.0 41.9L226.0 41.9L226.0 37.9L224.9 37.9L224.9 36.4L226.0 36.4L226.0 34.5L228.0 34.5L228.0 36.4ZM234.5 44.2L234.5 44.2Q233.4 44.2 232.5 43.7Q231.7 43.2 231.2 42.3Q230.8 41.4 230.8 40.2L230.8 40.2Q230.8 39.0 231.2 38.1Q231.7 37.3 232.5 36.8Q233.3 36.3 234.4 36.3L234.4 36.3Q235.2 36.3 235.8 36.5Q236.5 36.7 237.0 37.2Q237.5 37.7 237.8 38.4Q238.0 39.2 238.0 40.1L238.0 40.1L238.0 40.7L232.8 40.7Q232.8 41.3 233.0 41.7L233.0 41.7Q233.2 42.2 233.6 42.4Q234.0 42.6 234.6 42.6L234.6 42.6Q234.9 42.6 235.2 42.5Q235.5 42.4 235.7 42.2Q235.9 42.0 236.1 41.7L236.1 41.7L237.9 42.1Q237.7 42.7 237.3 43.2Q236.8 43.6 236.1 43.9Q235.4 44.2 234.5 44.2ZM232.8 39.4L232.8 39.4L236.1 39.4Q236.0 39.0 235.9 38.7L235.9 38.7Q235.7 38.3 235.3 38.0Q235.0 37.8 234.5 37.8L234.5 37.8Q233.9 37.8 233.6 38.1Q233.2 38.3 233.0 38.7L233.0 38.7Q232.8 39.0 232.8 39.4ZM241.2 44.1L241.2 44.1Q240.7 44.1 240.4 43.8Q240.0 43.5 240.0 43.0L240.0 43.0Q240.0 42.5 240.4 42.1Q240.7 41.8 241.2 41.8L241.2 41.8Q241.7 41.8 242.0 42.1Q242.4 42.5 242.4 43.0L242.4 43.0Q242.4 43.5 242.0 43.8Q241.7 44.1 241.2 44.1Z "/></g></svg>