<!-- Generated by readme-aura https://github.com/collectioneur/readme-aura -->
<svg width="400" height="140" viewBox="0 0 400 140" xmlns="http://www.w3.org/2000/svg"><clipPath id="satori_cp-id"><path x="0" y="0" width="400" height="140" d="M12,0 h376 a12,12 0 0 1 12,12 v116 a12,12 0 0 1 -12,12 h-376 a12,12 0 0 1 -12,-12 v-116 a12,12 0 0 1 12,-12"/></clipPath><mask id="satori_om-id"><rect x="0" y="0" width="400" height="140" fill="#fff"/></mask><path x="0" y="0" width="400" height="140" fill="#0a0a12" d="M12,0 h376 a12,12 0 0 1 12,12 v116 a12,12 0 0 1 -12,12 h-376 a12,12 0 0 1 -12,-12 v-116 a12,12 0 0 1 12,-12"/><clipPath id="satori_cp-id-0" clip-path="url(#satori_cp-id)"><rect x="0" y="0" width="400" height="140"/></clipPath><mask id="satori_om-id-0"><rect x="0" y="0" width="400" height="140" fill="#fff" mask="url(#satori_om-id)"/></mask><svg x="0" y="0" width="400" height="140" preserveAspectRatio="none" clip-path="url(#satori_cp-id-0)" mask="url(#satori_om-id-0)"><defs><radialGradient id="ag1" cx="50%" cy="50%" r="50%"><stop offset="0%" stop-color="rgba(102,126,234,0.8)"></stop><stop offset="70%" stop-color="rgba(102,126,234,0)"></stop></radialGradient><radialGradient id="ag2" cx="50%" cy="50%" r="50%"><stop offset="0%" stop-color="rgba(118,75,162,0.6)"></stop><stop offset="70%" stop-color="rgba(118,75,162,0)"></stop></radialGradient><linearGradient id="ag3" x1="0%" y1="0%" x2="100%" y2="100%"><stop offset="0%" stop-color="rgba(102,126,234,0.5)"></stop><stop offset="100%" stop-color="rgba(118,75,162,0.5)"></stop></linearGradient></defs><ellipse id="a-orb1" cx="100" cy="70" rx="55" ry="40" fill="url(#ag1)"></ellipse><ellipse id="a-orb2" cx="300" cy="70" rx="50" ry="38" fill="url(#ag2)"></ellipse><rect id="a-rect" x="185" y="45" width="30" height="30" rx="6" fill="url(#ag3)" transform="rotate(0 200 60)" transformOrigin="200px 60px"></rect><path id="a-path" d="M 60 110 Q 200 30 340 110" fill="none" stroke="rgba(150,100,255,0.6)" stroke-width="2" stroke-dasharray="120 120" stroke-linecap="round"></path><polygon id="a-poly" points="50,90 70,70 90,90 70,110" fill="rgba(255,180,220,0.4)"></polygon><rect id="a-rect2" x="320" y="95" width="24" height="24" rx="8" fill="rgba(100,200,255,0.5)"></rect><style>

      @keyframes a-pulse { 0%, 100% { opacity: 0.6; transform: scale(1); } 50% { opacity: 1; transform: scale(1.3); } }
      @keyframes a-float { 0%, 100% { transform: translate(0, 0); } 50% { transform: translate(22px, -15px); } }
      @keyframes a-rotate { 0% { transform: rotate(0deg); } 100% { transform: rotate(360deg); } }
      @keyframes a-dash { 0% { stroke-dashoffset: 240; } 100% { stroke-dashoffset: 0; } }
      @keyframes a-float2 { 0%, 100% { transform: translate(-18px, 12px); } 50% { transform: translate(0, 0); } }
      @keyframes a-scale { 0%, 100% { opacity: 0.5; transform: scale(0.9); } 50% { opacity: 1; transform: scale(1.2); } }
      #a-orb1 { animation: a-pulse 1.7s ease-in-out infinite; }
      #a-orb2 { animation: a-float 2.5s ease-in-out infinite; }
      #a-rect { animation: a-rotate 4s linear infinite; }
      #a-path { animation: a-dash 1.5s ease-in-out infinite; }
      #a-poly { animation: a-float2 3s ease-in-out infinite 0.5s; }
      #a-rect2 { animation: a-scale 2.2s ease-in-out infinite 0.3s; }
    
</style>
</svg><mask id="satori_om-id-0-0"><rect x="0" y="0" width="0" height="140" fill="#fff" mask="url(#satori_om-id)"/></mask><mask id="satori_om-id-0-0-0"><rect x="0" y="0" width="0" height="140" fill="#fff" mask="url(#satori_om-id)"/></mask><mask id="satori_om-id-0-0-0-0"><rect x="0" y="0" width="0" height="140" fill="#fff" mask="url(#satori_om-id)"/></mask><mask id="satori_om-id-0-0-0-1"><rect x="0" y="0" width="0" height="140" fill="#fff" mask="url(#satori_om-id)"/></mask><mask id="satori_om-id-0-0-1"><rect x="0" y="0" width="0" height="140" fill="#fff" mask="url(#satori_om-id)"/></mask><mask id="satori_om-id-0-0-1-0"><rect x="0" y="0" width="0" height="140" fill="#fff" mask="url(#satori_om-id)"/></mask><mask id="satori_om-id-0-0-1-1"><rect x="0" y="0" width="0" height="140" fill="#fff" mask="url(#satori_om-id)"/></mask><mask id="satori_om-id-0-0-2"><rect x="0" y="0" width="0" height="140" fill="#fff" mask="url(#satori_om-id)"/></mask><mask id="satori_om-id-0-0-2-0"><rect x="0" y="0" width="0" height="140" fill="#fff" mask="url(#satori_om-id)"/></mask><mask id="satori_om-id-0-0-2-1"><rect x="0" y="0" width="0" height="140" fill="#fff" mask="url(#satori_om-id)"/></mask><mask id="satori_om-id-0-1"><rect x="0" y="0" width="0" height="140" fill="#fff" mask="url(#satori_om-id)"/></mask><mask id="satori_om-id-0-2"><rect x="0" y="0" width="0" height="140" fill="#fff" mask="url(#satori_om-id)"/></mask><mask id="satori_om-id-0-3"><rect x="0" y="0" width="0" height="140" fill="#fff" mask="url(#satori_om-id)"/></mask><mask id="satori_om-id-0-4"><rect x="0" y="0" width="0" height="140" fill="#fff" mask="url(#satori_om-id)"/></mask><mask id="satori_om-id-0-5"><rect x="0" y="0" width="0" height="140" fill="#fff" mask="url(#satori_om-id)"/></mask><mask id="satori_om-id-0-6"><rect x="0" y="0" width="0" height="140" fill="#fff" mask="url(#satori_om-id)"/></mask><clipPath id="satori_bct-id-1" clip-path="url(#satori_cp-id)"><path d="M116.8 76.1L116.8 76.1Q115.3 76.1 114.2 75.5Q113.0 74.8 112.4 73.6Q111.7 72.3 111.7 70.6L111.7 70.6Q111.7 68.8 112.4 67.5Q113.0 66.3 114.2 65.6Q115.3 64.9 116.8 64.9L116.8 64.9Q117.7 64.9 118.5 65.2Q119.3 65.5 119.9 66.0Q120.5 66.5 120.9 67.2Q121.3 67.9 121.5 68.8L121.5 68.8L119.2 68.8Q119.1 68.4 118.9 68.0Q118.7 67.7 118.4 67.4Q118.1 67.2 117.7 67.1Q117.3 66.9 116.8 66.9L116.8 66.9Q116.0 66.9 115.3 67.4Q114.7 67.8 114.3 68.6Q114.0 69.4 114.0 70.6L114.0 70.6Q114.0 71.7 114.3 72.5Q114.7 73.3 115.3 73.8Q116.0 74.2 116.8 74.2L116.8 74.2Q117.3 74.2 117.7 74.0Q118.1 73.9 118.4 73.7Q118.7 73.4 118.9 73.1Q119.1 72.7 119.2 72.3L119.2 72.3L121.5 72.3Q121.4 73.0 121.0 73.7Q120.6 74.4 120.0 75.0Q119.4 75.5 118.6 75.8Q117.8 76.1 116.8 76.1ZM127.1 76.2L127.1 76.2Q125.8 76.2 124.8 75.8Q123.8 75.4 123.3 74.6Q122.7 73.8 122.7 72.6L122.7 72.6L124.9 72.6Q124.9 73.2 125.2 73.5Q125.5 73.9 126.0 74.1Q126.5 74.3 127.1 74.3L127.1 74.3Q127.7 74.3 128.1 74.1Q128.5 73.9 128.8 73.6Q129.0 73.3 129.0 72.9L129.0 72.9Q129.0 72.5 128.8 72.3Q128.6 72.0 128.2 71.8Q127.8 71.6 127.2 71.5L127.2 71.5L126.0 71.2Q124.6 70.9 123.8 70.1Q123.0 69.4 123.0 68.2L123.0 68.2Q123.0 67.2 123.5 66.5Q124.1 65.8 125.0 65.4Q125.9 64.9 127.1 64.9L127.1 64.9Q128.3 64.9 129.2 65.4Q130.1 65.8 130.6 66.5Q131.1 67.2 131.1 68.2L131.1 68.2L129.0 68.2Q128.9 67.5 128.4 67.2Q127.9 66.8 127.1 66.8L127.1 66.8Q126.5 66.8 126.1 67.0Q125.7 67.1 125.5 67.4Q125.3 67.7 125.3 68.1L125.3 68.1Q125.3 68.5 125.5 68.8Q125.8 69.0 126.2 69.2Q126.6 69.3 127.0 69.5L127.0 69.5L128.0 69.7Q128.7 69.9 129.3 70.1Q129.9 70.4 130.4 70.8Q130.8 71.2 131.1 71.7Q131.3 72.2 131.3 72.9L131.3 72.9Q131.3 73.9 130.8 74.6Q130.3 75.4 129.4 75.8Q128.4 76.2 127.1 76.2ZM136.9 76.2L136.9 76.2Q135.6 76.2 134.6 75.8Q133.7 75.4 133.1 74.6Q132.6 73.8 132.5 72.6L132.5 72.6L134.7 72.6Q134.8 73.2 135.0 73.5Q135.3 73.9 135.8 74.1Q136.3 74.3 136.9 74.3L136.9 74.3Q137.5 74.3 137.9 74.1Q138.4 73.9 138.6 73.6Q138.9 73.3 138.9 72.9L138.9 72.9Q138.9 72.5 138.6 72.3Q138.4 72.0 138.0 71.8Q137.6 71.6 137.0 71.5L137.0 71.5L135.8 71.2Q134.4 70.9 133.6 70.1Q132.8 69.4 132.8 68.2L132.8 68.2Q132.8 67.2 133.4 66.5Q133.9 65.8 134.8 65.4Q135.7 64.9 136.9 64.9L136.9 64.9Q138.1 64.9 139.0 65.4Q139.9 65.8 140.5 66.5Q141.0 67.2 141.0 68.2L141.0 68.2L138.8 68.2Q138.8 67.5 138.2 67.2Q137.7 66.8 136.9 66.8L136.9 66.8Q136.3 66.8 135.9 67.0Q135.5 67.1 135.3 67.4Q135.1 67.7 135.1 68.1L135.1 68.1Q135.1 68.5 135.4 68.8Q135.6 69.0 136.0 69.2Q136.4 69.3 136.9 69.5L136.9 69.5L137.9 69.7Q138.5 69.9 139.1 70.1Q139.7 70.4 140.2 70.8Q140.6 71.2 140.9 71.7Q141.1 72.2 141.1 72.9L141.1 72.9Q141.1 73.9 140.6 74.6Q140.1 75.4 139.2 75.8Q138.2 76.2 136.9 76.2Z M153.1 79.1L153.1 79.1Q151.4 79.1 150.1 78.7Q148.8 78.2 147.8 77.3Q146.9 76.4 146.5 75.2Q146.0 73.9 146.0 72.2L146.0 72.2Q146.0 70.6 146.4 69.3Q146.9 68.1 147.8 67.1Q148.7 66.2 150.0 65.7Q151.3 65.2 153.0 65.2L153.0 65.2Q154.6 65.2 155.9 65.6Q157.1 66.1 158.0 67.0Q158.9 67.8 159.4 69.0Q159.8 70.1 159.8 71.5L159.8 71.5Q159.8 72.4 159.7 73.2Q159.5 73.9 159.1 74.5Q158.8 75.1 158.2 75.5Q157.6 75.8 156.8 75.8L156.8 75.8Q156.3 75.8 155.9 75.7Q155.5 75.5 155.2 75.3Q154.9 75.0 154.8 74.6L154.8 74.6L154.8 74.6Q154.6 75.1 154.0 75.5Q153.4 75.8 152.6 75.8L152.6 75.8Q151.6 75.8 150.9 75.3Q150.2 74.9 149.8 74.1Q149.4 73.2 149.4 72.1L149.4 72.1Q149.4 71.1 149.8 70.2Q150.2 69.4 150.9 69.0Q151.7 68.5 152.6 68.5L152.6 68.5Q153.3 68.5 153.9 68.7Q154.4 69.0 154.6 69.4L154.6 69.4L154.7 69.4L154.7 68.7L156.2 68.7L156.2 73.6Q156.2 74.0 156.3 74.2Q156.5 74.4 156.8 74.4L156.8 74.4Q157.3 74.4 157.6 74.1Q157.8 73.8 157.9 73.2Q158.1 72.6 158.1 71.6L158.1 71.6Q158.1 70.5 157.8 69.7Q157.5 68.8 156.8 68.1Q156.2 67.5 155.3 67.2Q154.4 66.8 153.1 66.8L153.1 66.8Q151.8 66.8 150.9 67.2Q149.9 67.6 149.2 68.3Q148.5 68.9 148.2 69.9Q147.8 70.9 147.8 72.2L147.8 72.2Q147.8 73.5 148.2 74.4Q148.5 75.4 149.2 76.1Q149.9 76.8 150.9 77.1Q151.9 77.5 153.2 77.5L153.2 77.5Q153.8 77.5 154.4 77.4Q154.9 77.3 155.4 77.1Q155.8 77.0 156.1 76.9L156.1 76.9L156.7 78.4Q156.4 78.6 155.8 78.8Q155.2 78.9 154.5 79.0Q153.8 79.1 153.1 79.1ZM152.8 74.2L152.8 74.2Q153.4 74.2 153.8 74.0Q154.2 73.8 154.4 73.3Q154.6 72.8 154.6 72.1L154.6 72.1Q154.6 71.4 154.4 71.0Q154.2 70.6 153.8 70.4Q153.4 70.2 152.8 70.2L152.8 70.2Q152.2 70.2 151.9 70.4Q151.5 70.7 151.3 71.1Q151.0 71.5 151.0 72.1L151.0 72.1Q151.0 72.7 151.2 73.2Q151.4 73.7 151.8 74.0Q152.2 74.2 152.8 74.2ZM163.7 76L161.5 76L161.5 65.1L163.7 65.1L163.7 71.0L163.8 71.0L166.5 67.8L169.0 67.8L166.0 71.4L169.2 76L166.6 76L164.3 72.7L163.7 73.4L163.7 76ZM173.9 76.2L173.9 76.2Q172.6 76.2 171.7 75.6Q170.8 75.1 170.3 74.2Q169.8 73.2 169.8 71.9L169.8 71.9Q169.8 70.7 170.3 69.7Q170.8 68.8 171.7 68.2Q172.6 67.7 173.8 67.7L173.8 67.7Q174.6 67.7 175.3 68.0Q176.0 68.2 176.5 68.7Q177.0 69.3 177.3 70.0Q177.6 70.8 177.6 71.9L177.6 71.9L177.6 72.5L172.0 72.5Q172.0 73.1 172.2 73.5L172.2 73.5Q172.5 74.0 172.9 74.3Q173.3 74.5 173.9 74.5L173.9 74.5Q174.3 74.5 174.6 74.4Q174.9 74.3 175.1 74.1Q175.4 73.9 175.5 73.5L175.5 73.5L177.5 73.9Q177.3 74.6 176.8 75.1Q176.3 75.6 175.6 75.9Q174.8 76.2 173.9 76.2ZM172.0 71.1L172.0 71.1L175.5 71.1Q175.4 70.7 175.3 70.4L175.3 70.4Q175.1 69.9 174.7 69.6Q174.3 69.4 173.8 69.4L173.8 69.4Q173.2 69.4 172.8 69.6Q172.4 69.9 172.2 70.3L172.2 70.3Q172.1 70.7 172.0 71.1ZM179.0 78.9L179.0 78.9L179.6 77.2L179.8 77.3Q180.3 77.4 180.6 77.4Q181.0 77.3 181.2 77.1Q181.4 76.9 181.4 76.5L181.4 76.5L181.5 76.0L178.4 67.8L180.7 67.8L182.1 72.1Q182.4 72.9 182.5 73.7L182.5 73.7Q182.6 73.9 182.6 74.2L182.6 74.2Q182.7 73.9 182.8 73.7L182.8 73.7Q183.0 72.9 183.2 72.1L183.2 72.1L184.7 67.8L187.0 67.8L183.5 77.0Q183.2 77.6 182.9 78.1Q182.5 78.6 181.9 78.9Q181.3 79.1 180.5 79.1L180.5 79.1Q180.0 79.1 179.7 79.1Q179.3 79.0 179.0 78.9ZM191.0 67.8L192.7 67.8L192.7 69.5L191.0 69.5L191.0 76L188.8 76L188.8 69.5L187.3 69.5L187.3 67.8L188.8 67.8L188.8 67.2Q188.8 66.3 189.1 65.7Q189.5 65.2 190.1 64.9Q190.7 64.6 191.4 64.6L191.4 64.6Q192.0 64.6 192.4 64.7Q192.8 64.7 193.0 64.8L193.0 64.8L192.6 66.5Q192.5 66.4 192.3 66.4Q192.1 66.3 191.9 66.3L191.9 66.3Q191.4 66.3 191.2 66.6Q191.0 66.8 191.0 67.3L191.0 67.3L191.0 67.8ZM196.3 76L194.1 76L194.1 67.8L196.2 67.8L196.2 69.2L196.3 69.2Q196.5 68.5 197.1 68.1Q197.6 67.7 198.3 67.7L198.3 67.7Q198.5 67.7 198.7 67.7Q198.9 67.7 199.0 67.8L199.0 67.8L199.0 69.7Q198.9 69.7 198.6 69.7Q198.3 69.6 198.1 69.6L198.1 69.6Q197.6 69.6 197.2 69.8Q196.8 70.1 196.5 70.4Q196.3 70.8 196.3 71.3L196.3 71.3L196.3 76ZM202.5 76.2L202.5 76.2Q201.7 76.2 201.1 75.9Q200.5 75.6 200.1 75.1Q199.8 74.5 199.8 73.7L199.8 73.7Q199.8 73.0 200.0 72.6Q200.3 72.1 200.7 71.8Q201.2 71.5 201.7 71.4Q202.3 71.3 202.9 71.2L202.9 71.2Q203.6 71.1 204.0 71.1Q204.4 71.0 204.7 70.9Q204.9 70.7 204.9 70.5L204.9 70.5L204.9 70.4Q204.9 70.1 204.7 69.8Q204.6 69.6 204.3 69.5Q204.0 69.3 203.6 69.3L203.6 69.3Q203.1 69.3 202.8 69.5Q202.5 69.6 202.3 69.8Q202.1 70.0 202.0 70.3L202.0 70.3L200.0 70.0Q200.2 69.2 200.7 68.7Q201.2 68.2 201.9 68.0Q202.7 67.7 203.6 67.7L203.6 67.7Q204.2 67.7 204.9 67.9Q205.5 68.0 206.0 68.4Q206.5 68.7 206.8 69.2Q207.0 69.7 207.0 70.5L207.0 70.5L207.0 76L205.0 76L205.0 74.9L204.9 74.9Q204.7 75.2 204.4 75.5Q204.0 75.8 203.6 76.0Q203.1 76.2 202.5 76.2ZM203.1 74.6L203.1 74.6Q203.6 74.6 204.0 74.4Q204.4 74.2 204.6 73.9Q204.9 73.5 204.9 73.1L204.9 73.1L204.9 72.2Q204.8 72.3 204.6 72.3Q204.4 72.4 204.1 72.4Q203.9 72.5 203.7 72.5Q203.4 72.5 203.2 72.6L203.2 72.6Q202.8 72.6 202.5 72.7Q202.2 72.9 202.1 73.1Q201.9 73.3 201.9 73.6L201.9 73.6Q201.9 74.0 202.0 74.2Q202.2 74.4 202.5 74.5Q202.8 74.6 203.1 74.6ZM211.1 76L208.9 76L208.9 67.8L211.0 67.8L211.0 69.4Q211.2 68.9 211.5 68.6L211.5 68.6Q211.8 68.1 212.3 67.9Q212.8 67.7 213.4 67.7L213.4 67.7Q214.3 67.7 214.8 68.2L214.8 68.2Q215.2 68.7 215.5 69.5L215.5 69.5Q215.7 69.0 216.0 68.7L216.0 68.7Q216.4 68.2 216.9 67.9Q217.5 67.7 218.1 67.7L218.1 67.7Q218.9 67.7 219.5 68.0Q220.1 68.3 220.4 69.0Q220.7 69.6 220.7 70.5L220.7 70.5L220.7 76L218.5 76L218.5 70.9Q218.5 70.2 218.2 69.9Q217.8 69.5 217.2 69.5L217.2 69.5Q216.8 69.5 216.5 69.7Q216.2 69.9 216.1 70.2Q215.9 70.5 215.9 71.0L215.9 71.0L215.9 76L213.8 76L213.8 70.8Q213.8 70.2 213.4 69.9Q213.1 69.5 212.5 69.5L212.5 69.5Q212.1 69.5 211.8 69.7Q211.5 69.9 211.3 70.2Q211.1 70.6 211.1 71.0L211.1 71.0L211.1 76ZM226.3 76.2L226.3 76.2Q225.1 76.2 224.2 75.6Q223.2 75.1 222.8 74.2Q222.3 73.2 222.3 71.9L222.3 71.9Q222.3 70.7 222.8 69.7Q223.2 68.8 224.1 68.2Q225.0 67.7 226.2 67.7L226.2 67.7Q227.0 67.7 227.7 68.0Q228.4 68.2 228.9 68.7Q229.5 69.3 229.8 70.0Q230.0 70.8 230.0 71.9L230.0 71.9L230.0 72.5L224.4 72.5Q224.5 73.1 224.7 73.5L224.7 73.5Q224.9 74.0 225.3 74.3Q225.8 74.5 226.3 74.5L226.3 74.5Q226.7 74.5 227.1 74.4Q227.4 74.3 227.6 74.1Q227.8 73.9 227.9 73.5L227.9 73.5L229.9 73.9Q229.7 74.6 229.2 75.1Q228.7 75.6 228.0 75.9Q227.3 76.2 226.3 76.2ZM224.5 71.1L224.5 71.1L227.9 71.1Q227.9 70.7 227.8 70.4L227.8 70.4Q227.6 69.9 227.2 69.6Q226.8 69.4 226.2 69.4L226.2 69.4Q225.7 69.4 225.3 69.6Q224.9 69.9 224.6 70.3L224.6 70.3Q224.5 70.7 224.5 71.1ZM234.8 76.2L234.8 76.2Q233.8 76.2 233.1 75.9Q232.3 75.6 231.8 75.1Q231.3 74.5 231.2 73.8L231.2 73.8L233.2 73.4Q233.4 74.0 233.8 74.3Q234.2 74.5 234.9 74.5L234.9 74.5Q235.5 74.5 235.9 74.3Q236.2 74.1 236.2 73.7L236.2 73.7Q236.2 73.4 236.0 73.2Q235.7 73.0 235.2 72.9L235.2 72.9L233.8 72.6Q232.6 72.3 232.0 71.7Q231.4 71.2 231.4 70.3L231.4 70.3Q231.4 69.5 231.8 68.9Q232.3 68.3 233.0 68.0Q233.8 67.7 234.8 67.7L234.8 67.7Q235.8 67.7 236.5 68.0Q237.2 68.2 237.7 68.7Q238.1 69.2 238.3 69.9L238.3 69.9L236.3 70.2Q236.2 69.8 235.8 69.6Q235.5 69.3 234.9 69.3L234.9 69.3Q234.3 69.3 234.0 69.5Q233.6 69.7 233.6 70.1L233.6 70.1Q233.6 70.4 233.8 70.6Q234.1 70.9 234.6 71.0L234.6 71.0L236.1 71.3Q237.3 71.5 237.9 72.0Q238.5 72.6 238.5 73.5L238.5 73.5Q238.5 74.3 238.0 74.9Q237.5 75.5 236.7 75.8Q235.9 76.2 234.8 76.2Z M248.6 75.4L246.7 75.4L246.7 72.5L243.9 72.5L243.9 70.8L246.7 70.8L246.7 67.9L248.6 67.9L248.6 70.8L251.4 70.8L251.4 72.5L248.6 72.5L248.6 75.4Z M261.3 76.2L261.3 76.2Q260.0 76.2 259.0 75.8Q258.0 75.4 257.5 74.6Q256.9 73.8 256.9 72.6L256.9 72.6L259.1 72.6Q259.1 73.2 259.4 73.5Q259.7 73.9 260.2 74.1Q260.7 74.3 261.3 74.3L261.3 74.3Q261.9 74.3 262.3 74.1Q262.8 73.9 263.0 73.6Q263.2 73.3 263.2 72.9L263.2 72.9Q263.2 72.5 263.0 72.3Q262.8 72.0 262.4 71.8Q262.0 71.6 261.4 71.5L261.4 71.5L260.2 71.2Q258.8 70.9 258.0 70.1Q257.2 69.4 257.2 68.2L257.2 68.2Q257.2 67.2 257.7 66.5Q258.3 65.8 259.2 65.4Q260.1 64.9 261.3 64.9L261.3 64.9Q262.5 64.9 263.4 65.4Q264.3 65.8 264.8 66.5Q265.3 67.2 265.4 68.2L265.4 68.2L263.2 68.2Q263.1 67.5 262.6 67.2Q262.1 66.8 261.3 66.8L261.3 66.8Q260.7 66.8 260.3 67.0Q259.9 67.1 259.7 67.4Q259.5 67.7 259.5 68.1L259.5 68.1Q259.5 68.5 259.7 68.8Q260.0 69.0 260.4 69.2Q260.8 69.3 261.2 69.5L261.2 69.5L262.2 69.7Q262.9 69.9 263.5 70.1Q264.1 70.4 264.6 70.8Q265.0 71.2 265.3 71.7Q265.5 72.2 265.5 72.9L265.5 72.9Q265.5 73.9 265.0 74.6Q264.5 75.4 263.6 75.8Q262.6 76.2 261.3 76.2ZM273.2 76L270.3 76L266.5 65.1L269.0 65.1L270.7 70.4Q271.0 71.3 271.3 72.5L271.3 72.5Q271.6 73.3 271.8 74.2L271.8 74.2Q272.0 73.3 272.2 72.5L272.2 72.5Q272.5 71.3 272.8 70.4L272.8 70.4L274.5 65.1L277.0 65.1L273.2 76ZM283.1 76.1L283.1 76.1Q281.6 76.1 280.5 75.5Q279.3 74.8 278.7 73.5Q278.0 72.3 278.0 70.6L278.0 70.6Q278.0 68.8 278.7 67.5Q279.4 66.3 280.5 65.6Q281.7 64.9 283.1 64.9L283.1 64.9Q284.0 64.9 284.8 65.2Q285.6 65.5 286.2 66.0Q286.8 66.5 287.2 67.1Q287.6 67.8 287.7 68.6L287.7 68.6L285.5 68.6Q285.4 68.2 285.1 67.9Q284.9 67.6 284.6 67.4Q284.3 67.2 284.0 67.0Q283.6 66.9 283.1 66.9L283.1 66.9Q282.3 66.9 281.6 67.3Q281.0 67.8 280.6 68.6Q280.3 69.4 280.3 70.5Q280.3 71.7 280.6 72.5Q281.0 73.3 281.6 73.7Q282.3 74.2 283.2 74.2L283.2 74.2Q283.9 74.2 284.5 73.9Q285.1 73.6 285.4 73.1L285.4 73.1Q285.7 72.6 285.7 71.9L285.7 71.9L283.3 71.9L283.3 70.2L287.9 70.2L287.9 71.5Q287.9 73.0 287.2 74.0Q286.6 75.0 285.6 75.6Q284.5 76.1 283.1 76.1Z "/></clipPath><defs><pattern id="satori_pattern_id-1_0" x="0" y="0" width="1" height="1" patternUnits="objectBoundingBox"><linearGradient id="satori_biid-1_0" x1="0" y1="0" x2="1" y2="0" spreadMethod="pad"><stop offset="0%" stop-color="#ffffff"/><stop offset="50%" stop-color="#ffe4ec"/><stop offset="100%" stop-color="#ffb6c1"/></linearGradient><rect x="0" y="0" width="178" height="18" fill="url(#satori_biid-1_0)"/></pattern></defs><mask id="satori_om-id-1"><rect x="111" y="61" width="178" height="18" fill="#fff" mask="url(#satori_om-id)"/></mask><rect x="111" y="61" width="178" height="18" fill="url(#satori_pattern_id-1_0)" clip-path="url(#satori_bct-id-1)" mask="url(#satori_om-id)"/></svg>