<!-- Generated by readme-aura https://github.com/collectioneur/readme-aura -->
<svg width="800" height="160" viewBox="0 0 800 160" xmlns="http://www.w3.org/2000/svg"><defs><clipPath id="satori_bc-id"><path x="0" y="0" width="800" height="160" d="M16,0 h768 a16,16 0 0 1 16,16 v128 a16,16 0 0 1 -16,16 h-768 a16,16 0 0 1 -16,-16 v-128 a16,16 0 0 1 16,-16"/></clipPath></defs><clipPath id="satori_cp-id"><path x="0" y="0" width="800" height="160" d="M16,0 h768 a16,16 0 0 1 16,16 v128 a16,16 0 0 1 -16,16 h-768 a16,16 0 0 1 -16,-16 v-128 a16,16 0 0 1 16,-16"/></clipPath><mask id="satori_om-id"><rect x="1" y="1" width="798" height="158" fill="#fff"/><path width="800" height="160" fill="none" stroke="#000" stroke-width="2" d="M4.686,4.686 A16,16 0 0 1 16,0 h768 a16,16 0 0 1 16,16 v128 a16,16 0 0 1 -16,16 h-768 a16,16 0 0 1 -16,-16 v-128 A16,16 0 0 1 4.686,4.686"/></mask><path x="0" y="0" width="800" height="160" fill="#08080c" d="M16,0 h768 a16,16 0 0 1 16,16 v128 a16,16 0 0 1 -16,16 h-768 a16,16 0 0 1 -16,-16 v-128 a16,16 0 0 1 16,-16"/><path width="800" height="160" clip-path="url(#satori_bc-id)" fill="none" stroke="rgba(110,80,220,0.18)" stroke-width="2" d="M4.686,4.686 A16,16 0 0 1 16,0 h768 a16,16 0 0 1 16,16 v128 a16,16 0 0 1 -16,16 h-768 a16,16 0 0 1 -16,-16 v-128 A16,16 0 0 1 4.686,4.686"/><clipPath id="satori_cp-id-0" clip-path="url(#satori_cp-id)"><rect x="1" y="1" width="800" height="160"/></clipPath><mask id="satori_om-id-0"><rect x="1" y="1" width="800" height="160" fill="#fff" mask="url(#satori_om-id)"/></mask><svg x="1" y="1" width="800" height="160" preserveAspectRatio="none" clip-path="url(#satori_cp-id-0)" mask="url(#satori_om-id-0)"><defs><radialGradient id="fg1" cx="50%" cy="50%" r="50%"><stop offset="0%" stop-color="rgba(110,20,210,0.65)"></stop><stop offset="45%" stop-color="rgba(80,15,170,0.28)"></stop><stop offset="70%" stop-color="rgba(80,15,170,0)"></stop></radialGradient><radialGradient id="fg2" cx="50%" cy="50%" r="50%"><stop offset="0%" stop-color="rgba(40,70,255,0.55)"></stop><stop offset="45%" stop-color="rgba(20,50,200,0.22)"></stop><stop offset="70%" stop-color="rgba(20,50,200,0)"></stop></radialGradient><radialGradient id="fg3" cx="50%" cy="50%" r="50%"><stop offset="0%" stop-color="rgba(0,140,255,0.42)"></stop><stop offset="70%" stop-color="rgba(0,140,255,0)"></stop></radialGradient><radialGradient id="fg4" cx="50%" cy="50%" r="50%"><stop offset="0%" stop-color="rgba(0,190,230,0.35)"></stop><stop offset="70%" stop-color="rgba(0,190,230,0)"></stop></radialGradient><radialGradient id="fg5" cx="50%" cy="50%" r="50%"><stop offset="0%" stop-color="rgba(160,30,255,0.5)"></stop><stop offset="70%" stop-color="rgba(160,30,255,0)"></stop></radialGradient><radialGradient id="fg6" cx="50%" cy="50%" r="50%"><stop offset="0%" stop-color="rgba(255,50,180,0.5)"></stop><stop offset="45%" stop-color="rgba(200,30,200,0.25)"></stop><stop offset="70%" stop-color="rgba(200,30,200,0)"></stop></radialGradient><radialGradient id="fg7" cx="50%" cy="50%" r="50%"><stop offset="0%" stop-color="rgba(200,30,200,0.45)"></stop><stop offset="70%" stop-color="rgba(200,30,200,0)"></stop></radialGradient><radialGradient id="fg8" cx="50%" cy="50%" r="50%"><stop offset="0%" stop-color="rgba(255,60,200,0.35)"></stop><stop offset="70%" stop-color="rgba(255,60,200,0)"></stop></radialGradient><radialGradient id="fg9" cx="50%" cy="50%" r="50%"><stop offset="0%" stop-color="rgba(100,25,205,0.42)"></stop><stop offset="70%" stop-color="rgba(100,25,205,0)"></stop></radialGradient><radialGradient id="fg10" cx="50%" cy="50%" r="50%"><stop offset="0%" stop-color="rgba(60,80,255,0.38)"></stop><stop offset="70%" stop-color="rgba(60,80,255,0)"></stop></radialGradient></defs><ellipse id="feat-glow-1" cx="620" cy="160" rx="180" ry="120" fill="url(#fg1)"></ellipse><ellipse id="feat-glow-2" cx="720" cy="170" rx="160" ry="110" fill="url(#fg2)"></ellipse><ellipse id="feat-glow-3" cx="580" cy="150" rx="170" ry="115" fill="url(#fg3)"></ellipse><ellipse id="feat-glow-4" cx="650" cy="140" rx="120" ry="90" fill="url(#fg4)"></ellipse><ellipse id="feat-glow-5" cx="750" cy="155" rx="100" ry="80" fill="url(#fg5)"></ellipse><ellipse id="feat-glow-6" cx="680" cy="165" rx="80" ry="70" fill="url(#fg6)"></ellipse><ellipse id="feat-glow-7" cx="600" cy="135" rx="90" ry="75" fill="url(#fg7)"></ellipse><ellipse id="feat-glow-8" cx="690" cy="145" rx="110" ry="85" fill="url(#fg8)"></ellipse><ellipse id="feat-glow-9" cx="640" cy="170" rx="70" ry="60" fill="url(#fg9)"></ellipse><ellipse id="feat-glow-10" cx="730" cy="130" rx="75" ry="65" fill="url(#fg10)"></ellipse><style>

      @keyframes br-drift-right { 0%, 100% { transform: translate(0, 0); opacity: 0.8; } 50% { transform: translate(37px, -18px); opacity: 1.1; } }
      @keyframes br-drift-left { 0%, 100% { transform: translate(0, 0); opacity: 0.75; } 50% { transform: translate(-30px, 15px); opacity: 1.05; } }
      @keyframes br-drift-up { 0%, 100% { transform: translate(0, 0); opacity: 0.85; } 50% { transform: translate(22px, -22px); opacity: 1; } }
      @keyframes br-pulse { 0%, 100% { transform: scale(1); opacity: 0.8; } 50% { transform: scale(1.27); opacity: 0.5; } }
      #feat-glow-1 { animation: br-drift-right 6.7s ease-in-out infinite; }
      #feat-glow-2 { animation: br-drift-left 8.3s ease-in-out infinite; }
      #feat-glow-3 { animation: br-drift-right 7.5s ease-in-out infinite 0.3s; }
      #feat-glow-4 { animation: br-drift-up 9.2s ease-in-out infinite 0.1s; }
      #feat-glow-5 { animation: br-drift-left 5.8s ease-in-out infinite 0.5s; }
      #feat-glow-6 { animation: br-pulse 5s ease-in-out infinite; }
      #feat-glow-7 { animation: br-drift-right 8.3s ease-in-out infinite 0.2s; }
      #feat-glow-8 { animation: br-drift-left 6.7s ease-in-out infinite 0.4s; }
      #feat-glow-9 { animation: br-drift-up 7.5s ease-in-out infinite 0.15s; }
      #feat-glow-10 { animation: br-pulse 5.8s ease-in-out infinite 0.35s; }
    
</style>
</svg><mask id="satori_om-id-0-0"><rect x="1" y="1" width="0" height="160" fill="#fff" mask="url(#satori_om-id)"/></mask><mask id="satori_om-id-0-0-0"><rect x="1" y="1" width="0" height="160" fill="#fff" mask="url(#satori_om-id)"/></mask><mask id="satori_om-id-0-0-0-0"><rect x="1" y="1" width="0" height="160" fill="#fff" mask="url(#satori_om-id)"/></mask><mask id="satori_om-id-0-0-0-1"><rect x="1" y="1" width="0" height="160" fill="#fff" mask="url(#satori_om-id)"/></mask><mask id="satori_om-id-0-0-0-2"><rect x="1" y="1" width="0" height="160" fill="#fff" mask="url(#satori_om-id)"/></mask><mask id="satori_om-id-0-0-1"><rect x="1" y="1" width="0" height="160" fill="#fff" mask="url(#satori_om-id)"/></mask><mask id="satori_om-id-0-0-1-0"><rect x="1" y="1" width="0" height="160" fill="#fff" mask="url(#satori_om-id)"/></mask><mask id="satori_om-id-0-0-1-1"><rect x="1" y="1" width="0" height="160" fill="#fff" mask="url(#satori_om-id)"/></mask><mask id="satori_om-id-0-0-1-2"><rect x="1" y="1" width="0" height="160" fill="#fff" mask="url(#satori_om-id)"/></mask><mask id="satori_om-id-0-0-2"><rect x="1" y="1" width="0" height="160" fill="#fff" mask="url(#satori_om-id)"/></mask><mask id="satori_om-id-0-0-2-0"><rect x="1" y="1" width="0" height="160" fill="#fff" mask="url(#satori_om-id)"/></mask><mask id="satori_om-id-0-0-2-1"><rect x="1" y="1" width="0" height="160" fill="#fff" mask="url(#satori_om-id)"/></mask><mask id="satori_om-id-0-0-3"><rect x="1" y="1" width="0" height="160" fill="#fff" mask="url(#satori_om-id)"/></mask><mask id="satori_om-id-0-0-3-0"><rect x="1" y="1" width="0" height="160" fill="#fff" mask="url(#satori_om-id)"/></mask><mask id="satori_om-id-0-0-3-1"><rect x="1" y="1" width="0" height="160" fill="#fff" mask="url(#satori_om-id)"/></mask><mask id="satori_om-id-0-0-4"><rect x="1" y="1" width="0" height="160" fill="#fff" mask="url(#satori_om-id)"/></mask><mask id="satori_om-id-0-0-4-0"><rect x="1" y="1" width="0" height="160" fill="#fff" mask="url(#satori_om-id)"/></mask><mask id="satori_om-id-0-0-4-1"><rect x="1" y="1" width="0" height="160" fill="#fff" mask="url(#satori_om-id)"/></mask><mask id="satori_om-id-0-0-5"><rect x="1" y="1" width="0" height="160" fill="#fff" mask="url(#satori_om-id)"/></mask><mask id="satori_om-id-0-0-5-0"><rect x="1" y="1" width="0" height="160" fill="#fff" mask="url(#satori_om-id)"/></mask><mask id="satori_om-id-0-0-5-1"><rect x="1" y="1" width="0" height="160" fill="#fff" mask="url(#satori_om-id)"/></mask><mask id="satori_om-id-0-0-5-2"><rect x="1" y="1" width="0" height="160" fill="#fff" mask="url(#satori_om-id)"/></mask><mask id="satori_om-id-0-0-6"><rect x="1" y="1" width="0" height="160" fill="#fff" mask="url(#satori_om-id)"/></mask><mask id="satori_om-id-0-0-6-0"><rect x="1" y="1" width="0" height="160" fill="#fff" mask="url(#satori_om-id)"/></mask><mask id="satori_om-id-0-0-6-1"><rect x="1" y="1" width="0" height="160" fill="#fff" mask="url(#satori_om-id)"/></mask><mask id="satori_om-id-0-0-7"><rect x="1" y="1" width="0" height="160" fill="#fff" mask="url(#satori_om-id)"/></mask><mask id="satori_om-id-0-0-7-0"><rect x="1" y="1" width="0" height="160" fill="#fff" mask="url(#satori_om-id)"/></mask><mask id="satori_om-id-0-0-7-1"><rect x="1" y="1" width="0" height="160" fill="#fff" mask="url(#satori_om-id)"/></mask><mask id="satori_om-id-0-0-8"><rect x="1" y="1" width="0" height="160" fill="#fff" mask="url(#satori_om-id)"/></mask><mask id="satori_om-id-0-0-8-0"><rect x="1" y="1" width="0" height="160" fill="#fff" mask="url(#satori_om-id)"/></mask><mask id="satori_om-id-0-0-8-1"><rect x="1" y="1" width="0" height="160" fill="#fff" mask="url(#satori_om-id)"/></mask><mask id="satori_om-id-0-0-9"><rect x="1" y="1" width="0" height="160" fill="#fff" mask="url(#satori_om-id)"/></mask><mask id="satori_om-id-0-0-9-0"><rect x="1" y="1" width="0" height="160" fill="#fff" mask="url(#satori_om-id)"/></mask><mask id="satori_om-id-0-0-9-1"><rect x="1" y="1" width="0" height="160" fill="#fff" mask="url(#satori_om-id)"/></mask><mask id="satori_om-id-0-1"><rect x="1" y="1" width="0" height="160" fill="#fff" mask="url(#satori_om-id)"/></mask><mask id="satori_om-id-0-2"><rect x="1" y="1" width="0" height="160" fill="#fff" mask="url(#satori_om-id)"/></mask><mask id="satori_om-id-0-3"><rect x="1" y="1" width="0" height="160" fill="#fff" mask="url(#satori_om-id)"/></mask><mask id="satori_om-id-0-4"><rect x="1" y="1" width="0" height="160" fill="#fff" mask="url(#satori_om-id)"/></mask><mask id="satori_om-id-0-5"><rect x="1" y="1" width="0" height="160" fill="#fff" mask="url(#satori_om-id)"/></mask><mask id="satori_om-id-0-6"><rect x="1" y="1" width="0" height="160" fill="#fff" mask="url(#satori_om-id)"/></mask><mask id="satori_om-id-0-7"><rect x="1" y="1" width="0" height="160" fill="#fff" mask="url(#satori_om-id)"/></mask><mask id="satori_om-id-0-8"><rect x="1" y="1" width="0" height="160" fill="#fff" mask="url(#satori_om-id)"/></mask><mask id="satori_om-id-0-9"><rect x="1" y="1" width="0" height="160" fill="#fff" mask="url(#satori_om-id)"/></mask><mask id="satori_om-id-0-10"><rect x="1" y="1" width="0" height="160" fill="#fff" mask="url(#satori_om-id)"/></mask><defs><clipPath id="satori_bc-id-1" clip-path="url(#satori_cp-id)"><path x="21" y="21" width="245" height="118" d="M35,21 h217 a14,14 0 0 1 14,14 v90 a14,14 0 0 1 -14,14 h-217 a14,14 0 0 1 -14,-14 v-90 a14,14 0 0 1 14,-14"/></clipPath></defs><mask id="satori_om-id-1"><rect x="22" y="22" width="243" height="116" fill="#fff" mask="url(#satori_om-id)"/><path width="245" height="118" fill="none" stroke="#000" stroke-width="2" d="M25.101,25.101 A14,14 0 0 1 35,21 h217 a14,14 0 0 1 14,14 v90 a14,14 0 0 1 -14,14 h-217 a14,14 0 0 1 -14,-14 v-90 A14,14 0 0 1 25.101,25.101"/></mask><path x="21" y="21" width="245" height="118" fill="rgba(12,10,20,0.6)" d="M35,21 h217 a14,14 0 0 1 14,14 v90 a14,14 0 0 1 -14,14 h-217 a14,14 0 0 1 -14,-14 v-90 a14,14 0 0 1 14,-14" clip-path="url(#satori_cp-id)" mask="url(#satori_om-id)"/><path width="245" height="118" clip-path="url(#satori_bc-id-1)" fill="none" stroke="rgba(120,80,220,0.2)" stroke-width="2" d="M25.101,25.101 A14,14 0 0 1 35,21 h217 a14,14 0 0 1 14,14 v90 a14,14 0 0 1 -14,14 h-217 a14,14 0 0 1 -14,-14 v-90 A14,14 0 0 1 25.101,25.101"/><mask id="satori_om-id-1-0"><rect x="42" y="43" width="203" height="29" fill="#fff" mask="url(#satori_om-id)"/></mask><g mask="url(#satori_om-id)" clip-path="url(#satori_cp-id)"><path fill="#ffffff" d="M48.4 66.2L48.4 66.2Q46.1 66.2 44.6 64.9Q43.2 63.5 43.2 61.0L43.2 61.0L43.2 60.1L45.4 60.1L45.4 61.0Q45.4 62.6 46.2 63.4Q47.0 64.3 48.4 64.3L48.4 64.3Q49.7 64.3 50.5 63.4Q51.4 62.6 51.4 61.0L51.4 61.0L51.4 48.5L53.6 48.5L53.6 61.0Q53.6 63.5 52.1 64.9Q50.7 66.2 48.4 66.2ZM63.4 66.3L63.4 66.3Q61.5 66.3 60.1 65.7Q58.7 65.1 57.9 64.0Q57.2 62.9 57.1 61.4L57.1 61.4L59.3 61.4Q59.4 62.4 60.0 63.1Q60.6 63.7 61.5 64.0Q62.4 64.3 63.4 64.3L63.4 64.3Q64.6 64.3 65.5 63.9Q66.5 63.5 67.0 62.8Q67.6 62.1 67.6 61.2L67.6 61.2Q67.6 60.4 67.1 59.8Q66.6 59.3 65.8 59.0Q65.1 58.6 64.1 58.4L64.1 58.4L62.0 57.8Q59.9 57.2 58.7 56.1Q57.6 54.9 57.6 53.2L57.6 53.2Q57.6 51.7 58.3 50.6Q59.1 49.5 60.5 48.9Q61.9 48.3 63.6 48.3L63.6 48.3Q65.3 48.3 66.6 48.9Q67.9 49.5 68.7 50.6Q69.5 51.6 69.5 52.9L69.5 52.9L67.3 52.9Q67.2 51.7 66.1 51.0Q65.0 50.3 63.5 50.3L63.5 50.3Q62.4 50.3 61.5 50.6Q60.7 51.0 60.2 51.7Q59.7 52.3 59.7 53.1L59.7 53.1Q59.7 54.0 60.3 54.6Q60.9 55.1 61.6 55.4Q62.4 55.8 63.0 55.9L63.0 55.9L64.8 56.4Q65.5 56.6 66.3 56.9Q67.2 57.3 68.0 57.8Q68.7 58.3 69.2 59.2Q69.7 60.0 69.7 61.2L69.7 61.2Q69.7 62.7 69.0 63.8Q68.3 65.0 66.8 65.6Q65.4 66.3 63.4 66.3ZM74.3 66L71.8 66L78.0 57.1L72.2 48.5L74.7 48.5L77.3 52.2Q77.8 53.1 78.2 53.6Q78.5 54.2 78.8 54.7L78.8 54.7Q79.0 55.1 79.3 55.6L79.3 55.6Q79.6 55.1 79.8 54.7L79.8 54.7Q80.1 54.2 80.5 53.6Q80.8 53.1 81.4 52.2L81.4 52.2L84.0 48.5L86.5 48.5L80.6 57.0L86.8 66L84.2 66L81.2 61.6Q80.7 60.8 80.3 60.3Q80.0 59.8 79.7 59.3L79.7 59.3Q79.5 58.9 79.3 58.5L79.3 58.5Q79.1 58.9 78.9 59.2L78.9 59.2Q78.6 59.8 78.2 60.3Q77.9 60.8 77.4 61.6L77.4 61.6L74.3 66Z "/></g><mask id="satori_om-id-1-1"><rect x="42" y="80" width="203" height="18" fill="#fff" mask="url(#satori_om-id)"/></mask><g mask="url(#satori_om-id)" clip-path="url(#satori_cp-id)"><path fill="#ffffff" d="M45.2 95L43.0 95L43.0 84.1L47.2 84.1Q48.5 84.1 49.4 84.5Q50.2 85.0 50.7 85.8Q51.1 86.6 51.1 87.6Q51.1 88.7 50.7 89.5Q50.2 90.3 49.3 90.7L49.3 90.7Q49.3 90.7 49.2 90.7L49.2 90.7L51.5 95L49.1 95L47.0 91.1L45.2 91.1L45.2 95ZM45.2 85.9L45.2 89.3L46.8 89.3Q47.5 89.3 48.0 89.1Q48.4 88.9 48.6 88.6Q48.8 88.2 48.8 87.6L48.8 87.6Q48.8 87.1 48.6 86.7Q48.4 86.3 48.0 86.1Q47.5 85.9 46.8 85.9L46.8 85.9L45.2 85.9ZM56.5 95.2L56.5 95.2Q55.2 95.2 54.3 94.6Q53.4 94.1 52.9 93.2Q52.4 92.2 52.4 90.9L52.4 90.9Q52.4 89.7 52.9 88.7Q53.4 87.8 54.3 87.2Q55.2 86.7 56.4 86.7L56.4 86.7Q57.2 86.7 57.9 87.0Q58.6 87.2 59.1 87.7Q59.6 88.3 59.9 89.0Q60.2 89.8 60.2 90.9L60.2 90.9L60.2 91.5L54.6 91.5Q54.6 92.1 54.9 92.5L54.9 92.5Q55.1 93.0 55.5 93.3Q56.0 93.5 56.5 93.5L56.5 93.5Q56.9 93.5 57.2 93.4Q57.5 93.3 57.8 93.1Q58.0 92.9 58.1 92.5L58.1 92.5L60.1 92.9Q59.9 93.6 59.4 94.1Q58.9 94.6 58.2 94.9Q57.4 95.2 56.5 95.2ZM54.6 90.1L54.6 90.1L58.1 90.1Q58.1 89.7 57.9 89.4L57.9 89.4Q57.7 88.9 57.3 88.6Q57.0 88.4 56.4 88.4L56.4 88.4Q55.8 88.4 55.4 88.6Q55.0 88.9 54.8 89.3L54.8 89.3Q54.7 89.7 54.6 90.1ZM64.0 95.2L64.0 95.2Q63.2 95.2 62.6 94.9Q62.0 94.6 61.6 94.1Q61.3 93.5 61.3 92.7L61.3 92.7Q61.3 92.0 61.5 91.6Q61.8 91.1 62.2 90.8Q62.7 90.5 63.2 90.4Q63.8 90.3 64.4 90.2L64.4 90.2Q65.1 90.1 65.5 90.1Q66.0 90.0 66.2 89.9Q66.4 89.7 66.4 89.5L66.4 89.5L66.4 89.4Q66.4 89.1 66.2 88.8Q66.1 88.6 65.8 88.5Q65.5 88.3 65.1 88.3L65.1 88.3Q64.7 88.3 64.3 88.5Q64.0 88.6 63.8 88.8Q63.6 89.0 63.5 89.3L63.5 89.3L61.5 89.0Q61.7 88.2 62.2 87.7Q62.7 87.2 63.4 87.0Q64.2 86.7 65.1 86.7L65.1 86.7Q65.7 86.7 66.4 86.9Q67.0 87.0 67.5 87.4Q68.0 87.7 68.3 88.2Q68.6 88.7 68.6 89.5L68.6 89.5L68.6 95L66.5 95L66.5 93.9L66.4 93.9Q66.2 94.2 65.9 94.5Q65.5 94.8 65.1 95.0Q64.6 95.2 64.0 95.2ZM64.6 93.6L64.6 93.6Q65.2 93.6 65.5 93.4Q65.9 93.2 66.2 92.9Q66.4 92.5 66.4 92.1L66.4 92.1L66.4 91.2Q66.3 91.3 66.1 91.3Q65.9 91.4 65.6 91.4Q65.4 91.5 65.2 91.5Q64.9 91.5 64.7 91.6L64.7 91.6Q64.3 91.6 64.0 91.7Q63.7 91.9 63.6 92.1Q63.4 92.3 63.4 92.6L63.4 92.6Q63.4 93.0 63.6 93.2Q63.7 93.4 64.0 93.5Q64.3 93.6 64.6 93.6ZM74.1 95.2L74.1 95.2Q72.9 95.2 72.0 94.6Q71.1 94.1 70.6 93.2Q70.1 92.2 70.1 90.9L70.1 90.9Q70.1 89.7 70.6 88.7Q71.1 87.8 72.0 87.2Q72.9 86.7 74.1 86.7L74.1 86.7Q74.8 86.7 75.4 86.9Q76.1 87.1 76.5 87.4Q77.0 87.8 77.3 88.3Q77.6 88.8 77.7 89.4L77.7 89.4L75.7 89.8Q75.6 89.5 75.5 89.2Q75.3 89.0 75.1 88.8Q75.0 88.6 74.7 88.5Q74.4 88.4 74.1 88.4L74.1 88.4Q73.5 88.4 73.1 88.8Q72.7 89.1 72.5 89.6Q72.3 90.2 72.3 90.9L72.3 90.9Q72.3 91.7 72.5 92.2Q72.7 92.8 73.1 93.1Q73.5 93.4 74.1 93.4L74.1 93.4Q74.4 93.4 74.7 93.3Q75.0 93.2 75.2 93.0Q75.4 92.9 75.5 92.6Q75.6 92.3 75.7 92.0L75.7 92.0L77.7 92.4Q77.6 93.0 77.3 93.5Q77.0 94.0 76.5 94.4Q76.1 94.8 75.4 95.0Q74.8 95.2 74.1 95.2ZM81.8 86.8L83.3 86.8L83.3 88.5L81.8 88.5L81.8 92.6Q81.8 93.0 82.0 93.2Q82.1 93.4 82.5 93.4L82.5 93.4Q82.7 93.4 82.9 93.3Q83.1 93.3 83.2 93.3L83.2 93.3L83.6 94.9Q83.2 95.0 82.8 95.1Q82.5 95.1 82.1 95.1L82.1 95.1Q80.9 95.1 80.2 94.5Q79.6 93.9 79.6 92.8L79.6 92.8L79.6 88.5L78.5 88.5L78.5 86.8L79.6 86.8L79.6 84.9L81.8 84.9L81.8 86.8Z M93.1 95.1L93.1 95.1Q91.7 95.1 90.5 94.5Q89.4 93.8 88.7 92.6Q88.1 91.3 88.1 89.6L88.1 89.6Q88.1 87.8 88.7 86.5Q89.4 85.3 90.5 84.6Q91.7 83.9 93.1 83.9L93.1 83.9Q94.1 83.9 94.9 84.2Q95.7 84.5 96.3 85.0Q96.9 85.5 97.3 86.2Q97.7 86.9 97.8 87.8L97.8 87.8L95.6 87.8Q95.5 87.4 95.3 87.0Q95.1 86.7 94.8 86.4Q94.4 86.2 94.0 86.1Q93.6 85.9 93.2 85.9L93.2 85.9Q92.3 85.9 91.7 86.4Q91.0 86.8 90.7 87.6Q90.3 88.4 90.3 89.6L90.3 89.6Q90.3 90.7 90.7 91.5Q91.0 92.3 91.7 92.8Q92.3 93.2 93.2 93.2L93.2 93.2Q93.6 93.2 94.0 93.0Q94.4 92.9 94.7 92.7Q95.1 92.4 95.3 92.1Q95.5 91.7 95.6 91.3L95.6 91.3L97.8 91.3Q97.7 92.0 97.4 92.7Q97.0 93.4 96.4 94.0Q95.8 94.5 95.0 94.8Q94.2 95.1 93.1 95.1ZM103.1 95.2L103.1 95.2Q101.8 95.2 100.9 94.6Q100.0 94.1 99.5 93.2Q99.1 92.2 99.1 90.9L99.1 90.9Q99.1 89.7 99.5 88.7Q100.0 87.8 100.9 87.2Q101.8 86.7 103.1 86.7L103.1 86.7Q104.3 86.7 105.2 87.2Q106.1 87.8 106.6 88.7Q107.1 89.7 107.1 90.9L107.1 90.9Q107.1 92.2 106.6 93.2Q106.1 94.1 105.2 94.6Q104.3 95.2 103.1 95.2ZM103.1 93.4L103.1 93.4Q103.6 93.4 104.0 93.1Q104.4 92.8 104.6 92.2Q104.8 91.6 104.8 90.9L104.8 90.9Q104.8 90.2 104.6 89.6Q104.4 89.1 104.0 88.8Q103.6 88.4 103.1 88.4L103.1 88.4Q102.5 88.4 102.1 88.8Q101.7 89.1 101.5 89.6Q101.3 90.2 101.3 90.9L101.3 90.9Q101.3 91.6 101.5 92.2Q101.7 92.8 102.1 93.1Q102.5 93.4 103.1 93.4ZM110.8 95L108.6 95L108.6 86.8L110.6 86.8L110.7 88.4Q110.9 87.9 111.1 87.6L111.1 87.6Q111.5 87.1 112.0 86.9Q112.5 86.7 113.1 86.7L113.1 86.7Q113.9 86.7 114.5 87.2L114.5 87.2Q114.9 87.7 115.2 88.5L115.2 88.5Q115.3 88.0 115.6 87.7L115.6 87.7Q116.0 87.2 116.6 86.9Q117.2 86.7 117.8 86.7L117.8 86.7Q118.6 86.7 119.1 87.0Q119.7 87.3 120.1 88.0Q120.4 88.6 120.4 89.5L120.4 89.5L120.4 95L118.2 95L118.2 89.9Q118.2 89.2 117.8 88.9Q117.5 88.5 116.9 88.5L116.9 88.5Q116.5 88.5 116.2 88.7Q115.9 88.9 115.7 89.2Q115.6 89.5 115.6 90.0L115.6 90.0L115.6 95L113.4 95L113.4 89.8Q113.4 89.2 113.1 88.9Q112.7 88.5 112.2 88.5L112.2 88.5Q111.8 88.5 111.5 88.7Q111.2 88.9 111.0 89.2Q110.8 89.6 110.8 90.0L110.8 90.0L110.8 95ZM124.5 98.1L122.3 98.1L122.3 86.8L124.4 86.8L124.4 88.2L124.6 88.2Q124.7 87.9 125.0 87.5Q125.3 87.2 125.7 86.9Q126.2 86.7 126.9 86.7L126.9 86.7Q127.8 86.7 128.6 87.2Q129.3 87.6 129.8 88.6Q130.2 89.5 130.2 90.9L130.2 90.9Q130.2 92.3 129.8 93.2Q129.3 94.2 128.6 94.7Q127.8 95.1 126.9 95.1L126.9 95.1Q126.2 95.1 125.7 94.9Q125.3 94.7 125.0 94.4Q124.7 94.0 124.6 93.7L124.6 93.7L124.5 93.7L124.5 98.1ZM126.2 93.4L126.2 93.4Q126.8 93.4 127.2 93.1Q127.6 92.7 127.8 92.2Q128.0 91.6 128.0 90.9L128.0 90.9Q128.0 90.2 127.8 89.6Q127.6 89.1 127.2 88.8Q126.8 88.5 126.2 88.5L126.2 88.5Q125.6 88.5 125.2 88.8Q124.8 89.1 124.6 89.6Q124.4 90.2 124.4 90.9L124.4 90.9Q124.4 91.7 124.6 92.2Q124.9 92.8 125.2 93.1Q125.6 93.4 126.2 93.4ZM135.4 95.2L135.4 95.2Q134.2 95.2 133.3 94.6Q132.4 94.1 131.9 93.2Q131.4 92.2 131.4 90.9L131.4 90.9Q131.4 89.7 131.9 88.7Q132.4 87.8 133.3 87.2Q134.2 86.7 135.4 86.7L135.4 86.7Q136.6 86.7 137.5 87.2Q138.4 87.8 138.9 88.7Q139.4 89.7 139.4 90.9L139.4 90.9Q139.4 92.2 138.9 93.2Q138.4 94.1 137.5 94.6Q136.6 95.2 135.4 95.2ZM135.4 93.4L135.4 93.4Q136.0 93.4 136.4 93.1Q136.8 92.8 137.0 92.2Q137.2 91.6 137.2 90.9L137.2 90.9Q137.2 90.2 137.0 89.6Q136.8 89.1 136.4 88.8Q136.0 88.4 135.4 88.4L135.4 88.4Q134.8 88.4 134.4 88.8Q134.0 89.1 133.8 89.6Q133.6 90.2 133.6 90.9L133.6 90.9Q133.6 91.6 133.8 92.2Q134.0 92.8 134.4 93.1Q134.8 93.4 135.4 93.4ZM143.1 90.3L143.1 90.3L143.1 95L140.9 95L140.9 86.8L143.0 86.8L143.0 88.5Q143.4 87.7 143.9 87.3L143.9 87.3Q144.6 86.7 145.6 86.7L145.6 86.7Q146.4 86.7 147.1 87.1Q147.7 87.4 148.1 88.1Q148.4 88.8 148.4 89.8L148.4 89.8L148.4 95L146.2 95L146.2 90.2Q146.2 89.4 145.8 89.0Q145.4 88.5 144.7 88.5L144.7 88.5Q144.3 88.5 143.9 88.7Q143.5 89.0 143.3 89.3Q143.1 89.7 143.1 90.3ZM154.0 95.2L154.0 95.2Q152.7 95.2 151.8 94.6Q150.9 94.1 150.4 93.2Q149.9 92.2 149.9 90.9L149.9 90.9Q149.9 89.7 150.4 88.7Q150.9 87.8 151.8 87.2Q152.7 86.7 153.9 86.7L153.9 86.7Q154.7 86.7 155.4 87.0Q156.1 87.2 156.6 87.7Q157.1 88.3 157.4 89.0Q157.7 89.8 157.7 90.9L157.7 90.9L157.7 91.5L152.1 91.5Q152.1 92.1 152.4 92.5L152.4 92.5Q152.6 93.0 153.0 93.3Q153.4 93.5 154.0 93.5L154.0 93.5Q154.4 93.5 154.7 93.4Q155.0 93.3 155.3 93.1Q155.5 92.9 155.6 92.5L155.6 92.5L157.6 92.9Q157.4 93.6 156.9 94.1Q156.4 94.6 155.7 94.9Q154.9 95.2 154.0 95.2ZM152.1 90.1L152.1 90.1L155.6 90.1Q155.6 89.7 155.4 89.4L155.4 89.4Q155.2 88.9 154.8 88.6Q154.5 88.4 153.9 88.4L153.9 88.4Q153.3 88.4 152.9 88.6Q152.5 88.9 152.3 89.3L152.3 89.3Q152.2 89.7 152.1 90.1ZM161.4 90.3L161.4 90.3L161.4 95L159.2 95L159.2 86.8L161.3 86.8L161.3 88.5Q161.6 87.7 162.2 87.3L162.2 87.3Q162.8 86.7 163.9 86.7L163.9 86.7Q164.7 86.7 165.4 87.1Q166.0 87.4 166.3 88.1Q166.7 88.8 166.7 89.8L166.7 89.8L166.7 95L164.5 95L164.5 90.2Q164.5 89.4 164.1 89.0Q163.7 88.5 163.0 88.5L163.0 88.5Q162.5 88.5 162.2 88.7Q161.8 89.0 161.6 89.3Q161.4 89.7 161.4 90.3ZM171.1 86.8L172.6 86.8L172.6 88.5L171.1 88.5L171.1 92.6Q171.1 93.0 171.3 93.2Q171.4 93.4 171.8 93.4L171.8 93.4Q172.0 93.4 172.2 93.3Q172.4 93.3 172.5 93.3L172.5 93.3L172.8 94.9Q172.5 95.0 172.1 95.1Q171.8 95.1 171.4 95.1L171.4 95.1Q170.2 95.1 169.5 94.5Q168.9 93.9 168.9 92.8L168.9 92.8L168.9 88.5L167.8 88.5L167.8 86.8L168.9 86.8L168.9 84.9L171.1 84.9L171.1 86.8ZM177.3 95.2L177.3 95.2Q176.3 95.2 175.5 94.9Q174.8 94.6 174.3 94.1Q173.8 93.5 173.7 92.8L173.7 92.8L175.7 92.4Q175.9 93.0 176.3 93.3Q176.7 93.5 177.4 93.5L177.4 93.5Q178.0 93.5 178.4 93.3Q178.7 93.1 178.7 92.7L178.7 92.7Q178.7 92.4 178.5 92.2Q178.2 92.0 177.7 91.9L177.7 91.9L176.3 91.6Q175.1 91.3 174.5 90.7Q173.9 90.2 173.9 89.3L173.9 89.3Q173.9 88.5 174.3 87.9Q174.8 87.3 175.5 87.0Q176.3 86.7 177.3 86.7L177.3 86.7Q178.3 86.7 179.0 87.0Q179.7 87.2 180.2 87.7Q180.6 88.2 180.8 88.9L180.8 88.9L178.8 89.2Q178.7 88.8 178.3 88.6Q178.0 88.3 177.4 88.3L177.4 88.3Q176.8 88.3 176.5 88.5Q176.1 88.7 176.1 89.1L176.1 89.1Q176.1 89.4 176.3 89.6Q176.6 89.9 177.1 90.0L177.1 90.0L178.6 90.3Q179.8 90.5 180.4 91.0Q181.0 91.6 181.0 92.5L181.0 92.5Q181.0 93.3 180.5 93.9Q180.0 94.5 179.2 94.8Q178.4 95.2 177.3 95.2Z "/></g><mask id="satori_om-id-1-2"><rect x="42" y="102" width="203" height="15" fill="#fff" mask="url(#satori_om-id)"/></mask><g mask="url(#satori_om-id)" clip-path="url(#satori_cp-id)"><path fill="rgba(220,210,255,0.85)" d="M46.0 114L44.7 114L42.3 105.3L43.4 105.3L44.8 110.6Q44.9 111.1 45.0 111.5Q45.1 111.9 45.2 112.4L45.2 112.4Q45.3 112.7 45.3 113.0L45.3 113.0Q45.4 112.7 45.5 112.4L45.5 112.4Q45.5 111.9 45.7 111.5Q45.8 111.1 45.9 110.6L45.9 110.6L47.3 105.3L48.5 105.3L49.9 110.6Q50.1 111.1 50.2 111.5Q50.3 111.9 50.4 112.4L50.4 112.4Q50.4 112.7 50.5 112.9L50.5 112.9Q50.5 112.7 50.6 112.4L50.6 112.4Q50.7 111.9 50.8 111.5Q50.9 111.1 51.0 110.6L51.0 110.6L52.4 105.3L53.5 105.3L51.1 114L49.8 114L48.3 108.5Q48.2 107.9 48.1 107.3L48.1 107.3Q48.0 106.9 47.9 106.5L47.9 106.5Q47.8 106.9 47.8 107.2L47.8 107.2Q47.6 107.8 47.5 108.5L47.5 108.5L46.0 114ZM55.8 114L54.8 114L54.8 107.4L55.8 107.4L55.8 108.5L55.8 108.5Q56.0 108.0 56.5 107.7Q57.0 107.4 57.5 107.4L57.5 107.4Q57.7 107.4 57.8 107.4Q58.0 107.4 58.1 107.4L58.1 107.4L58.1 108.4Q58.0 108.4 57.8 108.4Q57.7 108.4 57.4 108.4L57.4 108.4Q57.0 108.4 56.6 108.6Q56.2 108.8 56.0 109.1Q55.8 109.5 55.8 109.9L55.8 109.9L55.8 114ZM60.3 114L59.3 114L59.3 107.4L60.3 107.4L60.3 114ZM59.8 106.4L59.8 106.4Q59.5 106.4 59.3 106.2Q59.1 106.0 59.1 105.7L59.1 105.7Q59.1 105.4 59.3 105.2Q59.5 105.0 59.8 105.0L59.8 105.0Q60.1 105.0 60.3 105.2Q60.5 105.4 60.5 105.7L60.5 105.7Q60.5 106.0 60.3 106.2Q60.1 106.4 59.8 106.4ZM63.4 107.4L64.8 107.4L64.8 108.4L63.4 108.4L63.4 112.3Q63.4 112.7 63.6 112.9Q63.8 113.1 64.2 113.1L64.2 113.1Q64.3 113.1 64.4 113.1Q64.6 113.1 64.7 113.1L64.7 113.1L64.9 114.0Q64.8 114.0 64.6 114.1Q64.4 114.1 64.1 114.1L64.1 114.1Q63.3 114.1 62.8 113.6Q62.3 113.2 62.3 112.4L62.3 112.4L62.3 108.4L61.4 108.4L61.4 107.4L62.3 107.4L62.3 105.9L63.4 105.9L63.4 107.4ZM68.9 114.1L68.9 114.1Q67.9 114.1 67.2 113.7Q66.5 113.3 66.2 112.5Q65.8 111.8 65.8 110.8Q65.8 109.8 66.1 109.0Q66.5 108.2 67.2 107.8Q67.8 107.4 68.7 107.4L68.7 107.4Q69.3 107.4 69.8 107.5Q70.3 107.7 70.7 108.1Q71.1 108.5 71.3 109.1Q71.6 109.7 71.6 110.6L71.6 110.6L71.6 111.1L66.8 111.1Q66.9 111.7 67.1 112.2L67.1 112.2Q67.4 112.7 67.8 112.9Q68.3 113.2 68.9 113.2L68.9 113.2Q69.2 113.2 69.6 113.1Q69.9 113.0 70.1 112.8Q70.3 112.5 70.5 112.2L70.5 112.2L71.5 112.5Q71.3 113.0 71.0 113.3Q70.6 113.7 70.1 113.9Q69.5 114.1 68.9 114.1ZM66.9 110.2L66.9 110.2L70.5 110.2Q70.5 109.7 70.3 109.4L70.3 109.4Q70.1 108.9 69.7 108.6Q69.3 108.3 68.7 108.3Q68.1 108.3 67.7 108.6Q67.3 108.9 67.1 109.3L67.1 109.3Q66.9 109.7 66.9 110.2Z M77.5 114L76.5 114L76.5 107.4L77.5 107.4L77.5 108.5L77.6 108.5Q77.7 108.0 78.2 107.7Q78.7 107.4 79.3 107.4L79.3 107.4Q79.4 107.4 79.5 107.4Q79.7 107.4 79.8 107.4L79.8 107.4L79.8 108.4Q79.7 108.4 79.6 108.4Q79.4 108.4 79.2 108.4L79.2 108.4Q78.7 108.4 78.3 108.6Q77.9 108.8 77.7 109.1Q77.5 109.5 77.5 109.9L77.5 109.9L77.5 114ZM83.7 114.1L83.7 114.1Q82.8 114.1 82.1 113.7Q81.4 113.3 81.0 112.5Q80.7 111.8 80.7 110.8Q80.7 109.8 81.0 109.0Q81.4 108.2 82.1 107.8Q82.7 107.4 83.6 107.4L83.6 107.4Q84.1 107.4 84.6 107.5Q85.2 107.7 85.6 108.1Q86.0 108.5 86.2 109.1Q86.5 109.7 86.5 110.6L86.5 110.6L86.5 111.1L81.7 111.1Q81.8 111.7 82.0 112.2L82.0 112.2Q82.2 112.7 82.7 112.9Q83.2 113.2 83.7 113.2L83.7 113.2Q84.1 113.2 84.5 113.1Q84.8 113.0 85.0 112.8Q85.2 112.5 85.3 112.2L85.3 112.2L86.4 112.5Q86.2 113.0 85.9 113.3Q85.5 113.7 85.0 113.9Q84.4 114.1 83.7 114.1ZM81.7 110.2L81.7 110.2L85.4 110.2Q85.4 109.7 85.2 109.4L85.2 109.4Q85.0 108.9 84.6 108.6Q84.2 108.3 83.6 108.3Q83.0 108.3 82.6 108.6Q82.2 108.9 82.0 109.3L82.0 109.3Q81.8 109.7 81.7 110.2ZM89.8 114.2L89.8 114.2Q89.2 114.2 88.7 113.9Q88.2 113.7 87.9 113.2Q87.6 112.8 87.6 112.1L87.6 112.1Q87.6 111.6 87.8 111.2Q88.0 110.9 88.4 110.7Q88.8 110.5 89.2 110.4Q89.7 110.3 90.1 110.2L90.1 110.2Q90.7 110.1 91.1 110.1Q91.5 110.1 91.6 110.0Q91.8 109.9 91.8 109.6L91.8 109.6L91.8 109.6Q91.8 109.2 91.7 108.9Q91.5 108.6 91.2 108.4Q90.9 108.3 90.4 108.3L90.4 108.3Q90.0 108.3 89.6 108.4Q89.3 108.6 89.1 108.8Q88.9 109.0 88.8 109.3L88.8 109.3L87.8 108.9Q88.0 108.3 88.5 108.0Q88.9 107.6 89.4 107.5Q89.9 107.4 90.4 107.4L90.4 107.4Q90.7 107.4 91.2 107.4Q91.6 107.5 92.0 107.8Q92.4 108.0 92.6 108.5Q92.9 108.9 92.9 109.7L92.9 109.7L92.9 114L91.8 114L91.8 113.1L91.8 113.1Q91.7 113.3 91.4 113.6Q91.2 113.8 90.8 114.0Q90.4 114.2 89.8 114.2ZM90 113.2L90 113.2Q90.6 113.2 91.0 113.0Q91.4 112.8 91.6 112.4Q91.8 112.0 91.8 111.6L91.8 111.6L91.8 110.7Q91.8 110.8 91.5 110.9Q91.3 110.9 91.0 111.0Q90.8 111.0 90.5 111.0Q90.2 111.1 90.1 111.1L90.1 111.1Q89.7 111.1 89.4 111.3Q89.0 111.4 88.8 111.6Q88.6 111.8 88.6 112.2L88.6 112.2Q88.6 112.5 88.8 112.8Q89.0 113.0 89.3 113.1Q89.6 113.2 90 113.2ZM94.7 105.3L95.8 105.3L95.8 114L94.7 114L94.7 105.3Z M103.3 114.1L103.3 114.1Q102.1 114.1 101.4 113.4Q100.7 112.8 100.7 111.5L100.7 111.5L100.7 111.0L101.8 111.0L101.8 111.5Q101.8 112.3 102.2 112.7Q102.6 113.1 103.3 113.1L103.3 113.1Q103.9 113.1 104.3 112.7Q104.8 112.3 104.8 111.5L104.8 111.5L104.8 105.3L105.9 105.3L105.9 111.5Q105.9 112.8 105.1 113.4Q104.4 114.1 103.3 114.1ZM110.8 114.2L110.8 114.2Q109.8 114.2 109.1 113.8Q108.4 113.5 108.1 113.0Q107.7 112.4 107.6 111.7L107.6 111.7L108.8 111.7Q108.8 112.2 109.1 112.5Q109.4 112.8 109.8 113.0Q110.3 113.2 110.8 113.2L110.8 113.2Q111.4 113.2 111.8 113.0Q112.3 112.8 112.6 112.4Q112.9 112.1 112.9 111.6L112.9 111.6Q112.9 111.2 112.6 110.9Q112.4 110.7 112.0 110.5Q111.6 110.3 111.1 110.2L111.1 110.2L110.1 109.9Q109.0 109.6 108.4 109.0Q107.9 108.5 107.9 107.6L107.9 107.6Q107.9 106.9 108.3 106.3Q108.7 105.8 109.3 105.5Q110.0 105.2 110.9 105.2L110.9 105.2Q111.7 105.2 112.4 105.5Q113.0 105.8 113.4 106.3Q113.8 106.8 113.8 107.5L113.8 107.5L112.7 107.5Q112.7 106.8 112.1 106.5Q111.6 106.1 110.8 106.1L110.8 106.1Q110.3 106.1 109.8 106.3Q109.4 106.5 109.2 106.8Q108.9 107.1 108.9 107.6L108.9 107.6Q108.9 108.0 109.2 108.3Q109.5 108.6 109.9 108.7Q110.3 108.9 110.6 109.0L110.6 109.0L111.5 109.2Q111.8 109.3 112.3 109.5Q112.7 109.6 113.1 109.9Q113.4 110.2 113.7 110.6Q113.9 111.0 113.9 111.6L113.9 111.6Q113.9 112.3 113.6 112.9Q113.2 113.5 112.5 113.8Q111.8 114.2 110.8 114.2ZM116.2 114L115.0 114L118.1 109.5L115.2 105.3L116.4 105.3L117.7 107.1Q118.0 107.5 118.2 107.8Q118.3 108.1 118.5 108.4L118.5 108.4Q118.6 108.6 118.7 108.8L118.7 108.8Q118.9 108.6 119.0 108.4L119.0 108.4Q119.1 108.1 119.3 107.8Q119.5 107.5 119.8 107.1L119.8 107.1L121.1 105.3L122.3 105.3L119.4 109.5L122.5 114L121.2 114L119.7 111.8Q119.4 111.4 119.3 111.2Q119.1 110.9 118.9 110.6L118.9 110.6Q118.8 110.5 118.7 110.3L118.7 110.3Q118.6 110.5 118.5 110.6L118.5 110.6Q118.4 110.9 118.2 111.1Q118.0 111.4 117.8 111.8L117.8 111.8L116.2 114Z M129.6 114L128.6 114L126.6 107.4L127.7 107.4L128.5 110.3Q128.7 110.9 128.9 111.6L128.9 111.6Q129.0 112.2 129.1 112.9L129.1 112.9Q129.3 112.2 129.4 111.7L129.4 111.7Q129.6 110.9 129.8 110.3L129.8 110.3L130.5 107.4L131.7 107.4L132.4 110.3Q132.6 110.9 132.8 111.7L132.8 111.7Q132.9 112.2 133.1 112.9L133.1 112.9Q133.2 112.2 133.3 111.7L133.3 111.7Q133.5 110.9 133.7 110.3L133.7 110.3L134.5 107.4L135.6 107.4L133.6 114L132.6 114L131.7 111.0Q131.6 110.6 131.5 110.1Q131.3 109.6 131.2 109.2L131.2 109.2Q131.2 108.9 131.1 108.6L131.1 108.6Q131.0 108.9 131.0 109.1L131.0 109.1Q130.9 109.6 130.7 110.1Q130.6 110.6 130.5 111.0L130.5 111.0L129.6 114ZM138.0 114L136.9 114L136.9 107.4L138.0 107.4L138.0 114ZM137.5 106.4L137.5 106.4Q137.2 106.4 137.0 106.2Q136.7 106.0 136.7 105.7L136.7 105.7Q136.7 105.4 137.0 105.2Q137.2 105.0 137.5 105.0L137.5 105.0Q137.8 105.0 138.0 105.2Q138.2 105.4 138.2 105.7L138.2 105.7Q138.2 106.0 138.0 106.2Q137.8 106.4 137.5 106.4ZM141.1 107.4L142.4 107.4L142.4 108.4L141.1 108.4L141.1 112.3Q141.1 112.7 141.2 112.9Q141.4 113.1 141.8 113.1L141.8 113.1Q141.9 113.1 142.1 113.1Q142.3 113.1 142.4 113.1L142.4 113.1L142.6 114.0Q142.4 114.0 142.2 114.1Q142.0 114.1 141.8 114.1L141.8 114.1Q141.0 114.1 140.5 113.6Q140.0 113.2 140.0 112.4L140.0 112.4L140.0 108.4L139.0 108.4L139.0 107.4L140.0 107.4L140.0 105.9L141.1 105.9L141.1 107.4ZM144.8 110.1L144.8 110.1L144.8 114L143.8 114L143.8 105.3L144.8 105.3L144.8 108.6Q145.1 108.0 145.5 107.7L145.5 107.7Q146.0 107.4 146.8 107.4L146.8 107.4Q147.5 107.4 148.0 107.6Q148.5 107.9 148.7 108.5Q149.0 109.0 149.0 109.8L149.0 109.8L149.0 114L147.9 114L147.9 109.9Q147.9 109.2 147.6 108.7Q147.2 108.3 146.5 108.3L146.5 108.3Q146.0 108.3 145.6 108.5Q145.3 108.7 145.0 109.1Q144.8 109.5 144.8 110.1Z M156.5 114.1L156.5 114.1Q155.8 114.1 155.3 113.9Q154.7 113.7 154.4 113.4Q154.1 113.0 153.9 112.4L153.9 112.4L154.9 112.2Q155.1 112.7 155.5 113.0Q155.9 113.2 156.5 113.2L156.5 113.2Q157.1 113.2 157.5 112.9Q158.0 112.6 158.0 112.2L158.0 112.2Q158.0 111.9 157.7 111.7Q157.5 111.4 157.0 111.3L157.0 111.3L155.9 111.1Q155.0 110.9 154.6 110.4Q154.1 110.0 154.1 109.3L154.1 109.3Q154.1 108.7 154.5 108.3Q154.8 107.9 155.3 107.6Q155.9 107.4 156.6 107.4L156.6 107.4Q157.2 107.4 157.7 107.6Q158.2 107.8 158.5 108.1Q158.8 108.5 158.9 108.9L158.9 108.9L158.0 109.2Q157.8 108.8 157.5 108.6Q157.2 108.3 156.6 108.3L156.6 108.3Q156.0 108.3 155.6 108.5Q155.2 108.8 155.2 109.2L155.2 109.2Q155.2 109.6 155.5 109.8Q155.7 110.0 156.3 110.2L156.3 110.2L157.3 110.4Q158.2 110.6 158.6 111.0Q159.0 111.5 159.0 112.2L159.0 112.2Q159.0 112.7 158.7 113.2Q158.4 113.6 157.8 113.9Q157.2 114.1 156.5 114.1ZM161.8 107.4L163.1 107.4L163.1 108.4L161.8 108.4L161.8 112.3Q161.8 112.7 162.0 112.9Q162.2 113.1 162.6 113.1L162.6 113.1Q162.7 113.1 162.8 113.1Q163.0 113.1 163.1 113.1L163.1 113.1L163.3 114.0Q163.2 114.0 163.0 114.1Q162.8 114.1 162.5 114.1L162.5 114.1Q161.7 114.1 161.2 113.6Q160.7 113.2 160.7 112.4L160.7 112.4L160.7 108.4L159.8 108.4L159.8 107.4L160.7 107.4L160.7 105.9L161.8 105.9L161.8 107.4ZM164.4 116.4L164.4 116.4L164.7 115.5L164.8 115.5Q165.1 115.6 165.4 115.5Q165.6 115.5 165.8 115.3Q166.0 115.0 166.2 114.6L166.2 114.6L166.4 114.0L163.9 107.4L165.0 107.4L166.4 111.3Q166.7 111.9 166.8 112.5L166.8 112.5Q166.9 112.8 166.9 113.0L166.9 113.0Q167.0 112.8 167.1 112.5L167.1 112.5Q167.2 111.9 167.4 111.3L167.4 111.3L168.8 107.4L170.0 107.4L167.1 115.0Q166.9 115.5 166.6 115.8Q166.4 116.2 166.0 116.3Q165.6 116.5 165.2 116.5L165.2 116.5Q164.9 116.5 164.7 116.5Q164.5 116.4 164.4 116.4ZM171.2 105.3L172.3 105.3L172.3 114L171.2 114L171.2 105.3ZM176.9 114.1L176.9 114.1Q176.0 114.1 175.3 113.7Q174.6 113.3 174.2 112.5Q173.8 111.8 173.8 110.8Q173.8 109.8 174.2 109.0Q174.6 108.2 175.2 107.8Q175.9 107.4 176.8 107.4L176.8 107.4Q177.3 107.4 177.8 107.5Q178.3 107.7 178.7 108.1Q179.1 108.5 179.4 109.1Q179.6 109.7 179.6 110.6L179.6 110.6L179.6 111.1L174.9 111.1Q174.9 111.7 175.1 112.2L175.1 112.2Q175.4 112.7 175.9 112.9Q176.3 113.2 176.9 113.2L176.9 113.2Q177.3 113.2 177.6 113.1Q177.9 113.0 178.2 112.8Q178.4 112.5 178.5 112.2L178.5 112.2L179.5 112.5Q179.4 113.0 179.0 113.3Q178.6 113.7 178.1 113.9Q177.6 114.1 176.9 114.1ZM174.9 110.2L174.9 110.2L178.6 110.2Q178.5 109.7 178.4 109.4L178.4 109.4Q178.2 108.9 177.8 108.6Q177.4 108.3 176.8 108.3Q176.2 108.3 175.8 108.6Q175.3 108.9 175.1 109.3L175.1 109.3Q174.9 109.7 174.9 110.2Z M187.2 114.1L187.2 114.1Q186.3 114.1 185.6 113.7Q185.0 113.3 184.6 112.5Q184.2 111.8 184.2 110.8L184.2 110.8Q184.2 109.7 184.6 109.0Q185.0 108.2 185.6 107.8Q186.3 107.4 187.2 107.4L187.2 107.4Q188.1 107.4 188.8 107.8Q189.4 108.2 189.8 109.0Q190.2 109.7 190.2 110.8L190.2 110.8Q190.2 111.8 189.8 112.5Q189.4 113.3 188.8 113.7Q188.1 114.1 187.2 114.1ZM187.2 113.2L187.2 113.2Q187.8 113.2 188.3 112.9Q188.7 112.5 188.9 112.0Q189.1 111.4 189.1 110.8L189.1 110.8Q189.1 110.1 188.9 109.6Q188.7 109.0 188.3 108.7Q187.8 108.3 187.2 108.3L187.2 108.3Q186.5 108.3 186.1 108.7Q185.7 109.0 185.5 109.6Q185.3 110.1 185.3 110.8L185.3 110.8Q185.3 111.4 185.5 112.0Q185.7 112.5 186.1 112.9Q186.5 113.2 187.2 113.2ZM194.8 114.1L194.8 114.1Q194.1 114.1 193.8 113.9Q193.4 113.7 193.2 113.4Q193.0 113.2 192.8 113.0L192.8 113.0L192.7 113.0L192.7 114L191.7 114L191.7 105.3L192.8 105.3L192.8 108.5L192.8 108.5Q193.0 108.3 193.2 108.1Q193.4 107.8 193.7 107.6Q194.1 107.4 194.7 107.4L194.7 107.4Q195.6 107.4 196.2 107.8Q196.8 108.2 197.2 108.9Q197.5 109.7 197.5 110.7L197.5 110.7Q197.5 111.8 197.2 112.5Q196.8 113.3 196.2 113.7Q195.6 114.1 194.8 114.1ZM194.6 113.2L194.6 113.2Q195.2 113.2 195.6 112.9Q196.0 112.5 196.2 112.0Q196.5 111.4 196.5 110.7L196.5 110.7Q196.5 110.1 196.2 109.5Q196.0 109.0 195.6 108.6Q195.2 108.3 194.6 108.3L194.6 108.3Q194.0 108.3 193.6 108.6Q193.2 108.9 193.0 109.5Q192.8 110.0 192.8 110.7L192.8 110.7Q192.8 111.5 193.0 112.0Q193.2 112.6 193.6 112.9Q194.0 113.2 194.6 113.2ZM199.1 114.5L199.1 107.4L200.1 107.4L200.1 114.5Q200.1 115.1 199.9 115.5Q199.7 116.0 199.3 116.2Q198.8 116.4 198.2 116.4L198.2 116.4L198.0 116.4L198.0 115.5L198.2 115.5Q198.6 115.5 198.8 115.2Q199.1 115.0 199.1 114.5L199.1 114.5ZM199.6 106.4L199.6 106.4Q199.3 106.4 199.1 106.2Q198.9 106.0 198.9 105.7L198.9 105.7Q198.9 105.4 199.1 105.2Q199.3 105.0 199.6 105.0L199.6 105.0Q199.9 105.0 200.1 105.2Q200.3 105.4 200.3 105.7L200.3 105.7Q200.3 106.0 200.1 106.2Q199.9 106.4 199.6 106.4ZM204.7 114.1L204.7 114.1Q203.8 114.1 203.1 113.7Q202.4 113.3 202.0 112.5Q201.7 111.8 201.7 110.8Q201.7 109.8 202.0 109.0Q202.4 108.2 203.0 107.8Q203.7 107.4 204.6 107.4L204.6 107.4Q205.1 107.4 205.6 107.5Q206.1 107.7 206.5 108.1Q207.0 108.5 207.2 109.1Q207.5 109.7 207.5 110.6L207.5 110.6L207.5 111.1L202.7 111.1Q202.7 111.7 203.0 112.2L203.0 112.2Q203.2 112.7 203.7 112.9Q204.1 113.2 204.7 113.2L204.7 113.2Q205.1 113.2 205.4 113.1Q205.7 113.0 206.0 112.8Q206.2 112.5 206.3 112.2L206.3 112.2L207.3 112.5Q207.2 113.0 206.8 113.3Q206.5 113.7 205.9 113.9Q205.4 114.1 204.7 114.1ZM202.7 110.2L202.7 110.2L206.4 110.2Q206.3 109.7 206.2 109.4L206.2 109.4Q206.0 108.9 205.6 108.6Q205.2 108.3 204.6 108.3Q204.0 108.3 203.6 108.6Q203.2 108.9 202.9 109.3L202.9 109.3Q202.8 109.7 202.7 110.2ZM211.6 114.1L211.6 114.1Q210.7 114.1 210.1 113.7Q209.4 113.3 209.0 112.5Q208.6 111.8 208.6 110.8L208.6 110.8Q208.6 109.7 209.0 109.0Q209.4 108.2 210.1 107.8Q210.7 107.4 211.6 107.4L211.6 107.4Q212.1 107.4 212.5 107.5Q212.9 107.6 213.3 107.8Q213.6 108.1 213.9 108.4Q214.1 108.8 214.3 109.2L214.3 109.2L213.3 109.5Q213.2 109.2 213.1 109.0Q212.9 108.8 212.7 108.6Q212.5 108.5 212.2 108.4Q212.0 108.3 211.6 108.3L211.6 108.3Q211.0 108.3 210.6 108.7Q210.1 109.0 209.9 109.6Q209.7 110.1 209.7 110.8L209.7 110.8Q209.7 111.4 209.9 112.0Q210.1 112.5 210.6 112.9Q211.0 113.2 211.6 113.2L211.6 113.2Q212.0 113.2 212.2 113.1Q212.5 113.0 212.7 112.9Q212.9 112.7 213.1 112.5Q213.2 112.3 213.3 112.0L213.3 112.0L214.3 112.3Q214.2 112.7 213.9 113.1Q213.7 113.4 213.3 113.6Q213.0 113.9 212.5 114.0Q212.1 114.1 211.6 114.1ZM217.0 107.4L218.4 107.4L218.4 108.4L217.0 108.4L217.0 112.3Q217.0 112.7 217.2 112.9Q217.4 113.1 217.8 113.1L217.8 113.1Q217.9 113.1 218.1 113.1Q218.2 113.1 218.4 113.1L218.4 113.1L218.6 114.0Q218.4 114.0 218.2 114.1Q218.0 114.1 217.8 114.1L217.8 114.1Q216.9 114.1 216.5 113.6Q216.0 113.2 216.0 112.4L216.0 112.4L216.0 108.4L215.0 108.4L215.0 107.4L216.0 107.4L216.0 105.9L217.0 105.9L217.0 107.4ZM222.0 114.1L222.0 114.1Q221.3 114.1 220.8 113.9Q220.2 113.7 219.9 113.4Q219.6 113.0 219.5 112.4L219.5 112.4L220.5 112.2Q220.6 112.7 221.0 113.0Q221.4 113.2 222.0 113.2L222.0 113.2Q222.6 113.2 223.1 112.9Q223.5 112.6 223.5 112.2L223.5 112.2Q223.5 111.9 223.2 111.7Q223.0 111.4 222.5 111.3L222.5 111.3L221.4 111.1Q220.5 110.9 220.1 110.4Q219.7 110.0 219.7 109.3L219.7 109.3Q219.7 108.7 220.0 108.3Q220.3 107.9 220.8 107.6Q221.4 107.4 222.1 107.4L222.1 107.4Q222.8 107.4 223.2 107.6Q223.7 107.8 224.0 108.1Q224.3 108.5 224.4 108.9L224.4 108.9L223.5 109.2Q223.3 108.8 223.0 108.6Q222.7 108.3 222.1 108.3L222.1 108.3Q221.5 108.3 221.1 108.5Q220.7 108.8 220.7 109.2L220.7 109.2Q220.7 109.6 221.0 109.8Q221.2 110.0 221.8 110.2L221.8 110.2L222.8 110.4Q223.7 110.6 224.1 111.0Q224.6 111.5 224.6 112.2L224.6 112.2Q224.6 112.7 224.2 113.2Q223.9 113.6 223.3 113.9Q222.7 114.1 222.0 114.1Z "/></g><defs><clipPath id="satori_bc-id-2" clip-path="url(#satori_cp-id)"><path x="278" y="21" width="244" height="118" d="M292,21 h216 a14,14 0 0 1 14,14 v90 a14,14 0 0 1 -14,14 h-216 a14,14 0 0 1 -14,-14 v-90 a14,14 0 0 1 14,-14"/></clipPath></defs><mask id="satori_om-id-2"><rect x="279" y="22" width="242" height="116" fill="#fff" mask="url(#satori_om-id)"/><path width="244" height="118" fill="none" stroke="#000" stroke-width="2" d="M282.101,25.101 A14,14 0 0 1 292,21 h216 a14,14 0 0 1 14,14 v90 a14,14 0 0 1 -14,14 h-216 a14,14 0 0 1 -14,-14 v-90 A14,14 0 0 1 282.101,25.101"/></mask><path x="278" y="21" width="244" height="118" fill="rgba(12,10,20,0.6)" d="M292,21 h216 a14,14 0 0 1 14,14 v90 a14,14 0 0 1 -14,14 h-216 a14,14 0 0 1 -14,-14 v-90 a14,14 0 0 1 14,-14" clip-path="url(#satori_cp-id)" mask="url(#satori_om-id)"/><path width="244" height="118" clip-path="url(#satori_bc-id-2)" fill="none" stroke="rgba(120,80,220,0.2)" stroke-width="2" d="M282.101,25.101 A14,14 0 0 1 292,21 h216 a14,14 0 0 1 14,14 v90 a14,14 0 0 1 -14,14 h-216 a14,14 0 0 1 -14,-14 v-90 A14,14 0 0 1 282.101,25.101"/><mask id="satori_om-id-2-0"><rect x="299" y="42" width="202" height="24" fill="#fff" mask="url(#satori_om-id)"/></mask><g mask="url(#satori_om-id)" clip-path="url(#satori_cp-id)"><path fill="#ffffff" d="M306.7 65.3L306.7 65.3Q304.8 65.3 303.4 64.7Q302.0 64.1 301.3 63.0Q300.5 61.9 300.4 60.4L300.4 60.4L302.6 60.4Q302.7 61.4 303.3 62.1Q303.9 62.7 304.8 63.0Q305.7 63.3 306.7 63.3L306.7 63.3Q307.9 63.3 308.8 62.9Q309.8 62.5 310.3 61.8Q310.9 61.1 310.9 60.2L310.9 60.2Q310.9 59.4 310.4 58.8Q309.9 58.3 309.1 58.0Q308.4 57.6 307.4 57.4L307.4 57.4L305.3 56.8Q303.2 56.2 302.0 55.1Q300.9 53.9 300.9 52.2L300.9 52.2Q300.9 50.7 301.6 49.6Q302.4 48.5 303.8 47.9Q305.2 47.3 306.9 47.3L306.9 47.3Q308.6 47.3 309.9 47.9Q311.2 48.5 312.0 49.6Q312.8 50.6 312.8 51.9L312.8 51.9L310.6 51.9Q310.5 50.7 309.4 50.0Q308.3 49.3 306.8 49.3L306.8 49.3Q305.7 49.3 304.8 49.6Q304.0 50.0 303.5 50.7Q303.0 51.3 303.0 52.1L303.0 52.1Q303.0 53.0 303.6 53.6Q304.2 54.1 304.9 54.4Q305.7 54.8 306.3 54.9L306.3 54.9L308.1 55.4Q308.8 55.6 309.6 55.9Q310.5 56.3 311.3 56.8Q312.0 57.3 312.5 58.2Q313.0 59.0 313.0 60.2L313.0 60.2Q313.0 61.7 312.3 62.8Q311.6 64.0 310.1 64.6Q308.7 65.3 306.7 65.3ZM324.0 65L321.4 65L315.0 47.5L317.4 47.5L321.0 57.9Q321.4 58.8 321.8 60.3L321.8 60.3Q322.2 61.5 322.7 63.2L322.7 63.2Q323.2 61.4 323.6 60.2L323.6 60.2Q324.1 58.8 324.4 57.9L324.4 57.9L328.0 47.5L330.3 47.5L324.0 65ZM340.2 65.2L340.2 65.2Q337.9 65.2 336.1 64.1Q334.4 63.1 333.4 61.0Q332.4 59.0 332.4 56.3L332.4 56.3Q332.4 53.5 333.4 51.5Q334.4 49.5 336.1 48.4Q337.8 47.3 340.1 47.3L340.1 47.3Q341.4 47.3 342.6 47.7Q343.8 48.1 344.8 48.9Q345.7 49.6 346.4 50.7Q347 51.7 347.2 53.0L347.2 53.0L344.9 53.0Q344.7 52.2 344.2 51.5Q343.8 50.8 343.2 50.4Q342.5 49.9 341.8 49.6Q341 49.4 340.1 49.4L340.1 49.4Q338.5 49.4 337.3 50.2Q336.0 50.9 335.3 52.5Q334.6 54.0 334.6 56.3L334.6 56.3Q334.6 58.5 335.3 60.0Q336.0 61.6 337.3 62.4Q338.6 63.2 340.2 63.2L340.2 63.2Q341.7 63.2 342.8 62.5Q343.9 61.9 344.6 60.8L344.6 60.8Q345.2 59.7 345.2 58.2L345.2 58.2L340.7 58.2L340.7 56.2L347.4 56.2L347.4 58.1Q347.4 60.3 346.4 61.9Q345.5 63.5 343.9 64.4Q342.3 65.2 340.2 65.2Z "/></g><mask id="satori_om-id-2-1"><rect x="299" y="74" width="202" height="15" fill="#fff" mask="url(#satori_om-id)"/></mask><g mask="url(#satori_om-id)" clip-path="url(#satori_cp-id)"><path fill="#ffffff" d="M302.2 89L300.0 89L300.0 78.1L304.2 78.1Q305.5 78.1 306.4 78.6Q307.2 79.0 307.7 79.9Q308.1 80.7 308.1 81.8L308.1 81.8Q308.1 82.9 307.7 83.7Q307.2 84.5 306.3 85.0Q305.5 85.4 304.2 85.4L304.2 85.4L302.2 85.4L302.2 89ZM302.2 79.9L302.2 83.6L303.8 83.6Q304.5 83.6 305.0 83.4Q305.4 83.2 305.6 82.7Q305.8 82.3 305.8 81.8Q305.8 81.2 305.6 80.8Q305.4 80.4 305.0 80.2Q304.5 79.9 303.8 79.9L303.8 79.9L302.2 79.9ZM311.9 89L309.7 89L309.7 80.8L311.9 80.8L311.9 89ZM310.8 79.7L310.8 79.7Q310.3 79.7 309.9 79.4Q309.6 79.1 309.6 78.6L309.6 78.6Q309.6 78.1 309.9 77.8Q310.3 77.5 310.8 77.5L310.8 77.5Q311.3 77.5 311.6 77.8Q312.0 78.1 312.0 78.6L312.0 78.6Q312.0 79.1 311.6 79.4Q311.3 79.7 310.8 79.7ZM315.4 89L313.1 89L315.7 84.8L313.3 80.8L315.6 80.8L316.4 82.1Q316.7 82.7 317.0 83.4L317.0 83.4Q317.1 83.5 317.2 83.7L317.2 83.7Q317.2 83.5 317.3 83.4L317.3 83.4Q317.6 82.7 318.0 82.1L318.0 82.1L318.7 80.8L321.1 80.8L318.5 84.8L321.2 89L318.8 89L317.9 87.5Q317.6 86.8 317.3 86.2L317.3 86.2Q317.2 86.0 317.1 85.9L317.1 85.9Q317.0 86.0 317.0 86.2L317.0 86.2Q316.7 86.8 316.3 87.5L316.3 87.5L315.4 89ZM326.1 89.2L326.1 89.2Q324.9 89.2 324.0 88.6Q323.1 88.1 322.6 87.2Q322.1 86.2 322.1 84.9L322.1 84.9Q322.1 83.7 322.6 82.7Q323.0 81.8 323.9 81.2Q324.8 80.7 326.0 80.7L326.0 80.7Q326.8 80.7 327.5 81.0Q328.2 81.2 328.7 81.7Q329.3 82.3 329.6 83.0Q329.9 83.8 329.9 84.9L329.9 84.9L329.9 85.5L324.3 85.5Q324.3 86.1 324.5 86.5L324.5 86.5Q324.7 87.0 325.2 87.3Q325.6 87.5 326.2 87.5L326.2 87.5Q326.5 87.5 326.9 87.4Q327.2 87.3 327.4 87.1Q327.6 86.9 327.7 86.5L327.7 86.5L329.7 86.9Q329.5 87.6 329.0 88.1Q328.6 88.6 327.8 88.9Q327.1 89.2 326.1 89.2ZM324.3 84.1L324.3 84.1L327.7 84.1Q327.7 83.7 327.6 83.4L327.6 83.4Q327.4 82.9 327.0 82.6Q326.6 82.4 326.0 82.4L326.0 82.4Q325.5 82.4 325.1 82.6Q324.7 82.9 324.5 83.3L324.5 83.3Q324.3 83.7 324.3 84.1ZM331.4 78.1L333.6 78.1L333.6 89L331.4 89L331.4 78.1ZM335.5 83.6L340.5 83.6L340.5 85.4L335.5 85.4L335.5 83.6ZM344.7 89L342.5 89L342.5 78.1L346.7 78.1Q348.0 78.1 348.9 78.6Q349.7 79.0 350.2 79.9Q350.7 80.7 350.7 81.8L350.7 81.8Q350.7 82.9 350.2 83.7Q349.7 84.5 348.8 85.0Q348.0 85.4 346.7 85.4L346.7 85.4L344.7 85.4L344.7 89ZM344.7 79.9L344.7 83.6L346.3 83.6Q347.0 83.6 347.5 83.4Q347.9 83.2 348.1 82.7Q348.3 82.3 348.3 81.8Q348.3 81.2 348.1 80.8Q347.9 80.4 347.5 80.2Q347.0 79.9 346.3 79.9L346.3 79.9L344.7 79.9ZM355.9 89.2L355.9 89.2Q354.6 89.2 353.7 88.6Q352.8 88.1 352.3 87.2Q351.8 86.2 351.8 84.9L351.8 84.9Q351.8 83.7 352.3 82.7Q352.8 81.8 353.7 81.2Q354.6 80.7 355.7 80.7L355.7 80.7Q356.6 80.7 357.2 81.0Q357.9 81.2 358.5 81.7Q359 82.3 359.3 83.0Q359.6 83.8 359.6 84.9L359.6 84.9L359.6 85.5L354.0 85.5Q354.0 86.1 354.2 86.5L354.2 86.5Q354.5 87.0 354.9 87.3Q355.3 87.5 355.9 87.5L355.9 87.5Q356.3 87.5 356.6 87.4Q356.9 87.3 357.1 87.1Q357.4 86.9 357.5 86.5L357.5 86.5L359.5 86.9Q359.3 87.6 358.8 88.1Q358.3 88.6 357.6 88.9Q356.8 89.2 355.9 89.2ZM354.0 84.1L354.0 84.1L357.5 84.1Q357.4 83.7 357.3 83.4L357.3 83.4Q357.1 82.9 356.7 82.6Q356.3 82.4 355.8 82.4L355.8 82.4Q355.2 82.4 354.8 82.6Q354.4 82.9 354.2 83.3L354.2 83.3Q354.0 83.7 354.0 84.1ZM363.3 89L361.1 89L361.1 80.8L363.2 80.8L363.2 82.2L363.3 82.2Q363.5 81.5 364.1 81.1Q364.6 80.7 365.3 80.7L365.3 80.7Q365.5 80.7 365.7 80.7Q365.8 80.7 366.0 80.8L366.0 80.8L366.0 82.7Q365.8 82.7 365.6 82.7Q365.3 82.6 365.0 82.6L365.0 82.6Q364.5 82.6 364.1 82.8Q363.7 83.1 363.5 83.4Q363.3 83.8 363.3 84.3L363.3 84.3L363.3 89ZM370.0 80.8L371.8 80.8L371.8 82.5L370.0 82.5L370.0 89L367.9 89L367.9 82.5L366.4 82.5L366.4 80.8L367.9 80.8L367.9 80.2Q367.9 79.3 368.2 78.7Q368.6 78.2 369.2 77.9Q369.8 77.6 370.5 77.6L370.5 77.6Q371.0 77.6 371.5 77.7Q371.9 77.7 372.1 77.8L372.1 77.8L371.7 79.5Q371.6 79.4 371.4 79.4Q371.2 79.3 371.0 79.3L371.0 79.3Q370.5 79.3 370.3 79.6Q370.0 79.8 370.0 80.3L370.0 80.3L370.0 80.8ZM376.9 89.2L376.9 89.2Q375.6 89.2 374.7 88.6Q373.8 88.1 373.3 87.2Q372.8 86.2 372.8 84.9L372.8 84.9Q372.8 83.7 373.3 82.7Q373.8 81.8 374.7 81.2Q375.6 80.7 376.8 80.7L376.8 80.7Q377.6 80.7 378.3 81.0Q379.0 81.2 379.5 81.7Q380.0 82.3 380.3 83.0Q380.6 83.8 380.6 84.9L380.6 84.9L380.6 85.5L375.0 85.5Q375.0 86.1 375.2 86.5L375.2 86.5Q375.5 87.0 375.9 87.3Q376.3 87.5 376.9 87.5L376.9 87.5Q377.3 87.5 377.6 87.4Q377.9 87.3 378.1 87.1Q378.4 86.9 378.5 86.5L378.5 86.5L380.5 86.9Q380.3 87.6 379.8 88.1Q379.3 88.6 378.6 88.9Q377.8 89.2 376.9 89.2ZM375.0 84.1L375.0 84.1L378.5 84.1Q378.4 83.7 378.3 83.4L378.3 83.4Q378.1 82.9 377.7 82.6Q377.3 82.4 376.8 82.4L376.8 82.4Q376.2 82.4 375.8 82.6Q375.4 82.9 375.2 83.3L375.2 83.3Q375.1 83.7 375.0 84.1ZM385.8 89.2L385.8 89.2Q384.5 89.2 383.6 88.6Q382.7 88.1 382.3 87.2Q381.8 86.2 381.8 84.9L381.8 84.9Q381.8 83.7 382.3 82.7Q382.7 81.8 383.6 81.2Q384.5 80.7 385.8 80.7L385.8 80.7Q386.5 80.7 387.1 80.9Q387.7 81.1 388.2 81.4Q388.7 81.8 389.0 82.3Q389.3 82.8 389.4 83.4L389.4 83.4L387.4 83.8Q387.3 83.5 387.2 83.2Q387.0 83.0 386.8 82.8Q386.6 82.6 386.4 82.5Q386.1 82.4 385.8 82.4L385.8 82.4Q385.2 82.4 384.8 82.8Q384.4 83.1 384.2 83.6Q384.0 84.2 384.0 84.9L384.0 84.9Q384.0 85.7 384.2 86.2Q384.4 86.8 384.8 87.1Q385.2 87.4 385.8 87.4L385.8 87.4Q386.1 87.4 386.4 87.3Q386.6 87.2 386.8 87.0Q387.0 86.9 387.2 86.6Q387.3 86.3 387.4 86.0L387.4 86.0L389.4 86.4Q389.3 87.0 389 87.5Q388.7 88.0 388.2 88.4Q387.7 88.8 387.1 89.0Q386.5 89.2 385.8 89.2ZM393.5 80.8L395.0 80.8L395.0 82.5L393.5 82.5L393.5 86.6Q393.5 87.0 393.6 87.2Q393.8 87.4 394.2 87.4L394.2 87.4Q394.3 87.4 394.6 87.3Q394.8 87.3 394.9 87.3L394.9 87.3L395.2 88.9Q394.9 89.0 394.5 89.1Q394.1 89.1 393.8 89.1L393.8 89.1Q392.6 89.1 391.9 88.5Q391.3 87.9 391.3 86.8L391.3 86.8L391.3 82.5L390.1 82.5L390.1 80.8L391.3 80.8L391.3 78.9L393.5 78.9L393.5 80.8Z M404.8 89.1L404.8 89.1Q403.4 89.1 402.2 88.5Q401.1 87.8 400.4 86.6Q399.7 85.3 399.7 83.6L399.7 83.6Q399.7 81.8 400.4 80.5Q401.1 79.3 402.2 78.6Q403.4 77.9 404.8 77.9L404.8 77.9Q406.3 77.9 407.4 78.6Q408.6 79.3 409.2 80.5Q409.9 81.8 409.9 83.6L409.9 83.6Q409.9 85.3 409.2 86.6Q408.6 87.8 407.4 88.5Q406.3 89.1 404.8 89.1ZM404.8 87.2L404.8 87.2Q405.7 87.2 406.3 86.7Q406.9 86.3 407.3 85.5Q407.6 84.7 407.6 83.6L407.6 83.6Q407.6 82.4 407.3 81.6Q406.9 80.8 406.3 80.3Q405.7 79.9 404.8 79.9L404.8 79.9Q404.0 79.9 403.3 80.3Q402.7 80.8 402.4 81.6Q402.0 82.4 402.0 83.6L402.0 83.6Q402.0 84.7 402.4 85.5Q402.7 86.3 403.3 86.7Q404.0 87.2 404.8 87.2ZM414.4 89.1L414.4 89.1Q413.5 89.1 412.9 88.7Q412.2 88.4 411.9 87.7Q411.5 87.0 411.5 86.0L411.5 86.0L411.5 80.8L413.7 80.8L413.7 85.6Q413.7 86.4 414.1 86.8Q414.5 87.3 415.2 87.3L415.2 87.3Q415.7 87.3 416.0 87.1Q416.4 86.9 416.6 86.5Q416.8 86.1 416.8 85.6L416.8 85.6L416.8 80.8L419.0 80.8L419.0 89L416.9 89L416.9 87.3Q416.6 88.1 416.0 88.5L416.0 88.5Q415.4 89.1 414.4 89.1ZM423.4 80.8L424.9 80.8L424.9 82.5L423.4 82.5L423.4 86.6Q423.4 87.0 423.6 87.2Q423.8 87.4 424.2 87.4L424.2 87.4Q424.3 87.4 424.5 87.3Q424.7 87.3 424.9 87.3L424.9 87.3L425.2 88.9Q424.8 89.0 424.4 89.1Q424.1 89.1 423.7 89.1L423.7 89.1Q422.5 89.1 421.9 88.5Q421.2 87.9 421.2 86.8L421.2 86.8L421.2 82.5L420.1 82.5L420.1 80.8L421.2 80.8L421.2 78.9L423.4 78.9L423.4 80.8ZM428.6 92.1L426.4 92.1L426.4 80.8L428.5 80.8L428.5 82.2L428.6 82.2Q428.8 81.9 429.1 81.5Q429.3 81.2 429.8 80.9Q430.3 80.7 431.0 80.7L431.0 80.7Q431.9 80.7 432.6 81.2Q433.4 81.6 433.8 82.6Q434.3 83.5 434.3 84.9L434.3 84.9Q434.3 86.3 433.8 87.2Q433.4 88.2 432.7 88.7Q431.9 89.1 431.0 89.1L431.0 89.1Q430.3 89.1 429.8 88.9Q429.4 88.7 429.1 88.4Q428.8 88.0 428.6 87.7L428.6 87.7L428.6 87.7L428.6 92.1ZM430.3 87.4L430.3 87.4Q430.9 87.4 431.2 87.1Q431.6 86.7 431.8 86.2Q432.0 85.6 432.0 84.9L432.0 84.9Q432.0 84.2 431.8 83.6Q431.6 83.1 431.2 82.8Q430.9 82.5 430.3 82.5L430.3 82.5Q429.7 82.5 429.3 82.8Q428.9 83.1 428.7 83.6Q428.5 84.2 428.5 84.9L428.5 84.9Q428.5 85.7 428.7 86.2Q428.9 86.8 429.3 87.1Q429.7 87.4 430.3 87.4ZM438.6 89.1L438.6 89.1Q437.8 89.1 437.2 88.7Q436.5 88.4 436.2 87.7Q435.8 87.0 435.8 86.0L435.8 86.0L435.8 80.8L438.0 80.8L438.0 85.6Q438.0 86.4 438.4 86.8Q438.8 87.3 439.5 87.3L439.5 87.3Q440.0 87.3 440.3 87.1Q440.7 86.9 440.9 86.5Q441.1 86.1 441.1 85.6L441.1 85.6L441.1 80.8L443.3 80.8L443.3 89L441.2 89L441.2 87.3Q440.9 88.1 440.3 88.5L440.3 88.5Q439.7 89.1 438.6 89.1ZM447.7 80.8L449.2 80.8L449.2 82.5L447.7 82.5L447.7 86.6Q447.7 87.0 447.9 87.2Q448.0 87.4 448.4 87.4L448.4 87.4Q448.6 87.4 448.8 87.3Q449.0 87.3 449.1 87.3L449.1 87.3L449.5 88.9Q449.1 89.0 448.7 89.1Q448.4 89.1 448.0 89.1L448.0 89.1Q446.8 89.1 446.2 88.5Q445.5 87.9 445.5 86.8L445.5 86.8L445.5 82.5L444.4 82.5L444.4 80.8L445.5 80.8L445.5 78.9L447.7 78.9L447.7 80.8Z "/></g><mask id="satori_om-id-2-2"><rect x="299" y="93" width="202" height="25" fill="#fff" mask="url(#satori_om-id)"/></mask><g mask="url(#satori_om-id)" clip-path="url(#satori_cp-id)"><path fill="rgba(220,210,255,0.85)" d="M303.6 105.1L303.6 105.1Q302.5 105.1 301.6 104.6Q300.7 104.0 300.2 103.0Q299.7 102.0 299.7 100.6L299.7 100.6Q299.7 99.3 300.2 98.2Q300.7 97.2 301.6 96.7Q302.4 96.2 303.6 96.2L303.6 96.2Q304.2 96.2 304.8 96.4Q305.4 96.6 305.9 96.9Q306.4 97.3 306.7 97.8Q307.0 98.4 307.1 99.0L307.1 99.0L306.0 99.0Q305.9 98.6 305.6 98.3Q305.4 97.9 305.1 97.7Q304.8 97.4 304.4 97.3Q304.0 97.2 303.6 97.2L303.6 97.2Q302.8 97.2 302.2 97.6Q301.5 98.0 301.2 98.7Q300.8 99.5 300.8 100.6L300.8 100.6Q300.8 101.8 301.2 102.5Q301.5 103.3 302.2 103.7Q302.8 104.1 303.6 104.1L303.6 104.1Q304.4 104.1 304.9 103.8Q305.5 103.5 305.8 102.9L305.8 102.9Q306.1 102.3 306.1 101.6L306.1 101.6L303.9 101.6L303.9 100.6L307.2 100.6L307.2 101.6Q307.2 102.7 306.7 103.4Q306.3 104.2 305.5 104.7Q304.7 105.1 303.6 105.1ZM309.9 105L308.9 105L308.9 98.4L309.9 98.4L309.9 99.5L310.0 99.5Q310.2 99.0 310.6 98.7Q311.1 98.4 311.7 98.4L311.7 98.4Q311.8 98.4 311.9 98.4Q312.1 98.4 312.2 98.4L312.2 98.4L312.2 99.4Q312.2 99.4 312.0 99.4Q311.8 99.4 311.6 99.4L311.6 99.4Q311.1 99.4 310.7 99.6Q310.4 99.8 310.1 100.1Q309.9 100.5 309.9 100.9L309.9 100.9L309.9 105ZM315.2 105.2L315.2 105.2Q314.6 105.2 314.1 104.9Q313.6 104.7 313.3 104.2Q313.0 103.8 313.0 103.1L313.0 103.1Q313.0 102.6 313.2 102.2Q313.4 101.9 313.8 101.7Q314.2 101.5 314.6 101.4Q315.1 101.3 315.5 101.2L315.5 101.2Q316.1 101.1 316.5 101.1Q316.9 101.1 317.0 101.0Q317.2 100.9 317.2 100.6L317.2 100.6L317.2 100.6Q317.2 100.2 317.1 99.9Q316.9 99.6 316.6 99.4Q316.3 99.3 315.9 99.3L315.9 99.3Q315.4 99.3 315.1 99.4Q314.7 99.6 314.5 99.8Q314.3 100.0 314.2 100.3L314.2 100.3L313.2 99.9Q313.4 99.3 313.9 99.0Q314.3 98.6 314.8 98.5Q315.3 98.4 315.8 98.4L315.8 98.4Q316.2 98.4 316.6 98.4Q317.0 98.5 317.4 98.8Q317.8 99.0 318.0 99.5Q318.3 99.9 318.3 100.7L318.3 100.7L318.3 105L317.2 105L317.2 104.1L317.2 104.1Q317.1 104.3 316.8 104.6Q316.6 104.8 316.2 105.0Q315.8 105.2 315.2 105.2ZM315.4 104.2L315.4 104.2Q316.0 104.2 316.4 104.0Q316.8 103.8 317.0 103.4Q317.2 103.0 317.2 102.6L317.2 102.6L317.2 101.7Q317.2 101.8 316.9 101.9Q316.7 101.9 316.5 102.0Q316.2 102.0 315.9 102.0Q315.7 102.1 315.5 102.1L315.5 102.1Q315.1 102.1 314.8 102.3Q314.5 102.4 314.3 102.6Q314.1 102.8 314.1 103.2L314.1 103.2Q314.1 103.5 314.2 103.8Q314.4 104.0 314.7 104.1Q315.0 104.2 315.4 104.2ZM322.6 105.1L322.6 105.1Q321.8 105.1 321.1 104.7Q320.5 104.3 320.2 103.5Q319.8 102.8 319.8 101.7L319.8 101.7Q319.8 100.7 320.2 99.9Q320.5 99.2 321.2 98.8Q321.8 98.4 322.6 98.4L322.6 98.4Q323.2 98.4 323.6 98.6Q324.0 98.8 324.2 99.1Q324.4 99.3 324.5 99.5L324.5 99.5L324.6 99.5L324.6 96.3L325.6 96.3L325.6 105L324.6 105L324.6 104.0L324.5 104.0Q324.4 104.2 324.2 104.4Q324.0 104.7 323.6 104.9Q323.2 105.1 322.6 105.1ZM322.7 104.2L322.7 104.2Q323.3 104.2 323.8 103.9Q324.2 103.6 324.4 103.0Q324.6 102.5 324.6 101.7L324.6 101.7Q324.6 101.0 324.4 100.5Q324.2 99.9 323.8 99.6Q323.4 99.3 322.7 99.3L322.7 99.3Q322.1 99.3 321.7 99.6Q321.3 100.0 321.1 100.5Q320.9 101.1 320.9 101.7L320.9 101.7Q320.9 102.4 321.1 103.0Q321.3 103.5 321.7 103.9Q322.1 104.2 322.7 104.2ZM328.5 105L327.5 105L327.5 98.4L328.5 98.4L328.5 105ZM328.0 97.4L328.0 97.4Q327.7 97.4 327.5 97.2Q327.3 97.0 327.3 96.7L327.3 96.7Q327.3 96.4 327.5 96.2Q327.7 96.0 328.0 96.0L328.0 96.0Q328.3 96.0 328.5 96.2Q328.8 96.4 328.8 96.7L328.8 96.7Q328.8 97.0 328.5 97.2Q328.3 97.4 328.0 97.4ZM333.1 105.1L333.1 105.1Q332.2 105.1 331.5 104.7Q330.8 104.3 330.4 103.5Q330.1 102.8 330.1 101.8Q330.1 100.8 330.4 100.0Q330.8 99.2 331.5 98.8Q332.1 98.4 333.0 98.4L333.0 98.4Q333.5 98.4 334.0 98.5Q334.6 98.7 335.0 99.1Q335.4 99.5 335.6 100.1Q335.9 100.7 335.9 101.6L335.9 101.6L335.9 102.1L331.1 102.1Q331.2 102.7 331.4 103.2L331.4 103.2Q331.6 103.7 332.1 103.9Q332.6 104.2 333.1 104.2L333.1 104.2Q333.5 104.2 333.9 104.1Q334.2 104.0 334.4 103.8Q334.6 103.5 334.7 103.2L334.7 103.2L335.8 103.5Q335.6 104.0 335.3 104.3Q334.9 104.7 334.4 104.9Q333.8 105.1 333.1 105.1ZM331.1 101.2L331.1 101.2L334.8 101.2Q334.8 100.7 334.6 100.4L334.6 100.4Q334.4 99.9 334.0 99.6Q333.6 99.3 333.0 99.3Q332.4 99.3 332.0 99.6Q331.6 99.9 331.4 100.3L331.4 100.3Q331.2 100.7 331.1 101.2ZM338.4 101.1L338.4 101.1L338.4 105L337.4 105L337.4 98.4L338.4 98.4L338.4 99.7Q338.7 99.0 339.1 98.7L339.1 98.7Q339.7 98.4 340.4 98.4L340.4 98.4Q341.1 98.4 341.6 98.6Q342.1 98.9 342.3 99.5Q342.6 100.0 342.6 100.8L342.6 100.8L342.6 105L341.6 105L341.6 100.9Q341.6 100.2 341.2 99.7Q340.8 99.3 340.1 99.3L340.1 99.3Q339.6 99.3 339.2 99.5Q338.9 99.7 338.7 100.1Q338.4 100.5 338.4 101.1ZM345.7 98.4L347.1 98.4L347.1 99.4L345.7 99.4L345.7 103.3Q345.7 103.7 345.9 103.9Q346.1 104.1 346.5 104.1L346.5 104.1Q346.6 104.1 346.7 104.1Q346.9 104.1 347.0 104.1L347.0 104.1L347.2 105.0Q347.1 105.0 346.9 105.1Q346.7 105.1 346.4 105.1L346.4 105.1Q345.6 105.1 345.1 104.6Q344.7 104.2 344.7 103.4L344.7 103.4L344.7 99.4L343.7 99.4L343.7 98.4L344.7 98.4L344.7 96.9L345.7 96.9L345.7 98.4ZM350.6 105.1L350.6 105.1Q350.0 105.1 349.4 104.9Q348.9 104.7 348.6 104.4Q348.2 104.0 348.1 103.4L348.1 103.4L349.1 103.2Q349.3 103.7 349.6 104.0Q350.0 104.2 350.6 104.2L350.6 104.2Q351.3 104.2 351.7 103.9Q352.1 103.6 352.1 103.2L352.1 103.2Q352.1 102.9 351.9 102.7Q351.6 102.4 351.2 102.3L351.2 102.3L350.1 102.1Q349.2 101.9 348.7 101.4Q348.3 101.0 348.3 100.3L348.3 100.3Q348.3 99.7 348.6 99.3Q348.9 98.9 349.5 98.6Q350.0 98.4 350.7 98.4L350.7 98.4Q351.4 98.4 351.9 98.6Q352.3 98.8 352.6 99.1Q352.9 99.5 353.1 99.9L353.1 99.9L352.1 100.2Q352.0 99.8 351.7 99.6Q351.4 99.3 350.7 99.3L350.7 99.3Q350.2 99.3 349.8 99.5Q349.4 99.8 349.4 100.2L349.4 100.2Q349.4 100.6 349.6 100.8Q349.9 101.0 350.5 101.2L350.5 101.2L351.5 101.4Q352.4 101.6 352.8 102.0Q353.2 102.5 353.2 103.2L353.2 103.2Q353.2 103.7 352.9 104.2Q352.6 104.6 352.0 104.9Q351.4 105.1 350.6 105.1ZM355.4 107.1L354.6 107.1L355.1 103.8L356.3 103.8L355.4 107.1Z M364.2 105.1L364.2 105.1Q363.5 105.1 363.0 104.9Q362.4 104.7 362.1 104.4Q361.8 104.0 361.6 103.4L361.6 103.4L362.6 103.2Q362.8 103.7 363.2 104.0Q363.6 104.2 364.1 104.2L364.1 104.2Q364.8 104.2 365.2 103.9Q365.6 103.6 365.6 103.2L365.6 103.2Q365.6 102.9 365.4 102.7Q365.2 102.4 364.7 102.3L364.7 102.3L363.6 102.1Q362.7 101.9 362.3 101.4Q361.8 101.0 361.8 100.3L361.8 100.3Q361.8 99.7 362.1 99.3Q362.5 98.9 363.0 98.6Q363.6 98.4 364.3 98.4L364.3 98.4Q364.9 98.4 365.4 98.6Q365.9 98.8 366.2 99.1Q366.5 99.5 366.6 99.9L366.6 99.9L365.7 100.2Q365.5 99.8 365.2 99.6Q364.9 99.3 364.3 99.3L364.3 99.3Q363.7 99.3 363.3 99.5Q362.9 99.8 362.9 100.2L362.9 100.2Q362.9 100.6 363.2 100.8Q363.4 101.0 364 101.2L364 101.2L365.0 101.4Q365.9 101.6 366.3 102.0Q366.7 102.5 366.7 103.2L366.7 103.2Q366.7 103.7 366.4 104.2Q366.1 104.6 365.5 104.9Q364.9 105.1 364.2 105.1ZM369.3 101.1L369.3 101.1L369.3 105L368.3 105L368.3 96.3L369.3 96.3L369.3 99.6Q369.6 99.0 370.0 98.7L370.0 98.7Q370.5 98.4 371.3 98.4L371.3 98.4Q371.9 98.4 372.4 98.6Q372.9 98.9 373.2 99.5Q373.5 100.0 373.5 100.8L373.5 100.8L373.5 105L372.4 105L372.4 100.9Q372.4 100.2 372.0 99.7Q371.7 99.3 371.0 99.3L371.0 99.3Q370.5 99.3 370.1 99.5Q369.7 99.7 369.5 100.1Q369.3 100.5 369.3 101.1ZM377.2 105.2L377.2 105.2Q376.6 105.2 376.1 104.9Q375.6 104.7 375.3 104.2Q375.0 103.8 375.0 103.1L375.0 103.1Q375.0 102.6 375.2 102.2Q375.4 101.9 375.8 101.7Q376.1 101.5 376.6 101.4Q377.0 101.3 377.5 101.2L377.5 101.2Q378.1 101.1 378.5 101.1Q378.8 101.1 379.0 101.0Q379.2 100.9 379.2 100.6L379.2 100.6L379.2 100.6Q379.2 100.2 379.0 99.9Q378.9 99.6 378.6 99.4Q378.3 99.3 377.8 99.3L377.8 99.3Q377.3 99.3 377.0 99.4Q376.7 99.6 376.5 99.8Q376.3 100.0 376.2 100.3L376.2 100.3L375.1 99.9Q375.4 99.3 375.8 99.0Q376.3 98.6 376.8 98.5Q377.3 98.4 377.8 98.4L377.8 98.4Q378.1 98.4 378.5 98.4Q379.0 98.5 379.3 98.8Q379.7 99.0 380.0 99.5Q380.2 99.9 380.2 100.7L380.2 100.7L380.2 105L379.2 105L379.2 104.1L379.1 104.1Q379.0 104.3 378.8 104.6Q378.5 104.8 378.1 105.0Q377.7 105.2 377.2 105.2ZM377.4 104.2L377.4 104.2Q378.0 104.2 378.4 104.0Q378.8 103.8 379.0 103.4Q379.2 103.0 379.2 102.6L379.2 102.6L379.2 101.7Q379.1 101.8 378.9 101.9Q378.7 101.9 378.4 102.0Q378.1 102.0 377.9 102.0Q377.6 102.1 377.5 102.1L377.5 102.1Q377.1 102.1 376.7 102.3Q376.4 102.4 376.2 102.6Q376.0 102.8 376.0 103.2L376.0 103.2Q376.0 103.5 376.2 103.8Q376.4 104.0 376.7 104.1Q377.0 104.2 377.4 104.2ZM384.5 105.1L384.5 105.1Q383.7 105.1 383.1 104.7Q382.5 104.3 382.1 103.5Q381.8 102.8 381.8 101.7L381.8 101.7Q381.8 100.7 382.1 99.9Q382.5 99.2 383.1 98.8Q383.7 98.4 384.6 98.4L384.6 98.4Q385.2 98.4 385.6 98.6Q385.9 98.8 386.1 99.1Q386.3 99.3 386.5 99.5L386.5 99.5L386.5 99.5L386.5 96.3L387.6 96.3L387.6 105L386.6 105L386.6 104.0L386.5 104.0Q386.3 104.2 386.1 104.4Q385.9 104.7 385.6 104.9Q385.2 105.1 384.5 105.1ZM384.7 104.2L384.7 104.2Q385.3 104.2 385.7 103.9Q386.1 103.6 386.3 103.0Q386.5 102.5 386.5 101.7L386.5 101.7Q386.5 101.0 386.3 100.5Q386.1 99.9 385.7 99.6Q385.3 99.3 384.7 99.3L384.7 99.3Q384.1 99.3 383.7 99.6Q383.3 100.0 383.1 100.5Q382.8 101.1 382.8 101.7L382.8 101.7Q382.8 102.4 383.1 103.0Q383.3 103.5 383.7 103.9Q384.1 104.2 384.7 104.2ZM392.1 105.1L392.1 105.1Q391.2 105.1 390.5 104.7Q389.9 104.3 389.5 103.5Q389.1 102.8 389.1 101.8L389.1 101.8Q389.1 100.7 389.5 100.0Q389.9 99.2 390.5 98.8Q391.2 98.4 392.1 98.4L392.1 98.4Q393.0 98.4 393.7 98.8Q394.4 99.2 394.7 100.0Q395.1 100.7 395.1 101.8L395.1 101.8Q395.1 102.8 394.7 103.5Q394.4 104.3 393.7 104.7Q393.0 105.1 392.1 105.1ZM392.1 104.2L392.1 104.2Q392.8 104.2 393.2 103.9Q393.6 103.5 393.8 103.0Q394.0 102.4 394.0 101.8L394.0 101.8Q394.0 101.1 393.8 100.6Q393.6 100.0 393.2 99.7Q392.8 99.3 392.1 99.3L392.1 99.3Q391.5 99.3 391.0 99.7Q390.6 100.0 390.4 100.6Q390.2 101.1 390.2 101.8L390.2 101.8Q390.2 102.4 390.4 103.0Q390.6 103.5 391.0 103.9Q391.5 104.2 392.1 104.2ZM399.2 105L398.1 105L396.1 98.4L397.2 98.4L398.0 101.3Q398.2 101.9 398.4 102.6L398.4 102.6Q398.5 103.2 398.7 103.9L398.7 103.9Q398.8 103.2 398.9 102.7L398.9 102.7Q399.1 101.9 399.3 101.3L399.3 101.3L400.1 98.4L401.2 98.4L402.0 101.3Q402.1 101.9 402.3 102.7L402.3 102.7Q402.4 103.2 402.6 103.9L402.6 103.9Q402.7 103.2 402.9 102.7L402.9 102.7Q403.0 101.9 403.2 101.3L403.2 101.3L404.0 98.4L405.1 98.4L403.1 105L402.1 105L401.2 102.0Q401.1 101.6 401.0 101.1Q400.9 100.6 400.7 100.2L400.7 100.2Q400.7 99.9 400.6 99.6L400.6 99.6Q400.6 99.9 400.5 100.1L400.5 100.1Q400.4 100.6 400.3 101.1Q400.1 101.6 400.0 102.0L400.0 102.0L399.2 105ZM408.7 105.1L408.7 105.1Q408.0 105.1 407.5 104.9Q407.0 104.7 406.6 104.4Q406.3 104.0 406.2 103.4L406.2 103.4L407.2 103.2Q407.3 103.7 407.7 104.0Q408.1 104.2 408.7 104.2L408.7 104.2Q409.4 104.2 409.8 103.9Q410.2 103.6 410.2 103.2L410.2 103.2Q410.2 102.9 409.9 102.7Q409.7 102.4 409.2 102.3L409.2 102.3L408.1 102.1Q407.2 101.9 406.8 101.4Q406.4 101.0 406.4 100.3L406.4 100.3Q406.4 99.7 406.7 99.3Q407.0 98.9 407.5 98.6Q408.1 98.4 408.8 98.4L408.8 98.4Q409.5 98.4 409.9 98.6Q410.4 98.8 410.7 99.1Q411.0 99.5 411.1 99.9L411.1 99.9L410.2 100.2Q410.1 99.8 409.7 99.6Q409.4 99.3 408.8 99.3L408.8 99.3Q408.2 99.3 407.8 99.5Q407.4 99.8 407.4 100.2L407.4 100.2Q407.4 100.6 407.7 100.8Q408.0 101.0 408.5 101.2L408.5 101.2L409.5 101.4Q410.4 101.6 410.8 102.0Q411.3 102.5 411.3 103.2L411.3 103.2Q411.3 103.7 410.9 104.2Q410.6 104.6 410.0 104.9Q409.5 105.1 408.7 105.1ZM413.4 107.1L412.6 107.1L413.1 103.8L414.3 103.8L413.4 107.1Z M420.0 105L418.9 105L418.9 98.4L419.9 98.4L419.9 99.5L420.0 99.5Q420.2 99.0 420.7 98.7Q421.1 98.4 421.7 98.4L421.7 98.4Q421.8 98.4 422.0 98.4Q422.2 98.4 422.2 98.4L422.2 98.4L422.2 99.4Q422.2 99.4 422.0 99.4Q421.8 99.4 421.6 99.4L421.6 99.4Q421.1 99.4 420.8 99.6Q420.4 99.8 420.2 100.1Q420.0 100.5 420.0 100.9L420.0 100.9L420.0 105ZM426.1 105.1L426.1 105.1Q425.2 105.1 424.5 104.7Q423.9 104.3 423.5 103.5Q423.1 102.8 423.1 101.8L423.1 101.8Q423.1 100.7 423.5 100.0Q423.9 99.2 424.5 98.8Q425.2 98.4 426.1 98.4L426.1 98.4Q427.0 98.4 427.7 98.8Q428.4 99.2 428.7 100.0Q429.1 100.7 429.1 101.8L429.1 101.8Q429.1 102.8 428.7 103.5Q428.4 104.3 427.7 104.7Q427.0 105.1 426.1 105.1ZM426.1 104.2L426.1 104.2Q426.8 104.2 427.2 103.9Q427.6 103.5 427.8 103.0Q428.0 102.4 428.0 101.8L428.0 101.8Q428.0 101.1 427.8 100.6Q427.6 100.0 427.2 99.7Q426.8 99.3 426.1 99.3L426.1 99.3Q425.5 99.3 425.0 99.7Q424.6 100.0 424.4 100.6Q424.2 101.1 424.2 101.8L424.2 101.8Q424.2 102.4 424.4 103.0Q424.6 103.5 425.0 103.9Q425.5 104.2 426.1 104.2ZM432.9 105.1L432.9 105.1Q432.2 105.1 431.7 104.8Q431.2 104.5 430.9 104.0Q430.6 103.4 430.6 102.6L430.6 102.6L430.6 98.4L431.7 98.4L431.7 102.5Q431.7 103.3 432.1 103.7Q432.5 104.1 433.2 104.1L433.2 104.1Q433.6 104.1 434.0 103.9Q434.4 103.7 434.6 103.3Q434.8 102.9 434.8 102.4L434.8 102.4L434.8 98.4L435.9 98.4L435.9 105L434.9 105L434.9 103.8Q434.6 104.4 434.1 104.7L434.1 104.7Q433.6 105.1 432.9 105.1ZM438.8 101.1L438.8 101.1L438.8 105L437.7 105L437.7 98.4L438.7 98.4L438.8 99.7Q439.0 99.0 439.5 98.7L439.5 98.7Q440.0 98.4 440.8 98.4L440.8 98.4Q441.4 98.4 441.9 98.6Q442.4 98.9 442.7 99.5Q443.0 100.0 443.0 100.8L443.0 100.8L443.0 105L441.9 105L441.9 100.9Q441.9 100.2 441.5 99.7Q441.1 99.3 440.4 99.3L440.4 99.3Q440.0 99.3 439.6 99.5Q439.2 99.7 439.0 100.1Q438.8 100.5 438.8 101.1ZM447.3 105.1L447.3 105.1Q446.5 105.1 445.8 104.7Q445.2 104.3 444.9 103.5Q444.5 102.8 444.5 101.7L444.5 101.7Q444.5 100.7 444.9 99.9Q445.2 99.2 445.8 98.8Q446.5 98.4 447.3 98.4L447.3 98.4Q447.9 98.4 448.3 98.6Q448.7 98.8 448.9 99.1Q449.1 99.3 449.2 99.5L449.2 99.5L449.3 99.5L449.3 96.3L450.3 96.3L450.3 105L449.3 105L449.3 104.0L449.2 104.0Q449.1 104.2 448.9 104.4Q448.7 104.7 448.3 104.9Q447.9 105.1 447.3 105.1ZM447.4 104.2L447.4 104.2Q448.0 104.2 448.4 103.9Q448.9 103.6 449.1 103.0Q449.3 102.5 449.3 101.7L449.3 101.7Q449.3 101.0 449.1 100.5Q448.9 99.9 448.5 99.6Q448.0 99.3 447.4 99.3L447.4 99.3Q446.8 99.3 446.4 99.6Q446.0 100.0 445.8 100.5Q445.6 101.1 445.6 101.7L445.6 101.7Q445.6 102.4 445.8 103.0Q446.0 103.5 446.4 103.9Q446.8 104.2 447.4 104.2ZM454.9 105.1L454.9 105.1Q454.0 105.1 453.3 104.7Q452.6 104.3 452.2 103.5Q451.9 102.8 451.9 101.8Q451.9 100.8 452.2 100.0Q452.6 99.2 453.2 98.8Q453.9 98.4 454.8 98.4L454.8 98.4Q455.3 98.4 455.8 98.5Q456.3 98.7 456.8 99.1Q457.2 99.5 457.4 100.1Q457.7 100.7 457.7 101.6L457.7 101.6L457.7 102.1L452.9 102.1Q452.9 102.7 453.2 103.2L453.2 103.2Q453.4 103.7 453.9 103.9Q454.3 104.2 454.9 104.2L454.9 104.2Q455.3 104.2 455.6 104.1Q456.0 104.0 456.2 103.8Q456.4 103.5 456.5 103.2L456.5 103.2L457.6 103.5Q457.4 104.0 457.0 104.3Q456.7 104.7 456.1 104.9Q455.6 105.1 454.9 105.1ZM452.9 101.2L452.9 101.2L456.6 101.2Q456.5 100.7 456.4 100.4L456.4 100.4Q456.2 99.9 455.8 99.6Q455.4 99.3 454.8 99.3Q454.2 99.3 453.8 99.6Q453.4 99.9 453.1 100.3L453.1 100.3Q453.0 100.7 452.9 101.2ZM461.6 105.1L461.6 105.1Q460.8 105.1 460.2 104.7Q459.6 104.3 459.2 103.5Q458.9 102.8 458.9 101.7L458.9 101.7Q458.9 100.7 459.2 99.9Q459.6 99.2 460.2 98.8Q460.8 98.4 461.6 98.4L461.6 98.4Q462.3 98.4 462.6 98.6Q463.0 98.8 463.2 99.1Q463.4 99.3 463.5 99.5L463.5 99.5L463.6 99.5L463.6 96.3L464.7 96.3L464.7 105L463.6 105L463.6 104.0L463.5 104.0Q463.4 104.2 463.2 104.4Q463.0 104.7 462.6 104.9Q462.3 105.1 461.6 105.1ZM461.8 104.2L461.8 104.2Q462.4 104.2 462.8 103.9Q463.2 103.6 463.4 103.0Q463.6 102.5 463.6 101.7L463.6 101.7Q463.6 101.0 463.4 100.5Q463.2 99.9 462.8 99.6Q462.4 99.3 461.8 99.3L461.8 99.3Q461.2 99.3 460.7 99.6Q460.3 100.0 460.1 100.5Q459.9 101.1 459.9 101.7L459.9 101.7Q459.9 102.4 460.1 103.0Q460.3 103.5 460.8 103.9Q461.2 104.2 461.8 104.2Z M302.6 120.1L302.6 120.1Q301.7 120.1 301.0 119.7Q300.4 119.3 300.0 118.5Q299.6 117.8 299.6 116.8L299.6 116.8Q299.6 115.7 300.0 115.0Q300.4 114.2 301.0 113.8Q301.7 113.4 302.6 113.4L302.6 113.4Q303.1 113.4 303.5 113.5Q303.9 113.6 304.3 113.8Q304.6 114.1 304.9 114.4Q305.1 114.8 305.2 115.2L305.2 115.2L304.2 115.5Q304.2 115.2 304.0 115.0Q303.9 114.8 303.7 114.6Q303.5 114.5 303.2 114.4Q302.9 114.3 302.6 114.3L302.6 114.3Q301.9 114.3 301.5 114.7Q301.1 115.0 300.9 115.6Q300.7 116.1 300.7 116.8L300.7 116.8Q300.7 117.4 300.9 118.0Q301.1 118.5 301.5 118.9Q301.9 119.2 302.6 119.2L302.6 119.2Q302.9 119.2 303.2 119.1Q303.5 119.0 303.7 118.9Q303.9 118.7 304.0 118.5Q304.2 118.3 304.3 118.0L304.3 118.0L305.3 118.3Q305.1 118.7 304.9 119.1Q304.6 119.4 304.3 119.6Q303.9 119.9 303.5 120.0Q303.1 120.1 302.6 120.1ZM309.4 120.1L309.4 120.1Q308.6 120.1 307.9 119.7Q307.2 119.3 306.8 118.5Q306.5 117.8 306.5 116.8L306.5 116.8Q306.5 115.7 306.8 115.0Q307.2 114.2 307.9 113.8Q308.6 113.4 309.4 113.4L309.4 113.4Q310.3 113.4 311.0 113.8Q311.7 114.2 312.1 115.0Q312.4 115.7 312.4 116.8L312.4 116.8Q312.4 117.8 312.1 118.5Q311.7 119.3 311.0 119.7Q310.3 120.1 309.4 120.1ZM309.4 119.2L309.4 119.2Q310.1 119.2 310.5 118.9Q311.0 118.5 311.2 118.0Q311.4 117.4 311.4 116.8L311.4 116.8Q311.4 116.1 311.2 115.6Q311.0 115.0 310.5 114.7Q310.1 114.3 309.4 114.3L309.4 114.3Q308.8 114.3 308.4 114.7Q307.9 115.0 307.7 115.6Q307.5 116.1 307.5 116.8L307.5 116.8Q307.5 117.4 307.7 118.0Q307.9 118.5 308.4 118.9Q308.8 119.2 309.4 119.2ZM315.0 120L314.0 120L314.0 113.4L315.0 113.4L315.0 114.5L315.1 114.5Q315.2 114.0 315.7 113.7Q316.2 113.4 316.8 113.4L316.8 113.4Q316.9 113.4 317.0 113.4Q317.2 113.4 317.3 113.4L317.3 113.4L317.3 114.4Q317.3 114.4 317.1 114.4Q316.9 114.4 316.7 114.4L316.7 114.4Q316.2 114.4 315.8 114.6Q315.5 114.8 315.2 115.1Q315.0 115.5 315.0 115.9L315.0 115.9L315.0 120ZM319.5 116.1L319.5 116.1L319.5 120L318.5 120L318.5 113.4L319.5 113.4L319.5 114.7Q319.8 114.0 320.2 113.7L320.2 113.7Q320.8 113.4 321.5 113.4L321.5 113.4Q322.2 113.4 322.7 113.6Q323.2 113.9 323.5 114.5Q323.7 115.0 323.7 115.8L323.7 115.8L323.7 120L322.7 120L322.7 115.9Q322.7 115.2 322.3 114.7Q321.9 114.3 321.2 114.3L321.2 114.3Q320.7 114.3 320.4 114.5Q320.0 114.7 319.8 115.1Q319.5 115.5 319.5 116.1ZM328.3 120.1L328.3 120.1Q327.4 120.1 326.7 119.7Q326.0 119.3 325.6 118.5Q325.3 117.8 325.3 116.8Q325.3 115.8 325.6 115.0Q326.0 114.2 326.7 113.8Q327.3 113.4 328.2 113.4L328.2 113.4Q328.7 113.4 329.2 113.5Q329.8 113.7 330.2 114.1Q330.6 114.5 330.8 115.1Q331.1 115.7 331.1 116.6L331.1 116.6L331.1 117.1L326.3 117.1Q326.4 117.7 326.6 118.2L326.6 118.2Q326.8 118.7 327.3 118.9Q327.7 119.2 328.3 119.2L328.3 119.2Q328.7 119.2 329.0 119.1Q329.4 119.0 329.6 118.8Q329.8 118.5 329.9 118.2L329.9 118.2L331.0 118.5Q330.8 119.0 330.4 119.3Q330.1 119.7 329.5 119.9Q329.0 120.1 328.3 120.1ZM326.3 116.2L326.3 116.2L330.0 116.2Q330.0 115.7 329.8 115.4L329.8 115.4Q329.6 114.9 329.2 114.6Q328.8 114.3 328.2 114.3Q327.6 114.3 327.2 114.6Q326.8 114.9 326.6 115.3L326.6 115.3Q326.4 115.7 326.3 116.2ZM333.6 120L332.6 120L332.6 113.4L333.6 113.4L333.6 114.5L333.7 114.5Q333.9 114.0 334.3 113.7Q334.8 113.4 335.4 113.4L335.4 113.4Q335.5 113.4 335.6 113.4Q335.8 113.4 335.9 113.4L335.9 113.4L335.9 114.4Q335.9 114.4 335.7 114.4Q335.5 114.4 335.3 114.4L335.3 114.4Q334.8 114.4 334.4 114.6Q334.1 114.8 333.8 115.1Q333.6 115.5 333.6 115.9L333.6 115.9L333.6 120ZM339.3 120.1L339.3 120.1Q338.7 120.1 338.1 119.9Q337.6 119.7 337.3 119.4Q336.9 119.0 336.8 118.4L336.8 118.4L337.8 118.2Q337.9 118.7 338.3 119.0Q338.7 119.2 339.3 119.2L339.3 119.2Q340.0 119.2 340.4 118.9Q340.8 118.6 340.8 118.2L340.8 118.2Q340.8 117.9 340.6 117.7Q340.3 117.4 339.9 117.3L339.9 117.3L338.8 117.1Q337.9 116.9 337.4 116.4Q337.0 116.0 337.0 115.3L337.0 115.3Q337.0 114.7 337.3 114.3Q337.6 113.9 338.2 113.6Q338.7 113.4 339.4 113.4L339.4 113.4Q340.1 113.4 340.6 113.6Q341.0 113.8 341.3 114.1Q341.6 114.5 341.8 114.9L341.8 114.9L340.8 115.2Q340.7 114.8 340.4 114.6Q340.1 114.3 339.4 114.3L339.4 114.3Q338.8 114.3 338.5 114.5Q338.1 114.8 338.1 115.2L338.1 115.2Q338.1 115.6 338.3 115.8Q338.6 116.0 339.2 116.2L339.2 116.2L340.2 116.4Q341.1 116.6 341.5 117.0Q341.9 117.5 341.9 118.2L341.9 118.2Q341.9 118.7 341.6 119.2Q341.3 119.6 340.7 119.9Q340.1 120.1 339.3 120.1Z "/></g><defs><clipPath id="satori_bc-id-3" clip-path="url(#satori_cp-id)"><path x="534" y="21" width="245" height="118" d="M548,21 h217 a14,14 0 0 1 14,14 v90 a14,14 0 0 1 -14,14 h-217 a14,14 0 0 1 -14,-14 v-90 a14,14 0 0 1 14,-14"/></clipPath></defs><mask id="satori_om-id-3"><rect x="535" y="22" width="243" height="116" fill="#fff" mask="url(#satori_om-id)"/><path width="245" height="118" fill="none" stroke="#000" stroke-width="2" d="M538.101,25.101 A14,14 0 0 1 548,21 h217 a14,14 0 0 1 14,14 v90 a14,14 0 0 1 -14,14 h-217 a14,14 0 0 1 -14,-14 v-90 A14,14 0 0 1 538.101,25.101"/></mask><path x="534" y="21" width="245" height="118" fill="rgba(12,10,20,0.6)" d="M548,21 h217 a14,14 0 0 1 14,14 v90 a14,14 0 0 1 -14,14 h-217 a14,14 0 0 1 -14,-14 v-90 a14,14 0 0 1 14,-14" clip-path="url(#satori_cp-id)" mask="url(#satori_om-id)"/><path width="245" height="118" clip-path="url(#satori_bc-id-3)" fill="none" stroke="rgba(120,80,220,0.2)" stroke-width="2" d="M538.101,25.101 A14,14 0 0 1 548,21 h217 a14,14 0 0 1 14,14 v90 a14,14 0 0 1 -14,14 h-217 a14,14 0 0 1 -14,-14 v-90 A14,14 0 0 1 538.101,25.101"/><mask id="satori_om-id-3-0"><rect x="555" y="43" width="203" height="29" fill="#fff" mask="url(#satori_om-id)"/></mask><g mask="url(#satori_om-id)" clip-path="url(#satori_cp-id)"><path fill="#ffffff" d="M564.2 66.2L564.2 66.2Q561.9 66.2 560.2 65.2Q558.4 64.1 557.4 62.1Q556.4 60.0 556.4 57.3L556.4 57.3Q556.4 54.5 557.4 52.5Q558.4 50.5 560.2 49.4Q561.9 48.3 564.2 48.3L564.2 48.3Q565.5 48.3 566.7 48.7Q567.9 49.1 568.8 49.8Q569.7 50.6 570.4 51.6Q571.0 52.7 571.2 54.0L571.2 54.0L569.0 54.0Q568.8 53.1 568.4 52.5Q567.9 51.8 567.3 51.3Q566.6 50.8 565.8 50.6Q565.0 50.4 564.2 50.4L564.2 50.4Q562.6 50.4 561.3 51.2Q560.1 52.0 559.3 53.5Q558.6 55.0 558.6 57.3L558.6 57.3Q558.6 59.5 559.3 61.0Q560.1 62.6 561.4 63.4Q562.6 64.2 564.2 64.2L564.2 64.2Q565.0 64.2 565.8 63.9Q566.6 63.7 567.3 63.2Q567.9 62.8 568.4 62.1Q568.8 61.4 569.0 60.5L569.0 60.5L571.2 60.5Q571.0 61.8 570.4 62.9Q569.7 63.9 568.8 64.7Q567.9 65.4 566.7 65.8Q565.5 66.2 564.2 66.2ZM574.6 48.5L576.9 48.5L576.9 66L574.6 66L574.6 48.5Z "/></g><mask id="satori_om-id-3-1"><rect x="555" y="80" width="203" height="18" fill="#fff" mask="url(#satori_om-id)"/></mask><g mask="url(#satori_om-id)" clip-path="url(#satori_cp-id)"><path fill="#ffffff" d="M560.8 95.1L560.8 95.1Q559.3 95.1 558.1 94.5Q557.0 93.8 556.3 92.5Q555.7 91.3 555.7 89.6L555.7 89.6Q555.7 87.8 556.4 86.5Q557.0 85.3 558.2 84.6Q559.3 83.9 560.8 83.9L560.8 83.9Q561.7 83.9 562.5 84.2Q563.3 84.5 563.9 85.0Q564.5 85.5 564.9 86.1Q565.3 86.8 565.4 87.6L565.4 87.6L563.2 87.6Q563.0 87.2 562.8 86.9Q562.6 86.6 562.3 86.4Q562.0 86.2 561.6 86.0Q561.3 85.9 560.8 85.9L560.8 85.9Q560.0 85.9 559.3 86.3Q558.7 86.8 558.3 87.6Q558.0 88.4 558.0 89.5Q558.0 90.7 558.3 91.5Q558.7 92.3 559.3 92.7Q560.0 93.2 560.8 93.2L560.8 93.2Q561.6 93.2 562.2 92.9Q562.8 92.6 563.1 92.1L563.1 92.1Q563.3 91.6 563.4 90.9L563.4 90.9L561.0 90.9L561.0 89.2L565.5 89.2L565.5 90.5Q565.5 92.0 564.9 93.0Q564.3 94.0 563.3 94.6Q562.2 95.1 560.8 95.1ZM569.4 95L567.2 95L567.2 86.8L569.4 86.8L569.4 95ZM568.3 85.7L568.3 85.7Q567.8 85.7 567.4 85.4Q567.1 85.1 567.1 84.6L567.1 84.6Q567.1 84.1 567.4 83.8Q567.8 83.5 568.3 83.5L568.3 83.5Q568.8 83.5 569.1 83.8Q569.5 84.1 569.5 84.6L569.5 84.6Q569.5 85.1 569.1 85.4Q568.8 85.7 568.3 85.7ZM573.8 86.8L575.3 86.8L575.3 88.5L573.8 88.5L573.8 92.6Q573.8 93.0 574.0 93.2Q574.1 93.4 574.5 93.4L574.5 93.4Q574.7 93.4 574.9 93.3Q575.1 93.3 575.2 93.3L575.2 93.3L575.6 94.9Q575.2 95.0 574.8 95.1Q574.5 95.1 574.1 95.1L574.1 95.1Q572.9 95.1 572.2 94.5Q571.6 93.9 571.6 92.8L571.6 92.8L571.6 88.5L570.5 88.5L570.5 86.8L571.6 86.8L571.6 84.9L573.8 84.9L573.8 86.8ZM579.0 95L576.8 95L576.8 84.1L579.0 84.1L579.0 88.5L583.8 88.5L583.8 84.1L586.0 84.1L586.0 95L583.8 95L583.8 90.3L579.0 90.3L579.0 95ZM590.8 95.1L590.8 95.1Q589.9 95.1 589.3 94.7Q588.7 94.4 588.3 93.7Q588.0 93.0 588.0 92.0L588.0 92.0L588.0 86.8L590.2 86.8L590.2 91.6Q590.2 92.4 590.6 92.8Q590.9 93.3 591.6 93.3L591.6 93.3Q592.1 93.3 592.5 93.1Q592.8 92.9 593.0 92.5Q593.2 92.1 593.2 91.6L593.2 91.6L593.2 86.8L595.4 86.8L595.4 95L593.3 95L593.3 93.3Q593.0 94.1 592.5 94.5L592.5 94.5Q591.8 95.1 590.8 95.1ZM601.9 95.1L601.9 95.1Q601.2 95.1 600.8 94.9Q600.3 94.7 600.0 94.4Q599.7 94.0 599.6 93.7L599.6 93.7L599.5 93.7L599.5 95L597.3 95L597.3 84.1L599.5 84.1L599.5 88.2L599.6 88.2Q599.7 87.9 600.0 87.5Q600.3 87.2 600.7 86.9Q601.2 86.7 601.9 86.7L601.9 86.7Q602.8 86.7 603.6 87.2Q604.3 87.6 604.8 88.6Q605.2 89.5 605.2 90.9L605.2 90.9Q605.2 92.3 604.8 93.2Q604.3 94.2 603.6 94.7Q602.8 95.1 601.9 95.1ZM601.2 93.4L601.2 93.4Q601.8 93.4 602.2 93.1Q602.6 92.7 602.8 92.2Q603.0 91.6 603.0 90.9L603.0 90.9Q603.0 90.2 602.8 89.6Q602.6 89.1 602.2 88.8Q601.8 88.5 601.2 88.5L601.2 88.5Q600.6 88.5 600.2 88.8Q599.9 89.1 599.6 89.6Q599.4 90.2 599.4 90.9L599.4 90.9Q599.4 91.7 599.7 92.2Q599.9 92.8 600.3 93.1Q600.7 93.4 601.2 93.4Z M612.2 95L609.7 95L613.5 84.1L616.4 84.1L620.2 95L617.7 95L616.9 92.5L613.0 92.5L612.2 95ZM613.6 90.7L616.3 90.7L616.0 89.7Q615.7 88.7 615.3 87.5L615.3 87.5Q615.1 86.7 614.9 85.8L614.9 85.8Q614.7 86.7 614.5 87.5L614.5 87.5Q614.2 88.7 613.9 89.7L613.9 89.7L613.6 90.7ZM625.2 95.2L625.2 95.2Q623.9 95.2 623.0 94.6Q622.1 94.1 621.6 93.2Q621.2 92.2 621.2 90.9L621.2 90.9Q621.2 89.7 621.6 88.7Q622.1 87.8 623.0 87.2Q623.9 86.7 625.2 86.7L625.2 86.7Q625.9 86.7 626.5 86.9Q627.1 87.1 627.6 87.4Q628.1 87.8 628.4 88.3Q628.7 88.8 628.8 89.4L628.8 89.4L626.8 89.8Q626.7 89.5 626.6 89.2Q626.4 89.0 626.2 88.8Q626.0 88.6 625.8 88.5Q625.5 88.4 625.2 88.4L625.2 88.4Q624.6 88.4 624.2 88.8Q623.8 89.1 623.6 89.6Q623.4 90.2 623.4 90.9L623.4 90.9Q623.4 91.7 623.6 92.2Q623.8 92.8 624.2 93.1Q624.6 93.4 625.2 93.4L625.2 93.4Q625.5 93.4 625.8 93.3Q626.0 93.2 626.2 93.0Q626.4 92.9 626.6 92.6Q626.7 92.3 626.8 92.0L626.8 92.0L628.8 92.4Q628.7 93.0 628.4 93.5Q628.1 94.0 627.6 94.4Q627.1 94.8 626.5 95.0Q625.9 95.2 625.2 95.2ZM632.9 86.8L634.4 86.8L634.4 88.5L632.9 88.5L632.9 92.6Q632.9 93.0 633.0 93.2Q633.2 93.4 633.6 93.4L633.6 93.4Q633.7 93.4 634.0 93.3Q634.2 93.3 634.3 93.3L634.3 93.3L634.6 94.9Q634.3 95.0 633.9 95.1Q633.5 95.1 633.2 95.1L633.2 95.1Q632.0 95.1 631.3 94.5Q630.7 93.9 630.7 92.8L630.7 92.8L630.7 88.5L629.5 88.5L629.5 86.8L630.7 86.8L630.7 84.9L632.9 84.9L632.9 86.8ZM638.0 95L635.8 95L635.8 86.8L638.0 86.8L638.0 95ZM636.9 85.7L636.9 85.7Q636.4 85.7 636.1 85.4Q635.7 85.1 635.7 84.6L635.7 84.6Q635.7 84.1 636.1 83.8Q636.4 83.5 636.9 83.5L636.9 83.5Q637.4 83.5 637.8 83.8Q638.1 84.1 638.1 84.6L638.1 84.6Q638.1 85.1 637.8 85.4Q637.4 85.7 636.9 85.7ZM643.5 95.2L643.5 95.2Q642.3 95.2 641.4 94.6Q640.5 94.1 640.0 93.2Q639.5 92.2 639.5 90.9L639.5 90.9Q639.5 89.7 640.0 88.7Q640.5 87.8 641.4 87.2Q642.3 86.7 643.5 86.7L643.5 86.7Q644.8 86.7 645.7 87.2Q646.6 87.8 647.1 88.7Q647.6 89.7 647.6 90.9L647.6 90.9Q647.6 92.2 647.1 93.2Q646.6 94.1 645.7 94.6Q644.8 95.2 643.5 95.2ZM643.5 93.4L643.5 93.4Q644.1 93.4 644.5 93.1Q644.9 92.8 645.1 92.2Q645.3 91.6 645.3 90.9L645.3 90.9Q645.3 90.2 645.1 89.6Q644.9 89.1 644.5 88.8Q644.1 88.4 643.5 88.4L643.5 88.4Q643.0 88.4 642.6 88.8Q642.2 89.1 642.0 89.6Q641.8 90.2 641.8 90.9L641.8 90.9Q641.8 91.6 642.0 92.2Q642.2 92.8 642.6 93.1Q643.0 93.4 643.5 93.4ZM651.3 90.3L651.3 90.3L651.3 95L649.1 95L649.1 86.8L651.2 86.8L651.2 88.5Q651.5 87.7 652.0 87.3L652.0 87.3Q652.7 86.7 653.7 86.7L653.7 86.7Q654.6 86.7 655.2 87.1Q655.9 87.4 656.2 88.1Q656.6 88.8 656.6 89.8L656.6 89.8L656.6 95L654.4 95L654.4 90.2Q654.4 89.4 654.0 89.0Q653.6 88.5 652.9 88.5L652.9 88.5Q652.4 88.5 652.0 88.7Q651.7 89.0 651.5 89.3Q651.3 89.7 651.3 90.3ZM661.7 95.2L661.7 95.2Q660.7 95.2 659.9 94.9Q659.2 94.6 658.7 94.1Q658.2 93.5 658.1 92.8L658.1 92.8L660.1 92.4Q660.3 93.0 660.7 93.3Q661.1 93.5 661.7 93.5L661.7 93.5Q662.4 93.5 662.7 93.3Q663.1 93.1 663.1 92.7L663.1 92.7Q663.1 92.4 662.8 92.2Q662.6 92.0 662.0 91.9L662.0 91.9L660.6 91.6Q659.4 91.3 658.9 90.7Q658.3 90.2 658.3 89.3L658.3 89.3Q658.3 88.5 658.7 87.9Q659.1 87.3 659.9 87.0Q660.7 86.7 661.7 86.7L661.7 86.7Q662.7 86.7 663.4 87.0Q664.1 87.2 664.5 87.7Q665.0 88.2 665.1 88.9L665.1 88.9L663.2 89.2Q663.1 88.8 662.7 88.6Q662.3 88.3 661.7 88.3L661.7 88.3Q661.2 88.3 660.8 88.5Q660.5 88.7 660.5 89.1L660.5 89.1Q660.5 89.4 660.7 89.6Q660.9 89.9 661.5 90.0L661.5 90.0L663.0 90.3Q664.2 90.5 664.8 91.0Q665.3 91.6 665.3 92.5L665.3 92.5Q665.3 93.3 664.9 93.9Q664.4 94.5 663.6 94.8Q662.8 95.2 661.7 95.2Z "/></g><mask id="satori_om-id-3-2"><rect x="555" y="102" width="203" height="15" fill="#fff" mask="url(#satori_om-id)"/></mask><g mask="url(#satori_om-id)" clip-path="url(#satori_cp-id)"><path fill="rgba(220,210,255,0.85)" d="M556.5 114L555.3 114L558.5 105.3L559.8 105.3L563.0 114L561.8 114L560.9 111.6L557.3 111.6L556.5 114ZM557.7 110.6L560.6 110.6L560.0 108.8Q559.8 108.3 559.6 107.6L559.6 107.6Q559.4 107.0 559.1 106.2L559.1 106.2Q558.9 107.0 558.7 107.6L558.7 107.6Q558.4 108.4 558.3 108.8L558.3 108.8L557.7 110.6ZM566.4 114.1L566.4 114.1Q565.8 114.1 565.3 113.8Q564.8 113.5 564.5 113.0Q564.2 112.4 564.2 111.6L564.2 111.6L564.2 107.4L565.3 107.4L565.3 111.5Q565.3 112.3 565.7 112.7Q566.1 113.1 566.7 113.1L566.7 113.1Q567.2 113.1 567.6 112.9Q568.0 112.7 568.2 112.3Q568.4 111.9 568.4 111.4L568.4 111.4L568.4 107.4L569.4 107.4L569.4 114L568.4 114L568.4 112.8Q568.1 113.4 567.7 113.7L567.7 113.7Q567.1 114.1 566.4 114.1ZM572.5 107.4L573.9 107.4L573.9 108.4L572.5 108.4L572.5 112.3Q572.5 112.7 572.7 112.9Q572.9 113.1 573.3 113.1L573.3 113.1Q573.4 113.1 573.6 113.1Q573.7 113.1 573.8 113.1L573.8 113.1L574.1 114.0Q573.9 114.0 573.7 114.1Q573.5 114.1 573.3 114.1L573.3 114.1Q572.4 114.1 572.0 113.6Q571.5 113.2 571.5 112.4L571.5 112.4L571.5 108.4L570.5 108.4L570.5 107.4L571.5 107.4L571.5 105.9L572.5 105.9L572.5 107.4ZM577.9 114.1L577.9 114.1Q577.0 114.1 576.3 113.7Q575.7 113.3 575.3 112.5Q574.9 111.8 574.9 110.8L574.9 110.8Q574.9 109.7 575.3 109.0Q575.7 108.2 576.3 107.8Q577.0 107.4 577.9 107.4L577.9 107.4Q578.8 107.4 579.5 107.8Q580.1 108.2 580.5 109.0Q580.9 109.7 580.9 110.8L580.9 110.8Q580.9 111.8 580.5 112.5Q580.1 113.3 579.5 113.7Q578.8 114.1 577.9 114.1ZM577.9 113.2L577.9 113.2Q578.6 113.2 579.0 112.9Q579.4 112.5 579.6 112.0Q579.8 111.4 579.8 110.8L579.8 110.8Q579.8 110.1 579.6 109.6Q579.4 109.0 579.0 108.7Q578.6 108.3 577.9 108.3L577.9 108.3Q577.2 108.3 576.8 108.7Q576.4 109.0 576.2 109.6Q576.0 110.1 576.0 110.8L576.0 110.8Q576.0 111.4 576.2 112.0Q576.4 112.5 576.8 112.9Q577.2 113.2 577.9 113.2ZM582.3 109.8L586.2 109.8L586.2 110.8L582.3 110.8L582.3 109.8ZM589.0 114L587.9 114L587.9 107.4L589.0 107.4L589.0 108.5L589.0 108.5Q589.2 108.0 589.7 107.7Q590.1 107.4 590.7 107.4L590.7 107.4Q590.8 107.4 591.0 107.4Q591.2 107.4 591.3 107.4L591.3 107.4L591.3 108.4Q591.2 108.4 591.0 108.4Q590.8 108.4 590.6 108.4L590.6 108.4Q590.2 108.4 589.8 108.6Q589.4 108.8 589.2 109.1Q589.0 109.5 589.0 109.9L589.0 109.9L589.0 114ZM595.2 114.1L595.2 114.1Q594.3 114.1 593.6 113.7Q592.9 113.3 592.5 112.5Q592.1 111.8 592.1 110.8Q592.1 109.8 592.5 109.0Q592.9 108.2 593.5 107.8Q594.2 107.4 595.1 107.4L595.1 107.4Q595.6 107.4 596.1 107.5Q596.6 107.7 597.0 108.1Q597.5 108.5 597.7 109.1Q597.9 109.7 597.9 110.6L597.9 110.6L597.9 111.1L593.2 111.1Q593.2 111.7 593.5 112.2L593.5 112.2Q593.7 112.7 594.2 112.9Q594.6 113.2 595.2 113.2L595.2 113.2Q595.6 113.2 595.9 113.1Q596.2 113.0 596.5 112.8Q596.7 112.5 596.8 112.2L596.8 112.2L597.8 112.5Q597.7 113.0 597.3 113.3Q597.0 113.7 596.4 113.9Q595.9 114.1 595.2 114.1ZM593.2 110.2L593.2 110.2L596.9 110.2Q596.8 109.7 596.7 109.4L596.7 109.4Q596.5 108.9 596.1 108.6Q595.7 108.3 595.1 108.3Q594.5 108.3 594.1 108.6Q593.7 108.9 593.4 109.3L593.4 109.3Q593.2 109.7 593.2 110.2ZM602.5 114.1L602.5 114.1Q601.9 114.1 601.5 113.9Q601.1 113.7 600.9 113.4Q600.7 113.2 600.6 113.0L600.6 113.0L600.5 113.0L600.5 114L599.5 114L599.5 105.3L600.5 105.3L600.5 108.5L600.6 108.5Q600.7 108.3 600.9 108.1Q601.1 107.8 601.5 107.6Q601.9 107.4 602.5 107.4L602.5 107.4Q603.3 107.4 603.9 107.8Q604.6 108.2 604.9 108.9Q605.3 109.7 605.3 110.7L605.3 110.7Q605.3 111.8 604.9 112.5Q604.6 113.3 603.9 113.7Q603.3 114.1 602.5 114.1ZM602.3 113.2L602.3 113.2Q603.0 113.2 603.4 112.9Q603.8 112.5 604.0 112.0Q604.2 111.4 604.2 110.7L604.2 110.7Q604.2 110.1 604.0 109.5Q603.8 109.0 603.4 108.6Q603.0 108.3 602.3 108.3L602.3 108.3Q601.7 108.3 601.3 108.6Q600.9 108.9 600.7 109.5Q600.5 110.0 600.5 110.7L600.5 110.7Q600.5 111.5 600.7 112.0Q600.9 112.6 601.3 112.9Q601.7 113.2 602.3 113.2ZM609.0 114.1L609.0 114.1Q608.4 114.1 607.9 113.8Q607.4 113.5 607.1 113.0Q606.8 112.4 606.8 111.6L606.8 111.6L606.8 107.4L607.9 107.4L607.9 111.5Q607.9 112.3 608.3 112.7Q608.7 113.1 609.3 113.1L609.3 113.1Q609.8 113.1 610.2 112.9Q610.6 112.7 610.8 112.3Q611.0 111.9 611.0 111.4L611.0 111.4L611.0 107.4L612.0 107.4L612.0 114L611.0 114L611.0 112.8Q610.7 113.4 610.3 113.7L610.3 113.7Q609.7 114.1 609.0 114.1ZM615.0 114L613.9 114L613.9 107.4L615.0 107.4L615.0 114ZM614.4 106.4L614.4 106.4Q614.1 106.4 613.9 106.2Q613.7 106.0 613.7 105.7L613.7 105.7Q613.7 105.4 613.9 105.2Q614.1 105.0 614.4 105.0L614.4 105.0Q614.7 105.0 615.0 105.2Q615.2 105.4 615.2 105.7L615.2 105.7Q615.2 106.0 615.0 106.2Q614.7 106.4 614.4 106.4ZM616.8 105.3L617.9 105.3L617.9 114L616.8 114L616.8 105.3ZM622.2 114.1L622.2 114.1Q621.4 114.1 620.7 113.7Q620.1 113.3 619.7 112.5Q619.4 111.8 619.4 110.7L619.4 110.7Q619.4 109.7 619.7 108.9Q620.1 108.2 620.7 107.8Q621.4 107.4 622.2 107.4L622.2 107.4Q622.8 107.4 623.2 107.6Q623.6 107.8 623.8 108.1Q624.0 108.3 624.1 108.5L624.1 108.5L624.2 108.5L624.2 105.3L625.2 105.3L625.2 114L624.2 114L624.2 113.0L624.1 113.0Q624.0 113.2 623.8 113.4Q623.5 113.7 623.2 113.9Q622.8 114.1 622.2 114.1ZM622.3 113.2L622.3 113.2Q622.9 113.2 623.3 112.9Q623.7 112.6 624.0 112.0Q624.2 111.5 624.2 110.7L624.2 110.7Q624.2 110.0 624.0 109.5Q623.7 108.9 623.3 108.6Q622.9 108.3 622.3 108.3L622.3 108.3Q621.7 108.3 621.3 108.6Q620.9 109.0 620.7 109.5Q620.5 110.1 620.5 110.7L620.5 110.7Q620.5 111.4 620.7 112.0Q620.9 112.5 621.3 112.9Q621.7 113.2 622.3 113.2Z M633.1 114.1L633.1 114.1Q632.2 114.1 631.5 113.7Q630.9 113.3 630.5 112.5Q630.1 111.8 630.1 110.8L630.1 110.8Q630.1 109.7 630.5 109.0Q630.9 108.2 631.5 107.8Q632.2 107.4 633.1 107.4L633.1 107.4Q634.0 107.4 634.7 107.8Q635.3 108.2 635.7 109.0Q636.1 109.7 636.1 110.8L636.1 110.8Q636.1 111.8 635.7 112.5Q635.3 113.3 634.7 113.7Q634.0 114.1 633.1 114.1ZM633.1 113.2L633.1 113.2Q633.8 113.2 634.2 112.9Q634.6 112.5 634.8 112.0Q635.0 111.4 635.0 110.8L635.0 110.8Q635.0 110.1 634.8 109.6Q634.6 109.0 634.2 108.7Q633.8 108.3 633.1 108.3L633.1 108.3Q632.4 108.3 632.0 108.7Q631.6 109.0 631.4 109.6Q631.2 110.1 631.2 110.8L631.2 110.8Q631.2 111.4 631.4 112.0Q631.6 112.5 632.0 112.9Q632.4 113.2 633.1 113.2ZM638.7 110.1L638.7 110.1L638.7 114L637.6 114L637.6 107.4L638.6 107.4L638.6 108.7Q638.9 108.0 639.4 107.7L639.4 107.7Q639.9 107.4 640.7 107.4L640.7 107.4Q641.3 107.4 641.8 107.6Q642.3 107.9 642.6 108.5Q642.9 109.0 642.9 109.8L642.9 109.8L642.9 114L641.8 114L641.8 109.9Q641.8 109.2 641.4 108.7Q641.0 108.3 640.3 108.3L640.3 108.3Q639.9 108.3 639.5 108.5Q639.1 108.7 638.9 109.1Q638.7 109.5 638.7 110.1Z M649.1 116.4L648.1 116.4L648.1 107.4L649.1 107.4L649.1 108.5L649.2 108.5Q649.3 108.3 649.5 108.1Q649.7 107.8 650.1 107.6Q650.5 107.4 651.1 107.4L651.1 107.4Q651.9 107.4 652.6 107.8Q653.2 108.2 653.6 108.9Q653.9 109.7 653.9 110.7L653.9 110.7Q653.9 111.8 653.6 112.5Q653.2 113.3 652.6 113.7Q652.0 114.1 651.1 114.1L651.1 114.1Q650.5 114.1 650.1 113.9Q649.8 113.7 649.5 113.4Q649.3 113.2 649.2 113.0L649.2 113.0L649.1 113.0L649.1 116.4ZM651.0 113.2L651.0 113.2Q651.6 113.2 652.0 112.9Q652.4 112.5 652.6 112.0Q652.8 111.4 652.8 110.7L652.8 110.7Q652.8 110.1 652.6 109.5Q652.4 109.0 652.0 108.6Q651.6 108.3 651.0 108.3L651.0 108.3Q650.4 108.3 650.0 108.6Q649.6 108.9 649.3 109.5Q649.1 110.0 649.1 110.7L649.1 110.7Q649.1 111.5 649.3 112.0Q649.6 112.6 650.0 112.9Q650.4 113.2 651.0 113.2ZM657.7 114.1L657.7 114.1Q657 114.1 656.5 113.8Q656.0 113.5 655.7 113.0Q655.4 112.4 655.4 111.6L655.4 111.6L655.4 107.4L656.5 107.4L656.5 111.5Q656.5 112.3 656.9 112.7Q657.3 113.1 658.0 113.1L658.0 113.1Q658.4 113.1 658.8 112.9Q659.2 112.7 659.4 112.3Q659.6 111.9 659.6 111.4L659.6 111.4L659.6 107.4L660.7 107.4L660.7 114L659.7 114L659.7 112.8Q659.4 113.4 658.9 113.7L658.9 113.7Q658.4 114.1 657.7 114.1ZM664.8 114.1L664.8 114.1Q664.1 114.1 663.6 113.9Q663.0 113.7 662.7 113.4Q662.4 113.0 662.2 112.4L662.2 112.4L663.2 112.2Q663.4 112.7 663.8 113.0Q664.2 113.2 664.8 113.2L664.8 113.2Q665.4 113.2 665.8 112.9Q666.3 112.6 666.3 112.2L666.3 112.2Q666.3 111.9 666.0 111.7Q665.8 111.4 665.3 111.3L665.3 111.3L664.2 111.1Q663.3 110.9 662.9 110.4Q662.4 110.0 662.4 109.3L662.4 109.3Q662.4 108.7 662.8 108.3Q663.1 107.9 663.6 107.6Q664.2 107.4 664.9 107.4L664.9 107.4Q665.5 107.4 666.0 107.6Q666.5 107.8 666.8 108.1Q667.1 108.5 667.2 108.9L667.2 108.9L666.3 109.2Q666.1 108.8 665.8 108.6Q665.5 108.3 664.9 108.3L664.9 108.3Q664.3 108.3 663.9 108.5Q663.5 108.8 663.5 109.2L663.5 109.2Q663.5 109.6 663.8 109.8Q664.0 110.0 664.6 110.2L664.6 110.2L665.6 110.4Q666.5 110.6 666.9 111.0Q667.3 111.5 667.3 112.2L667.3 112.2Q667.3 112.7 667.0 113.2Q666.7 113.6 666.1 113.9Q665.5 114.1 664.8 114.1ZM669.9 110.1L669.9 110.1L669.9 114L668.9 114L668.9 105.3L669.9 105.3L669.9 108.6Q670.2 108.0 670.6 107.7L670.6 107.7Q671.2 107.4 671.9 107.4L671.9 107.4Q672.6 107.4 673.1 107.6Q673.6 107.9 673.8 108.5Q674.1 109.0 674.1 109.8L674.1 109.8L674.1 114L673.1 114L673.1 109.9Q673.1 109.2 672.7 108.7Q672.3 108.3 671.6 108.3L671.6 108.3Q671.1 108.3 670.7 108.5Q670.4 108.7 670.1 109.1Q669.9 109.5 669.9 110.1Z "/></g></svg>