<!-- Generated by readme-aura https://github.com/collectioneur/readme-aura -->
<svg width="700" height="60" viewBox="0 0 700 60" xmlns="http://www.w3.org/2000/svg"><defs><clipPath id="satori_bc-id"><path x="0" y="0" width="700" height="60" d="M30,0 h640 a30,30 0 0 1 30,30 v0 a30,30 0 0 1 -30,30 h-640 a30,30 0 0 1 -30,-30 v0 a30,30 0 0 1 30,-30"/></clipPath></defs><clipPath id="satori_cp-id"><path x="0" y="0" width="700" height="60" d="M30,0 h640 a30,30 0 0 1 30,30 v0 a30,30 0 0 1 -30,30 h-640 a30,30 0 0 1 -30,-30 v0 a30,30 0 0 1 30,-30"/></clipPath><mask id="satori_om-id"><rect x="1" y="1" width="698" height="58" fill="#fff"/><path width="700" height="60" fill="none" stroke="#000" stroke-width="2" d="M8.786999999999999,8.786999999999999 A30,30 0 0 1 30,0 h640 a30,30 0 0 1 30,30 v0 a30,30 0 0 1 -30,30 h-640 a30,30 0 0 1 -30,-30 v0 A30,30 0 0 1 8.786999999999999,8.786999999999999"/></mask><path x="0" y="0" width="700" height="60" fill="#08080c" d="M30,0 h640 a30,30 0 0 1 30,30 v0 a30,30 0 0 1 -30,30 h-640 a30,30 0 0 1 -30,-30 v0 a30,30 0 0 1 30,-30"/><path width="700" height="60" clip-path="url(#satori_bc-id)" fill="none" stroke="rgba(110,80,220,0.18)" stroke-width="2" d="M8.786999999999999,8.786999999999999 A30,30 0 0 1 30,0 h640 a30,30 0 0 1 30,30 v0 a30,30 0 0 1 -30,30 h-640 a30,30 0 0 1 -30,-30 v0 A30,30 0 0 1 8.786999999999999,8.786999999999999"/><clipPath id="satori_cp-id-0" clip-path="url(#satori_cp-id)"><rect x="1" y="1" width="700" height="60"/></clipPath><mask id="satori_om-id-0"><rect x="1" y="1" width="700" height="60" fill="#fff" mask="url(#satori_om-id)"/></mask><svg x="1" y="1" width="700" height="60" preserveAspectRatio="none" clip-path="url(#satori_cp-id-0)" mask="url(#satori_om-id-0)"><defs><radialGradient id="tsg1" cx="50%" cy="50%" r="50%"><stop offset="0%" stop-color="rgba(110,20,210,0.6)"></stop><stop offset="70%" stop-color="rgba(110,20,210,0)"></stop></radialGradient><radialGradient id="tsg2" cx="50%" cy="50%" r="50%"><stop offset="0%" stop-color="rgba(40,70,255,0.5)"></stop><stop offset="70%" stop-color="rgba(40,70,255,0)"></stop></radialGradient><radialGradient id="tsg3" cx="50%" cy="50%" r="50%"><stop offset="0%" stop-color="rgba(255,50,180,0.45)"></stop><stop offset="70%" stop-color="rgba(255,50,180,0)"></stop></radialGradient><radialGradient id="tsg4" cx="50%" cy="50%" r="50%"><stop offset="0%" stop-color="rgba(0,150,255,0.4)"></stop><stop offset="70%" stop-color="rgba(0,150,255,0)"></stop></radialGradient><radialGradient id="tsg5" cx="50%" cy="50%" r="50%"><stop offset="0%" stop-color="rgba(160,30,255,0.45)"></stop><stop offset="70%" stop-color="rgba(160,30,255,0)"></stop></radialGradient><radialGradient id="tsg6" cx="50%" cy="50%" r="50%"><stop offset="0%" stop-color="rgba(200,30,200,0.4)"></stop><stop offset="70%" stop-color="rgba(200,30,200,0)"></stop></radialGradient></defs><ellipse id="ts-glow-1" cx="450" cy="80" rx="140" ry="70" fill="url(#tsg1)"></ellipse><ellipse id="ts-glow-2" cx="550" cy="75" rx="130" ry="65" fill="url(#tsg2)"></ellipse><ellipse id="ts-glow-3" cx="620" cy="85" rx="120" ry="60" fill="url(#tsg3)"></ellipse><ellipse id="ts-glow-4" cx="480" cy="65" rx="80" ry="50" fill="url(#tsg4)"></ellipse><ellipse id="ts-glow-5" cx="590" cy="95" rx="90" ry="55" fill="url(#tsg5)"></ellipse><ellipse id="ts-glow-6" cx="530" cy="70" rx="70" ry="45" fill="url(#tsg6)"></ellipse><style>

      @keyframes ts-drift-right { 0%, 100% { transform: translate(0, 0); opacity: 0.8; } 50% { transform: translate(27px, -9px); opacity: 1.1; } }
      @keyframes ts-drift-left { 0%, 100% { transform: translate(0, 0); opacity: 0.75; } 50% { transform: translate(-22px, 12px); opacity: 1; } }
      @keyframes ts-pulse { 0%, 100% { transform: scale(1); opacity: 0.8; } 50% { transform: scale(1.18); opacity: 0.5; } }
      #ts-glow-1 { animation: ts-drift-right 7.5s ease-in-out infinite; }
      #ts-glow-2 { animation: ts-drift-left 8.3s ease-in-out infinite; }
      #ts-glow-3 { animation: ts-pulse 5.8s ease-in-out infinite; }
      #ts-glow-4 { animation: ts-drift-right 6.7s ease-in-out infinite 0.2s; }
      #ts-glow-5 { animation: ts-drift-left 9.2s ease-in-out infinite 0.3s; }
      #ts-glow-6 { animation: ts-pulse 5s ease-in-out infinite 0.4s; }
    
</style>
</svg><mask id="satori_om-id-0-0"><rect x="1" y="1" width="0" height="60" fill="#fff" mask="url(#satori_om-id)"/></mask><mask id="satori_om-id-0-0-0"><rect x="1" y="1" width="0" height="60" fill="#fff" mask="url(#satori_om-id)"/></mask><mask id="satori_om-id-0-0-0-0"><rect x="1" y="1" width="0" height="60" fill="#fff" mask="url(#satori_om-id)"/></mask><mask id="satori_om-id-0-0-0-1"><rect x="1" y="1" width="0" height="60" fill="#fff" mask="url(#satori_om-id)"/></mask><mask id="satori_om-id-0-0-1"><rect x="1" y="1" width="0" height="60" fill="#fff" mask="url(#satori_om-id)"/></mask><mask id="satori_om-id-0-0-1-0"><rect x="1" y="1" width="0" height="60" fill="#fff" mask="url(#satori_om-id)"/></mask><mask id="satori_om-id-0-0-1-1"><rect x="1" y="1" width="0" height="60" fill="#fff" mask="url(#satori_om-id)"/></mask><mask id="satori_om-id-0-0-2"><rect x="1" y="1" width="0" height="60" fill="#fff" mask="url(#satori_om-id)"/></mask><mask id="satori_om-id-0-0-2-0"><rect x="1" y="1" width="0" height="60" fill="#fff" mask="url(#satori_om-id)"/></mask><mask id="satori_om-id-0-0-2-1"><rect x="1" y="1" width="0" height="60" fill="#fff" mask="url(#satori_om-id)"/></mask><mask id="satori_om-id-0-0-3"><rect x="1" y="1" width="0" height="60" fill="#fff" mask="url(#satori_om-id)"/></mask><mask id="satori_om-id-0-0-3-0"><rect x="1" y="1" width="0" height="60" fill="#fff" mask="url(#satori_om-id)"/></mask><mask id="satori_om-id-0-0-3-1"><rect x="1" y="1" width="0" height="60" fill="#fff" mask="url(#satori_om-id)"/></mask><mask id="satori_om-id-0-0-4"><rect x="1" y="1" width="0" height="60" fill="#fff" mask="url(#satori_om-id)"/></mask><mask id="satori_om-id-0-0-4-0"><rect x="1" y="1" width="0" height="60" fill="#fff" mask="url(#satori_om-id)"/></mask><mask id="satori_om-id-0-0-4-1"><rect x="1" y="1" width="0" height="60" fill="#fff" mask="url(#satori_om-id)"/></mask><mask id="satori_om-id-0-0-5"><rect x="1" y="1" width="0" height="60" fill="#fff" mask="url(#satori_om-id)"/></mask><mask id="satori_om-id-0-0-5-0"><rect x="1" y="1" width="0" height="60" fill="#fff" mask="url(#satori_om-id)"/></mask><mask id="satori_om-id-0-0-5-1"><rect x="1" y="1" width="0" height="60" fill="#fff" mask="url(#satori_om-id)"/></mask><mask id="satori_om-id-0-1"><rect x="1" y="1" width="0" height="60" fill="#fff" mask="url(#satori_om-id)"/></mask><mask id="satori_om-id-0-2"><rect x="1" y="1" width="0" height="60" fill="#fff" mask="url(#satori_om-id)"/></mask><mask id="satori_om-id-0-3"><rect x="1" y="1" width="0" height="60" fill="#fff" mask="url(#satori_om-id)"/></mask><mask id="satori_om-id-0-4"><rect x="1" y="1" width="0" height="60" fill="#fff" mask="url(#satori_om-id)"/></mask><mask id="satori_om-id-0-5"><rect x="1" y="1" width="0" height="60" fill="#fff" mask="url(#satori_om-id)"/></mask><mask id="satori_om-id-0-6"><rect x="1" y="1" width="0" height="60" fill="#fff" mask="url(#satori_om-id)"/></mask><defs><clipPath id="satori_bc-id-1" clip-path="url(#satori_cp-id)"><path x="93" y="17" width="101" height="26" d="M106,17 h75 a13,13 0 0 1 13,13 v0 a13,13 0 0 1 -13,13 h-75 a13,13 0 0 1 -13,-13 v0 a13,13 0 0 1 13,-13"/></clipPath></defs><mask id="satori_om-id-1"><rect x="94" y="18" width="99" height="24" fill="#fff" mask="url(#satori_om-id)"/><path width="101" height="26" fill="none" stroke="#000" stroke-width="2" d="M96.80799999999999,20.808 A13,13 0 0 1 106,17 h75 a13,13 0 0 1 13,13 v0 a13,13 0 0 1 -13,13 h-75 a13,13 0 0 1 -13,-13 v0 A13,13 0 0 1 96.80799999999999,20.808"/></mask><path x="93" y="17" width="101" height="26" fill="rgba(12,10,20,0.6)" d="M106,17 h75 a13,13 0 0 1 13,13 v0 a13,13 0 0 1 -13,13 h-75 a13,13 0 0 1 -13,-13 v0 a13,13 0 0 1 13,-13" clip-path="url(#satori_cp-id)" mask="url(#satori_om-id)"/><path width="101" height="26" clip-path="url(#satori_bc-id-1)" fill="none" stroke="rgba(120,80,220,0.2)" stroke-width="2" d="M96.80799999999999,20.808 A13,13 0 0 1 106,17 h75 a13,13 0 0 1 13,13 v0 a13,13 0 0 1 -13,13 h-75 a13,13 0 0 1 -13,-13 v0 A13,13 0 0 1 96.80799999999999,20.808"/><g mask="url(#satori_om-id)" clip-path="url(#satori_cp-id)"><path fill="#7eb8ff" d="M111.4 27.1L108.5 27.1L108.5 25.5L116.2 25.5L116.2 27.1L113.3 27.1L113.3 35L111.4 35L111.4 27.1ZM117.4 37.5L117.4 37.5L117.9 36.1L118.1 36.1Q118.5 36.2 118.8 36.2Q119.1 36.1 119.3 36.0Q119.5 35.8 119.5 35.4L119.5 35.4L119.5 35.0L116.9 27.9L118.9 27.9L120.1 31.6Q120.3 32.3 120.4 33.0L120.4 33.0Q120.5 33.2 120.5 33.5L120.5 33.5Q120.6 33.2 120.7 33.0L120.7 33.0Q120.8 32.3 121.1 31.6L121.1 31.6L122.3 27.9L124.3 27.9L121.3 35.8Q121.1 36.4 120.7 36.8Q120.4 37.2 119.9 37.5Q119.4 37.7 118.7 37.7L118.7 37.7Q118.3 37.7 118.0 37.7Q117.6 37.6 117.4 37.5ZM127.2 37.7L125.3 37.7L125.3 27.9L127.2 27.9L127.2 29.1L127.3 29.1Q127.4 28.8 127.7 28.5Q127.9 28.2 128.3 28.0Q128.7 27.8 129.3 27.8L129.3 27.8Q130.1 27.8 130.7 28.2Q131.4 28.6 131.8 29.4Q132.2 30.3 132.2 31.5L132.2 31.5Q132.2 32.6 131.8 33.5Q131.4 34.3 130.8 34.7Q130.1 35.1 129.3 35.1L129.3 35.1Q128.7 35.1 128.3 34.9Q127.9 34.7 127.7 34.4Q127.4 34.1 127.3 33.9L127.3 33.9L127.2 33.9L127.2 37.7ZM128.7 33.6L128.7 33.6Q129.2 33.6 129.5 33.3Q129.9 33.0 130.1 32.6Q130.2 32.1 130.2 31.5L130.2 31.5Q130.2 30.8 130.1 30.4Q129.9 29.9 129.5 29.6Q129.2 29.3 128.7 29.3L128.7 29.3Q128.2 29.3 127.9 29.6Q127.5 29.9 127.4 30.3Q127.2 30.8 127.2 31.5L127.2 31.5Q127.2 32.1 127.4 32.6Q127.5 33.1 127.9 33.3Q128.2 33.6 128.7 33.6ZM136.7 35.1L136.7 35.1Q135.6 35.1 134.8 34.7Q134.1 34.3 133.6 33.4Q133.2 32.6 133.2 31.5L133.2 31.5Q133.2 30.4 133.6 29.6Q134.1 28.7 134.8 28.3Q135.6 27.8 136.6 27.8L136.6 27.8Q137.3 27.8 137.9 28.0Q138.5 28.3 139.0 28.7Q139.4 29.2 139.7 29.8Q140.0 30.5 140.0 31.4L140.0 31.4L140.0 31.9L135.1 31.9Q135.1 32.5 135.3 32.9L135.3 32.9Q135.5 33.3 135.9 33.5Q136.3 33.7 136.7 33.7L136.7 33.7Q137.1 33.7 137.4 33.6Q137.6 33.5 137.8 33.3Q138.0 33.1 138.1 32.9L138.1 32.9L139.8 33.2Q139.7 33.8 139.2 34.2Q138.8 34.7 138.2 34.9Q137.5 35.1 136.7 35.1ZM135.1 30.8L135.1 30.8L138.1 30.8Q138.1 30.4 138.0 30.1L138.0 30.1Q137.8 29.7 137.5 29.5Q137.1 29.2 136.6 29.2L136.6 29.2Q136.1 29.2 135.8 29.5Q135.5 29.7 135.3 30.1L135.3 30.1Q135.1 30.4 135.1 30.8ZM144.8 35.1L144.8 35.1Q143.6 35.1 142.8 34.8Q141.9 34.4 141.5 33.8Q141.0 33.1 141.0 32.1L141.0 32.1L142.9 32.1Q142.9 32.5 143.2 32.9Q143.4 33.2 143.8 33.3Q144.2 33.5 144.7 33.5L144.7 33.5Q145.3 33.5 145.7 33.4Q146.0 33.2 146.3 32.9Q146.5 32.7 146.5 32.3L146.5 32.3Q146.5 32.0 146.3 31.8Q146.1 31.5 145.7 31.4Q145.4 31.2 144.8 31.1L144.8 31.1L143.8 30.8Q142.6 30.5 141.9 29.9Q141.2 29.3 141.2 28.3L141.2 28.3Q141.2 27.4 141.7 26.8Q142.2 26.1 143.0 25.8Q143.8 25.4 144.8 25.4L144.8 25.4Q145.8 25.4 146.6 25.8Q147.4 26.1 147.8 26.8Q148.3 27.4 148.3 28.2L148.3 28.2L146.4 28.2Q146.4 27.7 145.9 27.4Q145.5 27.0 144.8 27.0L144.8 27.0Q144.3 27.0 143.9 27.2Q143.6 27.3 143.4 27.6Q143.2 27.8 143.2 28.1L143.2 28.1Q143.2 28.5 143.4 28.7Q143.6 29.0 144.0 29.1Q144.3 29.2 144.7 29.3L144.7 29.3L145.6 29.5Q146.2 29.7 146.7 29.9Q147.2 30.1 147.6 30.5Q148.0 30.8 148.2 31.3Q148.4 31.7 148.4 32.3L148.4 32.3Q148.4 33.2 148.0 33.8Q147.6 34.4 146.7 34.8Q145.9 35.1 144.8 35.1ZM152.9 35.1L152.9 35.1Q151.9 35.1 151.1 34.7Q150.3 34.2 149.9 33.4Q149.5 32.6 149.5 31.5L149.5 31.5Q149.5 30.4 149.9 29.6Q150.3 28.7 151.1 28.3Q151.9 27.8 152.9 27.8L152.9 27.8Q153.6 27.8 154.1 28.0Q154.6 28.1 155.0 28.4Q155.5 28.8 155.7 29.2Q156.0 29.6 156.1 30.2L156.1 30.2L154.3 30.5Q154.3 30.2 154.1 30.0Q154.0 29.8 153.9 29.6Q153.7 29.5 153.5 29.4Q153.2 29.3 153.0 29.3L153.0 29.3Q152.5 29.3 152.1 29.6Q151.8 29.9 151.6 30.3Q151.4 30.8 151.4 31.5L151.4 31.5Q151.4 32.1 151.6 32.6Q151.8 33.1 152.1 33.4Q152.5 33.6 153.0 33.6L153.0 33.6Q153.2 33.6 153.5 33.6Q153.7 33.5 153.9 33.3Q154.0 33.1 154.2 32.9Q154.3 32.7 154.3 32.4L154.3 32.4L156.1 32.7Q156.0 33.3 155.7 33.7Q155.5 34.2 155.1 34.5Q154.6 34.8 154.1 35.0Q153.6 35.1 152.9 35.1ZM159.3 35L157.4 35L157.4 27.9L159.3 27.9L159.3 29.1L159.3 29.1Q159.5 28.5 160.0 28.1Q160.5 27.8 161.0 27.8L161.0 27.8Q161.2 27.8 161.4 27.8Q161.5 27.8 161.7 27.9L161.7 27.9L161.7 29.6Q161.5 29.5 161.3 29.5Q161.1 29.5 160.8 29.5L160.8 29.5Q160.4 29.5 160.1 29.7Q159.7 29.9 159.5 30.2Q159.3 30.5 159.3 31.0L159.3 31.0L159.3 35ZM164.6 35L162.7 35L162.7 27.9L164.6 27.9L164.6 35ZM163.7 27.0L163.7 27.0Q163.2 27.0 162.9 26.7Q162.6 26.4 162.6 26.0L162.6 26.0Q162.6 25.6 162.9 25.3Q163.2 25.0 163.7 25.0L163.7 25.0Q164.1 25.0 164.4 25.3Q164.7 25.6 164.7 26.0L164.7 26.0Q164.7 26.4 164.4 26.7Q164.1 27.0 163.7 27.0ZM168.1 37.7L166.2 37.7L166.2 27.9L168.1 27.9L168.1 29.1L168.2 29.1Q168.3 28.8 168.6 28.5Q168.8 28.2 169.2 28.0Q169.6 27.8 170.2 27.8L170.2 27.8Q171.0 27.8 171.7 28.2Q172.3 28.6 172.7 29.4Q173.1 30.3 173.1 31.5L173.1 31.5Q173.1 32.6 172.7 33.5Q172.3 34.3 171.7 34.7Q171.0 35.1 170.2 35.1L170.2 35.1Q169.6 35.1 169.2 34.9Q168.8 34.7 168.6 34.4Q168.3 34.1 168.2 33.9L168.2 33.9L168.1 33.9L168.1 37.7ZM169.6 33.6L169.6 33.6Q170.1 33.6 170.5 33.3Q170.8 33.0 171.0 32.6Q171.1 32.1 171.1 31.5L171.1 31.5Q171.1 30.8 171.0 30.4Q170.8 29.9 170.5 29.6Q170.1 29.3 169.6 29.3L169.6 29.3Q169.1 29.3 168.8 29.6Q168.4 29.9 168.3 30.3Q168.1 30.8 168.1 31.5L168.1 31.5Q168.1 32.1 168.3 32.6Q168.5 33.1 168.8 33.3Q169.1 33.6 169.6 33.6ZM176.6 27.9L178.0 27.9L178.0 29.4L176.6 29.4L176.6 32.9Q176.6 33.3 176.8 33.4Q176.9 33.6 177.3 33.6L177.3 33.6Q177.4 33.6 177.6 33.6Q177.8 33.5 177.9 33.5L177.9 33.5L178.1 34.9Q177.8 35.0 177.5 35.1Q177.2 35.1 176.9 35.1L176.9 35.1Q175.9 35.1 175.3 34.6Q174.7 34.1 174.7 33.1L174.7 33.1L174.7 29.4L173.7 29.4L173.7 27.9L174.7 27.9L174.7 26.2L176.6 26.2L176.6 27.9Z "/></g><defs><clipPath id="satori_bc-id-2" clip-path="url(#satori_cp-id)"><path x="204" y="17" width="79" height="26" d="M217,17 h53 a13,13 0 0 1 13,13 v0 a13,13 0 0 1 -13,13 h-53 a13,13 0 0 1 -13,-13 v0 a13,13 0 0 1 13,-13"/></clipPath></defs><mask id="satori_om-id-2"><rect x="205" y="18" width="77" height="24" fill="#fff" mask="url(#satori_om-id)"/><path width="79" height="26" fill="none" stroke="#000" stroke-width="2" d="M207.808,20.808 A13,13 0 0 1 217,17 h53 a13,13 0 0 1 13,13 v0 a13,13 0 0 1 -13,13 h-53 a13,13 0 0 1 -13,-13 v0 A13,13 0 0 1 207.808,20.808"/></mask><path x="204" y="17" width="79" height="26" fill="rgba(12,10,20,0.6)" d="M217,17 h53 a13,13 0 0 1 13,13 v0 a13,13 0 0 1 -13,13 h-53 a13,13 0 0 1 -13,-13 v0 a13,13 0 0 1 13,-13" clip-path="url(#satori_cp-id)" mask="url(#satori_om-id)"/><path width="79" height="26" clip-path="url(#satori_bc-id-2)" fill="none" stroke="rgba(120,80,220,0.2)" stroke-width="2" d="M207.808,20.808 A13,13 0 0 1 217,17 h53 a13,13 0 0 1 13,13 v0 a13,13 0 0 1 -13,13 h-53 a13,13 0 0 1 -13,-13 v0 A13,13 0 0 1 207.808,20.808"/><g mask="url(#satori_om-id)" clip-path="url(#satori_cp-id)"><path fill="#9ee79e" d="M221.8 35L219.9 35L219.9 25.5L222.0 25.5L225.0 30.3Q225.2 30.7 225.5 31.1Q225.7 31.6 226.0 32.1L226.0 32.1Q226.1 32.3 226.2 32.6L226.2 32.6Q226.2 32.4 226.2 32.1L226.2 32.1Q226.1 31.6 226.1 31.0Q226.1 30.5 226.1 30.1L226.1 30.1L226.1 25.5L228.1 25.5L228.1 35L225.9 35L223.2 30.7Q222.9 30.2 222.6 29.7Q222.4 29.2 222.1 28.7L222.1 28.7Q221.9 28.4 221.7 27.9L221.7 27.9Q221.7 28.3 221.8 28.7L221.8 28.7Q221.8 29.3 221.8 29.8Q221.8 30.3 221.8 30.7L221.8 30.7L221.8 35ZM232.9 35.1L232.9 35.1Q231.8 35.1 231.0 34.7Q230.3 34.2 229.8 33.4Q229.4 32.6 229.4 31.5L229.4 31.5Q229.4 30.4 229.8 29.6Q230.3 28.7 231.0 28.3Q231.8 27.8 232.9 27.8L232.9 27.8Q234.0 27.8 234.7 28.3Q235.5 28.7 235.9 29.6Q236.4 30.4 236.4 31.5L236.4 31.5Q236.4 32.6 235.9 33.4Q235.5 34.2 234.7 34.7Q234.0 35.1 232.9 35.1ZM232.9 33.6L232.9 33.6Q233.4 33.6 233.7 33.4Q234.1 33.1 234.3 32.6Q234.4 32.1 234.4 31.5L234.4 31.5Q234.4 30.8 234.3 30.4Q234.1 29.9 233.7 29.6Q233.4 29.3 232.9 29.3L232.9 29.3Q232.4 29.3 232.0 29.6Q231.7 29.9 231.5 30.4Q231.4 30.8 231.4 31.5L231.4 31.5Q231.4 32.1 231.5 32.6Q231.7 33.1 232.0 33.4Q232.4 33.6 232.9 33.6ZM240.3 35.1L240.3 35.1Q239.5 35.1 238.8 34.7Q238.2 34.3 237.8 33.5Q237.4 32.6 237.4 31.5L237.4 31.5Q237.4 30.3 237.8 29.4Q238.2 28.6 238.8 28.2Q239.5 27.8 240.3 27.8L240.3 27.8Q240.9 27.8 241.3 28.0Q241.7 28.2 241.9 28.5Q242.2 28.8 242.3 29.1L242.3 29.1L242.4 29.1L242.4 25.5L244.3 25.5L244.3 35L242.4 35L242.4 33.9L242.3 33.9Q242.2 34.1 241.9 34.4Q241.7 34.7 241.3 34.9Q240.9 35.1 240.3 35.1ZM240.9 33.6L240.9 33.6Q241.4 33.6 241.7 33.3Q242.0 33.1 242.2 32.6Q242.4 32.1 242.4 31.5L242.4 31.5Q242.4 30.8 242.2 30.3Q242.0 29.9 241.7 29.6Q241.4 29.3 240.9 29.3L240.9 29.3Q240.4 29.3 240.0 29.6Q239.7 29.9 239.5 30.4Q239.4 30.8 239.4 31.5L239.4 31.5Q239.4 32.1 239.5 32.6Q239.7 33.0 240.0 33.3Q240.4 33.6 240.9 33.6ZM249.1 35.1L249.1 35.1Q248.0 35.1 247.2 34.7Q246.4 34.3 246.0 33.4Q245.6 32.6 245.6 31.5L245.6 31.5Q245.6 30.4 246.0 29.6Q246.4 28.7 247.2 28.3Q248.0 27.8 249.0 27.8L249.0 27.8Q249.7 27.8 250.3 28.0Q250.9 28.3 251.4 28.7Q251.8 29.2 252.1 29.8Q252.3 30.5 252.3 31.4L252.3 31.4L252.3 31.9L247.5 31.9Q247.5 32.5 247.7 32.9L247.7 32.9Q247.9 33.3 248.3 33.5Q248.6 33.7 249.1 33.7L249.1 33.7Q249.5 33.7 249.7 33.6Q250.0 33.5 250.2 33.3Q250.4 33.1 250.5 32.9L250.5 32.9L252.2 33.2Q252.1 33.8 251.6 34.2Q251.2 34.7 250.6 34.9Q249.9 35.1 249.1 35.1ZM247.5 30.8L247.5 30.8L250.5 30.8Q250.5 30.4 250.3 30.1L250.3 30.1Q250.2 29.7 249.8 29.5Q249.5 29.2 249.0 29.2L249.0 29.2Q248.5 29.2 248.2 29.5Q247.8 29.7 247.7 30.1L247.7 30.1Q247.5 30.4 247.5 30.8ZM255.0 35.1L255.0 35.1Q254.5 35.1 254.2 34.8Q253.9 34.5 253.9 34.0L253.9 34.0Q253.9 33.6 254.2 33.3Q254.5 32.9 255.0 32.9L255.0 32.9Q255.5 32.9 255.8 33.3Q256.1 33.6 256.1 34.0L256.1 34.0Q256.1 34.5 255.8 34.8Q255.5 35.1 255.0 35.1ZM258.0 35.3L258.0 27.9L259.9 27.9L259.9 35.4Q259.9 36.2 259.6 36.7Q259.2 37.2 258.7 37.4Q258.1 37.7 257.2 37.7L257.2 37.7L256.8 37.7L256.8 36.2L257.1 36.2Q257.6 36.2 257.8 35.9Q258.0 35.7 258.0 35.3L258.0 35.3ZM258.9 27.0L258.9 27.0Q258.5 27.0 258.2 26.7Q257.9 26.4 257.9 26.0L257.9 26.0Q257.9 25.6 258.2 25.3Q258.5 25.0 258.9 25.0L258.9 25.0Q259.4 25.0 259.7 25.3Q260.0 25.6 260.0 26.0L260.0 26.0Q260.0 26.4 259.7 26.7Q259.4 27.0 258.9 27.0ZM264.3 35.1L264.3 35.1Q263.5 35.1 262.8 34.9Q262.1 34.7 261.7 34.2Q261.3 33.7 261.2 33.1L261.2 33.1L263.0 32.8Q263.1 33.2 263.4 33.5Q263.8 33.7 264.4 33.7L264.4 33.7Q264.9 33.7 265.2 33.5Q265.5 33.3 265.5 33.0L265.5 33.0Q265.5 32.7 265.3 32.6Q265.1 32.4 264.6 32.3L264.6 32.3L263.4 32.0Q262.4 31.8 261.9 31.3Q261.4 30.8 261.4 30.0L261.4 30.0Q261.4 29.3 261.7 28.8Q262.1 28.3 262.8 28.1Q263.4 27.8 264.3 27.8L264.3 27.8Q265.2 27.8 265.8 28.0Q266.4 28.3 266.8 28.7Q267.2 29.1 267.3 29.7L267.3 29.7L265.6 30.0Q265.5 29.6 265.2 29.4Q264.9 29.2 264.4 29.2L264.4 29.2Q263.9 29.2 263.6 29.4Q263.3 29.6 263.3 29.9L263.3 29.9Q263.3 30.2 263.5 30.4Q263.7 30.5 264.2 30.6L264.2 30.6L265.5 30.9Q266.5 31.1 267.0 31.6Q267.5 32.0 267.5 32.8L267.5 32.8Q267.5 33.5 267.1 34.0Q266.7 34.6 266.0 34.8Q265.2 35.1 264.3 35.1Z "/></g><defs><clipPath id="satori_bc-id-3" clip-path="url(#satori_cp-id)"><path x="293" y="17" width="68" height="26" d="M306,17 h42 a13,13 0 0 1 13,13 v0 a13,13 0 0 1 -13,13 h-42 a13,13 0 0 1 -13,-13 v0 a13,13 0 0 1 13,-13"/></clipPath></defs><mask id="satori_om-id-3"><rect x="294" y="18" width="66" height="24" fill="#fff" mask="url(#satori_om-id)"/><path width="68" height="26" fill="none" stroke="#000" stroke-width="2" d="M296.808,20.808 A13,13 0 0 1 306,17 h42 a13,13 0 0 1 13,13 v0 a13,13 0 0 1 -13,13 h-42 a13,13 0 0 1 -13,-13 v0 A13,13 0 0 1 296.808,20.808"/></mask><path x="293" y="17" width="68" height="26" fill="rgba(12,10,20,0.6)" d="M306,17 h42 a13,13 0 0 1 13,13 v0 a13,13 0 0 1 -13,13 h-42 a13,13 0 0 1 -13,-13 v0 a13,13 0 0 1 13,-13" clip-path="url(#satori_cp-id)" mask="url(#satori_om-id)"/><path width="68" height="26" clip-path="url(#satori_bc-id-3)" fill="none" stroke="rgba(120,80,220,0.2)" stroke-width="2" d="M296.808,20.808 A13,13 0 0 1 306,17 h42 a13,13 0 0 1 13,13 v0 a13,13 0 0 1 -13,13 h-42 a13,13 0 0 1 -13,-13 v0 A13,13 0 0 1 296.808,20.808"/><g mask="url(#satori_om-id)" clip-path="url(#satori_cp-id)"><path fill="#e8c8ff" d="M312.3 35.1L312.3 35.1Q311.2 35.1 310.3 34.8Q309.5 34.4 309.0 33.8Q308.6 33.1 308.5 32.1L308.5 32.1L310.4 32.1Q310.5 32.5 310.7 32.9Q311.0 33.2 311.4 33.3Q311.8 33.5 312.3 33.5L312.3 33.5Q312.8 33.5 313.2 33.4Q313.6 33.2 313.8 32.9Q314.0 32.7 314.0 32.3L314.0 32.3Q314.0 32.0 313.8 31.8Q313.6 31.5 313.3 31.4Q312.9 31.2 312.4 31.1L312.4 31.1L311.4 30.8Q310.2 30.5 309.5 29.9Q308.8 29.3 308.8 28.3L308.8 28.3Q308.8 27.4 309.3 26.8Q309.7 26.1 310.5 25.8Q311.3 25.4 312.3 25.4L312.3 25.4Q313.4 25.4 314.2 25.8Q315.0 26.1 315.4 26.8Q315.8 27.4 315.8 28.2L315.8 28.2L314.0 28.2Q313.9 27.7 313.5 27.4Q313.1 27.0 312.3 27.0L312.3 27.0Q311.8 27.0 311.5 27.2Q311.1 27.3 311.0 27.6Q310.8 27.8 310.8 28.1L310.8 28.1Q310.8 28.5 311.0 28.7Q311.2 29.0 311.5 29.1Q311.9 29.2 312.3 29.3L312.3 29.3L313.1 29.5Q313.7 29.7 314.3 29.9Q314.8 30.1 315.2 30.5Q315.5 30.8 315.8 31.3Q316.0 31.7 316.0 32.3L316.0 32.3Q316.0 33.2 315.5 33.8Q315.1 34.4 314.3 34.8Q313.5 35.1 312.3 35.1ZM319.3 35.1L319.3 35.1Q318.6 35.1 318.1 34.9Q317.6 34.7 317.3 34.2Q316.9 33.7 316.9 33.0L316.9 33.0Q316.9 32.4 317.2 32.0Q317.4 31.6 317.8 31.4Q318.1 31.1 318.6 31.0Q319.1 30.9 319.6 30.8L319.6 30.8Q320.2 30.8 320.6 30.7Q321.0 30.7 321.2 30.5Q321.3 30.4 321.3 30.2L321.3 30.2L321.3 30.2Q321.3 29.9 321.2 29.7Q321.1 29.4 320.8 29.3Q320.6 29.2 320.2 29.2L320.2 29.2Q319.9 29.2 319.6 29.3Q319.3 29.4 319.1 29.6Q319.0 29.8 318.9 30.0L318.9 30.0L317.1 29.8Q317.3 29.1 317.8 28.7Q318.2 28.3 318.8 28.0Q319.4 27.8 320.2 27.8L320.2 27.8Q320.8 27.8 321.3 28.0Q321.9 28.1 322.3 28.4Q322.7 28.7 323.0 29.1Q323.2 29.6 323.2 30.2L323.2 30.2L323.2 35L321.4 35L321.4 34.0L321.4 34.0Q321.2 34.3 320.9 34.6Q320.6 34.8 320.2 35.0Q319.8 35.1 319.3 35.1ZM319.8 33.8L319.8 33.8Q320.3 33.8 320.6 33.6Q321.0 33.4 321.2 33.1Q321.4 32.8 321.4 32.5L321.4 32.5L321.4 31.7Q321.3 31.8 321.1 31.8Q320.9 31.9 320.7 31.9Q320.5 31.9 320.3 32.0Q320.1 32.0 319.9 32.0L319.9 32.0Q319.6 32.1 319.3 32.2Q319.1 32.3 318.9 32.5Q318.8 32.7 318.8 33.0L318.8 33.0Q318.8 33.2 318.9 33.4Q319.1 33.6 319.3 33.7Q319.5 33.8 319.8 33.8ZM327.1 27.9L328.4 27.9L328.4 29.4L327.1 29.4L327.1 32.9Q327.1 33.3 327.2 33.4Q327.4 33.6 327.7 33.6L327.7 33.6Q327.8 33.6 328.0 33.6Q328.2 33.5 328.3 33.5L328.3 33.5L328.6 34.9Q328.3 35.0 328.0 35.1Q327.6 35.1 327.4 35.1L327.4 35.1Q326.3 35.1 325.7 34.6Q325.2 34.1 325.2 33.1L325.2 33.1L325.2 29.4L324.2 29.4L324.2 27.9L325.2 27.9L325.2 26.2L327.1 26.2L327.1 27.9ZM332.8 35.1L332.8 35.1Q331.7 35.1 331.0 34.7Q330.2 34.2 329.8 33.4Q329.3 32.6 329.3 31.5L329.3 31.5Q329.3 30.4 329.8 29.6Q330.2 28.7 331.0 28.3Q331.7 27.8 332.8 27.8L332.8 27.8Q333.9 27.8 334.7 28.3Q335.4 28.7 335.9 29.6Q336.3 30.4 336.3 31.5L336.3 31.5Q336.3 32.6 335.9 33.4Q335.4 34.2 334.7 34.7Q333.9 35.1 332.8 35.1ZM332.8 33.6L332.8 33.6Q333.3 33.6 333.7 33.4Q334 33.1 334.2 32.6Q334.3 32.1 334.3 31.5L334.3 31.5Q334.3 30.8 334.2 30.4Q334 29.9 333.7 29.6Q333.3 29.3 332.8 29.3L332.8 29.3Q332.3 29.3 332.0 29.6Q331.6 29.9 331.4 30.4Q331.3 30.8 331.3 31.5L331.3 31.5Q331.3 32.1 331.4 32.6Q331.6 33.1 332.0 33.4Q332.3 33.6 332.8 33.6ZM339.5 35L337.6 35L337.6 27.9L339.4 27.9L339.4 29.1L339.5 29.1Q339.7 28.5 340.2 28.1Q340.6 27.8 341.2 27.8L341.2 27.8Q341.4 27.8 341.6 27.8Q341.7 27.8 341.9 27.9L341.9 27.9L341.9 29.6Q341.7 29.5 341.5 29.5Q341.2 29.5 341.0 29.5L341.0 29.5Q340.6 29.5 340.2 29.7Q339.9 29.9 339.7 30.2Q339.5 30.5 339.5 31.0L339.5 31.0L339.5 35ZM344.8 35L342.9 35L342.9 27.9L344.8 27.9L344.8 35ZM343.9 27.0L343.9 27.0Q343.4 27.0 343.1 26.7Q342.8 26.4 342.8 26.0L342.8 26.0Q342.8 25.6 343.1 25.3Q343.4 25.0 343.9 25.0L343.9 25.0Q344.3 25.0 344.6 25.3Q344.9 25.6 344.9 26.0L344.9 26.0Q344.9 26.4 344.6 26.7Q344.3 27.0 343.9 27.0Z "/></g><defs><clipPath id="satori_bc-id-4" clip-path="url(#satori_cp-id)"><path x="371" y="17" width="96" height="26" d="M384,17 h70 a13,13 0 0 1 13,13 v0 a13,13 0 0 1 -13,13 h-70 a13,13 0 0 1 -13,-13 v0 a13,13 0 0 1 13,-13"/></clipPath></defs><mask id="satori_om-id-4"><rect x="372" y="18" width="94" height="24" fill="#fff" mask="url(#satori_om-id)"/><path width="96" height="26" fill="none" stroke="#000" stroke-width="2" d="M374.808,20.808 A13,13 0 0 1 384,17 h70 a13,13 0 0 1 13,13 v0 a13,13 0 0 1 -13,13 h-70 a13,13 0 0 1 -13,-13 v0 A13,13 0 0 1 374.808,20.808"/></mask><path x="371" y="17" width="96" height="26" fill="rgba(12,10,20,0.6)" d="M384,17 h70 a13,13 0 0 1 13,13 v0 a13,13 0 0 1 -13,13 h-70 a13,13 0 0 1 -13,-13 v0 a13,13 0 0 1 13,-13" clip-path="url(#satori_cp-id)" mask="url(#satori_om-id)"/><path width="96" height="26" clip-path="url(#satori_bc-id-4)" fill="none" stroke="rgba(120,80,220,0.2)" stroke-width="2" d="M374.808,20.808 A13,13 0 0 1 384,17 h70 a13,13 0 0 1 13,13 v0 a13,13 0 0 1 -13,13 h-70 a13,13 0 0 1 -13,-13 v0 A13,13 0 0 1 374.808,20.808"/><g mask="url(#satori_om-id)" clip-path="url(#satori_cp-id)"><path fill="#7ee7ff" d="M388.8 35L386.9 35L386.9 25.5L390.5 25.5Q391.6 25.5 392.4 25.9Q393.1 26.3 393.5 27.0Q393.9 27.7 393.9 28.6Q393.9 29.6 393.5 30.2Q393.1 30.9 392.4 31.3L392.4 31.3Q392.3 31.3 392.3 31.3L392.3 31.3L394.3 35L392.1 35L390.3 31.6L388.8 31.6L388.8 35ZM388.8 27.1L388.8 30.1L390.2 30.1Q390.8 30.1 391.2 29.9Q391.5 29.7 391.7 29.4Q391.9 29.1 391.9 28.6L391.9 28.6Q391.9 28.1 391.7 27.8Q391.5 27.5 391.2 27.3Q390.8 27.1 390.2 27.1L390.2 27.1L388.8 27.1ZM398.6 35.1L398.6 35.1Q397.5 35.1 396.7 34.7Q395.9 34.3 395.5 33.4Q395.1 32.6 395.1 31.5L395.1 31.5Q395.1 30.4 395.5 29.6Q395.9 28.7 396.7 28.3Q397.4 27.8 398.5 27.8L398.5 27.8Q399.2 27.8 399.8 28.0Q400.4 28.3 400.8 28.7Q401.3 29.2 401.5 29.8Q401.8 30.5 401.8 31.4L401.8 31.4L401.8 31.9L396.9 31.9Q397.0 32.5 397.1 32.9L397.1 32.9Q397.3 33.3 397.7 33.5Q398.1 33.7 398.6 33.7L398.6 33.7Q398.9 33.7 399.2 33.6Q399.5 33.5 399.7 33.3Q399.9 33.1 400.0 32.9L400.0 32.9L401.7 33.2Q401.5 33.8 401.1 34.2Q400.7 34.7 400.0 34.9Q399.4 35.1 398.6 35.1ZM396.9 30.8L396.9 30.8L400.0 30.8Q399.9 30.4 399.8 30.1L399.8 30.1Q399.6 29.7 399.3 29.5Q399.0 29.2 398.5 29.2L398.5 29.2Q398.0 29.2 397.6 29.5Q397.3 29.7 397.1 30.1L397.1 30.1Q397.0 30.4 396.9 30.8ZM405.1 35.1L405.1 35.1Q404.4 35.1 403.9 34.9Q403.3 34.7 403.0 34.2Q402.7 33.7 402.7 33.0L402.7 33.0Q402.7 32.4 402.9 32.0Q403.2 31.6 403.5 31.4Q403.9 31.1 404.4 31.0Q404.9 30.9 405.4 30.8L405.4 30.8Q406.0 30.8 406.4 30.7Q406.8 30.7 406.9 30.5Q407.1 30.4 407.1 30.2L407.1 30.2L407.1 30.2Q407.1 29.9 407.0 29.7Q406.9 29.4 406.6 29.3Q406.4 29.2 406.0 29.2L406.0 29.2Q405.6 29.2 405.4 29.3Q405.1 29.4 404.9 29.6Q404.7 29.8 404.7 30.0L404.7 30.0L402.9 29.8Q403.1 29.1 403.5 28.7Q404.0 28.3 404.6 28.0Q405.2 27.8 406.0 27.8L406.0 27.8Q406.6 27.8 407.1 28.0Q407.7 28.1 408.1 28.4Q408.5 28.7 408.8 29.1Q409.0 29.6 409.0 30.2L409.0 30.2L409.0 35L407.2 35L407.2 34.0L407.2 34.0Q407.0 34.3 406.7 34.6Q406.4 34.8 406.0 35.0Q405.6 35.1 405.1 35.1ZM405.6 33.8L405.6 33.8Q406.1 33.8 406.4 33.6Q406.7 33.4 406.9 33.1Q407.1 32.8 407.1 32.5L407.1 32.5L407.1 31.7Q407.0 31.8 406.9 31.8Q406.7 31.9 406.5 31.9Q406.3 31.9 406.1 32.0Q405.9 32.0 405.7 32.0L405.7 32.0Q405.4 32.1 405.1 32.2Q404.8 32.3 404.7 32.5Q404.5 32.7 404.5 33.0L404.5 33.0Q404.5 33.2 404.7 33.4Q404.8 33.6 405.1 33.7Q405.3 33.8 405.6 33.8ZM413.8 35.1L413.8 35.1Q412.7 35.1 412.0 34.7Q411.2 34.2 410.8 33.4Q410.3 32.6 410.3 31.5L410.3 31.5Q410.3 30.4 410.8 29.6Q411.2 28.7 412.0 28.3Q412.7 27.8 413.8 27.8L413.8 27.8Q414.4 27.8 415.0 28.0Q415.5 28.1 415.9 28.4Q416.3 28.8 416.6 29.2Q416.9 29.6 417.0 30.2L417.0 30.2L415.2 30.5Q415.1 30.2 415.0 30.0Q414.9 29.8 414.7 29.6Q414.6 29.5 414.3 29.4Q414.1 29.3 413.8 29.3L413.8 29.3Q413.3 29.3 413.0 29.6Q412.6 29.9 412.5 30.3Q412.3 30.8 412.3 31.5L412.3 31.5Q412.3 32.1 412.5 32.6Q412.6 33.1 413.0 33.4Q413.3 33.6 413.8 33.6L413.8 33.6Q414.1 33.6 414.3 33.6Q414.6 33.5 414.7 33.3Q414.9 33.1 415.0 32.9Q415.2 32.7 415.2 32.4L415.2 32.4L417.0 32.7Q416.9 33.3 416.6 33.7Q416.3 34.2 415.9 34.5Q415.5 34.8 415.0 35.0Q414.5 35.1 413.8 35.1ZM420.5 27.9L421.8 27.9L421.8 29.4L420.5 29.4L420.5 32.9Q420.5 33.3 420.6 33.4Q420.8 33.6 421.1 33.6L421.1 33.6Q421.2 33.6 421.4 33.6Q421.6 33.5 421.7 33.5L421.7 33.5L422.0 34.9Q421.7 35.0 421.4 35.1Q421.1 35.1 420.8 35.1L420.8 35.1Q419.7 35.1 419.1 34.6Q418.6 34.1 418.6 33.1L418.6 33.1L418.6 29.4L417.6 29.4L417.6 27.9L418.6 27.9L418.6 26.2L420.5 26.2L420.5 27.9Z M428.9 35.1L428.9 35.1Q427.4 35.1 426.6 34.4Q425.7 33.6 425.7 32.2L425.7 32.2L425.7 31.6L427.7 31.6L427.7 32.2Q427.7 32.9 428.0 33.2Q428.4 33.6 428.9 33.6L428.9 33.6Q429.5 33.6 429.8 33.2Q430.1 32.9 430.1 32.2L430.1 32.2L430.1 25.5L432.1 25.5L432.1 32.1Q432.1 33.6 431.2 34.4Q430.4 35.1 428.9 35.1ZM437.2 35.1L437.2 35.1Q436.1 35.1 435.3 34.8Q434.4 34.4 434.0 33.8Q433.5 33.1 433.5 32.1L433.5 32.1L435.3 32.1Q435.4 32.5 435.6 32.9Q435.9 33.2 436.3 33.3Q436.7 33.5 437.2 33.5L437.2 33.5Q437.7 33.5 438.1 33.4Q438.5 33.2 438.7 32.9Q438.9 32.7 438.9 32.3L438.9 32.3Q438.9 32.0 438.7 31.8Q438.6 31.5 438.2 31.4Q437.8 31.2 437.3 31.1L437.3 31.1L436.3 30.8Q435.1 30.5 434.4 29.9Q433.7 29.3 433.7 28.3L433.7 28.3Q433.7 27.4 434.2 26.8Q434.6 26.1 435.4 25.8Q436.2 25.4 437.3 25.4L437.3 25.4Q438.3 25.4 439.1 25.8Q439.9 26.1 440.3 26.8Q440.7 27.4 440.8 28.2L440.8 28.2L438.9 28.2Q438.8 27.7 438.4 27.4Q438.0 27.0 437.2 27.0L437.2 27.0Q436.8 27.0 436.4 27.2Q436.1 27.3 435.9 27.6Q435.7 27.8 435.7 28.1L435.7 28.1Q435.7 28.5 435.9 28.7Q436.1 29.0 436.5 29.1Q436.8 29.2 437.2 29.3L437.2 29.3L438.1 29.5Q438.7 29.7 439.2 29.9Q439.7 30.1 440.1 30.5Q440.5 30.8 440.7 31.3Q440.9 31.7 440.9 32.3L440.9 32.3Q440.9 33.2 440.5 33.8Q440.0 34.4 439.2 34.8Q438.4 35.1 437.2 35.1ZM444.0 35L441.8 35L445.1 30.2L442.1 25.5L444.3 25.5L445.3 27.1Q445.6 27.6 445.8 27.9Q446.0 28.3 446.2 28.6L446.2 28.6Q446.2 28.7 446.3 28.8L446.3 28.8Q446.3 28.7 446.3 28.6L446.3 28.6Q446.5 28.3 446.7 27.9Q446.9 27.6 447.2 27.1L447.2 27.1L448.2 25.5L450.4 25.5L447.4 30.1L450.7 35L448.4 35L447.1 33.0Q446.8 32.6 446.7 32.3Q446.5 32.1 446.4 31.8L446.4 31.8Q446.3 31.7 446.2 31.5L446.2 31.5Q446.2 31.7 446.1 31.8L446.1 31.8Q445.9 32.1 445.8 32.3Q445.6 32.6 445.4 33.0L445.4 33.0L444.0 35Z "/></g><defs><clipPath id="satori_bc-id-5" clip-path="url(#satori_cp-id)"><path x="477" y="17" width="130" height="26" d="M490,17 h104 a13,13 0 0 1 13,13 v0 a13,13 0 0 1 -13,13 h-104 a13,13 0 0 1 -13,-13 v0 a13,13 0 0 1 13,-13"/></clipPath></defs><mask id="satori_om-id-5"><rect x="478" y="18" width="128" height="24" fill="#fff" mask="url(#satori_om-id)"/><path width="130" height="26" fill="none" stroke="#000" stroke-width="2" d="M480.808,20.808 A13,13 0 0 1 490,17 h104 a13,13 0 0 1 13,13 v0 a13,13 0 0 1 -13,13 h-104 a13,13 0 0 1 -13,-13 v0 A13,13 0 0 1 480.808,20.808"/></mask><path x="477" y="17" width="130" height="26" fill="rgba(12,10,20,0.6)" d="M490,17 h104 a13,13 0 0 1 13,13 v0 a13,13 0 0 1 -13,13 h-104 a13,13 0 0 1 -13,-13 v0 a13,13 0 0 1 13,-13" clip-path="url(#satori_cp-id)" mask="url(#satori_om-id)"/><path width="130" height="26" clip-path="url(#satori_bc-id-5)" fill="none" stroke="rgba(120,80,220,0.2)" stroke-width="2" d="M480.808,20.808 A13,13 0 0 1 490,17 h104 a13,13 0 0 1 13,13 v0 a13,13 0 0 1 -13,13 h-104 a13,13 0 0 1 -13,-13 v0 A13,13 0 0 1 480.808,20.808"/><g mask="url(#satori_om-id)" clip-path="url(#satori_cp-id)"><path fill="#ffb088" d="M496.8 35.1L496.8 35.1Q495.6 35.1 494.7 34.7Q493.8 34.3 493.3 33.5Q492.9 32.7 492.9 31.7L492.9 31.7L492.9 25.5L494.8 25.5L494.8 31.5Q494.8 32.1 495.0 32.5Q495.3 32.9 495.7 33.2Q496.2 33.4 496.8 33.4L496.8 33.4Q497.4 33.4 497.8 33.2Q498.2 32.9 498.5 32.5Q498.7 32.1 498.7 31.5L498.7 31.5L498.7 25.5L500.7 25.5L500.7 31.7Q500.7 32.7 500.2 33.5Q499.7 34.3 498.8 34.7Q497.9 35.1 496.8 35.1ZM504.2 30.9L504.2 30.9L504.2 35L502.3 35L502.3 27.9L504.1 27.9L504.1 29.4Q504.4 28.7 504.9 28.3L504.9 28.3Q505.5 27.8 506.4 27.8L506.4 27.8Q507.1 27.8 507.6 28.1Q508.2 28.5 508.5 29.1Q508.8 29.7 508.8 30.5L508.8 30.5L508.8 35L506.9 35L506.9 30.8Q506.9 30.2 506.6 29.8Q506.2 29.4 505.6 29.4L505.6 29.4Q505.2 29.4 504.9 29.6Q504.6 29.8 504.4 30.1Q504.2 30.4 504.2 30.9ZM512.3 35L510.4 35L510.4 27.9L512.3 27.9L512.3 35ZM511.4 27.0L511.4 27.0Q510.9 27.0 510.6 26.7Q510.3 26.4 510.3 26.0L510.3 26.0Q510.3 25.6 510.6 25.3Q510.9 25.0 511.4 25.0L511.4 25.0Q511.8 25.0 512.1 25.3Q512.4 25.6 512.4 26.0L512.4 26.0Q512.4 26.4 512.1 26.7Q511.8 27.0 511.4 27.0ZM516.4 27.9L517.9 27.9L517.9 29.4L516.4 29.4L516.4 35L514.5 35L514.5 29.4L513.3 29.4L513.3 27.9L514.5 27.9L514.5 27.4Q514.5 26.6 514.8 26.1Q515.1 25.6 515.6 25.3Q516.2 25.1 516.8 25.1L516.8 25.1Q517.3 25.1 517.6 25.2Q518.0 25.2 518.2 25.3L518.2 25.3L517.8 26.7Q517.7 26.7 517.6 26.7Q517.4 26.6 517.2 26.6L517.2 26.6Q516.8 26.6 516.6 26.8Q516.4 27.0 516.4 27.4L516.4 27.4L516.4 27.9ZM521.0 35L519.1 35L519.1 27.9L521.0 27.9L521.0 35ZM520.1 27.0L520.1 27.0Q519.6 27.0 519.3 26.7Q519.0 26.4 519.0 26.0L519.0 26.0Q519.0 25.6 519.3 25.3Q519.6 25.0 520.1 25.0L520.1 25.0Q520.5 25.0 520.8 25.3Q521.1 25.6 521.1 26.0L521.1 26.0Q521.1 26.4 520.8 26.7Q520.5 27.0 520.1 27.0ZM525.8 35.1L525.8 35.1Q524.8 35.1 524.0 34.7Q523.2 34.3 522.8 33.4Q522.3 32.6 522.3 31.5L522.3 31.5Q522.3 30.4 522.8 29.6Q523.2 28.7 523.9 28.3Q524.7 27.8 525.8 27.8L525.8 27.8Q526.4 27.8 527.1 28.0Q527.7 28.3 528.1 28.7Q528.6 29.2 528.8 29.8Q529.1 30.5 529.1 31.4L529.1 31.4L529.1 31.9L524.2 31.9Q524.2 32.5 524.4 32.9L524.4 32.9Q524.6 33.3 525.0 33.5Q525.4 33.7 525.9 33.7L525.9 33.7Q526.2 33.7 526.5 33.6Q526.8 33.5 527.0 33.3Q527.1 33.1 527.2 32.9L527.2 32.9L529.0 33.2Q528.8 33.8 528.4 34.2Q528.0 34.7 527.3 34.9Q526.7 35.1 525.8 35.1ZM524.2 30.8L524.2 30.8L527.2 30.8Q527.2 30.4 527.1 30.1L527.1 30.1Q526.9 29.7 526.6 29.5Q526.3 29.2 525.8 29.2L525.8 29.2Q525.3 29.2 524.9 29.5Q524.6 29.7 524.4 30.1L524.4 30.1Q524.3 30.4 524.2 30.8ZM533.0 35.1L533.0 35.1Q532.2 35.1 531.5 34.7Q530.8 34.3 530.5 33.5Q530.1 32.6 530.1 31.5L530.1 31.5Q530.1 30.3 530.5 29.4Q530.9 28.6 531.5 28.2Q532.2 27.8 533.0 27.8L533.0 27.8Q533.6 27.8 534.0 28.0Q534.4 28.2 534.6 28.5Q534.9 28.8 535.0 29.1L535.0 29.1L535.0 29.1L535.0 25.5L537.0 25.5L537.0 35L535.1 35L535.1 33.9L535.0 33.9Q534.9 34.1 534.6 34.4Q534.4 34.7 534.0 34.9Q533.6 35.1 533.0 35.1ZM533.6 33.6L533.6 33.6Q534.0 33.6 534.4 33.3Q534.7 33.1 534.9 32.6Q535.1 32.1 535.1 31.5L535.1 31.5Q535.1 30.8 534.9 30.3Q534.7 29.9 534.4 29.6Q534.1 29.3 533.6 29.3L533.6 29.3Q533.1 29.3 532.7 29.6Q532.4 29.9 532.2 30.4Q532.0 30.8 532.0 31.5L532.0 31.5Q532.0 32.1 532.2 32.6Q532.4 33.0 532.7 33.3Q533.1 33.6 533.6 33.6ZM541.0 25.1L542.6 25.1L539.6 36.4L537.9 36.4L541.0 25.1ZM545.6 35L543.7 35L543.7 25.5L547.4 25.5Q548.4 25.5 549.2 25.9Q549.9 26.3 550.3 27.0Q550.7 27.7 550.7 28.6Q550.7 29.6 550.3 30.2Q549.9 30.9 549.2 31.3L549.2 31.3Q549.1 31.3 549.1 31.3L549.1 31.3L551.1 35L548.9 35L547.1 31.6L545.6 31.6L545.6 35ZM545.6 27.1L545.6 30.1L547.0 30.1Q547.6 30.1 548.0 29.9Q548.4 29.7 548.6 29.4Q548.7 29.1 548.7 28.6L548.7 28.6Q548.7 28.1 548.6 27.8Q548.4 27.5 548.0 27.3Q547.6 27.1 547.0 27.1L547.0 27.1L545.6 27.1ZM555.4 35.1L555.4 35.1Q554.3 35.1 553.5 34.7Q552.7 34.3 552.3 33.4Q551.9 32.6 551.9 31.5L551.9 31.5Q551.9 30.4 552.3 29.6Q552.7 28.7 553.5 28.3Q554.2 27.8 555.3 27.8L555.3 27.8Q556.0 27.8 556.6 28.0Q557.2 28.3 557.6 28.7Q558.1 29.2 558.3 29.8Q558.6 30.5 558.6 31.4L558.6 31.4L558.6 31.9L553.8 31.9Q553.8 32.5 554.0 32.9L554.0 32.9Q554.2 33.3 554.5 33.5Q554.9 33.7 555.4 33.7L555.4 33.7Q555.7 33.7 556.0 33.6Q556.3 33.5 556.5 33.3Q556.7 33.1 556.8 32.9L556.8 32.9L558.5 33.2Q558.3 33.8 557.9 34.2Q557.5 34.7 556.8 34.9Q556.2 35.1 555.4 35.1ZM553.8 30.8L553.8 30.8L556.8 30.8Q556.7 30.4 556.6 30.1L556.6 30.1Q556.4 29.7 556.1 29.5Q555.8 29.2 555.3 29.2L555.3 29.2Q554.8 29.2 554.5 29.5Q554.1 29.7 553.9 30.1L553.9 30.1Q553.8 30.4 553.8 30.8ZM561.8 35L559.9 35L559.9 27.9L561.7 27.9L561.7 29.3Q561.9 28.9 562.1 28.6L562.1 28.6Q562.4 28.2 562.9 28.0Q563.3 27.8 563.8 27.8L563.8 27.8Q564.5 27.8 565.0 28.3L565.0 28.3Q565.4 28.7 565.6 29.4L565.6 29.4Q565.8 29.0 566.0 28.7L566.0 28.7Q566.4 28.2 566.8 28.0Q567.3 27.8 567.9 27.8L567.9 27.8Q568.5 27.8 569.0 28.1Q569.6 28.4 569.9 28.9Q570.1 29.4 570.1 30.2L570.1 30.2L570.1 35L568.2 35L568.2 30.6Q568.2 30.0 567.9 29.7Q567.6 29.4 567.1 29.4L567.1 29.4Q566.8 29.4 566.5 29.5Q566.2 29.7 566.1 30.0Q565.9 30.3 565.9 30.6L565.9 30.6L565.9 35L564.1 35L564.1 30.5Q564.1 30.0 563.8 29.7Q563.5 29.4 563.0 29.4L563.0 29.4Q562.7 29.4 562.4 29.5Q562.1 29.7 562.0 30.0Q561.8 30.3 561.8 30.7L561.8 30.7L561.8 35ZM573.8 35.1L573.8 35.1Q573.1 35.1 572.5 34.9Q572.0 34.7 571.7 34.2Q571.4 33.7 571.4 33.0L571.4 33.0Q571.4 32.4 571.6 32.0Q571.8 31.6 572.2 31.4Q572.6 31.1 573.1 31.0Q573.5 30.9 574.1 30.8L574.1 30.8Q574.7 30.8 575.1 30.7Q575.4 30.7 575.6 30.5Q575.8 30.4 575.8 30.2L575.8 30.2L575.8 30.2Q575.8 29.9 575.7 29.7Q575.5 29.4 575.3 29.3Q575.0 29.2 574.7 29.2L574.7 29.2Q574.3 29.2 574.0 29.3Q573.8 29.4 573.6 29.6Q573.4 29.8 573.3 30.0L573.3 30.0L571.6 29.8Q571.8 29.1 572.2 28.7Q572.6 28.3 573.3 28.0Q573.9 27.8 574.7 27.8L574.7 27.8Q575.3 27.8 575.8 28.0Q576.3 28.1 576.8 28.4Q577.2 28.7 577.4 29.1Q577.7 29.6 577.7 30.2L577.7 30.2L577.7 35L575.9 35L575.9 34.0L575.8 34.0Q575.7 34.3 575.4 34.6Q575.1 34.8 574.7 35.0Q574.3 35.1 573.8 35.1ZM574.3 33.8L574.3 33.8Q574.7 33.8 575.1 33.6Q575.4 33.4 575.6 33.1Q575.8 32.8 575.8 32.5L575.8 32.5L575.8 31.7Q575.7 31.8 575.5 31.8Q575.4 31.9 575.2 31.9Q575.0 31.9 574.8 32.0Q574.6 32.0 574.4 32.0L574.4 32.0Q574.0 32.1 573.8 32.2Q573.5 32.3 573.4 32.5Q573.2 32.7 573.2 33.0L573.2 33.0Q573.2 33.2 573.4 33.4Q573.5 33.6 573.7 33.7Q574.0 33.8 574.3 33.8ZM581.2 35L579.3 35L579.3 27.9L581.2 27.9L581.2 29.1L581.2 29.1Q581.4 28.5 581.9 28.1Q582.4 27.8 582.9 27.8L582.9 27.8Q583.1 27.8 583.3 27.8Q583.4 27.8 583.6 27.9L583.6 27.9L583.6 29.6Q583.4 29.5 583.2 29.5Q583.0 29.5 582.7 29.5L582.7 29.5Q582.3 29.5 582.0 29.7Q581.6 29.9 581.4 30.2Q581.2 30.5 581.2 31.0L581.2 31.0L581.2 35ZM586.5 35L584.6 35L584.6 25.5L586.5 25.5L586.5 30.6L586.6 30.6L588.9 27.9L591.2 27.9L588.5 31.0L591.3 35L589.0 35L587.1 32.1L586.5 32.7L586.5 35Z "/></g></svg>