<!-- Generated by readme-aura https://github.com/collectioneur/readme-aura -->
<svg width="800" height="220" viewBox="0 0 800 220" xmlns="http://www.w3.org/2000/svg"><defs><clipPath id="satori_bc-id"><path x="0" y="0" width="800" height="220" d="M16,0 h768 a16,16 0 0 1 16,16 v188 a16,16 0 0 1 -16,16 h-768 a16,16 0 0 1 -16,-16 v-188 a16,16 0 0 1 16,-16"/></clipPath></defs><clipPath id="satori_cp-id"><path x="0" y="0" width="800" height="220" d="M16,0 h768 a16,16 0 0 1 16,16 v188 a16,16 0 0 1 -16,16 h-768 a16,16 0 0 1 -16,-16 v-188 a16,16 0 0 1 16,-16"/></clipPath><mask id="satori_om-id"><rect x="1" y="1" width="798" height="218" fill="#fff"/><path width="800" height="220" fill="none" stroke="#000" stroke-width="2" d="M4.686,4.686 A16,16 0 0 1 16,0 h768 a16,16 0 0 1 16,16 v188 a16,16 0 0 1 -16,16 h-768 a16,16 0 0 1 -16,-16 v-188 A16,16 0 0 1 4.686,4.686"/></mask><path x="0" y="0" width="800" height="220" fill="#08080c" d="M16,0 h768 a16,16 0 0 1 16,16 v188 a16,16 0 0 1 -16,16 h-768 a16,16 0 0 1 -16,-16 v-188 a16,16 0 0 1 16,-16"/><path width="800" height="220" clip-path="url(#satori_bc-id)" fill="none" stroke="rgba(110,80,220,0.18)" stroke-width="2" d="M4.686,4.686 A16,16 0 0 1 16,0 h768 a16,16 0 0 1 16,16 v188 a16,16 0 0 1 -16,16 h-768 a16,16 0 0 1 -16,-16 v-188 A16,16 0 0 1 4.686,4.686"/><clipPath id="satori_cp-id-0" clip-path="url(#satori_cp-id)"><rect x="1" y="1" width="800" height="220"/></clipPath><mask id="satori_om-id-0"><rect x="1" y="1" width="800" height="220" fill="#fff" mask="url(#satori_om-id)"/></mask><svg x="1" y="1" width="800" height="220" preserveAspectRatio="none" clip-path="url(#satori_cp-id-0)" mask="url(#satori_om-id-0)"><defs><radialGradient id="hiwg1" cx="50%" cy="50%" r="50%"><stop offset="0%" stop-color="rgba(0,180,200,0.6)"></stop><stop offset="70%" stop-color="rgba(0,180,200,0)"></stop></radialGradient><radialGradient id="hiwg2" cx="50%" cy="50%" r="50%"><stop offset="0%" stop-color="rgba(40,120,220,0.55)"></stop><stop offset="70%" stop-color="rgba(40,120,220,0)"></stop></radialGradient><radialGradient id="hiwg3" cx="50%" cy="50%" r="50%"><stop offset="0%" stop-color="rgba(0,200,180,0.45)"></stop><stop offset="70%" stop-color="rgba(0,200,180,0)"></stop></radialGradient><radialGradient id="hiwg4" cx="50%" cy="50%" r="50%"><stop offset="0%" stop-color="rgba(100,200,255,0.5)"></stop><stop offset="70%" stop-color="rgba(100,200,255,0)"></stop></radialGradient><radialGradient id="hiwg5" cx="50%" cy="50%" r="50%"><stop offset="0%" stop-color="rgba(255,180,100,0.4)"></stop><stop offset="70%" stop-color="rgba(255,180,100,0)"></stop></radialGradient><radialGradient id="hiwg6" cx="50%" cy="50%" r="50%"><stop offset="0%" stop-color="rgba(180,140,255,0.45)"></stop><stop offset="70%" stop-color="rgba(180,140,255,0)"></stop></radialGradient><radialGradient id="hiwg7" cx="50%" cy="50%" r="50%"><stop offset="0%" stop-color="rgba(80,220,200,0.4)"></stop><stop offset="70%" stop-color="rgba(80,220,200,0)"></stop></radialGradient><radialGradient id="hiwg8" cx="50%" cy="50%" r="50%"><stop offset="0%" stop-color="rgba(255,150,120,0.35)"></stop><stop offset="70%" stop-color="rgba(255,150,120,0)"></stop></radialGradient></defs><ellipse id="hiw-g1" cx="120" cy="180" rx="160" ry="120" fill="url(#hiwg1)"></ellipse><ellipse id="hiw-g2" cx="180" cy="200" rx="140" ry="110" fill="url(#hiwg2)"></ellipse><ellipse id="hiw-g3" cx="90" cy="160" rx="150" ry="100" fill="url(#hiwg3)"></ellipse><ellipse id="hiw-g4" cx="150" cy="170" rx="110" ry="90" fill="url(#hiwg4)"></ellipse><ellipse id="hiw-g5" cx="70" cy="190" rx="100" ry="80" fill="url(#hiwg5)"></ellipse><ellipse id="hiw-g6" cx="200" cy="185" rx="80" ry="70" fill="url(#hiwg6)"></ellipse><ellipse id="hiw-g7" cx="130" cy="210" rx="90" ry="75" fill="url(#hiwg7)"></ellipse><ellipse id="hiw-g8" cx="160" cy="150" rx="70" ry="60" fill="url(#hiwg8)"></ellipse><style>

      @keyframes hiw-drift-r { 0%, 100% { transform: translate(0, 0); opacity: 0.8; } 50% { transform: translate(30px, -15px); opacity: 1.05; } }
      @keyframes hiw-drift-l { 0%, 100% { transform: translate(0, 0); opacity: 0.75; } 50% { transform: translate(-22px, 12px); opacity: 1; } }
      @keyframes hiw-drift-u { 0%, 100% { transform: translate(0, 0); opacity: 0.85; } 50% { transform: translate(18px, -18px); opacity: 1; } }
      @keyframes hiw-pulse { 0%, 100% { transform: scale(1); opacity: 0.8; } 50% { transform: scale(1.18); opacity: 0.5; } }
      #hiw-g1 { animation: hiw-drift-r 6.7s ease-in-out infinite; }
      #hiw-g2 { animation: hiw-drift-l 8.3s ease-in-out infinite; }
      #hiw-g3 { animation: hiw-drift-r 7.5s ease-in-out infinite 0.3s; }
      #hiw-g4 { animation: hiw-drift-u 9.2s ease-in-out infinite 0.1s; }
      #hiw-g5 { animation: hiw-drift-l 5.8s ease-in-out infinite 0.5s; }
      #hiw-g6 { animation: hiw-pulse 5s ease-in-out infinite; }
      #hiw-g7 { animation: hiw-drift-r 8.3s ease-in-out infinite 0.2s; }
      #hiw-g8 { animation: hiw-drift-l 6.7s ease-in-out infinite 0.4s; }
    
</style>
</svg><mask id="satori_om-id-0-0"><rect x="1" y="1" width="0" height="220" fill="#fff" mask="url(#satori_om-id)"/></mask><mask id="satori_om-id-0-0-0"><rect x="1" y="1" width="0" height="220" fill="#fff" mask="url(#satori_om-id)"/></mask><mask id="satori_om-id-0-0-0-0"><rect x="1" y="1" width="0" height="220" fill="#fff" mask="url(#satori_om-id)"/></mask><mask id="satori_om-id-0-0-0-1"><rect x="1" y="1" width="0" height="220" fill="#fff" mask="url(#satori_om-id)"/></mask><mask id="satori_om-id-0-0-1"><rect x="1" y="1" width="0" height="220" fill="#fff" mask="url(#satori_om-id)"/></mask><mask id="satori_om-id-0-0-1-0"><rect x="1" y="1" width="0" height="220" fill="#fff" mask="url(#satori_om-id)"/></mask><mask id="satori_om-id-0-0-1-1"><rect x="1" y="1" width="0" height="220" fill="#fff" mask="url(#satori_om-id)"/></mask><mask id="satori_om-id-0-0-2"><rect x="1" y="1" width="0" height="220" fill="#fff" mask="url(#satori_om-id)"/></mask><mask id="satori_om-id-0-0-2-0"><rect x="1" y="1" width="0" height="220" fill="#fff" mask="url(#satori_om-id)"/></mask><mask id="satori_om-id-0-0-2-1"><rect x="1" y="1" width="0" height="220" fill="#fff" mask="url(#satori_om-id)"/></mask><mask id="satori_om-id-0-0-3"><rect x="1" y="1" width="0" height="220" fill="#fff" mask="url(#satori_om-id)"/></mask><mask id="satori_om-id-0-0-3-0"><rect x="1" y="1" width="0" height="220" fill="#fff" mask="url(#satori_om-id)"/></mask><mask id="satori_om-id-0-0-3-1"><rect x="1" y="1" width="0" height="220" fill="#fff" mask="url(#satori_om-id)"/></mask><mask id="satori_om-id-0-0-4"><rect x="1" y="1" width="0" height="220" fill="#fff" mask="url(#satori_om-id)"/></mask><mask id="satori_om-id-0-0-4-0"><rect x="1" y="1" width="0" height="220" fill="#fff" mask="url(#satori_om-id)"/></mask><mask id="satori_om-id-0-0-4-1"><rect x="1" y="1" width="0" height="220" fill="#fff" mask="url(#satori_om-id)"/></mask><mask id="satori_om-id-0-0-5"><rect x="1" y="1" width="0" height="220" fill="#fff" mask="url(#satori_om-id)"/></mask><mask id="satori_om-id-0-0-5-0"><rect x="1" y="1" width="0" height="220" fill="#fff" mask="url(#satori_om-id)"/></mask><mask id="satori_om-id-0-0-5-1"><rect x="1" y="1" width="0" height="220" fill="#fff" mask="url(#satori_om-id)"/></mask><mask id="satori_om-id-0-0-6"><rect x="1" y="1" width="0" height="220" fill="#fff" mask="url(#satori_om-id)"/></mask><mask id="satori_om-id-0-0-6-0"><rect x="1" y="1" width="0" height="220" fill="#fff" mask="url(#satori_om-id)"/></mask><mask id="satori_om-id-0-0-6-1"><rect x="1" y="1" width="0" height="220" fill="#fff" mask="url(#satori_om-id)"/></mask><mask id="satori_om-id-0-0-7"><rect x="1" y="1" width="0" height="220" fill="#fff" mask="url(#satori_om-id)"/></mask><mask id="satori_om-id-0-0-7-0"><rect x="1" y="1" width="0" height="220" fill="#fff" mask="url(#satori_om-id)"/></mask><mask id="satori_om-id-0-0-7-1"><rect x="1" y="1" width="0" height="220" fill="#fff" mask="url(#satori_om-id)"/></mask><mask id="satori_om-id-0-1"><rect x="1" y="1" width="0" height="220" fill="#fff" mask="url(#satori_om-id)"/></mask><mask id="satori_om-id-0-2"><rect x="1" y="1" width="0" height="220" fill="#fff" mask="url(#satori_om-id)"/></mask><mask id="satori_om-id-0-3"><rect x="1" y="1" width="0" height="220" fill="#fff" mask="url(#satori_om-id)"/></mask><mask id="satori_om-id-0-4"><rect x="1" y="1" width="0" height="220" fill="#fff" mask="url(#satori_om-id)"/></mask><mask id="satori_om-id-0-5"><rect x="1" y="1" width="0" height="220" fill="#fff" mask="url(#satori_om-id)"/></mask><mask id="satori_om-id-0-6"><rect x="1" y="1" width="0" height="220" fill="#fff" mask="url(#satori_om-id)"/></mask><mask id="satori_om-id-0-7"><rect x="1" y="1" width="0" height="220" fill="#fff" mask="url(#satori_om-id)"/></mask><mask id="satori_om-id-0-8"><rect x="1" y="1" width="0" height="220" fill="#fff" mask="url(#satori_om-id)"/></mask><defs><clipPath id="satori_bc-id-1" clip-path="url(#satori_cp-id)"><path x="25" y="25" width="242" height="170" d="M39,25 h214 a14,14 0 0 1 14,14 v142 a14,14 0 0 1 -14,14 h-214 a14,14 0 0 1 -14,-14 v-142 a14,14 0 0 1 14,-14"/></clipPath></defs><mask id="satori_om-id-1"><rect x="26" y="26" width="240" height="168" fill="#fff" mask="url(#satori_om-id)"/><path width="242" height="170" fill="none" stroke="#000" stroke-width="2" d="M29.101,29.101 A14,14 0 0 1 39,25 h214 a14,14 0 0 1 14,14 v142 a14,14 0 0 1 -14,14 h-214 a14,14 0 0 1 -14,-14 v-142 A14,14 0 0 1 29.101,29.101"/></mask><path x="25" y="25" width="242" height="170" fill="rgba(12,10,20,0.6)" d="M39,25 h214 a14,14 0 0 1 14,14 v142 a14,14 0 0 1 -14,14 h-214 a14,14 0 0 1 -14,-14 v-142 a14,14 0 0 1 14,-14" clip-path="url(#satori_cp-id)" mask="url(#satori_om-id)"/><path width="242" height="170" clip-path="url(#satori_bc-id-1)" fill="none" stroke="rgba(120,80,220,0.2)" stroke-width="2" d="M29.101,29.101 A14,14 0 0 1 39,25 h214 a14,14 0 0 1 14,14 v142 a14,14 0 0 1 -14,14 h-214 a14,14 0 0 1 -14,-14 v-142 A14,14 0 0 1 29.101,29.101"/><mask id="satori_om-id-1-0"><rect x="46" y="64" width="200" height="13" fill="#fff" mask="url(#satori_om-id)"/></mask><g mask="url(#satori_om-id)" clip-path="url(#satori_cp-id)"><path fill="rgba(220,210,255,0.7)" d="M49.5 75.1L49.5 75.1Q48.7 75.1 48.0 74.9Q47.4 74.6 47.0 74.1Q46.7 73.6 46.6 72.9L46.6 72.9L47.7 72.9Q47.7 73.4 48.0 73.6Q48.2 73.9 48.7 74.1Q49.1 74.2 49.5 74.2L49.5 74.2Q50.1 74.2 50.5 74.0Q50.9 73.9 51.2 73.5Q51.4 73.2 51.4 72.8L51.4 72.8Q51.4 72.4 51.2 72.2Q51.0 71.9 50.6 71.8Q50.3 71.6 49.9 71.5L49.9 71.5L48.9 71.2Q47.9 71.0 47.4 70.4Q46.8 69.9 46.8 69.1L46.8 69.1Q46.8 68.5 47.2 68.0Q47.6 67.4 48.2 67.2Q48.8 66.9 49.6 66.9L49.6 66.9Q50.4 66.9 51.0 67.2Q51.6 67.4 52.0 67.9Q52.3 68.4 52.3 69.0L52.3 69.0L51.3 69.0Q51.3 68.4 50.8 68.1Q50.3 67.8 49.6 67.8L49.6 67.8Q49.1 67.8 48.7 68.0Q48.3 68.1 48.1 68.4Q47.8 68.7 47.8 69.1L47.8 69.1Q47.8 69.5 48.1 69.8Q48.4 70.0 48.7 70.2Q49.1 70.3 49.4 70.4L49.4 70.4L50.2 70.6Q50.5 70.7 50.9 70.8Q51.3 71.0 51.6 71.2Q52.0 71.5 52.2 71.9Q52.4 72.3 52.4 72.8L52.4 72.8Q52.4 73.5 52.1 74.0Q51.8 74.5 51.1 74.8Q50.5 75.1 49.5 75.1ZM57.1 67.9L54.6 67.9L54.6 67.0L60.6 67.0L60.6 67.9L58.1 67.9L58.1 75L57.1 75L57.1 67.9ZM68.1 75L63.1 75L63.1 67.0L68.0 67.0L68.0 67.9L64.1 67.9L64.1 70.5L67.7 70.5L67.7 71.4L64.1 71.4L64.1 74.1L68.1 74.1L68.1 75ZM71.8 75L70.7 75L70.7 67.0L73.5 67.0Q74.4 67.0 75.0 67.3Q75.6 67.7 75.9 68.3Q76.2 68.8 76.2 69.5Q76.2 70.3 75.9 70.8Q75.6 71.4 75.0 71.8Q74.4 72.1 73.5 72.1L73.5 72.1L71.8 72.1L71.8 75ZM71.8 67.9L71.8 71.2L73.4 71.2Q74.1 71.2 74.5 71.0Q74.8 70.8 75.0 70.4Q75.2 70.0 75.2 69.5Q75.2 69.1 75.0 68.7Q74.8 68.3 74.5 68.1Q74.1 67.9 73.4 67.9L73.4 67.9L71.8 67.9Z M84.1 67.0L85.4 67.0L85.4 75L84.4 75L84.4 67.9L84.3 67.9L82.4 69.4L82.4 68.3L84.1 67.0Z "/></g><mask id="satori_om-id-1-1"><rect x="46" y="85" width="200" height="19" fill="#fff" mask="url(#satori_om-id)"/></mask><g mask="url(#satori_om-id)" clip-path="url(#satori_cp-id)"><path fill="#ffffff" d="M52.2 101L49.5 101L46.4 89.4L49.0 89.4L50.3 95.1Q50.5 95.8 50.6 96.6Q50.8 97.4 50.9 98.3L50.9 98.3Q50.9 98.4 51.0 98.6L51.0 98.6Q51.0 98.4 51.0 98.3L51.0 98.3Q51.2 97.4 51.3 96.6Q51.5 95.8 51.6 95.1L51.6 95.1L53.1 89.4L55.5 89.4L57.0 95.1Q57.1 95.8 57.3 96.6Q57.4 97.4 57.6 98.3L57.6 98.3Q57.6 98.4 57.6 98.6L57.6 98.6Q57.7 98.4 57.7 98.3L57.7 98.3Q57.8 97.4 58.0 96.6Q58.1 95.8 58.3 95.1L58.3 95.1L59.6 89.4L62.2 89.4L59.1 101L56.4 101L54.8 95.0Q54.6 94.1 54.4 92.9L54.4 92.9Q54.3 92.6 54.3 92.2L54.3 92.2Q54.2 92.5 54.2 92.9L54.2 92.9Q54.0 94.0 53.8 95.0L53.8 95.0L52.2 101ZM65.9 101L63.6 101L63.6 92.3L65.9 92.3L65.9 93.8L66.0 93.8Q66.2 93.0 66.8 92.6Q67.3 92.1 68.1 92.1L68.1 92.1Q68.3 92.1 68.5 92.2Q68.7 92.2 68.8 92.2L68.8 92.2L68.8 94.3Q68.7 94.3 68.4 94.2Q68.1 94.2 67.8 94.2L67.8 94.2Q67.3 94.2 66.9 94.4Q66.4 94.7 66.2 95.1Q65.9 95.5 65.9 96.0L65.9 96.0L65.9 101ZM72.5 101L70.1 101L70.1 92.3L72.5 92.3L72.5 101ZM71.3 91.1L71.3 91.1Q70.8 91.1 70.4 90.8Q70.0 90.4 70.0 89.9L70.0 89.9Q70.0 89.4 70.4 89.1Q70.8 88.7 71.3 88.7L71.3 88.7Q71.8 88.7 72.2 89.1Q72.6 89.4 72.6 89.9L72.6 89.9Q72.6 90.4 72.2 90.8Q71.8 91.1 71.3 91.1ZM77.2 92.3L78.8 92.3L78.8 94.1L77.2 94.1L77.2 98.4Q77.2 98.9 77.3 99.1Q77.5 99.3 78.0 99.3L78.0 99.3Q78.1 99.3 78.3 99.2Q78.6 99.2 78.7 99.2L78.7 99.2L79.0 100.9Q78.6 101.0 78.3 101.1Q77.9 101.1 77.5 101.1L77.5 101.1Q76.2 101.1 75.5 100.5Q74.8 99.8 74.8 98.6L74.8 98.6L74.8 94.1L73.6 94.1L73.6 92.3L74.8 92.3L74.8 90.2L77.2 90.2L77.2 92.3ZM84.3 101.2L84.3 101.2Q82.9 101.2 82.0 100.6Q81.0 100.1 80.5 99.1Q79.9 98.1 79.9 96.7L79.9 96.7Q79.9 95.3 80.5 94.3Q81.0 93.3 81.9 92.7Q82.9 92.2 84.1 92.2L84.1 92.2Q85 92.2 85.7 92.4Q86.5 92.7 87.0 93.3Q87.6 93.8 87.9 94.6Q88.2 95.5 88.2 96.6L88.2 96.6L88.2 97.2L82.3 97.2Q82.3 97.9 82.5 98.4L82.5 98.4Q82.8 98.9 83.2 99.1Q83.7 99.4 84.3 99.4L84.3 99.4Q84.7 99.4 85.0 99.3Q85.4 99.2 85.6 98.9Q85.9 98.7 86.0 98.4L86.0 98.4L88.1 98.8Q87.9 99.5 87.4 100.0Q86.9 100.6 86.1 100.9Q85.3 101.2 84.3 101.2ZM82.3 95.8L82.3 95.8L86.0 95.8Q85.9 95.3 85.8 95.0L85.8 95.0Q85.6 94.5 85.2 94.2Q84.8 93.9 84.2 93.9L84.2 93.9Q83.6 93.9 83.1 94.2Q82.7 94.5 82.5 95.0L82.5 95.0Q82.3 95.3 82.3 95.8Z M97.1 101.2L97.1 101.2Q95.3 101.2 94.2 100.2Q93.2 99.3 93.2 97.5L93.2 97.5L93.2 96.8L95.5 96.8L95.5 97.5Q95.5 98.4 96.0 98.8Q96.4 99.2 97.1 99.2L97.1 99.2Q97.8 99.2 98.2 98.8Q98.6 98.4 98.6 97.5L98.6 97.5L98.6 89.4L100.9 89.4L100.9 97.5Q100.9 99.3 99.9 100.2Q98.9 101.2 97.1 101.2ZM107.3 101.2L107.3 101.2Q105.9 101.2 104.9 100.7Q103.8 100.3 103.3 99.5Q102.7 98.6 102.6 97.4L102.6 97.4L105.0 97.4Q105.0 98.0 105.3 98.4Q105.6 98.8 106.1 99.0Q106.6 99.2 107.3 99.2L107.3 99.2Q107.9 99.2 108.4 99.0Q108.9 98.8 109.1 98.5Q109.4 98.1 109.4 97.7L109.4 97.7Q109.4 97.3 109.2 97.0Q108.9 96.7 108.5 96.5Q108.0 96.3 107.4 96.2L107.4 96.2L106.1 95.9Q104.6 95.5 103.8 94.7Q103.0 94.0 103.0 92.7L103.0 92.7Q103.0 91.7 103.5 90.9Q104.1 90.1 105.1 89.6Q106.1 89.2 107.3 89.2L107.3 89.2Q108.6 89.2 109.6 89.6Q110.5 90.1 111.1 90.9Q111.6 91.7 111.6 92.7L111.6 92.7L109.3 92.7Q109.3 92.0 108.7 91.6Q108.2 91.2 107.3 91.2L107.3 91.2Q106.7 91.2 106.3 91.4Q105.9 91.6 105.6 91.9Q105.4 92.2 105.4 92.6L105.4 92.6Q105.4 93.0 105.7 93.3Q105.9 93.6 106.4 93.7Q106.8 93.9 107.3 94.0L107.3 94.0L108.3 94.3Q109.1 94.4 109.7 94.7Q110.3 95.0 110.8 95.4Q111.3 95.8 111.5 96.4Q111.8 97.0 111.8 97.7L111.8 97.7Q111.8 98.7 111.3 99.5Q110.7 100.3 109.7 100.7Q108.7 101.2 107.3 101.2ZM115.6 101L112.9 101L117.0 95.0L113.2 89.4L116 89.4L117.3 91.3Q117.6 91.9 117.9 92.3Q118.1 92.8 118.3 93.2L118.3 93.2Q118.3 93.3 118.4 93.4L118.4 93.4Q118.5 93.3 118.5 93.2L118.5 93.2Q118.7 92.8 118.9 92.3Q119.2 91.9 119.5 91.3L119.5 91.3L120.8 89.4L123.5 89.4L119.8 95.0L123.9 101L121.0 101L119.4 98.6Q119.1 98.1 118.9 97.7Q118.7 97.4 118.6 97.1L118.6 97.1Q118.5 96.9 118.4 96.7L118.4 96.7Q118.3 96.9 118.2 97.1L118.2 97.1Q118.0 97.4 117.8 97.7Q117.6 98.1 117.3 98.6L117.3 98.6L115.6 101Z "/></g><mask id="satori_om-id-1-2"><rect x="46" y="112" width="200" height="15" fill="#fff" mask="url(#satori_om-id)"/></mask><g mask="url(#satori_om-id)" clip-path="url(#satori_cp-id)"><path fill="#7ee7ff" d="M48.9 116.6L48.0 116.6L46.9 114.9L48.1 114.9L48.9 116.6ZM52.8 116.6L51.9 116.6L50.8 114.9L51.9 114.9L52.8 116.6ZM56.6 116.6L55.8 116.6L54.6 114.9L55.8 114.9L56.6 116.6ZM60.4 124.2L60.4 124.2Q59.8 124.2 59.3 123.9Q58.7 123.7 58.4 123.2Q58.1 122.8 58.1 122.1L58.1 122.1Q58.1 121.6 58.4 121.2Q58.6 120.9 59.0 120.7Q59.3 120.5 59.8 120.4Q60.2 120.3 60.7 120.2L60.7 120.2Q61.3 120.1 61.7 120.1Q62.0 120.1 62.2 120.0Q62.4 119.9 62.4 119.6L62.4 119.6L62.4 119.6Q62.4 119.2 62.2 118.9Q62.1 118.6 61.8 118.4Q61.5 118.3 61.0 118.3L61.0 118.3Q60.5 118.3 60.2 118.4Q59.9 118.6 59.7 118.8Q59.5 119.0 59.3 119.3L59.3 119.3L58.3 118.9Q58.6 118.3 59.0 118.0Q59.4 117.6 60.0 117.5Q60.5 117.4 61.0 117.4L61.0 117.4Q61.3 117.4 61.7 117.4Q62.1 117.5 62.5 117.8Q62.9 118.0 63.2 118.5Q63.4 118.9 63.4 119.7L63.4 119.7L63.4 124L62.4 124L62.4 123.1L62.3 123.1Q62.2 123.3 62.0 123.6Q61.7 123.8 61.3 124.0Q60.9 124.2 60.4 124.2ZM60.6 123.2L60.6 123.2Q61.1 123.2 61.6 123.0Q62.0 122.8 62.2 122.4Q62.4 122.0 62.4 121.6L62.4 121.6L62.4 120.7Q62.3 120.8 62.1 120.9Q61.9 120.9 61.6 121.0Q61.3 121.0 61.1 121.0Q60.8 121.1 60.6 121.1L60.6 121.1Q60.3 121.1 59.9 121.3Q59.6 121.4 59.4 121.6Q59.2 121.8 59.2 122.2L59.2 122.2Q59.2 122.5 59.4 122.8Q59.6 123.0 59.9 123.1Q60.2 123.2 60.6 123.2ZM67.5 124.1L67.5 124.1Q66.8 124.1 66.3 123.8Q65.8 123.5 65.6 123.0Q65.3 122.4 65.3 121.6L65.3 121.6L65.3 117.4L66.3 117.4L66.3 121.5Q66.3 122.3 66.7 122.7Q67.1 123.1 67.8 123.1L67.8 123.1Q68.3 123.1 68.7 122.9Q69.0 122.7 69.3 122.3Q69.5 121.9 69.5 121.4L69.5 121.4L69.5 117.4L70.5 117.4L70.5 124L69.5 124L69.5 122.8Q69.2 123.4 68.8 123.7L68.8 123.7Q68.2 124.1 67.5 124.1ZM73.4 124L72.4 124L72.4 117.4L73.4 117.4L73.4 118.5L73.5 118.5Q73.7 118.0 74.1 117.7Q74.6 117.4 75.2 117.4L75.2 117.4Q75.3 117.4 75.4 117.4Q75.6 117.4 75.7 117.4L75.7 117.4L75.7 118.4Q75.7 118.4 75.5 118.4Q75.3 118.4 75.1 118.4L75.1 118.4Q74.6 118.4 74.2 118.6Q73.9 118.8 73.6 119.1Q73.4 119.5 73.4 119.9L73.4 119.9L73.4 124ZM78.7 124.2L78.7 124.2Q78.1 124.2 77.6 123.9Q77.1 123.7 76.8 123.2Q76.5 122.8 76.5 122.1L76.5 122.1Q76.5 121.6 76.7 121.2Q76.9 120.9 77.3 120.7Q77.7 120.5 78.1 120.4Q78.6 120.3 79.0 120.2L79.0 120.2Q79.6 120.1 80.0 120.1Q80.4 120.1 80.5 120.0Q80.7 119.9 80.7 119.6L80.7 119.6L80.7 119.6Q80.7 119.2 80.6 118.9Q80.4 118.6 80.1 118.4Q79.8 118.3 79.4 118.3L79.4 118.3Q78.9 118.3 78.6 118.4Q78.2 118.6 78.0 118.8Q77.8 119.0 77.7 119.3L77.7 119.3L76.7 118.9Q76.9 118.3 77.4 118.0Q77.8 117.6 78.3 117.5Q78.8 117.4 79.3 117.4L79.3 117.4Q79.7 117.4 80.1 117.4Q80.5 117.5 80.9 117.8Q81.3 118.0 81.5 118.5Q81.8 118.9 81.8 119.7L81.8 119.7L81.8 124L80.7 124L80.7 123.1L80.7 123.1Q80.6 123.3 80.3 123.6Q80.1 123.8 79.7 124.0Q79.3 124.2 78.7 124.2ZM78.9 123.2L78.9 123.2Q79.5 123.2 79.9 123.0Q80.3 122.8 80.5 122.4Q80.7 122.0 80.7 121.6L80.7 121.6L80.7 120.7Q80.7 120.8 80.4 120.9Q80.2 120.9 80.0 121.0Q79.7 121.0 79.4 121.0Q79.2 121.1 79 121.1L79 121.1Q78.6 121.1 78.3 121.3Q78.0 121.4 77.8 121.6Q77.6 121.8 77.6 122.2L77.6 122.2Q77.6 122.5 77.7 122.8Q77.9 123.0 78.2 123.1Q78.5 123.2 78.9 123.2Z "/></g><mask id="satori_om-id-1-3"><rect x="46" y="127" width="200" height="15" fill="#fff" mask="url(#satori_om-id)"/></mask><g mask="url(#satori_om-id)" clip-path="url(#satori_cp-id)"><path fill="rgba(220,210,255,0.85)" d="M52.6 138.7L47.0 136.0L47.0 135.2L52.6 132.4L52.6 133.6L48.4 135.6L48.4 135.6L52.6 137.6L52.6 138.7ZM58.5 139.1L58.5 139.1Q57.4 139.1 56.5 138.6Q55.7 138.0 55.2 137.0Q54.7 136.0 54.7 134.6L54.7 134.6Q54.7 133.3 55.2 132.2Q55.7 131.2 56.5 130.7Q57.4 130.2 58.5 130.2L58.5 130.2Q59.2 130.2 59.8 130.3Q60.4 130.5 60.8 130.9Q61.3 131.3 61.6 131.8Q61.9 132.3 62.0 133.0L62.0 133.0L60.9 133.0Q60.8 132.6 60.6 132.2Q60.4 131.9 60.1 131.7Q59.7 131.4 59.3 131.3Q59.0 131.2 58.5 131.2L58.5 131.2Q57.7 131.2 57.1 131.6Q56.5 132.0 56.1 132.8Q55.7 133.5 55.7 134.6L55.7 134.6Q55.7 135.8 56.1 136.5Q56.5 137.3 57.1 137.7Q57.7 138.1 58.5 138.1L58.5 138.1Q59.0 138.1 59.3 138.0Q59.7 137.8 60.1 137.6Q60.4 137.4 60.6 137.0Q60.8 136.7 60.9 136.3L60.9 136.3L62.0 136.3Q61.9 136.9 61.6 137.4Q61.3 138.0 60.8 138.3Q60.4 138.7 59.8 138.9Q59.2 139.1 58.5 139.1ZM65.5 139.2L65.5 139.2Q64.8 139.2 64.3 138.9Q63.8 138.7 63.5 138.2Q63.2 137.8 63.2 137.1L63.2 137.1Q63.2 136.6 63.5 136.2Q63.7 135.9 64.0 135.7Q64.4 135.5 64.9 135.4Q65.3 135.3 65.8 135.2L65.8 135.2Q66.4 135.1 66.7 135.1Q67.1 135.1 67.3 135.0Q67.5 134.9 67.5 134.6L67.5 134.6L67.5 134.6Q67.5 134.2 67.3 133.9Q67.2 133.6 66.9 133.4Q66.5 133.3 66.1 133.3L66.1 133.3Q65.6 133.3 65.3 133.4Q65.0 133.6 64.7 133.8Q64.5 134.0 64.4 134.3L64.4 134.3L63.4 133.9Q63.7 133.3 64.1 133.0Q64.5 132.6 65.0 132.5Q65.6 132.4 66.1 132.4L66.1 132.4Q66.4 132.4 66.8 132.4Q67.2 132.5 67.6 132.8Q68.0 133.0 68.3 133.5Q68.5 133.9 68.5 134.7L68.5 134.7L68.5 139L67.5 139L67.5 138.1L67.4 138.1Q67.3 138.3 67.1 138.6Q66.8 138.8 66.4 139.0Q66.0 139.2 65.5 139.2ZM65.6 138.2L65.6 138.2Q66.2 138.2 66.6 138.0Q67.0 137.8 67.3 137.4Q67.5 137.0 67.5 136.6L67.5 136.6L67.5 135.7Q67.4 135.8 67.2 135.9Q67.0 135.9 66.7 136.0Q66.4 136.0 66.1 136.0Q65.9 136.1 65.7 136.1L65.7 136.1Q65.4 136.1 65.0 136.3Q64.7 136.4 64.5 136.6Q64.3 136.8 64.3 137.2L64.3 137.2Q64.3 137.5 64.5 137.8Q64.6 138.0 64.9 138.1Q65.3 138.2 65.6 138.2ZM71.4 139L70.4 139L70.4 132.4L71.4 132.4L71.4 133.5L71.5 133.5Q71.6 133.0 72.1 132.7Q72.6 132.4 73.2 132.4L73.2 132.4Q73.3 132.4 73.4 132.4Q73.6 132.4 73.7 132.4L73.7 132.4L73.7 133.4Q73.6 133.4 73.5 133.4Q73.3 133.4 73.1 133.4L73.1 133.4Q72.6 133.4 72.2 133.6Q71.8 133.8 71.6 134.1Q71.4 134.5 71.4 134.9L71.4 134.9L71.4 139ZM77.3 139.1L77.3 139.1Q76.5 139.1 75.9 138.7Q75.3 138.3 74.9 137.5Q74.6 136.8 74.6 135.7L74.6 135.7Q74.6 134.7 74.9 133.9Q75.3 133.2 75.9 132.8Q76.5 132.4 77.3 132.4L77.3 132.4Q78.0 132.4 78.4 132.6Q78.7 132.8 78.9 133.1Q79.1 133.3 79.2 133.5L79.2 133.5L79.3 133.5L79.3 130.3L80.4 130.3L80.4 139L79.4 139L79.4 138.0L79.2 138.0Q79.1 138.2 78.9 138.4Q78.7 138.7 78.3 138.9Q78.0 139.1 77.3 139.1ZM77.5 138.2L77.5 138.2Q78.1 138.2 78.5 137.9Q78.9 137.6 79.1 137.0Q79.3 136.5 79.3 135.7L79.3 135.7Q79.3 135.0 79.1 134.5Q78.9 133.9 78.5 133.6Q78.1 133.3 77.5 133.3L77.5 133.3Q76.9 133.3 76.5 133.6Q76.1 134.0 75.8 134.5Q75.6 135.1 75.6 135.7L75.6 135.7Q75.6 136.4 75.9 137.0Q76.1 137.5 76.5 137.9Q76.9 138.2 77.5 138.2Z M87.8 129.9L88.7 129.9L85.9 140.3L85.0 140.3L87.8 129.9ZM95.9 135.2L95.9 136.0L90.4 138.7L90.4 137.6L94.6 135.6L94.6 135.6L90.4 133.6L90.4 132.4L95.9 135.2Z "/></g><mask id="satori_om-id-1-4"><rect x="46" y="142" width="200" height="15" fill="#fff" mask="url(#satori_om-id)"/></mask><g mask="url(#satori_om-id)" clip-path="url(#satori_cp-id)"><path fill="#7ee7ff" d="M48.9 146.6L48.0 146.6L46.9 144.9L48.1 144.9L48.9 146.6ZM52.8 146.6L51.9 146.6L50.8 144.9L51.9 144.9L52.8 146.6ZM56.6 146.6L55.8 146.6L54.6 144.9L55.8 144.9L56.6 146.6Z "/></g><defs><clipPath id="satori_bc-id-2" clip-path="url(#satori_cp-id)"><path x="279" y="25" width="242" height="170" d="M293,25 h214 a14,14 0 0 1 14,14 v142 a14,14 0 0 1 -14,14 h-214 a14,14 0 0 1 -14,-14 v-142 a14,14 0 0 1 14,-14"/></clipPath></defs><mask id="satori_om-id-2"><rect x="280" y="26" width="240" height="168" fill="#fff" mask="url(#satori_om-id)"/><path width="242" height="170" fill="none" stroke="#000" stroke-width="2" d="M283.101,29.101 A14,14 0 0 1 293,25 h214 a14,14 0 0 1 14,14 v142 a14,14 0 0 1 -14,14 h-214 a14,14 0 0 1 -14,-14 v-142 A14,14 0 0 1 283.101,29.101"/></mask><path x="279" y="25" width="242" height="170" fill="rgba(12,10,20,0.6)" d="M293,25 h214 a14,14 0 0 1 14,14 v142 a14,14 0 0 1 -14,14 h-214 a14,14 0 0 1 -14,-14 v-142 a14,14 0 0 1 14,-14" clip-path="url(#satori_cp-id)" mask="url(#satori_om-id)"/><path width="242" height="170" clip-path="url(#satori_bc-id-2)" fill="none" stroke="rgba(120,80,220,0.2)" stroke-width="2" d="M283.101,29.101 A14,14 0 0 1 293,25 h214 a14,14 0 0 1 14,14 v142 a14,14 0 0 1 -14,14 h-214 a14,14 0 0 1 -14,-14 v-142 A14,14 0 0 1 283.101,29.101"/><mask id="satori_om-id-2-0"><rect x="300" y="67" width="200" height="13" fill="#fff" mask="url(#satori_om-id)"/></mask><g mask="url(#satori_om-id)" clip-path="url(#satori_cp-id)"><path fill="rgba(220,210,255,0.7)" d="M303.5 78.1L303.5 78.1Q302.7 78.1 302.0 77.9Q301.4 77.6 301.0 77.1Q300.7 76.6 300.6 75.9L300.6 75.9L301.7 75.9Q301.7 76.4 302.0 76.6Q302.2 76.9 302.7 77.1Q303.1 77.2 303.5 77.2L303.5 77.2Q304.1 77.2 304.5 77.0Q304.9 76.9 305.2 76.5Q305.4 76.2 305.4 75.8L305.4 75.8Q305.4 75.4 305.2 75.2Q305.0 74.9 304.6 74.8Q304.3 74.6 303.9 74.5L303.9 74.5L302.9 74.2Q301.9 74.0 301.4 73.4Q300.8 72.9 300.8 72.1L300.8 72.1Q300.8 71.5 301.2 71.0Q301.6 70.4 302.2 70.2Q302.8 69.9 303.6 69.9L303.6 69.9Q304.4 69.9 305.0 70.2Q305.6 70.4 306.0 70.9Q306.3 71.4 306.3 72.0L306.3 72.0L305.3 72.0Q305.3 71.4 304.8 71.1Q304.3 70.8 303.6 70.8L303.6 70.8Q303.1 70.8 302.7 71.0Q302.3 71.1 302.1 71.4Q301.8 71.7 301.8 72.1L301.8 72.1Q301.8 72.5 302.1 72.8Q302.4 73.0 302.7 73.2Q303.1 73.3 303.4 73.4L303.4 73.4L304.2 73.6Q304.5 73.7 304.9 73.8Q305.3 74.0 305.6 74.2Q306.0 74.5 306.2 74.9Q306.4 75.3 306.4 75.8L306.4 75.8Q306.4 76.5 306.1 77.0Q305.8 77.5 305.1 77.8Q304.5 78.1 303.5 78.1ZM311.1 70.9L308.6 70.9L308.6 70.0L314.6 70.0L314.6 70.9L312.1 70.9L312.1 78L311.1 78L311.1 70.9ZM322.1 78L317.1 78L317.1 70.0L322.0 70.0L322.0 70.9L318.1 70.9L318.1 73.5L321.7 73.5L321.7 74.4L318.1 74.4L318.1 77.1L322.1 77.1L322.1 78ZM325.8 78L324.7 78L324.7 70.0L327.5 70.0Q328.4 70.0 329.0 70.3Q329.6 70.7 329.9 71.3Q330.2 71.8 330.2 72.5Q330.2 73.3 329.9 73.8Q329.6 74.4 329.0 74.8Q328.4 75.1 327.5 75.1L327.5 75.1L325.8 75.1L325.8 78ZM325.8 70.9L325.8 74.2L327.4 74.2Q328.1 74.2 328.5 74.0Q328.8 73.8 329.0 73.4Q329.2 73.0 329.2 72.5Q329.2 72.1 329.0 71.7Q328.8 71.3 328.5 71.1Q328.1 70.9 327.4 70.9L327.4 70.9L325.8 70.9Z M341.8 78L336.7 78L336.7 77.3L339.4 74.4Q339.8 73.9 340.1 73.5Q340.4 73.2 340.6 72.8Q340.7 72.5 340.7 72.1L340.7 72.1Q340.7 71.7 340.5 71.4Q340.3 71.1 340.0 70.9Q339.6 70.8 339.2 70.8L339.2 70.8Q338.8 70.8 338.4 71.0Q338.1 71.1 337.9 71.5Q337.7 71.8 337.7 72.3L337.7 72.3L336.7 72.3Q336.7 71.6 337.1 71.0Q337.4 70.5 338.0 70.2Q338.5 69.9 339.2 69.9L339.2 69.9Q339.9 69.9 340.5 70.2Q341.1 70.5 341.4 71.0Q341.7 71.5 341.7 72.1L341.7 72.1Q341.7 72.6 341.5 73.0Q341.4 73.4 341.0 73.9Q340.6 74.4 339.9 75.2L339.9 75.2L338.1 77.0L338.1 77.1L341.8 77.1L341.8 78Z "/></g><mask id="satori_om-id-2-1"><rect x="300" y="88" width="200" height="19" fill="#fff" mask="url(#satori_om-id)"/></mask><g mask="url(#satori_om-id)" clip-path="url(#satori_cp-id)"><path fill="#ffffff" d="M306.0 104L301.1 104L301.1 92.4L305.7 92.4Q307.0 92.4 307.8 92.7Q308.7 93.1 309.1 93.8Q309.5 94.5 309.5 95.4L309.5 95.4Q309.5 96.0 309.2 96.6Q309.0 97.1 308.5 97.4Q308.0 97.7 307.4 97.9L307.4 97.9L307.4 98.0Q308.1 98.0 308.7 98.3Q309.2 98.7 309.6 99.3Q310.0 99.9 310.0 100.8L310.0 100.8Q310.0 101.7 309.5 102.4Q309.1 103.2 308.2 103.6Q307.3 104 306.0 104L306.0 104ZM303.4 98.9L303.4 102.0L305.5 102.0Q306.5 102.0 307.0 101.6Q307.5 101.2 307.5 100.6L307.5 100.6Q307.5 100.1 307.3 99.7Q307.0 99.3 306.6 99.1Q306.2 98.9 305.6 98.9L305.6 98.9L303.4 98.9ZM303.4 94.3L303.4 97.3L305.3 97.3Q305.8 97.3 306.2 97.1Q306.6 96.9 306.9 96.5Q307.1 96.2 307.1 95.7L307.1 95.7Q307.1 95.1 306.7 94.7Q306.2 94.3 305.4 94.3L305.4 94.3L303.4 94.3ZM314.6 104.1L314.6 104.1Q313.7 104.1 313.0 103.7Q312.3 103.3 312.0 102.6Q311.6 101.8 311.6 100.8L311.6 100.8L311.6 95.3L313.9 95.3L313.9 100.4Q313.9 101.2 314.4 101.7Q314.8 102.1 315.5 102.1L315.5 102.1Q316.0 102.1 316.4 101.9Q316.8 101.7 317.0 101.3Q317.2 100.9 317.2 100.3L317.2 100.3L317.2 95.3L319.6 95.3L319.6 104L317.3 104L317.3 102.2Q317.0 103.0 316.4 103.5L316.4 103.5Q315.7 104.1 314.6 104.1ZM323.9 104L321.5 104L321.5 95.3L323.9 95.3L323.9 104ZM322.7 94.1L322.7 94.1Q322.2 94.1 321.8 93.8Q321.4 93.4 321.4 92.9L321.4 92.9Q321.4 92.4 321.8 92.1Q322.2 91.7 322.7 91.7L322.7 91.7Q323.3 91.7 323.6 92.1Q324.0 92.4 324.0 92.9L324.0 92.9Q324.0 93.4 323.6 93.8Q323.3 94.1 322.7 94.1ZM325.9 92.4L328.2 92.4L328.2 104L325.9 104L325.9 92.4ZM333.4 104.1L333.4 104.1Q332.4 104.1 331.6 103.6Q330.8 103.1 330.3 102.1Q329.9 101.1 329.9 99.6L329.9 99.6Q329.9 98.2 330.3 97.2Q330.8 96.2 331.6 95.7Q332.4 95.2 333.4 95.2L333.4 95.2Q334.1 95.2 334.6 95.4Q335.1 95.7 335.4 96.0Q335.7 96.4 335.9 96.7L335.9 96.7L336.0 96.7L336.0 92.4L338.3 92.4L338.3 104L336 104L336 102.6L335.9 102.6Q335.7 103.0 335.4 103.3Q335.1 103.7 334.6 103.9Q334.1 104.1 333.4 104.1ZM334.1 102.3L334.1 102.3Q334.7 102.3 335.1 101.9Q335.6 101.6 335.8 101.0Q336.0 100.4 336.0 99.6L336.0 99.6Q336.0 98.8 335.8 98.3Q335.6 97.7 335.2 97.4Q334.7 97.0 334.1 97.0L334.1 97.0Q333.5 97.0 333.1 97.4Q332.7 97.7 332.5 98.3Q332.3 98.9 332.3 99.6L332.3 99.6Q332.3 100.4 332.5 101Q332.7 101.6 333.1 101.9Q333.5 102.3 334.1 102.3Z "/></g><mask id="satori_om-id-2-2"><rect x="300" y="115" width="200" height="16" fill="#fff" mask="url(#satori_om-id)"/></mask><g mask="url(#satori_om-id)" clip-path="url(#satori_cp-id)"><path fill="#9ee79e" d="M304.6 129.4L303.8 129.4L303.8 128.2Q303.0 128.1 302.4 127.8L302.4 127.8Q301.6 127.5 301.2 126.9Q300.8 126.3 300.7 125.5L300.7 125.5L302.0 125.5Q302.0 126.1 302.3 126.4Q302.6 126.7 303.1 126.9L303.1 126.9Q303.4 127.0 303.8 127.1L303.8 127.1L303.8 123.7L303.4 123.5Q302.3 123.2 301.6 122.6Q301.0 122.0 301.0 121.1L301.0 121.1Q301.0 120.3 301.4 119.7Q301.9 119.1 302.6 118.7L302.6 118.7Q303.1 118.5 303.8 118.4L303.8 118.4L303.8 117.2L304.6 117.2L304.6 118.4Q305.3 118.5 305.9 118.7L305.9 118.7Q306.6 119.1 307.0 119.6Q307.5 120.2 307.5 120.9L307.5 120.9L306.3 120.9Q306.2 120.2 305.6 119.9L305.6 119.9Q305.2 119.6 304.6 119.5L304.6 119.5L304.6 122.7L304.9 122.8Q305.3 122.9 305.8 123.1Q306.2 123.3 306.6 123.6Q307.1 123.9 307.3 124.3Q307.6 124.8 307.6 125.4L307.6 125.4Q307.6 126.2 307.2 126.8Q306.8 127.4 306.0 127.8L306.0 127.8Q305.4 128.1 304.6 128.2L304.6 128.2L304.6 129.4ZM304.6 123.9L304.6 127.1Q305.0 127.0 305.3 126.9L305.3 126.9Q305.8 126.7 306.1 126.3Q306.4 125.9 306.4 125.4L306.4 125.4Q306.4 124.9 306.2 124.7Q305.9 124.4 305.5 124.2Q305.1 124.0 304.6 123.9L304.6 123.9L304.6 123.9ZM303.8 122.5L303.8 122.5L303.8 119.5Q303.4 119.6 303.1 119.7L303.1 119.7Q302.7 119.9 302.4 120.2Q302.2 120.6 302.2 121.0L302.2 121.0Q302.2 121.5 302.5 121.8Q302.8 122.1 303.2 122.3L303.2 122.3Q303.5 122.4 303.8 122.5Z M314.1 128L313 128L313 120.9L314.1 120.9L314.1 122.0L314.2 122.0Q314.4 121.5 314.9 121.1Q315.4 120.8 316.0 120.8L316.0 120.8Q316.1 120.8 316.3 120.8Q316.5 120.8 316.6 120.8L316.6 120.8L316.6 122.0Q316.5 122.0 316.3 121.9Q316.1 121.9 315.9 121.9L315.9 121.9Q315.4 121.9 315.0 122.1Q314.6 122.3 314.4 122.7Q314.1 123.1 314.1 123.6L314.1 123.6L314.1 128ZM320.9 128.2L320.9 128.2Q319.8 128.2 319.1 127.7Q318.4 127.2 318.0 126.4Q317.6 125.6 317.6 124.5Q317.6 123.4 317.9 122.6Q318.3 121.8 319.1 121.3Q319.8 120.8 320.7 120.8L320.7 120.8Q321.3 120.8 321.9 121.0Q322.4 121.2 322.9 121.6Q323.3 122.0 323.6 122.7Q323.8 123.4 323.8 124.4L323.8 124.4L323.8 124.8L318.7 124.8Q318.7 125.5 319.0 126.0L319.0 126.0Q319.3 126.6 319.7 126.9Q320.2 127.1 320.9 127.1L320.9 127.1Q321.3 127.1 321.6 127.0Q322.0 126.9 322.2 126.7Q322.5 126.4 322.6 126.0L322.6 126.0L323.7 126.3Q323.6 126.9 323.2 127.3Q322.8 127.7 322.2 127.9Q321.6 128.2 320.9 128.2ZM318.7 123.9L318.7 123.9L322.7 123.9Q322.6 123.4 322.5 123.0L322.5 123.0Q322.2 122.4 321.8 122.1Q321.4 121.8 320.7 121.8Q320.1 121.8 319.6 122.1Q319.2 122.5 318.9 123.0L318.9 123.0Q318.7 123.4 318.7 123.9ZM327.5 128.2L327.5 128.2Q326.8 128.2 326.2 127.9Q325.7 127.7 325.4 127.2Q325.0 126.7 325.0 126.0L325.0 126.0Q325.0 125.4 325.3 125.0Q325.5 124.6 325.9 124.4Q326.3 124.2 326.8 124.1Q327.3 124.0 327.8 123.9L327.8 123.9Q328.4 123.8 328.8 123.8Q329.2 123.7 329.4 123.6Q329.6 123.5 329.6 123.2L329.6 123.2L329.6 123.2Q329.6 122.8 329.5 122.5Q329.3 122.1 329.0 122.0Q328.6 121.8 328.1 121.8L328.1 121.8Q327.6 121.8 327.3 122.0Q326.9 122.1 326.7 122.4Q326.5 122.6 326.3 122.9L326.3 122.9L325.2 122.5Q325.5 121.8 326.0 121.5Q326.4 121.1 327.0 121.0Q327.6 120.8 328.1 120.8L328.1 120.8Q328.5 120.8 328.9 120.9Q329.4 121.0 329.8 121.2Q330.2 121.5 330.5 122.0Q330.8 122.5 330.8 123.3L330.8 123.3L330.8 128L329.6 128L329.6 127.0L329.6 127.0Q329.4 127.3 329.2 127.5Q328.9 127.8 328.5 128.0Q328.1 128.2 327.5 128.2ZM327.7 127.2L327.7 127.2Q328.3 127.2 328.7 126.9Q329.2 126.7 329.4 126.3Q329.6 125.9 329.6 125.4L329.6 125.4L329.6 124.5Q329.6 124.5 329.3 124.6Q329.1 124.7 328.8 124.7Q328.5 124.8 328.2 124.8Q327.9 124.8 327.8 124.9L327.8 124.9Q327.3 124.9 327.0 125.0Q326.6 125.2 326.4 125.4Q326.2 125.6 326.2 126.0L326.2 126.0Q326.2 126.4 326.4 126.7Q326.6 126.9 326.9 127.0Q327.2 127.2 327.7 127.2ZM335.4 128.2L335.4 128.2Q334.6 128.2 333.9 127.7Q333.2 127.3 332.8 126.4Q332.4 125.6 332.4 124.5L332.4 124.5Q332.4 123.3 332.8 122.5Q333.2 121.7 333.9 121.3Q334.6 120.8 335.4 120.8L335.4 120.8Q336.1 120.8 336.5 121.0Q336.9 121.3 337.2 121.6Q337.4 121.8 337.5 122.0L337.5 122.0L337.6 122.0L337.6 118.5L338.7 118.5L338.7 128L337.6 128L337.6 126.9L337.5 126.9Q337.4 127.1 337.2 127.4Q336.9 127.7 336.5 127.9Q336.1 128.2 335.4 128.2ZM335.6 127.1L335.6 127.1Q336.3 127.1 336.7 126.8Q337.1 126.5 337.4 125.8Q337.6 125.2 337.6 124.5L337.6 124.5Q337.6 123.7 337.4 123.1Q337.1 122.5 336.7 122.2Q336.3 121.8 335.6 121.8L335.6 121.8Q334.9 121.8 334.5 122.2Q334.0 122.5 333.8 123.1Q333.6 123.7 333.6 124.5L333.6 124.5Q333.6 125.2 333.8 125.8Q334.0 126.4 334.5 126.8Q334.9 127.1 335.6 127.1ZM341.9 128L340.7 128L340.7 120.9L341.8 120.9L341.9 122.2Q342.0 121.8 342.2 121.5L342.2 121.5Q342.5 121.2 343.0 121.0Q343.4 120.8 343.8 120.8L343.8 120.8Q344.6 120.8 345.1 121.3L345.1 121.3Q345.5 121.6 345.6 122.2L345.6 122.2Q345.8 121.9 346.0 121.6L346.0 121.6Q346.4 121.2 346.8 121.0Q347.3 120.8 347.9 120.8L347.9 120.8Q348.5 120.8 349.0 121.0Q349.5 121.3 349.8 121.8Q350.1 122.4 350.1 123.2L350.1 123.2L350.1 128L349.0 128L349.0 123.2Q349.0 122.5 348.5 122.1Q348.1 121.8 347.5 121.8L347.5 121.8Q347.1 121.8 346.7 122.0Q346.4 122.2 346.2 122.6Q346.0 122.9 346.0 123.4L346.0 123.4L346.0 128L344.9 128L344.9 123.1Q344.9 122.5 344.5 122.2Q344.1 121.8 343.5 121.8L343.5 121.8Q343.0 121.8 342.7 122.0Q342.3 122.2 342.1 122.6Q341.9 123.0 341.9 123.5L341.9 123.5L341.9 128ZM355.1 128.2L355.1 128.2Q354.1 128.2 353.3 127.7Q352.6 127.2 352.2 126.4Q351.8 125.6 351.8 124.5Q351.8 123.4 352.2 122.6Q352.6 121.8 353.3 121.3Q354.0 120.8 355.0 120.8L355.0 120.8Q355.5 120.8 356.1 121.0Q356.6 121.2 357.1 121.6Q357.5 122.0 357.8 122.7Q358.1 123.4 358.1 124.4L358.1 124.4L358.1 124.8L352.9 124.8Q353.0 125.5 353.2 126.0L353.2 126.0Q353.5 126.6 354.0 126.9Q354.5 127.1 355.1 127.1L355.1 127.1Q355.5 127.1 355.9 127.0Q356.2 126.9 356.5 126.7Q356.7 126.4 356.8 126.0L356.8 126.0L357.9 126.3Q357.8 126.9 357.4 127.3Q357.0 127.7 356.4 127.9Q355.8 128.2 355.1 128.2ZM352.9 123.9L352.9 123.9L356.9 123.9Q356.9 123.4 356.7 123.0L356.7 123.0Q356.5 122.4 356.0 122.1Q355.6 121.8 355.0 121.8Q354.3 121.8 353.9 122.1Q353.4 122.5 353.2 123.0L353.2 123.0Q353.0 123.4 352.9 123.9ZM359.6 123.4L363.8 123.4L363.8 124.5L359.6 124.5L359.6 123.4ZM367.7 128.2L367.7 128.2Q367.0 128.2 366.4 127.9Q365.9 127.7 365.6 127.2Q365.2 126.7 365.2 126.0L365.2 126.0Q365.2 125.4 365.5 125.0Q365.7 124.6 366.1 124.4Q366.5 124.2 367.0 124.1Q367.5 124.0 368.0 123.9L368.0 123.9Q368.6 123.8 369.0 123.8Q369.4 123.7 369.6 123.6Q369.8 123.5 369.8 123.2L369.8 123.2L369.8 123.2Q369.8 122.8 369.7 122.5Q369.5 122.1 369.2 122.0Q368.8 121.8 368.3 121.8L368.3 121.8Q367.8 121.8 367.5 122.0Q367.1 122.1 366.9 122.4Q366.7 122.6 366.5 122.9L366.5 122.9L365.5 122.5Q365.7 121.8 366.2 121.5Q366.7 121.1 367.2 121.0Q367.8 120.8 368.3 120.8L368.3 120.8Q368.7 120.8 369.1 120.9Q369.6 121.0 370.0 121.2Q370.4 121.5 370.7 122.0Q371.0 122.5 371.0 123.3L371.0 123.3L371.0 128L369.8 128L369.8 127.0L369.8 127.0Q369.7 127.3 369.4 127.5Q369.1 127.8 368.7 128.0Q368.3 128.2 367.7 128.2ZM367.9 127.2L367.9 127.2Q368.5 127.2 368.9 126.9Q369.4 126.7 369.6 126.3Q369.8 125.9 369.8 125.4L369.8 125.4L369.8 124.5Q369.8 124.5 369.5 124.6Q369.3 124.7 369.0 124.7Q368.7 124.8 368.4 124.8Q368.1 124.8 368.0 124.9L368.0 124.9Q367.5 124.9 367.2 125.0Q366.8 125.2 366.6 125.4Q366.4 125.6 366.4 126.0L366.4 126.0Q366.4 126.4 366.6 126.7Q366.8 126.9 367.1 127.0Q367.4 127.2 367.9 127.2ZM375.4 128.1L375.4 128.1Q374.7 128.1 374.1 127.8Q373.6 127.5 373.3 126.9Q373.0 126.3 373.0 125.4L373.0 125.4L373.0 120.9L374.1 120.9L374.1 125.3Q374.1 126.1 374.6 126.6Q375.0 127.1 375.7 127.1L375.7 127.1Q376.2 127.1 376.6 126.8Q377.0 126.6 377.3 126.2Q377.5 125.8 377.5 125.2L377.5 125.2L377.5 120.9L378.7 120.9L378.7 128L377.6 128L377.6 126.7Q377.3 127.4 376.8 127.7L376.8 127.7Q376.2 128.1 375.4 128.1ZM381.8 128L380.7 128L380.7 120.9L381.8 120.9L381.8 122.0L381.8 122.0Q382.0 121.5 382.5 121.1Q383.1 120.8 383.7 120.8L383.7 120.8Q383.8 120.8 384.0 120.8Q384.2 120.8 384.3 120.8L384.3 120.8L384.3 122.0Q384.2 122.0 384.0 121.9Q383.8 121.9 383.6 121.9L383.6 121.9Q383.1 121.9 382.7 122.1Q382.3 122.3 382.0 122.7Q381.8 123.1 381.8 123.6L381.8 123.6L381.8 128ZM387.5 128.2L387.5 128.2Q386.9 128.2 386.3 127.9Q385.8 127.7 385.5 127.2Q385.1 126.7 385.1 126.0L385.1 126.0Q385.1 125.4 385.4 125.0Q385.6 124.6 386.0 124.4Q386.4 124.2 386.9 124.1Q387.4 124.0 387.9 123.9L387.9 123.9Q388.5 123.8 388.9 123.8Q389.3 123.7 389.5 123.6Q389.7 123.5 389.7 123.2L389.7 123.2L389.7 123.2Q389.7 122.8 389.5 122.5Q389.4 122.1 389.1 122.0Q388.7 121.8 388.2 121.8L388.2 121.8Q387.7 121.8 387.4 122.0Q387.0 122.1 386.8 122.4Q386.5 122.6 386.4 122.9L386.4 122.9L385.3 122.5Q385.6 121.8 386.1 121.5Q386.5 121.1 387.1 121.0Q387.6 120.8 388.2 120.8L388.2 120.8Q388.5 120.8 389.0 120.9Q389.5 121.0 389.9 121.2Q390.3 121.5 390.6 122.0Q390.9 122.5 390.9 123.3L390.9 123.3L390.9 128L389.7 128L389.7 127.0L389.7 127.0Q389.5 127.3 389.3 127.5Q389.0 127.8 388.6 128.0Q388.1 128.2 387.5 128.2ZM387.7 127.2L387.7 127.2Q388.4 127.2 388.8 126.9Q389.3 126.7 389.5 126.3Q389.7 125.9 389.7 125.4L389.7 125.4L389.7 124.5Q389.6 124.5 389.4 124.6Q389.2 124.7 388.9 124.7Q388.6 124.8 388.3 124.8Q388.0 124.8 387.8 124.9L387.8 124.9Q387.4 124.9 387.1 125.0Q386.7 125.2 386.5 125.4Q386.3 125.6 386.3 126.0L386.3 126.0Q386.3 126.4 386.5 126.7Q386.7 126.9 387.0 127.0Q387.3 127.2 387.7 127.2Z M399.8 128.2L399.8 128.2Q399.1 128.2 398.7 127.9Q398.3 127.7 398.1 127.4Q397.9 127.1 397.7 126.9L397.7 126.9L397.6 126.9L397.6 128L396.5 128L396.5 118.5L397.7 118.5L397.7 122.0L397.7 122.0Q397.9 121.8 398.1 121.6Q398.3 121.3 398.7 121.0Q399.1 120.8 399.8 120.8L399.8 120.8Q400.7 120.8 401.4 121.3Q402.0 121.7 402.4 122.5Q402.8 123.3 402.8 124.5L402.8 124.5Q402.8 125.6 402.4 126.4Q402.1 127.3 401.4 127.7Q400.7 128.2 399.8 128.2ZM399.6 127.1L399.6 127.1Q400.3 127.1 400.8 126.8Q401.2 126.4 401.4 125.8Q401.7 125.2 401.7 124.5L401.7 124.5Q401.7 123.7 401.4 123.1Q401.2 122.5 400.8 122.2Q400.3 121.8 399.6 121.8L399.6 121.8Q399.0 121.8 398.5 122.2Q398.1 122.5 397.9 123.1Q397.6 123.7 397.6 124.5L397.6 124.5Q397.6 125.2 397.9 125.8Q398.1 126.5 398.6 126.8Q399.0 127.1 399.6 127.1ZM406.9 128.1L406.9 128.1Q406.2 128.1 405.6 127.8Q405.1 127.5 404.8 126.9Q404.5 126.3 404.5 125.4L404.5 125.4L404.5 120.9L405.6 120.9L405.6 125.3Q405.6 126.1 406.1 126.6Q406.5 127.1 407.2 127.1L407.2 127.1Q407.7 127.1 408.1 126.8Q408.5 126.6 408.8 126.2Q409.0 125.8 409.0 125.2L409.0 125.2L409.0 120.9L410.2 120.9L410.2 128L409.1 128L409.1 126.7Q408.7 127.4 408.3 127.7L408.3 127.7Q407.7 128.1 406.9 128.1ZM413.3 128L412.2 128L412.2 120.9L413.3 120.9L413.3 128ZM412.7 119.7L412.7 119.7Q412.4 119.7 412.2 119.5Q411.9 119.3 411.9 119.0L411.9 119.0Q411.9 118.7 412.2 118.4Q412.4 118.2 412.7 118.2L412.7 118.2Q413.1 118.2 413.3 118.4Q413.5 118.7 413.5 119.0L413.5 119.0Q413.5 119.3 413.3 119.5Q413.1 119.7 412.7 119.7ZM415.3 118.5L416.5 118.5L416.5 128L415.3 128L415.3 118.5ZM421.1 128.2L421.1 128.2Q420.2 128.2 419.6 127.7Q418.9 127.3 418.5 126.4Q418.1 125.6 418.1 124.5L418.1 124.5Q418.1 123.3 418.5 122.5Q418.9 121.7 419.6 121.3Q420.2 120.8 421.1 120.8L421.1 120.8Q421.8 120.8 422.2 121.0Q422.6 121.3 422.8 121.6Q423.1 121.8 423.2 122.0L423.2 122.0L423.3 122.0L423.3 118.5L424.4 118.5L424.4 128L423.3 128L423.3 126.9L423.2 126.9Q423.1 127.1 422.8 127.4Q422.6 127.7 422.2 127.9Q421.8 128.2 421.1 128.2ZM421.3 127.1L421.3 127.1Q421.9 127.1 422.4 126.8Q422.8 126.5 423.1 125.8Q423.3 125.2 423.3 124.5L423.3 124.5Q423.3 123.7 423.1 123.1Q422.8 122.5 422.4 122.2Q421.9 121.8 421.3 121.8L421.3 121.8Q420.6 121.8 420.2 122.2Q419.7 122.5 419.5 123.1Q419.3 123.7 419.3 124.5L419.3 124.5Q419.3 125.2 419.5 125.8Q419.7 126.4 420.2 126.8Q420.6 127.1 421.3 127.1Z "/></g><mask id="satori_om-id-2-3"><rect x="300" y="139" width="200" height="15" fill="#fff" mask="url(#satori_om-id)"/></mask><g mask="url(#satori_om-id)" clip-path="url(#satori_cp-id)"><path fill="rgba(220,210,255,0.85)" d="M303.8 151.2L303.8 151.2Q302.9 151.2 302.2 150.8Q301.5 150.5 301.1 150.0Q300.7 149.4 300.7 148.7L300.7 148.7L301.8 148.7Q301.9 149.2 302.2 149.5Q302.4 149.8 302.9 150.0Q303.3 150.2 303.8 150.2L303.8 150.2Q304.4 150.2 304.9 150.0Q305.4 149.8 305.7 149.4Q305.9 149.1 305.9 148.6L305.9 148.6Q305.9 148.2 305.7 147.9Q305.5 147.7 305.1 147.5Q304.7 147.3 304.2 147.2L304.2 147.2L303.2 146.9Q302.1 146.6 301.5 146.0Q300.9 145.5 300.9 144.6L300.9 144.6Q300.9 143.9 301.3 143.3Q301.7 142.8 302.4 142.5Q303.1 142.2 303.9 142.2L303.9 142.2Q304.8 142.2 305.4 142.5Q306.1 142.8 306.5 143.3Q306.9 143.8 306.9 144.5L306.9 144.5L305.8 144.5Q305.7 143.8 305.2 143.5Q304.7 143.1 303.9 143.1L303.9 143.1Q303.3 143.1 302.9 143.3Q302.5 143.5 302.2 143.8Q302.0 144.1 302.0 144.6L302.0 144.6Q302.0 145.0 302.3 145.3Q302.6 145.6 303.0 145.7Q303.4 145.9 303.7 146.0L303.7 146.0L304.5 146.2Q304.9 146.3 305.3 146.5Q305.7 146.6 306.1 146.9Q306.5 147.2 306.8 147.6Q307.0 148.0 307.0 148.6L307.0 148.6Q307.0 149.3 306.6 149.9Q306.3 150.5 305.6 150.8Q304.9 151.2 303.8 151.2ZM310.5 151.2L310.5 151.2Q309.8 151.2 309.3 150.9Q308.8 150.7 308.5 150.2Q308.2 149.8 308.2 149.1L308.2 149.1Q308.2 148.6 308.4 148.2Q308.7 147.9 309.0 147.7Q309.4 147.5 309.9 147.4Q310.3 147.3 310.8 147.2L310.8 147.2Q311.4 147.1 311.7 147.1Q312.1 147.1 312.3 147.0Q312.5 146.9 312.5 146.6L312.5 146.6L312.5 146.6Q312.5 146.2 312.3 145.9Q312.2 145.6 311.8 145.4Q311.5 145.3 311.1 145.3L311.1 145.3Q310.6 145.3 310.3 145.4Q309.9 145.6 309.7 145.8Q309.5 146.0 309.4 146.3L309.4 146.3L308.4 145.9Q308.7 145.3 309.1 145.0Q309.5 144.6 310.0 144.5Q310.6 144.4 311.1 144.4L311.1 144.4Q311.4 144.4 311.8 144.4Q312.2 144.5 312.6 144.8Q313.0 145.0 313.3 145.5Q313.5 145.9 313.5 146.7L313.5 146.7L313.5 151L312.5 151L312.5 150.1L312.4 150.1Q312.3 150.3 312.0 150.6Q311.8 150.8 311.4 151.0Q311.0 151.2 310.5 151.2ZM310.6 150.2L310.6 150.2Q311.2 150.2 311.6 150.0Q312.0 149.8 312.2 149.4Q312.5 149.0 312.5 148.6L312.5 148.6L312.5 147.7Q312.4 147.8 312.2 147.9Q312.0 147.9 311.7 148.0Q311.4 148.0 311.1 148.0Q310.9 148.1 310.7 148.1L310.7 148.1Q310.3 148.1 310.0 148.3Q309.7 148.4 309.5 148.6Q309.3 148.8 309.3 149.2L309.3 149.2Q309.3 149.5 309.5 149.8Q309.6 150.0 309.9 150.1Q310.2 150.2 310.6 150.2ZM316.6 144.4L317.9 144.4L317.9 145.4L316.6 145.4L316.6 149.3Q316.6 149.7 316.8 149.9Q317.0 150.1 317.4 150.1L317.4 150.1Q317.5 150.1 317.6 150.1Q317.8 150.1 317.9 150.1L317.9 150.1L318.1 151.0Q318.0 151.0 317.8 151.1Q317.5 151.1 317.3 151.1L317.3 151.1Q316.5 151.1 316.0 150.6Q315.5 150.2 315.5 149.4L315.5 149.4L315.5 145.4L314.6 145.4L314.6 144.4L315.5 144.4L315.5 142.9L316.6 142.9L316.6 144.4ZM322.0 151.1L322.0 151.1Q321.1 151.1 320.4 150.7Q319.7 150.3 319.3 149.5Q319.0 148.8 319.0 147.8L319.0 147.8Q319.0 146.7 319.3 146.0Q319.7 145.2 320.4 144.8Q321.1 144.4 322.0 144.4L322.0 144.4Q322.9 144.4 323.5 144.8Q324.2 145.2 324.6 146.0Q324.9 146.7 324.9 147.8L324.9 147.8Q324.9 148.8 324.6 149.5Q324.2 150.3 323.5 150.7Q322.9 151.1 322.0 151.1ZM322.0 150.2L322.0 150.2Q322.6 150.2 323.0 149.9Q323.5 149.5 323.7 149.0Q323.9 148.4 323.9 147.8L323.9 147.8Q323.9 147.1 323.7 146.6Q323.5 146.0 323.0 145.7Q322.6 145.3 322.0 145.3L322.0 145.3Q321.3 145.3 320.9 145.7Q320.5 146.0 320.3 146.6Q320.0 147.1 320.0 147.8L320.0 147.8Q320.0 148.4 320.3 149.0Q320.5 149.5 320.9 149.9Q321.3 150.2 322.0 150.2ZM327.5 151L326.5 151L326.5 144.4L327.5 144.4L327.5 145.5L327.6 145.5Q327.8 145.0 328.2 144.7Q328.7 144.4 329.3 144.4L329.3 144.4Q329.4 144.4 329.6 144.4Q329.7 144.4 329.8 144.4L329.8 144.4L329.8 145.4Q329.8 145.4 329.6 145.4Q329.4 145.4 329.2 145.4L329.2 145.4Q328.7 145.4 328.3 145.6Q328.0 145.8 327.8 146.1Q327.5 146.5 327.5 146.9L327.5 146.9L327.5 151ZM332.1 151L331.0 151L331.0 144.4L332.1 144.4L332.1 151ZM331.5 143.4L331.5 143.4Q331.2 143.4 331.0 143.2Q330.8 143.0 330.8 142.7L330.8 142.7Q330.8 142.4 331.0 142.2Q331.2 142.0 331.5 142.0L331.5 142.0Q331.8 142.0 332.1 142.2Q332.3 142.4 332.3 142.7L332.3 142.7Q332.3 143.0 332.1 143.2Q331.8 143.4 331.5 143.4Z M338.3 151L337.3 151L337.3 144.4L338.3 144.4L338.3 145.5L338.4 145.5Q338.6 145.0 339.0 144.7Q339.5 144.4 340.1 144.4L340.1 144.4Q340.2 144.4 340.4 144.4Q340.5 144.4 340.6 144.4L340.6 144.4L340.6 145.4Q340.6 145.4 340.4 145.4Q340.2 145.4 340.0 145.4L340.0 145.4Q339.5 145.4 339.1 145.6Q338.8 145.8 338.5 146.1Q338.3 146.5 338.3 146.9L338.3 146.9L338.3 151ZM344.6 151.1L344.6 151.1Q343.6 151.1 342.9 150.7Q342.2 150.3 341.9 149.5Q341.5 148.8 341.5 147.8Q341.5 146.8 341.8 146.0Q342.2 145.2 342.9 144.8Q343.5 144.4 344.4 144.4L344.4 144.4Q345.0 144.4 345.5 144.5Q346.0 144.7 346.4 145.1Q346.8 145.5 347.0 146.1Q347.3 146.7 347.3 147.6L347.3 147.6L347.3 148.1L342.6 148.1Q342.6 148.7 342.8 149.2L342.8 149.2Q343.1 149.7 343.5 149.9Q344.0 150.2 344.6 150.2L344.6 150.2Q344.9 150.2 345.3 150.1Q345.6 150.0 345.8 149.8Q346.0 149.5 346.2 149.2L346.2 149.2L347.2 149.5Q347.0 150.0 346.7 150.3Q346.3 150.7 345.8 150.9Q345.2 151.1 344.6 151.1ZM342.6 147.2L342.6 147.2L346.2 147.2Q346.2 146.7 346.0 146.4L346.0 146.4Q345.8 145.9 345.4 145.6Q345.0 145.3 344.4 145.3Q343.8 145.3 343.4 145.6Q343.0 145.9 342.8 146.3L342.8 146.3Q342.6 146.7 342.6 147.2ZM349.9 147.1L349.9 147.1L349.9 151L348.8 151L348.8 144.4L349.8 144.4L349.8 145.7Q350.1 145.0 350.5 144.7L350.5 144.7Q351.1 144.4 351.8 144.4L351.8 144.4Q352.5 144.4 353.0 144.6Q353.5 144.9 353.8 145.5Q354.0 146.0 354.0 146.8L354.0 146.8L354.0 151L353.0 151L353.0 146.9Q353.0 146.2 352.6 145.7Q352.2 145.3 351.5 145.3L351.5 145.3Q351.0 145.3 350.7 145.5Q350.3 145.7 350.1 146.1Q349.9 146.5 349.9 147.1ZM358.3 151.1L358.3 151.1Q357.5 151.1 356.9 150.7Q356.3 150.3 355.9 149.5Q355.6 148.8 355.6 147.7L355.6 147.7Q355.6 146.7 355.9 145.9Q356.3 145.2 356.9 144.8Q357.5 144.4 358.3 144.4L358.3 144.4Q359.0 144.4 359.4 144.6Q359.7 144.8 359.9 145.1Q360.1 145.3 360.2 145.5L360.2 145.5L360.3 145.5L360.3 142.3L361.4 142.3L361.4 151L360.4 151L360.4 150.0L360.2 150.0Q360.1 150.2 359.9 150.4Q359.7 150.7 359.3 150.9Q359.0 151.1 358.3 151.1ZM358.5 150.2L358.5 150.2Q359.1 150.2 359.5 149.9Q359.9 149.6 360.1 149.0Q360.3 148.5 360.3 147.7L360.3 147.7Q360.3 147.0 360.1 146.5Q359.9 145.9 359.5 145.6Q359.1 145.3 358.5 145.3L358.5 145.3Q357.9 145.3 357.5 145.6Q357.1 146.0 356.8 146.5Q356.6 147.1 356.6 147.7L356.6 147.7Q356.6 148.4 356.9 149.0Q357.1 149.5 357.5 149.9Q357.9 150.2 358.5 150.2ZM366.0 151.1L366.0 151.1Q365.0 151.1 364.4 150.7Q363.7 150.3 363.3 149.5Q362.9 148.8 362.9 147.8Q362.9 146.8 363.3 146.0Q363.6 145.2 364.3 144.8Q365.0 144.4 365.9 144.4L365.9 144.4Q366.4 144.4 366.9 144.5Q367.4 144.7 367.8 145.1Q368.2 145.5 368.5 146.1Q368.7 146.7 368.7 147.6L368.7 147.6L368.7 148.1L364.0 148.1Q364.0 148.7 364.2 149.2L364.2 149.2Q364.5 149.7 364.9 149.9Q365.4 150.2 366.0 150.2L366.0 150.2Q366.4 150.2 366.7 150.1Q367.0 150.0 367.2 149.8Q367.5 149.5 367.6 149.2L367.6 149.2L368.6 149.5Q368.5 150.0 368.1 150.3Q367.7 150.7 367.2 150.9Q366.7 151.1 366.0 151.1ZM364.0 147.2L364.0 147.2L367.6 147.2Q367.6 146.7 367.5 146.4L367.5 146.4Q367.3 145.9 366.9 145.6Q366.5 145.3 365.9 145.3Q365.3 145.3 364.9 145.6Q364.4 145.9 364.2 146.3L364.2 146.3Q364.0 146.7 364.0 147.2ZM371.3 151L370.2 151L370.2 144.4L371.3 144.4L371.3 145.5L371.3 145.5Q371.5 145.0 372.0 144.7Q372.4 144.4 373.0 144.4L373.0 144.4Q373.1 144.4 373.3 144.4Q373.5 144.4 373.6 144.4L373.6 144.4L373.6 145.4Q373.5 145.4 373.3 145.4Q373.1 145.4 372.9 145.4L372.9 145.4Q372.5 145.4 372.1 145.6Q371.7 145.8 371.5 146.1Q371.3 146.5 371.3 146.9L371.3 146.9L371.3 151ZM377.0 151.1L377.0 151.1Q376.3 151.1 375.8 150.9Q375.3 150.7 374.9 150.4Q374.6 150.0 374.5 149.4L374.5 149.4L375.5 149.2Q375.6 149.7 376.0 150.0Q376.4 150.2 377.0 150.2L377.0 150.2Q377.6 150.2 378.1 149.9Q378.5 149.6 378.5 149.2L378.5 149.2Q378.5 148.9 378.2 148.7Q378.0 148.4 377.5 148.3L377.5 148.3L376.4 148.1Q375.5 147.9 375.1 147.4Q374.7 147.0 374.7 146.3L374.7 146.3Q374.7 145.7 375.0 145.3Q375.3 144.9 375.8 144.6Q376.4 144.4 377.1 144.4L377.1 144.4Q377.8 144.4 378.2 144.6Q378.7 144.8 379.0 145.1Q379.3 145.5 379.4 145.9L379.4 145.9L378.5 146.2Q378.3 145.8 378.0 145.6Q377.7 145.3 377.1 145.3L377.1 145.3Q376.5 145.3 376.1 145.5Q375.7 145.8 375.7 146.2L375.7 146.2Q375.7 146.6 376.0 146.8Q376.2 147.0 376.8 147.2L376.8 147.2L377.8 147.4Q378.7 147.6 379.1 148.0Q379.6 148.5 379.6 149.2L379.6 149.2Q379.6 149.7 379.2 150.2Q378.9 150.6 378.3 150.9Q377.7 151.1 377.0 151.1Z M386.7 151.1L386.7 151.1Q385.6 151.1 384.8 150.4Q384.1 149.8 384.1 148.5L384.1 148.5L384.1 148.0L385.2 148.0L385.2 148.5Q385.2 149.3 385.6 149.7Q386.1 150.1 386.7 150.1L386.7 150.1Q387.4 150.1 387.8 149.7Q388.2 149.3 388.2 148.5L388.2 148.5L388.2 142.3L389.3 142.3L389.3 148.5Q389.3 149.8 388.6 150.4Q387.9 151.1 386.7 151.1ZM394.2 151.2L394.2 151.2Q393.3 151.2 392.6 150.8Q391.9 150.5 391.5 150.0Q391.1 149.4 391.1 148.7L391.1 148.7L392.2 148.7Q392.3 149.2 392.5 149.5Q392.8 149.8 393.3 150.0Q393.7 150.2 394.2 150.2L394.2 150.2Q394.8 150.2 395.3 150.0Q395.8 149.8 396.0 149.4Q396.3 149.1 396.3 148.6L396.3 148.6Q396.3 148.2 396.1 147.9Q395.8 147.7 395.4 147.5Q395.1 147.3 394.6 147.2L394.6 147.2L393.5 146.9Q392.5 146.6 391.9 146.0Q391.3 145.5 391.3 144.6L391.3 144.6Q391.3 143.9 391.7 143.3Q392.1 142.8 392.8 142.5Q393.5 142.2 394.3 142.2L394.3 142.2Q395.2 142.2 395.8 142.5Q396.5 142.8 396.9 143.3Q397.3 143.8 397.3 144.5L397.3 144.5L396.2 144.5Q396.1 143.8 395.6 143.5Q395.1 143.1 394.3 143.1L394.3 143.1Q393.7 143.1 393.3 143.3Q392.9 143.5 392.6 143.8Q392.4 144.1 392.4 144.6L392.4 144.6Q392.4 145.0 392.7 145.3Q393.0 145.6 393.3 145.7Q393.7 145.9 394.1 146.0L394.1 146.0L394.9 146.2Q395.3 146.3 395.7 146.5Q396.1 146.6 396.5 146.9Q396.9 147.2 397.2 147.6Q397.4 148.0 397.4 148.6L397.4 148.6Q397.4 149.3 397.0 149.9Q396.7 150.5 395.9 150.8Q395.2 151.2 394.2 151.2ZM399.7 151L398.4 151L401.5 146.5L398.6 142.3L399.9 142.3L401.2 144.1Q401.4 144.5 401.6 144.8Q401.8 145.1 401.9 145.4L401.9 145.4Q402.1 145.6 402.2 145.8L402.2 145.8Q402.3 145.6 402.4 145.4L402.4 145.4Q402.6 145.1 402.8 144.8Q402.9 144.5 403.2 144.1L403.2 144.1L404.5 142.3L405.8 142.3L402.8 146.5L405.9 151L404.6 151L403.1 148.8Q402.9 148.4 402.7 148.2Q402.5 147.9 402.4 147.6L402.4 147.6Q402.3 147.5 402.2 147.3L402.2 147.3Q402.1 147.5 402.0 147.6L402.0 147.6Q401.8 147.9 401.7 148.1Q401.5 148.4 401.2 148.8L401.2 148.8L399.7 151Z M411.8 144.4L413.1 144.4L413.1 145.4L411.8 145.4L411.8 149.3Q411.8 149.7 412.0 149.9Q412.2 150.1 412.6 150.1L412.6 150.1Q412.7 150.1 412.8 150.1Q413.0 150.1 413.1 150.1L413.1 150.1L413.3 151.0Q413.2 151.0 413.0 151.1Q412.7 151.1 412.5 151.1L412.5 151.1Q411.7 151.1 411.2 150.6Q410.7 150.2 410.7 149.4L410.7 149.4L410.7 145.4L409.8 145.4L409.8 144.4L410.7 144.4L410.7 142.9L411.8 142.9L411.8 144.4ZM417.2 151.1L417.2 151.1Q416.3 151.1 415.6 150.7Q414.9 150.3 414.6 149.5Q414.2 148.8 414.2 147.8L414.2 147.8Q414.2 146.7 414.6 146.0Q414.9 145.2 415.6 144.8Q416.3 144.4 417.2 144.4L417.2 144.4Q418.1 144.4 418.7 144.8Q419.4 145.2 419.8 146.0Q420.2 146.7 420.2 147.8L420.2 147.8Q420.2 148.8 419.8 149.5Q419.4 150.3 418.7 150.7Q418.1 151.1 417.2 151.1ZM417.2 150.2L417.2 150.2Q417.8 150.2 418.2 149.9Q418.7 149.5 418.9 149.0Q419.1 148.4 419.1 147.8L419.1 147.8Q419.1 147.1 418.9 146.6Q418.7 146.0 418.2 145.7Q417.8 145.3 417.2 145.3L417.2 145.3Q416.5 145.3 416.1 145.7Q415.7 146.0 415.5 146.6Q415.2 147.1 415.2 147.8L415.2 147.8Q415.2 148.4 415.5 149.0Q415.7 149.5 416.1 149.9Q416.5 150.2 417.2 150.2Z M428.0 151.2L428.0 151.2Q427.0 151.2 426.3 150.8Q425.7 150.5 425.3 150.0Q424.9 149.4 424.8 148.7L424.8 148.7L426.0 148.7Q426.0 149.2 426.3 149.5Q426.6 149.8 427.0 150.0Q427.5 150.2 428.0 150.2L428.0 150.2Q428.6 150.2 429.0 150.0Q429.5 149.8 429.8 149.4Q430.1 149.1 430.1 148.6L430.1 148.6Q430.1 148.2 429.8 147.9Q429.6 147.7 429.2 147.5Q428.8 147.3 428.3 147.2L428.3 147.2L427.3 146.9Q426.2 146.6 425.6 146.0Q425.1 145.5 425.1 144.6L425.1 144.6Q425.1 143.9 425.5 143.3Q425.9 142.8 426.5 142.5Q427.2 142.2 428.1 142.2L428.1 142.2Q428.9 142.2 429.6 142.5Q430.2 142.8 430.6 143.3Q431.0 143.8 431.0 144.5L431.0 144.5L429.9 144.5Q429.9 143.8 429.3 143.5Q428.8 143.1 428.0 143.1L428.0 143.1Q427.5 143.1 427.0 143.3Q426.6 143.5 426.4 143.8Q426.1 144.1 426.1 144.6L426.1 144.6Q426.1 145.0 426.4 145.3Q426.7 145.6 427.1 145.7Q427.5 145.9 427.8 146.0L427.8 146.0L428.7 146.2Q429.0 146.3 429.5 146.5Q429.9 146.6 430.3 146.9Q430.7 147.2 430.9 147.6Q431.2 148.0 431.2 148.6L431.2 148.6Q431.2 149.3 430.8 149.9Q430.4 150.5 429.7 150.8Q429.0 151.2 428.0 151.2ZM436.6 151L435.4 151L432.1 142.3L433.3 142.3L435.2 147.4Q435.3 147.9 435.6 148.6L435.6 148.6Q435.8 149.2 436.0 150.1L436.0 150.1Q436.2 149.2 436.4 148.6L436.4 148.6Q436.7 147.9 436.8 147.4L436.8 147.4L438.6 142.3L439.8 142.3L436.6 151ZM444.7 151.1L444.7 151.1Q443.6 151.1 442.7 150.6Q441.8 150.0 441.3 149.0Q440.8 148.0 440.8 146.6L440.8 146.6Q440.8 145.3 441.3 144.2Q441.8 143.2 442.7 142.7Q443.5 142.2 444.7 142.2L444.7 142.2Q445.4 142.2 446.0 142.4Q446.6 142.6 447.0 142.9Q447.5 143.3 447.8 143.8Q448.1 144.4 448.3 145.0L448.3 145.0L447.1 145.0Q447.0 144.6 446.7 144.3Q446.5 143.9 446.2 143.7Q445.9 143.4 445.5 143.3Q445.1 143.2 444.7 143.2L444.7 143.2Q443.9 143.2 443.3 143.6Q442.7 144.0 442.3 144.7Q441.9 145.5 441.9 146.6L441.9 146.6Q441.9 147.8 442.3 148.5Q442.7 149.3 443.3 149.7Q443.9 150.1 444.7 150.1L444.7 150.1Q445.5 150.1 446.0 149.8Q446.6 149.5 446.9 148.9L446.9 148.9Q447.2 148.3 447.2 147.6L447.2 147.6L445.0 147.6L445.0 146.6L448.3 146.6L448.3 147.6Q448.3 148.7 447.9 149.4Q447.4 150.2 446.6 150.7Q445.8 151.1 444.7 151.1Z "/></g><defs><clipPath id="satori_bc-id-3" clip-path="url(#satori_cp-id)"><path x="533" y="25" width="242" height="170" d="M547,25 h214 a14,14 0 0 1 14,14 v142 a14,14 0 0 1 -14,14 h-214 a14,14 0 0 1 -14,-14 v-142 a14,14 0 0 1 14,-14"/></clipPath></defs><mask id="satori_om-id-3"><rect x="534" y="26" width="240" height="168" fill="#fff" mask="url(#satori_om-id)"/><path width="242" height="170" fill="none" stroke="#000" stroke-width="2" d="M537.101,29.101 A14,14 0 0 1 547,25 h214 a14,14 0 0 1 14,14 v142 a14,14 0 0 1 -14,14 h-214 a14,14 0 0 1 -14,-14 v-142 A14,14 0 0 1 537.101,29.101"/></mask><path x="533" y="25" width="242" height="170" fill="rgba(12,10,20,0.6)" d="M547,25 h214 a14,14 0 0 1 14,14 v142 a14,14 0 0 1 -14,14 h-214 a14,14 0 0 1 -14,-14 v-142 a14,14 0 0 1 14,-14" clip-path="url(#satori_cp-id)" mask="url(#satori_om-id)"/><path width="242" height="170" clip-path="url(#satori_bc-id-3)" fill="none" stroke="rgba(120,80,220,0.2)" stroke-width="2" d="M537.101,29.101 A14,14 0 0 1 547,25 h214 a14,14 0 0 1 14,14 v142 a14,14 0 0 1 -14,14 h-214 a14,14 0 0 1 -14,-14 v-142 A14,14 0 0 1 537.101,29.101"/><mask id="satori_om-id-3-0"><rect x="554" y="67" width="200" height="13" fill="#fff" mask="url(#satori_om-id)"/></mask><g mask="url(#satori_om-id)" clip-path="url(#satori_cp-id)"><path fill="rgba(220,210,255,0.7)" d="M557.5 78.1L557.5 78.1Q556.7 78.1 556.0 77.9Q555.4 77.6 555.0 77.1Q554.7 76.6 554.6 75.9L554.6 75.9L555.7 75.9Q555.7 76.4 556.0 76.6Q556.2 76.9 556.7 77.1Q557.1 77.2 557.5 77.2L557.5 77.2Q558.1 77.2 558.5 77.0Q558.9 76.9 559.2 76.5Q559.4 76.2 559.4 75.8L559.4 75.8Q559.4 75.4 559.2 75.2Q559.0 74.9 558.6 74.8Q558.3 74.6 557.9 74.5L557.9 74.5L556.9 74.2Q555.9 74.0 555.4 73.4Q554.8 72.9 554.8 72.1L554.8 72.1Q554.8 71.5 555.2 71.0Q555.6 70.4 556.2 70.2Q556.8 69.9 557.6 69.9L557.6 69.9Q558.4 69.9 559.0 70.2Q559.6 70.4 560.0 70.9Q560.3 71.4 560.3 72.0L560.3 72.0L559.3 72.0Q559.3 71.4 558.8 71.1Q558.3 70.8 557.6 70.8L557.6 70.8Q557.1 70.8 556.7 71.0Q556.3 71.1 556.1 71.4Q555.8 71.7 555.8 72.1L555.8 72.1Q555.8 72.5 556.1 72.8Q556.4 73.0 556.7 73.2Q557.1 73.3 557.4 73.4L557.4 73.4L558.2 73.6Q558.5 73.7 558.9 73.8Q559.3 74.0 559.6 74.2Q560.0 74.5 560.2 74.9Q560.4 75.3 560.4 75.8L560.4 75.8Q560.4 76.5 560.1 77.0Q559.8 77.5 559.1 77.8Q558.5 78.1 557.5 78.1ZM565.1 70.9L562.6 70.9L562.6 70.0L568.6 70.0L568.6 70.9L566.1 70.9L566.1 78L565.1 78L565.1 70.9ZM576.1 78L571.1 78L571.1 70.0L576.0 70.0L576.0 70.9L572.1 70.9L572.1 73.5L575.7 73.5L575.7 74.4L572.1 74.4L572.1 77.1L576.1 77.1L576.1 78ZM579.8 78L578.7 78L578.7 70.0L581.5 70.0Q582.4 70.0 583.0 70.3Q583.6 70.7 583.9 71.3Q584.2 71.8 584.2 72.5Q584.2 73.3 583.9 73.8Q583.6 74.4 583.0 74.8Q582.4 75.1 581.5 75.1L581.5 75.1L579.8 75.1L579.8 78ZM579.8 70.9L579.8 74.2L581.4 74.2Q582.1 74.2 582.5 74.0Q582.8 73.8 583.0 73.4Q583.2 73.0 583.2 72.5Q583.2 72.1 583.0 71.7Q582.8 71.3 582.5 71.1Q582.1 70.9 581.4 70.9L581.4 70.9L579.8 70.9Z M593.3 78.1L593.3 78.1Q592.5 78.1 591.9 77.8Q591.3 77.6 590.9 77.1Q590.6 76.6 590.6 76.0L590.6 76.0L591.6 76.0Q591.6 76.4 591.9 76.6Q592.1 76.9 592.5 77.1Q592.8 77.2 593.3 77.2L593.3 77.2Q593.8 77.2 594.2 77.0Q594.6 76.9 594.8 76.5Q595.0 76.2 595.0 75.8L595.0 75.8Q595.0 75.4 594.8 75.0Q594.6 74.7 594.2 74.5Q593.8 74.3 593.2 74.3L593.2 74.3L592.5 74.3L592.5 73.5L593.2 73.5Q593.6 73.5 594.0 73.3Q594.3 73.1 594.5 72.8Q594.7 72.5 594.7 72.1L594.7 72.1Q594.7 71.7 594.6 71.4Q594.4 71.1 594.1 70.9Q593.7 70.8 593.3 70.8L593.3 70.8Q592.9 70.8 592.5 70.9Q592.2 71.1 592.0 71.3Q591.7 71.6 591.7 72.0L591.7 72.0L590.7 72.0Q590.8 71.4 591.1 70.9Q591.5 70.4 592.0 70.2Q592.6 69.9 593.3 69.9L593.3 69.9Q594.1 69.9 594.6 70.2Q595.2 70.5 595.4 71.0Q595.7 71.5 595.7 72.0L595.7 72.0Q595.7 72.7 595.4 73.2Q595.0 73.7 594.4 73.8L594.4 73.8L594.4 73.9Q594.9 74.0 595.3 74.3Q595.6 74.5 595.8 74.9Q596.0 75.3 596.0 75.8L596.0 75.8Q596.0 76.5 595.7 77.0Q595.3 77.5 594.7 77.8Q594.1 78.1 593.3 78.1Z "/></g><mask id="satori_om-id-3-1"><rect x="554" y="88" width="200" height="19" fill="#fff" mask="url(#satori_om-id)"/></mask><g mask="url(#satori_om-id)" clip-path="url(#satori_cp-id)"><path fill="#ffffff" d="M559.1 104L559.1 104L555.1 104L555.1 92.4L559.2 92.4Q560.9 92.4 562.2 93.1Q563.5 93.8 564.1 95.1Q564.8 96.4 564.8 98.2L564.8 98.2Q564.8 100.0 564.1 101.3Q563.5 102.6 562.2 103.3Q560.9 104 559.1 104ZM557.4 94.4L557.4 101.9L559.0 101.9Q560.2 101.9 560.9 101.5Q561.7 101.1 562.1 100.3Q562.4 99.5 562.4 98.2L562.4 98.2Q562.4 96.9 562.1 96.0Q561.7 95.2 560.9 94.8Q560.2 94.4 559.0 94.4L559.0 94.4L557.4 94.4ZM570.5 104.2L570.5 104.2Q569.2 104.2 568.2 103.6Q567.2 103.1 566.7 102.1Q566.2 101.1 566.2 99.7L566.2 99.7Q566.2 98.3 566.7 97.3Q567.2 96.3 568.2 95.7Q569.1 95.2 570.4 95.2L570.4 95.2Q571.2 95.2 572.0 95.4Q572.7 95.7 573.3 96.3Q573.9 96.8 574.2 97.6Q574.5 98.5 574.5 99.6L574.5 99.6L574.5 100.2L568.5 100.2Q568.5 100.9 568.8 101.4L568.8 101.4Q569.0 101.9 569.5 102.1Q569.9 102.4 570.5 102.4L570.5 102.4Q571.0 102.4 571.3 102.3Q571.6 102.2 571.9 101.9Q572.1 101.7 572.2 101.4L572.2 101.4L574.4 101.8Q574.1 102.5 573.6 103.0Q573.1 103.6 572.3 103.9Q571.5 104.2 570.5 104.2ZM568.5 98.8L568.5 98.8L572.2 98.8Q572.2 98.3 572.0 98.0L572.0 98.0Q571.8 97.5 571.4 97.2Q571.0 96.9 570.4 96.9L570.4 96.9Q569.8 96.9 569.4 97.2Q568.9 97.5 568.7 98.0L568.7 98.0Q568.6 98.3 568.5 98.8ZM578.4 107.3L576.1 107.3L576.1 95.3L578.4 95.3L578.4 96.7L578.5 96.7Q578.7 96.4 579.0 96.0Q579.3 95.7 579.8 95.4Q580.3 95.2 581.0 95.2L581.0 95.2Q582.0 95.2 582.8 95.7Q583.6 96.2 584.1 97.2Q584.5 98.2 584.5 99.6L584.5 99.6Q584.5 101.1 584.1 102.1Q583.6 103.1 582.8 103.6Q582.0 104.1 581.0 104.1L581.0 104.1Q580.3 104.1 579.8 103.9Q579.3 103.7 579.0 103.3Q578.7 103.0 578.5 102.6L578.5 102.6L578.4 102.6L578.4 107.3ZM580.3 102.3L580.3 102.3Q580.9 102.3 581.3 101.9Q581.7 101.6 581.9 101Q582.1 100.4 582.1 99.6L582.1 99.6Q582.1 98.9 581.9 98.3Q581.7 97.7 581.3 97.4Q580.9 97.0 580.3 97.0L580.3 97.0Q579.7 97.0 579.2 97.4Q578.8 97.7 578.6 98.3Q578.4 98.8 578.4 99.6L578.4 99.6Q578.4 100.4 578.6 101.0Q578.8 101.6 579.2 101.9Q579.7 102.3 580.3 102.3ZM586.2 92.4L588.5 92.4L588.5 104L586.2 104L586.2 92.4ZM594.4 104.2L594.4 104.2Q593.1 104.2 592.1 103.6Q591.2 103.0 590.7 102.0Q590.1 101.0 590.1 99.7L590.1 99.7Q590.1 98.3 590.7 97.3Q591.2 96.3 592.1 95.7Q593.1 95.2 594.4 95.2L594.4 95.2Q595.7 95.2 596.7 95.7Q597.6 96.3 598.2 97.3Q598.7 98.3 598.7 99.7L598.7 99.7Q598.7 101.0 598.2 102.0Q597.6 103.0 596.7 103.6Q595.7 104.2 594.4 104.2ZM594.4 102.3L594.4 102.3Q595.0 102.3 595.5 102.0Q595.9 101.6 596.1 101.0Q596.3 100.4 596.3 99.7L596.3 99.7Q596.3 98.9 596.1 98.3Q595.9 97.7 595.5 97.3Q595.0 97 594.4 97L594.4 97Q593.8 97 593.4 97.3Q593.0 97.7 592.7 98.3Q592.5 98.9 592.5 99.7L592.5 99.7Q592.5 100.4 592.7 101.0Q593.0 101.6 593.4 102.0Q593.8 102.3 594.4 102.3ZM600.3 107.1L600.3 107.1L600.8 105.3L601.1 105.4Q601.6 105.5 601.9 105.5Q602.3 105.4 602.5 105.2Q602.7 104.9 602.8 104.5L602.8 104.5L602.8 104.0L599.6 95.3L602.1 95.3L603.5 99.8Q603.8 100.7 604.0 101.5L604.0 101.5Q604.0 101.8 604.1 102.1L604.1 102.1Q604.1 101.8 604.2 101.5L604.2 101.5Q604.4 100.6 604.7 99.8L604.7 99.8L606.2 95.3L608.7 95.3L605.0 105.0Q604.7 105.7 604.3 106.3Q603.9 106.8 603.3 107.0Q602.7 107.3 601.8 107.3L601.8 107.3Q601.3 107.3 600.9 107.3Q600.5 107.2 600.3 107.1Z "/></g><mask id="satori_om-id-3-2"><rect x="554" y="115" width="200" height="16" fill="#fff" mask="url(#satori_om-id)"/></mask><g mask="url(#satori_om-id)" clip-path="url(#satori_cp-id)"><path fill="#ffffff" d="M556.3 128L555.1 128L555.1 118.5L558.4 118.5Q559.5 118.5 560.2 118.9Q560.9 119.3 561.3 120.0Q561.6 120.6 561.6 121.5Q561.6 122.3 561.3 123.0Q560.9 123.6 560.2 124.0L560.2 124.0Q560.0 124.1 559.9 124.1L559.9 124.1L562.0 128L560.6 128L558.6 124.3Q558.5 124.3 558.4 124.3L558.4 124.3L556.3 124.3L556.3 128ZM556.3 119.6L556.3 123.3L558.3 123.3Q559.1 123.3 559.5 123.0Q560.0 122.8 560.2 122.4Q560.4 122.0 560.4 121.5L560.4 121.5Q560.4 120.9 560.2 120.5Q560.0 120.1 559.5 119.8Q559.1 119.6 558.3 119.6L558.3 119.6L556.3 119.6ZM569.3 128L563.5 128L563.5 118.5L569.3 118.5L569.3 119.6L564.7 119.6L564.7 122.7L569.0 122.7L569.0 123.8L564.7 123.8L564.7 126.9L569.3 126.9L569.3 128ZM571.8 128L570.5 128L573.9 118.5L575.3 118.5L578.8 128L577.5 128L576.6 125.4L572.7 125.4L571.8 128ZM573.1 124.3L576.2 124.3L575.5 122.4Q575.4 121.9 575.1 121.1L575.1 121.1Q574.9 120.4 574.6 119.5L574.6 119.5Q574.4 120.5 574.2 121.1L574.2 121.1Q573.9 121.9 573.7 122.4L573.7 122.4L573.1 124.3ZM583.2 128L583.2 128L580.3 128L580.3 118.5L583.4 118.5Q584.7 118.5 585.7 119.1Q586.7 119.7 587.2 120.7Q587.8 121.8 587.8 123.3L587.8 123.3Q587.8 124.7 587.2 125.8Q586.7 126.9 585.7 127.4Q584.7 128 583.2 128ZM581.5 119.6L581.5 126.9L583.2 126.9Q584.3 126.9 585.1 126.5Q585.8 126.1 586.2 125.2Q586.6 124.4 586.6 123.3L586.6 123.3Q586.6 122.1 586.2 121.3Q585.8 120.5 585.1 120.0Q584.4 119.6 583.3 119.6L583.3 119.6L581.5 119.6ZM590.8 128L589.7 128L589.7 118.5L591.4 118.5L593.7 124.5Q593.8 124.7 593.9 125.0Q594.0 125.3 594.1 125.7Q594.2 126.1 594.4 126.4L594.4 126.4Q594.4 126.6 594.4 126.7L594.4 126.7Q594.4 126.6 594.5 126.5L594.5 126.5Q594.6 126.1 594.7 125.7Q594.8 125.4 594.9 125.0Q595.0 124.7 595.1 124.5L595.1 124.5L597.4 118.5L599.1 118.5L599.1 128L597.9 128L597.9 122.6Q597.9 122.3 597.9 121.9Q598.0 121.6 598.0 121.1Q598.0 120.7 598.0 120.3L598.0 120.3Q598.0 120.1 598.0 119.8L598.0 119.8Q597.9 120.1 597.8 120.4L597.8 120.4Q597.7 120.8 597.5 121.2Q597.4 121.7 597.3 122.0Q597.1 122.4 597.0 122.6L597.0 122.6L594.9 128L593.9 128L591.7 122.6Q591.6 122.4 591.5 122.0Q591.4 121.7 591.3 121.3Q591.1 120.9 591.0 120.4L591.0 120.4Q590.9 120.1 590.8 119.8L590.8 119.8Q590.8 120.0 590.8 120.2L590.8 120.2Q590.8 120.7 590.8 121.1Q590.8 121.5 590.8 121.9Q590.8 122.3 590.8 122.6L590.8 122.6L590.8 128ZM607.2 128L601.4 128L601.4 118.5L607.2 118.5L607.2 119.6L602.6 119.6L602.6 122.7L606.9 122.7L606.9 123.8L602.6 123.8L602.6 126.9L607.2 126.9L607.2 128ZM610.0 128.1L610.0 128.1Q609.6 128.1 609.4 127.8Q609.1 127.6 609.1 127.2L609.1 127.2Q609.1 126.9 609.4 126.6Q609.6 126.4 610.0 126.4L610.0 126.4Q610.3 126.4 610.6 126.6Q610.8 126.9 610.8 127.2L610.8 127.2Q610.8 127.6 610.6 127.8Q610.3 128.1 610.0 128.1ZM614.0 128L612.8 128L612.8 120.9L613.9 120.9L614.0 122.2Q614.1 121.8 614.3 121.5L614.3 121.5Q614.6 121.2 615.1 121.0Q615.5 120.8 615.9 120.8L615.9 120.8Q616.7 120.8 617.2 121.3L617.2 121.3Q617.6 121.6 617.7 122.2L617.7 122.2Q617.9 121.9 618.1 121.6L618.1 121.6Q618.5 121.2 618.9 121.0Q619.4 120.8 620.0 120.8L620.0 120.8Q620.6 120.8 621.1 121.0Q621.6 121.3 621.9 121.8Q622.2 122.4 622.2 123.2L622.2 123.2L622.2 128L621.1 128L621.1 123.2Q621.1 122.5 620.6 122.1Q620.2 121.8 619.6 121.8L619.6 121.8Q619.2 121.8 618.8 122.0Q618.5 122.2 618.3 122.6Q618.1 122.9 618.1 123.4L618.1 123.4L618.1 128L617.0 128L617.0 123.1Q617.0 122.5 616.6 122.2Q616.2 121.8 615.6 121.8L615.6 121.8Q615.2 121.8 614.8 122.0Q614.4 122.2 614.2 122.6Q614.0 123.0 614.0 123.5L614.0 123.5L614.0 128ZM626.9 128.2L626.9 128.2Q626.0 128.2 625.3 127.7Q624.6 127.3 624.3 126.4Q623.9 125.6 623.9 124.5L623.9 124.5Q623.9 123.3 624.3 122.5Q624.6 121.7 625.3 121.3Q626.0 120.8 626.9 120.8L626.9 120.8Q627.6 120.8 628.0 121.0Q628.4 121.3 628.6 121.6Q628.8 121.8 628.9 122.0L628.9 122.0L629.0 122.0L629.0 118.5L630.2 118.5L630.2 128L629.1 128L629.1 126.9L628.9 126.9Q628.8 127.1 628.6 127.4Q628.4 127.7 628.0 127.9Q627.6 128.2 626.9 128.2ZM627.1 127.1L627.1 127.1Q627.7 127.1 628.1 126.8Q628.6 126.5 628.8 125.8Q629.0 125.2 629.0 124.5L629.0 124.5Q629.0 123.7 628.8 123.1Q628.6 122.5 628.2 122.2Q627.7 121.8 627.1 121.8L627.1 121.8Q626.4 121.8 625.9 122.2Q625.5 122.5 625.3 123.1Q625.0 123.7 625.0 124.5L625.0 124.5Q625.0 125.2 625.3 125.8Q625.5 126.4 625.9 126.8Q626.4 127.1 627.1 127.1Z M638.6 128L637.4 128L635.3 120.9L636.5 120.9L637.4 124.0Q637.5 124.6 637.7 125.4L637.7 125.4Q637.9 126.0 638.0 126.8L638.0 126.8Q638.2 126.1 638.3 125.5L638.3 125.5Q638.5 124.7 638.7 124.0L638.7 124.0L639.6 120.9L640.8 120.9L641.6 124.0Q641.8 124.7 642.0 125.5L642.0 125.5Q642.1 126.1 642.3 126.8L642.3 126.8Q642.4 126.1 642.6 125.5L642.6 125.5Q642.8 124.7 643.0 124.0L643.0 124.0L643.8 120.9L645.0 120.9L642.9 128L641.7 128L640.8 124.8Q640.7 124.3 640.6 123.8Q640.4 123.3 640.3 122.8L640.3 122.8Q640.2 122.5 640.2 122.2L640.2 122.2Q640.1 122.5 640.0 122.7L640.0 122.7Q639.9 123.3 639.8 123.8Q639.6 124.3 639.5 124.8L639.5 124.8L638.6 128ZM647.6 128L646.5 128L646.5 120.9L647.6 120.9L647.6 128ZM647.1 119.7L647.1 119.7Q646.7 119.7 646.5 119.5Q646.3 119.3 646.3 119.0L646.3 119.0Q646.3 118.7 646.5 118.4Q646.7 118.2 647.1 118.2L647.1 118.2Q647.4 118.2 647.6 118.4Q647.9 118.7 647.9 119.0L647.9 119.0Q647.9 119.3 647.6 119.5Q647.4 119.7 647.1 119.7ZM651.0 120.9L652.4 120.9L652.4 121.9L651.0 121.9L651.0 126.2Q651.0 126.6 651.2 126.9Q651.3 127.1 651.8 127.1L651.8 127.1Q651.9 127.1 652.1 127.0Q652.2 127.0 652.4 127.0L652.4 127.0L652.6 128.0Q652.4 128.0 652.2 128.1Q652.0 128.1 651.8 128.1L651.8 128.1Q650.8 128.1 650.3 127.6Q649.8 127.1 649.8 126.2L649.8 126.2L649.8 121.9L648.8 121.9L648.8 120.9L649.8 120.9L649.8 119.2L651.0 119.2L651.0 120.9ZM655.0 123.7L655.0 123.7L655.0 128L653.9 128L653.9 118.5L655.0 118.5L655.0 122.1Q655.3 121.5 655.8 121.2L655.8 121.2Q656.3 120.8 657.2 120.8L657.2 120.8Q657.9 120.8 658.4 121.1Q659.0 121.4 659.3 122.0Q659.6 122.6 659.6 123.5L659.6 123.5L659.6 128L658.4 128L658.4 123.6Q658.4 122.8 658.0 122.3Q657.6 121.8 656.8 121.8L656.8 121.8Q656.3 121.8 655.9 122.1Q655.5 122.3 655.3 122.7Q655.0 123.1 655.0 123.7Z M666.4 128L665.2 128L665.2 120.9L666.4 120.9L666.4 128ZM665.8 119.7L665.8 119.7Q665.5 119.7 665.2 119.5Q665.0 119.3 665.0 119.0L665.0 119.0Q665.0 118.7 665.2 118.4Q665.5 118.2 665.8 118.2L665.8 118.2Q666.1 118.2 666.4 118.4Q666.6 118.7 666.6 119.0L666.6 119.0Q666.6 119.3 666.4 119.5Q666.1 119.7 665.8 119.7ZM669.5 128L668.4 128L668.4 120.9L669.5 120.9L669.5 122.2Q669.6 121.8 669.9 121.5L669.9 121.5Q670.2 121.2 670.6 121.0Q671.0 120.8 671.5 120.8L671.5 120.8Q672.3 120.8 672.7 121.3L672.7 121.3Q673.1 121.6 673.3 122.2L673.3 122.2Q673.4 121.9 673.7 121.6L673.7 121.6Q674.0 121.2 674.5 121.0Q675.0 120.8 675.5 120.8L675.5 120.8Q676.1 120.8 676.6 121.0Q677.2 121.3 677.5 121.8Q677.8 122.4 677.8 123.2L677.8 123.2L677.8 128L676.6 128L676.6 123.2Q676.6 122.5 676.2 122.1Q675.7 121.8 675.2 121.8L675.2 121.8Q674.7 121.8 674.4 122.0Q674.0 122.2 673.8 122.6Q673.6 122.9 673.6 123.4L673.6 123.4L673.6 128L672.5 128L672.5 123.1Q672.5 122.5 672.1 122.2Q671.7 121.8 671.1 121.8L671.1 121.8Q670.7 121.8 670.3 122.0Q670.0 122.2 669.7 122.6Q669.5 123.0 669.5 123.5L669.5 123.5L669.5 128ZM681.7 128.2L681.7 128.2Q681.1 128.2 680.5 127.9Q680.0 127.7 679.7 127.2Q679.3 126.7 679.3 126.0L679.3 126.0Q679.3 125.4 679.6 125.0Q679.8 124.6 680.2 124.4Q680.6 124.2 681.1 124.1Q681.6 124.0 682.1 123.9L682.1 123.9Q682.7 123.8 683.1 123.8Q683.5 123.7 683.7 123.6Q683.9 123.5 683.9 123.2L683.9 123.2L683.9 123.2Q683.9 122.8 683.7 122.5Q683.6 122.1 683.3 122.0Q682.9 121.8 682.4 121.8L682.4 121.8Q681.9 121.8 681.6 122.0Q681.2 122.1 681.0 122.4Q680.7 122.6 680.6 122.9L680.6 122.9L679.5 122.5Q679.8 121.8 680.3 121.5Q680.7 121.1 681.3 121.0Q681.8 120.8 682.4 120.8L682.4 120.8Q682.7 120.8 683.2 120.9Q683.7 121.0 684.1 121.2Q684.5 121.5 684.8 122.0Q685.1 122.5 685.1 123.3L685.1 123.3L685.1 128L683.9 128L683.9 127.0L683.9 127.0Q683.7 127.3 683.5 127.5Q683.2 127.8 682.8 128.0Q682.3 128.2 681.7 128.2ZM681.9 127.2L681.9 127.2Q682.6 127.2 683.0 126.9Q683.5 126.7 683.7 126.3Q683.9 125.9 683.9 125.4L683.9 125.4L683.9 124.5Q683.8 124.5 683.6 124.6Q683.4 124.7 683.1 124.7Q682.8 124.8 682.5 124.8Q682.2 124.8 682.0 124.9L682.0 124.9Q681.6 124.9 681.3 125.0Q680.9 125.2 680.7 125.4Q680.5 125.6 680.5 126.0L680.5 126.0Q680.5 126.4 680.7 126.7Q680.9 126.9 681.2 127.0Q681.5 127.2 681.9 127.2ZM689.9 130.8L689.9 130.8Q689.1 130.8 688.6 130.6Q688.0 130.4 687.6 130.1Q687.2 129.7 687.0 129.4L687.0 129.4L687.9 128.8Q688.1 129.0 688.3 129.2Q688.5 129.5 688.9 129.6Q689.3 129.8 689.9 129.8L689.9 129.8Q690.8 129.8 691.3 129.4Q691.9 129.0 691.9 128.1L691.9 128.1L691.9 126.7L691.8 126.7Q691.7 126.9 691.4 127.2Q691.2 127.5 690.8 127.7Q690.4 127.9 689.7 127.9L689.7 127.9Q688.9 127.9 688.2 127.5Q687.5 127.1 687.1 126.3Q686.7 125.5 686.7 124.4L686.7 124.4Q686.7 123.3 687.1 122.5Q687.5 121.7 688.2 121.3Q688.9 120.8 689.7 120.8L689.7 120.8Q690.4 120.8 690.8 121.0Q691.2 121.3 691.5 121.6Q691.7 121.8 691.8 122.0L691.8 122.0L691.9 122.0L691.9 120.9L693.0 120.9L693.0 128.2Q693.0 129.1 692.6 129.7Q692.2 130.3 691.5 130.5Q690.8 130.8 689.9 130.8ZM689.9 126.9L689.9 126.9Q690.6 126.9 691.0 126.6Q691.4 126.3 691.7 125.7Q691.9 125.2 691.9 124.4L691.9 124.4Q691.9 123.6 691.7 123.1Q691.4 122.5 691.0 122.2Q690.6 121.8 689.9 121.8L689.9 121.8Q689.2 121.8 688.8 122.2Q688.3 122.5 688.1 123.1Q687.9 123.7 687.9 124.4L687.9 124.4Q687.9 125.1 688.1 125.7Q688.3 126.2 688.8 126.6Q689.2 126.9 689.9 126.9ZM698.0 128.2L698.0 128.2Q697.0 128.2 696.2 127.7Q695.5 127.2 695.1 126.4Q694.7 125.6 694.7 124.5Q694.7 123.4 695.1 122.6Q695.5 121.8 696.2 121.3Q696.9 120.8 697.9 120.8L697.9 120.8Q698.4 120.8 699.0 121.0Q699.5 121.2 700.0 121.6Q700.4 122.0 700.7 122.7Q701.0 123.4 701.0 124.4L701.0 124.4L701.0 124.8L695.8 124.8Q695.9 125.5 696.1 126.0L696.1 126.0Q696.4 126.6 696.9 126.9Q697.4 127.1 698.0 127.1L698.0 127.1Q698.4 127.1 698.8 127.0Q699.1 126.9 699.4 126.7Q699.6 126.4 699.8 126.0L699.8 126.0L700.9 126.3Q700.7 126.9 700.3 127.3Q699.9 127.7 699.3 127.9Q698.7 128.2 698.0 128.2ZM695.9 123.9L695.9 123.9L699.8 123.9Q699.8 123.4 699.6 123.0L699.6 123.0Q699.4 122.4 699.0 122.1Q698.5 121.8 697.9 121.8Q697.2 121.8 696.8 122.1Q696.3 122.5 696.1 123.0L696.1 123.0Q695.9 123.4 695.9 123.9ZM705.0 128.2L705.0 128.2Q704.3 128.2 703.7 127.9Q703.2 127.7 702.8 127.3Q702.4 126.9 702.3 126.3L702.3 126.3L703.4 126.0Q703.5 126.6 704.0 126.9Q704.4 127.1 705.0 127.1L705.0 127.1Q705.8 127.1 706.2 126.8Q706.6 126.5 706.6 126.1L706.6 126.1Q706.6 125.7 706.4 125.5Q706.1 125.2 705.6 125.1L705.6 125.1L704.4 124.8Q703.4 124.6 703.0 124.1Q702.5 123.6 702.5 122.9L702.5 122.9Q702.5 122.3 702.9 121.8Q703.2 121.3 703.8 121.1Q704.4 120.8 705.1 120.8L705.1 120.8Q705.9 120.8 706.4 121.0Q706.9 121.3 707.2 121.6Q707.5 122.0 707.7 122.5L707.7 122.5L706.7 122.8Q706.5 122.4 706.2 122.1Q705.8 121.8 705.1 121.8L705.1 121.8Q704.5 121.8 704.1 122.1Q703.7 122.4 703.7 122.8L703.7 122.8Q703.7 123.2 704.0 123.4Q704.2 123.7 704.9 123.8L704.9 123.8L705.9 124.1Q706.9 124.3 707.4 124.8Q707.8 125.3 707.8 126.0L707.8 126.0Q707.8 126.6 707.5 127.1Q707.1 127.6 706.5 127.9Q705.9 128.2 705.0 128.2Z "/></g><mask id="satori_om-id-3-3"><rect x="554" y="139" width="200" height="15" fill="#fff" mask="url(#satori_om-id)"/></mask><g mask="url(#satori_om-id)" clip-path="url(#satori_cp-id)"><path fill="rgba(220,210,255,0.85)" d="M558.0 151L556.7 151L554.3 142.3L555.4 142.3L556.8 147.6Q556.9 148.1 557.0 148.5Q557.1 148.9 557.2 149.4L557.2 149.4Q557.3 149.7 557.3 150.0L557.3 150.0Q557.4 149.7 557.5 149.4L557.5 149.4Q557.5 148.9 557.7 148.5Q557.8 148.1 557.9 147.6L557.9 147.6L559.3 142.3L560.5 142.3L561.9 147.6Q562.1 148.1 562.2 148.5Q562.3 148.9 562.4 149.4L562.4 149.4Q562.4 149.7 562.5 149.9L562.5 149.9Q562.5 149.7 562.6 149.4L562.6 149.4Q562.7 148.9 562.8 148.5Q562.9 148.1 563.0 147.6L563.0 147.6L564.4 142.3L565.5 142.3L563.1 151L561.8 151L560.3 145.5Q560.2 144.9 560.1 144.3L560.1 144.3Q560.0 143.9 559.9 143.5L559.9 143.5Q559.8 143.9 559.8 144.2L559.8 144.2Q559.6 144.8 559.5 145.5L559.5 145.5L558.0 151ZM569.4 151.1L569.4 151.1Q568.5 151.1 567.9 150.7Q567.2 150.3 566.8 149.5Q566.4 148.8 566.4 147.8L566.4 147.8Q566.4 146.7 566.8 146.0Q567.2 145.2 567.9 144.8Q568.5 144.4 569.4 144.4L569.4 144.4Q570.3 144.4 571.0 144.8Q571.7 145.2 572.0 146.0Q572.4 146.7 572.4 147.8L572.4 147.8Q572.4 148.8 572.0 149.5Q571.7 150.3 571.0 150.7Q570.3 151.1 569.4 151.1ZM569.4 150.2L569.4 150.2Q570.1 150.2 570.5 149.9Q570.9 149.5 571.1 149.0Q571.3 148.4 571.3 147.8L571.3 147.8Q571.3 147.1 571.1 146.6Q570.9 146.0 570.5 145.7Q570.1 145.3 569.4 145.3L569.4 145.3Q568.8 145.3 568.3 145.7Q567.9 146.0 567.7 146.6Q567.5 147.1 567.5 147.8L567.5 147.8Q567.5 148.4 567.7 149.0Q567.9 149.5 568.3 149.9Q568.8 150.2 569.4 150.2ZM575 151L573.9 151L573.9 144.4L575.0 144.4L575.0 145.5L575.0 145.5Q575.2 145.0 575.7 144.7Q576.1 144.4 576.7 144.4L576.7 144.4Q576.9 144.4 577.0 144.4Q577.2 144.4 577.3 144.4L577.3 144.4L577.3 145.4Q577.2 145.4 577.0 145.4Q576.8 145.4 576.6 145.4L576.6 145.4Q576.2 145.4 575.8 145.6Q575.4 145.8 575.2 146.1Q575 146.5 575 146.9L575 146.9L575 151ZM579.5 151L578.5 151L578.5 142.3L579.5 142.3L579.5 147.3L579.6 147.3L582.4 144.4L583.8 144.4L581.0 147.3L584.0 151L582.6 151L580.2 147.9L579.5 148.6L579.5 151ZM587.3 151.1L587.3 151.1Q586.6 151.1 586.1 150.9Q585.6 150.7 585.2 150.4Q584.9 150.0 584.8 149.4L584.8 149.4L585.8 149.2Q585.9 149.7 586.3 150.0Q586.7 150.2 587.3 150.2L587.3 150.2Q587.9 150.2 588.4 149.9Q588.8 149.6 588.8 149.2L588.8 149.2Q588.8 148.9 588.5 148.7Q588.3 148.4 587.8 148.3L587.8 148.3L586.7 148.1Q585.8 147.9 585.4 147.4Q585.0 147.0 585.0 146.3L585.0 146.3Q585.0 145.7 585.3 145.3Q585.6 144.9 586.1 144.6Q586.7 144.4 587.4 144.4L587.4 144.4Q588.1 144.4 588.5 144.6Q589.0 144.8 589.3 145.1Q589.6 145.5 589.7 145.9L589.7 145.9L588.8 146.2Q588.6 145.8 588.3 145.6Q588.0 145.3 587.4 145.3L587.4 145.3Q586.8 145.3 586.4 145.5Q586.0 145.8 586.0 146.2L586.0 146.2Q586.0 146.6 586.3 146.8Q586.5 147.0 587.1 147.2L587.1 147.2L588.1 147.4Q589.0 147.6 589.4 148.0Q589.9 148.5 589.9 149.2L589.9 149.2Q589.9 149.7 589.5 150.2Q589.2 150.6 588.6 150.9Q588.0 151.1 587.3 151.1Z M597.4 151.1L597.4 151.1Q596.5 151.1 595.9 150.7Q595.2 150.3 594.8 149.5Q594.4 148.8 594.4 147.8L594.4 147.8Q594.4 146.7 594.8 146.0Q595.2 145.2 595.9 144.8Q596.5 144.4 597.4 144.4L597.4 144.4Q598.3 144.4 599.0 144.8Q599.7 145.2 600.0 146.0Q600.4 146.7 600.4 147.8L600.4 147.8Q600.4 148.8 600.0 149.5Q599.7 150.3 599.0 150.7Q598.3 151.1 597.4 151.1ZM597.4 150.2L597.4 150.2Q598.1 150.2 598.5 149.9Q598.9 149.5 599.1 149.0Q599.4 148.4 599.4 147.8L599.4 147.8Q599.4 147.1 599.1 146.6Q598.9 146.0 598.5 145.7Q598.1 145.3 597.4 145.3L597.4 145.3Q596.8 145.3 596.3 145.7Q595.9 146.0 595.7 146.6Q595.5 147.1 595.5 147.8L595.5 147.8Q595.5 148.4 595.7 149.0Q595.9 149.5 596.3 149.9Q596.8 150.2 597.4 150.2ZM603.0 147.1L603.0 147.1L603.0 151L602.0 151L602.0 144.4L603.0 144.4L603.0 145.7Q603.2 145.0 603.7 144.7L603.7 144.7Q604.2 144.4 605.0 144.4L605.0 144.4Q605.6 144.4 606.1 144.6Q606.6 144.9 606.9 145.5Q607.2 146.0 607.2 146.8L607.2 146.8L607.2 151L606.1 151L606.1 146.9Q606.1 146.2 605.7 145.7Q605.3 145.3 604.7 145.3L604.7 145.3Q604.2 145.3 603.8 145.5Q603.4 145.7 603.2 146.1Q603.0 146.5 603.0 147.1Z M614.3 151.2L614.3 151.2Q613.6 151.2 613.1 150.9Q612.6 150.7 612.3 150.2Q612.0 149.8 612.0 149.1L612.0 149.1Q612.0 148.6 612.2 148.2Q612.5 147.9 612.8 147.7Q613.2 147.5 613.7 147.4Q614.1 147.3 614.6 147.2L614.6 147.2Q615.2 147.1 615.5 147.1Q615.9 147.1 616.1 147.0Q616.3 146.9 616.3 146.6L616.3 146.6L616.3 146.6Q616.3 146.2 616.1 145.9Q615.9 145.6 615.6 145.4Q615.3 145.3 614.9 145.3L614.9 145.3Q614.4 145.3 614.1 145.4Q613.7 145.6 613.5 145.8Q613.3 146.0 613.2 146.3L613.2 146.3L612.2 145.9Q612.5 145.3 612.9 145.0Q613.3 144.6 613.8 144.5Q614.3 144.4 614.8 144.4L614.8 144.4Q615.2 144.4 615.6 144.4Q616.0 144.5 616.4 144.8Q616.8 145.0 617.0 145.5Q617.3 145.9 617.3 146.7L617.3 146.7L617.3 151L616.3 151L616.3 150.1L616.2 150.1Q616.1 150.3 615.8 150.6Q615.6 150.8 615.2 151.0Q614.8 151.2 614.3 151.2ZM614.4 150.2L614.4 150.2Q615.0 150.2 615.4 150.0Q615.8 149.8 616.0 149.4Q616.3 149.0 616.3 148.6L616.3 148.6L616.3 147.7Q616.2 147.8 616.0 147.9Q615.8 147.9 615.5 148.0Q615.2 148.0 614.9 148.0Q614.7 148.1 614.5 148.1L614.5 148.1Q614.1 148.1 613.8 148.3Q613.5 148.4 613.3 148.6Q613.1 148.8 613.1 149.2L613.1 149.2Q613.1 149.5 613.3 149.8Q613.4 150.0 613.7 150.1Q614.0 150.2 614.4 150.2ZM620.2 147.1L620.2 147.1L620.2 151L619.2 151L619.2 144.4L620.2 144.4L620.2 145.7Q620.5 145.0 620.9 144.7L620.9 144.7Q621.4 144.4 622.2 144.4L622.2 144.4Q622.8 144.4 623.3 144.6Q623.8 144.9 624.1 145.5Q624.4 146.0 624.4 146.8L624.4 146.8L624.4 151L623.3 151L623.3 146.9Q623.3 146.2 622.9 145.7Q622.5 145.3 621.9 145.3L621.9 145.3Q621.4 145.3 621.0 145.5Q620.6 145.7 620.4 146.1Q620.2 146.5 620.2 147.1ZM626.1 153.4L626.1 153.4L626.4 152.5L626.5 152.5Q626.8 152.6 627.1 152.5Q627.4 152.5 627.6 152.3Q627.8 152.0 628.0 151.6L628.0 151.6L628.1 151.0L625.6 144.4L626.8 144.4L628.2 148.3Q628.4 148.9 628.6 149.5L628.6 149.5Q628.6 149.8 628.7 150.0L628.7 150.0Q628.8 149.8 628.8 149.5L628.8 149.5Q629.0 148.9 629.2 148.3L629.2 148.3L630.6 144.4L631.7 144.4L628.9 152.0Q628.7 152.5 628.4 152.8Q628.1 153.2 627.7 153.3Q627.4 153.5 626.9 153.5L626.9 153.5Q626.6 153.5 626.4 153.5Q626.2 153.4 626.1 153.4Z M640.1 151.1L640.1 151.1Q638.9 151.1 638.0 150.6Q637.1 150.0 636.6 149.0Q636.2 148.0 636.2 146.6L636.2 146.6Q636.2 145.3 636.6 144.2Q637.1 143.2 638.0 142.7Q638.9 142.2 640.0 142.2L640.0 142.2Q640.7 142.2 641.3 142.4Q641.9 142.6 642.4 142.9Q642.8 143.3 643.1 143.8Q643.5 144.4 643.6 145.0L643.6 145.0L642.4 145.0Q642.3 144.6 642.1 144.3Q641.8 143.9 641.5 143.7Q641.2 143.4 640.8 143.3Q640.5 143.2 640.0 143.2L640.0 143.2Q639.2 143.2 638.6 143.6Q638.0 144.0 637.6 144.7Q637.2 145.5 637.2 146.6L637.2 146.6Q637.2 147.8 637.6 148.5Q638.0 149.3 638.6 149.7Q639.3 150.1 640.1 150.1L640.1 150.1Q640.8 150.1 641.4 149.8Q641.9 149.5 642.2 148.9L642.2 148.9Q642.5 148.3 642.6 147.6L642.6 147.6L640.3 147.6L640.3 146.6L643.6 146.6L643.6 147.6Q643.6 148.7 643.2 149.4Q642.7 150.2 641.9 150.7Q641.1 151.1 640.1 151.1ZM646.4 151L645.3 151L645.3 144.4L646.4 144.4L646.4 151ZM645.9 143.4L645.9 143.4Q645.6 143.4 645.3 143.2Q645.1 143.0 645.1 142.7L645.1 142.7Q645.1 142.4 645.3 142.2Q645.6 142.0 645.9 142.0L645.9 142.0Q646.2 142.0 646.4 142.2Q646.6 142.4 646.6 142.7L646.6 142.7Q646.6 143.0 646.4 143.2Q646.2 143.4 645.9 143.4ZM649.5 144.4L650.8 144.4L650.8 145.4L649.5 145.4L649.5 149.3Q649.5 149.7 649.6 149.9Q649.8 150.1 650.2 150.1L650.2 150.1Q650.3 150.1 650.5 150.1Q650.6 150.1 650.8 150.1L650.8 150.1L651.0 151.0Q650.8 151.0 650.6 151.1Q650.4 151.1 650.2 151.1L650.2 151.1Q649.3 151.1 648.9 150.6Q648.4 150.2 648.4 149.4L648.4 149.4L648.4 145.4L647.4 145.4L647.4 144.4L648.4 144.4L648.4 142.9L649.5 142.9L649.5 144.4ZM653.4 151L652.3 151L652.3 142.3L653.4 142.3L653.4 146.0L658.0 146.0L658.0 142.3L659.1 142.3L659.1 151L658.0 151L658.0 147.0L653.4 147.0L653.4 151ZM663.3 151.1L663.3 151.1Q662.6 151.1 662.1 150.8Q661.6 150.5 661.3 150.0Q661.1 149.4 661.1 148.6L661.1 148.6L661.1 144.4L662.1 144.4L662.1 148.5Q662.1 149.3 662.5 149.7Q662.9 150.1 663.6 150.1L663.6 150.1Q664.1 150.1 664.4 149.9Q664.8 149.7 665.0 149.3Q665.3 148.9 665.3 148.4L665.3 148.4L665.3 144.4L666.3 144.4L666.3 151L665.3 151L665.3 149.8Q665.0 150.4 664.6 150.7L664.6 150.7Q664.0 151.1 663.3 151.1ZM671.2 151.1L671.2 151.1Q670.6 151.1 670.2 150.9Q669.8 150.7 669.6 150.4Q669.4 150.2 669.3 150.0L669.3 150.0L669.2 150.0L669.2 151L668.2 151L668.2 142.3L669.2 142.3L669.2 145.5L669.3 145.5Q669.4 145.3 669.6 145.1Q669.8 144.8 670.2 144.6Q670.6 144.4 671.2 144.4L671.2 144.4Q672.0 144.4 672.6 144.8Q673.3 145.2 673.6 145.9Q674.0 146.7 674.0 147.7L674.0 147.7Q674.0 148.8 673.6 149.5Q673.3 150.3 672.6 150.7Q672.0 151.1 671.2 151.1ZM671.0 150.2L671.0 150.2Q671.7 150.2 672.1 149.9Q672.5 149.5 672.7 149.0Q672.9 148.4 672.9 147.7L672.9 147.7Q672.9 147.1 672.7 146.5Q672.5 146.0 672.1 145.6Q671.7 145.3 671.0 145.3L671.0 145.3Q670.4 145.3 670.0 145.6Q669.6 145.9 669.4 146.5Q669.2 147.0 669.2 147.7L669.2 147.7Q669.2 148.5 669.4 149.0Q669.6 149.6 670.0 149.9Q670.5 150.2 671.0 150.2Z M679.9 151L678.9 151L678.9 144.4L679.9 144.4L679.9 145.5L680.0 145.5Q680.2 145.0 680.6 144.7Q681.1 144.4 681.7 144.4L681.7 144.4Q681.8 144.4 682.0 144.4Q682.1 144.4 682.2 144.4L682.2 144.4L682.2 145.4Q682.2 145.4 682.0 145.4Q681.8 145.4 681.6 145.4L681.6 145.4Q681.1 145.4 680.7 145.6Q680.4 145.8 680.2 146.1Q679.9 146.5 679.9 146.9L679.9 146.9L679.9 151ZM686.2 151.1L686.2 151.1Q685.2 151.1 684.5 150.7Q683.8 150.3 683.5 149.5Q683.1 148.8 683.1 147.8Q683.1 146.8 683.5 146.0Q683.8 145.2 684.5 144.8Q685.1 144.4 686.0 144.4L686.0 144.4Q686.6 144.4 687.1 144.5Q687.6 144.7 688.0 145.1Q688.4 145.5 688.6 146.1Q688.9 146.7 688.9 147.6L688.9 147.6L688.9 148.1L684.2 148.1Q684.2 148.7 684.4 149.2L684.4 149.2Q684.7 149.7 685.1 149.9Q685.6 150.2 686.2 150.2L686.2 150.2Q686.6 150.2 686.9 150.1Q687.2 150.0 687.4 149.8Q687.6 149.5 687.8 149.2L687.8 149.2L688.8 149.5Q688.6 150.0 688.3 150.3Q687.9 150.7 687.4 150.9Q686.8 151.1 686.2 151.1ZM684.2 147.2L684.2 147.2L687.8 147.2Q687.8 146.7 687.6 146.4L687.6 146.4Q687.4 145.9 687.0 145.6Q686.6 145.3 686.0 145.3Q685.4 145.3 685.0 145.6Q684.6 145.9 684.4 146.3L684.4 146.3Q684.2 146.7 684.2 147.2ZM691.5 153.4L690.4 153.4L690.4 144.4L691.4 144.4L691.4 145.5L691.5 145.5Q691.6 145.3 691.8 145.1Q692.0 144.8 692.4 144.6Q692.8 144.4 693.4 144.4L693.4 144.4Q694.3 144.4 694.9 144.8Q695.5 145.2 695.9 145.9Q696.2 146.7 696.2 147.7L696.2 147.7Q696.2 148.8 695.9 149.5Q695.5 150.3 694.9 150.7Q694.3 151.1 693.4 151.1L693.4 151.1Q692.8 151.1 692.4 150.9Q692.1 150.7 691.9 150.4Q691.6 150.2 691.5 150.0L691.5 150.0L691.5 150.0L691.5 153.4ZM693.3 150.2L693.3 150.2Q693.9 150.2 694.3 149.9Q694.7 149.5 694.9 149.0Q695.1 148.4 695.1 147.7L695.1 147.7Q695.1 147.1 694.9 146.5Q694.7 146.0 694.3 145.6Q693.9 145.3 693.3 145.3L693.3 145.3Q692.7 145.3 692.3 145.6Q691.9 145.9 691.7 146.5Q691.4 147.0 691.4 147.7L691.4 147.7Q691.4 148.5 691.7 149.0Q691.9 149.6 692.3 149.9Q692.7 150.2 693.3 150.2ZM700.4 151.1L700.4 151.1Q699.5 151.1 698.9 150.7Q698.2 150.3 697.8 149.5Q697.4 148.8 697.4 147.8L697.4 147.8Q697.4 146.7 697.8 146.0Q698.2 145.2 698.9 144.8Q699.5 144.4 700.4 144.4L700.4 144.4Q701.3 144.4 702.0 144.8Q702.7 145.2 703.0 146.0Q703.4 146.7 703.4 147.8L703.4 147.8Q703.4 148.8 703.0 149.5Q702.7 150.3 702.0 150.7Q701.3 151.1 700.4 151.1ZM700.4 150.2L700.4 150.2Q701.1 150.2 701.5 149.9Q701.9 149.5 702.1 149.0Q702.3 148.4 702.3 147.8L702.3 147.8Q702.3 147.1 702.1 146.6Q701.9 146.0 701.5 145.7Q701.1 145.3 700.4 145.3L700.4 145.3Q699.8 145.3 699.3 145.7Q698.9 146.0 698.7 146.6Q698.5 147.1 698.5 147.8L698.5 147.8Q698.5 148.4 698.7 149.0Q698.9 149.5 699.3 149.9Q699.8 150.2 700.4 150.2Z "/></g></svg>